<svg width="488" height="464" viewBox="0 0 488 464" fill="none" xmlns="http://www.w3.org/2000/svg">
<path d="M58.9581 403.765C51.9579 402.519 44.0586 394.543 32.9426 377.497C30.6891 374.041 28.7143 371.065 28.5542 370.882C27.3536 367.577 16.7634 360.16 37.586 365.512C37.6923 365.684 40.339 365.953 43.4675 366.11C55.7081 366.724 65.8465 368.581 71.2637 371.201C79.7308 375.297 81.6892 382.374 77.2655 392.89C74.4535 393.081 74.1639 395.793 73.3855 398.017L71.912 399.382C67.9798 403.025 63.4371 404.562 58.9581 403.765Z" fill="#FAC100"/>
<path d="M16.6584 345.404C16.1081 345.404 15.6695 345.715 15.2154 346.317C14.5719 347.169 14.32 347.24 13.3001 346.856C12.3102 346.482 11.9867 346.552 11.2405 347.297C9.9515 348.586 10.4871 349.621 13.5849 351.83C16.1572 353.665 17.6006 355.413 18.2137 357.436C18.4355 358.168 18.1873 358.699 17.1338 359.751C15.2671 361.613 12.9183 366.801 11.0869 373.107C9.00765 380.267 8.83981 381.658 9.95912 382.441C11.4334 383.473 13.7064 382.979 16.7288 380.969C21.1527 378.028 25.7716 374.143 27.066 372.276L28.3819 370.905L29.9702 372.87C31.82 372.066 33.9611 370.007 34.0275 364.699L28.0566 361.35L27.2116 360.276C26.7467 359.686 25.7067 358.864 24.9006 358.451C23.4796 357.722 23.4309 357.616 23.3207 354.989C23.1623 351.21 22.1224 348.967 19.6069 346.98C18.2583 345.914 17.366 345.403 16.6584 345.404ZM40.9709 366.031C40.0852 366.029 39.9224 366.078 39.9224 366.078C40.7694 371.531 38.0384 376.155 34.1462 379.266C36.7805 383.306 38.0308 385.067 40.3347 388.119C45.8244 384.641 50.7738 375.531 49.3253 366.511C47.4373 366.345 45.4808 366.211 43.4674 366.11C42.2942 366.051 41.5024 366.032 40.9709 366.031ZM58.3682 367.78C58.4711 377.653 54.9991 386.609 46.7681 395.697C50.5797 399.816 52.6276 401.475 55.7974 402.712C63.7611 396.672 68.3319 379.291 70.2723 370.776C66.9543 369.171 64.6265 368.702 58.3682 367.78ZM76.1644 374.597C76.327 374.763 76.4816 374.933 76.6325 375.104C76.5199 374.853 76.3659 374.678 76.1644 374.597ZM76.6325 375.104C78.3748 378.998 69.9187 401.942 64.3789 403.599C67.0113 402.972 69.5698 401.552 71.9116 399.382L73.3852 398.017L82.1172 399.876L77.2652 392.89C80.5141 385.166 80.3186 379.299 76.6325 375.104Z" fill="#303030"/>
<path d="M28.287 358.708C28.4136 357.255 28.6251 354.551 28.7568 352.699C29.5866 341.036 32.7642 335.657 38.8246 335.657C39.7894 335.657 41.293 336.126 42.2466 336.527C43.7054 337.14 44.4877 338.558 45.3423 339.19C46.898 339.408 50.5027 340.347 51.422 342.991C53.1907 348.079 50.552 352.566 39.871 361.69C38.6467 362.825 35.6314 365.018 35.6314 365.018C34.6722 365.054 32.5916 364.25 32.3423 363.945C31.8372 363.327 31.2945 365.248 29.2197 366.895C27.5131 367.043 28.1652 360.105 28.287 358.708Z" fill="#CCCCCC"/>
<path d="M14.1553 347.123C19.9711 349.78 20.9277 353.903 21.4483 356.924" stroke="#303030" stroke-width="0.407173"/>
<path d="M45.3423 339.19C48.4871 346.946 42.3345 352.538 38.5559 357.492L32.271 363.883" stroke="#ECECEC" stroke-width="0.622983"/>
<path d="M154.512 232.504C161.511 231.264 169.41 223.325 180.526 206.357C182.779 202.917 184.754 199.954 184.914 199.772C186.115 196.482 196.704 189.1 175.883 194.426C175.776 194.598 173.13 194.865 170.001 195.022C157.761 195.633 147.623 197.481 142.207 200.09C133.74 204.166 131.782 211.211 136.205 221.679C139.017 221.869 139.307 224.569 140.085 226.782L141.558 228.141C145.49 231.768 150.033 233.298 154.512 232.504Z" fill="#FAC100"/>
<path d="M196.809 174.41C197.36 174.411 197.798 174.721 198.252 175.32C198.896 176.168 199.148 176.239 200.167 175.856C201.157 175.484 201.481 175.553 202.227 176.295C203.516 177.578 202.98 178.608 199.883 180.807C197.31 182.634 195.867 184.374 195.254 186.388C195.032 187.116 195.28 187.645 196.334 188.692C198.2 190.546 200.549 195.71 202.381 201.987C204.46 209.114 204.627 210.498 203.508 211.278C202.034 212.306 199.761 211.813 196.739 209.813C192.315 206.885 187.697 203.018 186.402 201.16L185.086 199.795L183.498 201.751C181.648 200.951 179.507 198.901 179.441 193.618L185.412 190.284L186.257 189.215C186.721 188.627 187.761 187.809 188.567 187.398C189.988 186.673 190.037 186.567 190.147 183.952C190.306 180.19 191.346 177.958 193.861 175.979C195.209 174.919 196.102 174.41 196.809 174.41ZM172.498 194.943C173.384 194.941 173.546 194.99 173.546 194.99C172.699 200.418 175.43 205.021 179.322 208.118C176.688 212.139 175.438 213.892 173.134 216.93C167.645 213.468 162.696 204.4 164.144 195.421C166.032 195.256 167.988 195.122 170.002 195.022C171.175 194.963 171.966 194.944 172.498 194.943ZM155.101 196.684C154.999 206.512 158.47 215.427 166.701 224.474C162.89 228.573 160.842 230.225 157.672 231.456C149.709 225.443 145.138 208.142 143.198 199.667C146.516 198.069 148.843 197.602 155.101 196.684ZM137.306 203.47C137.144 203.635 136.989 203.804 136.838 203.975C136.951 203.724 137.105 203.551 137.306 203.47ZM136.838 203.975C135.096 207.851 143.551 230.69 149.091 232.34C146.459 231.715 143.9 230.301 141.559 228.141L140.085 226.782L131.354 228.633L136.205 221.679C132.957 213.991 133.152 208.15 136.838 203.975Z" fill="#303030"/>
<path d="M185.181 187.654C185.055 186.207 184.843 183.515 184.711 181.672C183.882 170.063 180.704 164.709 174.644 164.709C173.679 164.709 172.176 165.175 171.222 165.574C169.764 166.185 168.981 167.596 168.127 168.225C166.571 168.442 162.967 169.377 162.047 172.009C160.279 177.074 162.917 181.54 173.598 190.622C174.822 191.752 177.837 193.935 177.837 193.935C178.796 193.97 180.877 193.17 181.126 192.866C181.631 192.251 182.174 194.164 184.249 195.803C185.955 195.951 185.303 189.044 185.181 187.654Z" fill="#CCCCCC"/>
<path d="M199.312 176.122C193.497 178.766 192.54 182.87 192.02 185.878" stroke="#303030" stroke-width="0.407173"/>
<path d="M168.127 168.225C164.982 175.945 171.134 181.512 174.913 186.444L181.198 192.805" stroke="#ECECEC" stroke-width="0.622983"/>
<path d="M380.196 362.568C382.46 355.829 379.274 345.093 369.704 327.207C367.764 323.582 366.109 320.429 366.026 320.201C363.713 317.572 362.305 304.74 357.007 325.569C357.107 325.744 356.074 328.195 354.713 331.016C349.386 342.053 346.153 351.838 345.848 357.843C345.371 367.228 350.616 372.321 361.924 373.452C363.438 371.075 365.947 372.114 368.262 372.491L370.161 371.849C375.228 370.134 378.747 366.88 380.196 362.568Z" fill="#FAC100"/>
<path d="M349.461 297.611C349.725 297.129 350.207 296.892 350.95 296.78C352.003 296.622 352.186 296.435 352.338 295.356C352.486 294.309 352.702 294.058 353.711 293.759C355.454 293.241 356.102 294.205 356.548 297.978C356.919 301.11 357.755 303.211 359.23 304.714C359.763 305.257 360.346 305.293 361.769 304.869C364.291 304.119 369.949 304.531 376.337 305.93C383.589 307.519 384.884 308.035 385.033 309.391C385.228 311.177 383.708 312.936 380.504 314.631C375.815 317.112 370.208 319.314 367.957 319.56L366.128 320.061L367.085 322.392C365.496 323.633 362.671 324.53 358.002 322.058L357.935 315.22L357.402 313.966C357.108 313.276 356.889 311.972 356.914 311.067C356.958 309.472 356.888 309.379 354.645 308.03C351.419 306.089 349.957 304.107 349.426 300.951C349.141 299.259 349.121 298.232 349.461 297.611ZM355.839 328.787C356.262 328.009 356.383 327.89 356.383 327.89C360.742 331.233 366.091 331.041 370.673 329.107C372.941 333.346 373.882 335.283 375.445 338.761C369.776 341.921 359.445 341.922 352.258 336.35C353.017 334.613 353.837 332.832 354.713 331.016C355.223 329.958 355.586 329.254 355.839 328.787ZM349.035 344.892C357.612 349.69 367.101 350.913 378.985 348.021C380.758 353.331 381.227 355.919 380.789 359.291C371.697 363.402 354.32 359.126 345.951 356.77C346.138 353.092 346.843 350.825 349.035 344.892ZM346.467 363.763C346.534 363.985 346.609 364.202 346.687 364.416C346.52 364.197 346.442 363.979 346.467 363.763ZM346.687 364.416C349.255 367.802 373.353 371.32 377.455 367.247C375.645 369.259 373.179 370.827 370.161 371.848L368.263 372.491L365.705 381.042L361.924 373.452C353.619 372.621 348.586 369.652 346.687 364.416Z" fill="#303030"/>
<path d="M355.516 314.162C354.185 313.58 351.721 312.477 350.041 311.709C339.452 306.877 333.23 307.101 330.327 312.421C329.865 313.268 329.554 314.811 329.448 315.839C329.285 317.412 330.149 318.775 330.292 319.826C329.737 321.296 328.831 324.908 330.702 326.975C334.3 330.954 339.485 330.777 352.573 325.752C354.152 325.219 357.512 323.618 357.512 323.618C358.003 322.793 358.296 320.583 358.149 320.219C357.852 319.481 359.79 319.92 362.223 318.884C363.17 317.457 356.795 314.721 355.516 314.162Z" fill="#CCCCCC"/>
<path d="M352.162 296.234C351.698 302.606 354.842 305.411 357.233 307.309" stroke="#303030" stroke-width="0.407173"/>
<path d="M330.293 319.826C335.563 326.285 343.397 323.551 349.535 322.596L358.13 320.127" stroke="#ECECEC" stroke-width="0.622983"/>
<path d="M421.288 263.556C420.475 255.537 410.965 258.604 407.517 256.95L421.288 263.556ZM399.017 260.491C399.213 256.119 404.258 257.043 406.415 255.625L399.017 260.491ZM418.423 240.606C415.653 233.827 408.603 240.966 406.546 241.042L418.423 240.606ZM394.547 225.928C414.564 221.675 399.349 223.379 402.32 221.802L394.547 225.928ZM417.348 209.5C412.407 203.118 410.671 210.279 407.332 210.669L417.348 209.5ZM416.291 191.998C412.871 190.026 408.899 188.733 405.5 187.231L416.291 191.998ZM423.684 156.682C419.976 150.404 414.025 156.735 411.805 156.747L423.684 156.682ZM391.763 201.453C396.465 195.037 401.744 202.538 404.763 202.866L391.763 201.453ZM389.748 173.517L405.716 174.543L389.748 173.517ZM420.361 124.366C402.113 147.583 403.71 189.764 401.819 207.611C399.559 228.881 408.073 257.395 406.706 278.7C406.68 279.551 407.968 279.246 408.043 278.574C408.154 277.618 408.149 276.653 408.334 275.699C411.222 250.645 405.564 226.42 409.824 201.56C409.476 185.972 411.35 149.039 427.759 125.061L420.361 124.366ZM294.847 200.913L312.852 211.984L294.847 200.913ZM325.335 228.748L313.967 210.929L325.335 228.748ZM359.601 191.118L350.703 171.947L359.601 191.118ZM388.085 243.869C385.536 245.303 382.616 246.02 379.493 245.979C376.37 245.939 373.103 245.141 369.881 243.632C366.659 242.122 363.544 239.931 360.713 237.183C357.883 234.434 355.392 231.183 353.384 227.614C351.377 224.046 349.89 220.229 349.011 216.384C348.131 212.538 347.876 208.737 348.258 205.2C348.641 201.662 349.655 198.457 351.241 195.766C352.828 193.075 354.957 190.952 357.506 189.518C360.055 188.084 362.974 187.367 366.098 187.407C369.221 187.448 372.487 188.246 375.71 189.755C378.932 191.264 382.047 193.456 384.878 196.204C387.708 198.952 390.198 202.203 392.206 205.772C396.261 212.979 398.105 221.042 397.332 228.187C396.56 235.331 393.233 240.972 388.085 243.869ZM349.64 172.029L338.273 154.21L349.64 172.029ZM391.242 139.854L379.948 121.989L391.242 139.854ZM299.14 201.492C297.811 204.098 295.777 206.312 293.153 208.007C290.529 209.702 287.368 210.846 283.849 211.372C280.33 211.899 276.522 211.799 272.644 211.077C268.765 210.355 264.891 209.026 261.243 207.166C257.596 205.305 254.246 202.95 251.384 200.234C248.523 197.518 246.206 194.495 244.566 191.337C242.927 188.179 241.996 184.948 241.828 181.829C241.66 178.71 242.257 175.763 243.586 173.158C244.915 170.552 246.949 168.339 249.573 166.644C252.197 164.948 255.358 163.805 258.877 163.278C262.396 162.751 266.204 162.851 270.082 163.573C273.961 164.295 277.835 165.624 281.483 167.484C285.13 169.345 288.48 171.7 291.342 174.416C294.203 177.132 296.52 180.156 298.16 183.313C299.799 186.471 300.73 189.702 300.898 192.821C301.066 195.941 300.469 198.887 299.14 201.492ZM355.789 280.463C353.257 281.926 350.345 282.677 347.222 282.673C344.098 282.669 340.823 281.909 337.583 280.437C334.344 278.965 331.203 276.81 328.341 274.095C325.479 271.38 322.951 268.157 320.902 264.612C316.764 257.452 314.826 249.412 315.516 242.259C316.206 235.106 319.467 229.427 324.581 226.471C329.695 223.515 336.244 223.524 342.786 226.496C349.329 229.469 355.329 235.161 359.468 242.321C361.517 245.866 363.047 249.665 363.971 253.5C364.895 257.336 365.195 261.133 364.854 264.674C364.512 268.216 363.536 271.434 361.98 274.142C360.425 276.851 358.321 278.999 355.789 280.463ZM339.041 157.13C334.744 161.182 328.368 162.678 321.317 161.289C314.267 159.899 307.119 155.739 301.446 149.721C295.772 143.704 292.039 136.324 291.066 129.204C290.094 122.084 291.962 115.808 296.26 111.755C300.558 107.703 306.933 106.207 313.984 107.596C321.035 108.986 328.183 113.146 333.856 119.163C339.529 125.18 343.262 132.561 344.235 139.681C345.207 146.801 343.339 153.077 339.041 157.13ZM445.78 113.08C420.246 119.336 396.562 131.681 375.206 146.822C353.473 162.346 334.422 181.359 317.444 201.907C303.821 218.398 290.962 235.551 278.065 252.564C277.574 253.259 278.816 253.716 279.249 253.197C279.87 252.461 280.398 251.653 281.078 250.96C297.314 231.66 313.864 212.617 331.136 194.237C347.901 176.295 366.034 159.354 386.858 146.186C397.212 139.533 408.293 134.076 419.7 129.482C428.013 126.067 436.538 123.216 444.992 120.182C446.373 119.551 448.23 119.285 448.838 117.683C449.77 115.66 447.992 113.007 445.78 113.08ZM286.635 276.399C291.802 269.087 294.65 259.829 293.193 250.891C292.382 245.872 289.319 241.072 284.632 238.891C278.819 236.296 272.007 237.428 266.434 240.102C255.268 245.288 246.967 256.305 245.217 268.514C244.451 274.48 245.59 281.063 249.77 285.611C253.321 289.463 258.757 291.37 263.942 290.735C271.996 290.049 279.234 285.342 284.371 279.283C285.169 278.357 285.922 277.392 286.635 276.399ZM383.77 124.306C378.651 127.252 372.102 127.231 365.565 124.246C359.028 121.261 353.038 115.558 348.913 108.39C346.871 104.841 345.347 101.039 344.43 97.2023C343.514 93.3652 343.221 89.5676 343.569 86.0265C343.917 82.4853 344.9 79.2699 346.46 76.5639C348.02 73.8579 350.128 71.7142 352.663 70.2553C355.198 68.7963 358.111 68.0507 361.235 68.061C364.358 68.0713 367.632 68.8372 370.869 70.3151C374.105 71.793 377.242 73.9539 380.099 76.6744C382.956 79.395 385.478 82.6219 387.521 86.1709C389.563 89.7199 391.086 93.5215 392.003 97.3586C392.92 101.196 393.213 104.993 392.865 108.534C392.516 112.076 391.534 115.291 389.974 117.997C388.413 120.703 386.305 122.847 383.77 124.306Z" fill="#6A8E29"/>
<path d="M421.288 263.556C420.475 255.537 410.965 258.604 407.517 256.95M399.017 260.491C399.213 256.119 404.258 257.043 406.415 255.625M418.423 240.606C415.653 233.827 408.603 240.966 406.546 241.042M394.547 225.928C414.564 221.675 399.349 223.379 402.32 221.802M417.348 209.5C412.407 203.118 410.671 210.279 407.332 210.669M416.291 191.998C412.871 190.026 408.899 188.733 405.5 187.231M423.684 156.682C419.976 150.404 414.025 156.735 411.805 156.747M391.763 201.453C396.465 195.037 401.744 202.538 404.763 202.866M389.748 173.517L405.716 174.543M294.847 200.913L312.852 211.984M325.335 228.748L313.967 210.929M359.601 191.118L350.703 171.947M349.64 172.029L338.273 154.21M391.242 139.854L379.948 121.989M420.361 124.366C402.113 147.583 403.71 189.764 401.819 207.611C399.559 228.881 408.073 257.395 406.706 278.7C406.68 279.551 407.968 279.246 408.043 278.574C408.154 277.618 408.149 276.652 408.334 275.699C411.222 250.645 405.564 226.42 409.824 201.56C409.476 185.972 411.35 149.039 427.759 125.061L420.361 124.366ZM388.085 243.869C385.536 245.303 382.616 246.02 379.493 245.979C376.37 245.939 373.103 245.141 369.881 243.632C366.659 242.122 363.544 239.931 360.713 237.183C357.883 234.434 355.392 231.183 353.384 227.614C351.377 224.046 349.89 220.229 349.011 216.384C348.131 212.538 347.876 208.737 348.258 205.2C348.641 201.662 349.655 198.457 351.241 195.766C352.828 193.075 354.957 190.952 357.506 189.518C360.055 188.084 362.974 187.367 366.098 187.407C369.221 187.448 372.487 188.246 375.71 189.755C378.932 191.264 382.047 193.456 384.878 196.204C387.708 198.952 390.198 202.203 392.206 205.772C396.261 212.979 398.105 221.042 397.332 228.187C396.56 235.331 393.233 240.972 388.085 243.869ZM299.14 201.492C297.811 204.098 295.777 206.312 293.153 208.007C290.529 209.702 287.368 210.846 283.849 211.372C280.33 211.899 276.522 211.799 272.644 211.077C268.765 210.355 264.891 209.026 261.243 207.166C257.596 205.305 254.246 202.95 251.384 200.234C248.523 197.518 246.206 194.495 244.566 191.337C242.927 188.179 241.996 184.948 241.828 181.829C241.66 178.71 242.257 175.763 243.586 173.158C244.915 170.552 246.949 168.339 249.573 166.644C252.197 164.948 255.358 163.805 258.877 163.278C262.396 162.751 266.204 162.851 270.082 163.573C273.961 164.295 277.835 165.624 281.483 167.484C285.13 169.345 288.48 171.7 291.342 174.416C294.203 177.132 296.52 180.156 298.16 183.313C299.799 186.471 300.73 189.702 300.898 192.821C301.066 195.941 300.469 198.887 299.14 201.492ZM355.789 280.463C353.257 281.926 350.345 282.677 347.222 282.673C344.098 282.669 340.823 281.909 337.583 280.437C334.344 278.965 331.203 276.81 328.341 274.095C325.479 271.38 322.951 268.157 320.902 264.612C316.764 257.452 314.826 249.412 315.516 242.259C316.206 235.106 319.467 229.427 324.581 226.471C329.695 223.515 336.244 223.524 342.786 226.496C349.329 229.469 355.329 235.161 359.468 242.321C361.517 245.866 363.047 249.665 363.971 253.5C364.895 257.336 365.195 261.133 364.854 264.675C364.512 268.216 363.536 271.434 361.98 274.142C360.425 276.851 358.321 278.999 355.789 280.463ZM339.041 157.13C334.744 161.182 328.368 162.678 321.317 161.289C314.267 159.899 307.119 155.739 301.446 149.721C295.772 143.704 292.039 136.324 291.066 129.204C290.094 122.084 291.962 115.808 296.26 111.755C300.558 107.703 306.933 106.207 313.984 107.596C321.035 108.986 328.183 113.146 333.856 119.163C339.529 125.18 343.262 132.561 344.235 139.681C345.207 146.801 343.339 153.077 339.041 157.13ZM445.78 113.08C420.246 119.336 396.562 131.681 375.206 146.822C353.473 162.346 334.422 181.359 317.444 201.907C303.821 218.398 290.962 235.551 278.065 252.564C277.574 253.259 278.816 253.716 279.249 253.197C279.87 252.461 280.398 251.653 281.078 250.96C297.314 231.66 313.864 212.617 331.136 194.237C347.901 176.295 366.034 159.354 386.858 146.186C397.212 139.533 408.293 134.076 419.7 129.482C428.013 126.067 436.538 123.216 444.992 120.182C446.373 119.551 448.23 119.285 448.838 117.683C449.77 115.66 447.992 113.007 445.78 113.08ZM286.635 276.399C291.802 269.087 294.65 259.829 293.193 250.891C292.382 245.872 289.319 241.072 284.632 238.891C278.819 236.296 272.007 237.428 266.434 240.102C255.268 245.288 246.967 256.305 245.217 268.514C244.451 274.48 245.59 281.063 249.77 285.611C253.321 289.463 258.757 291.37 263.942 290.735C271.996 290.049 279.234 285.342 284.371 279.283C285.169 278.357 285.922 277.392 286.635 276.399ZM383.77 124.306C378.651 127.252 372.102 127.231 365.565 124.246C359.028 121.261 353.038 115.558 348.913 108.39C346.871 104.841 345.347 101.039 344.43 97.2023C343.514 93.3652 343.221 89.5676 343.569 86.0265C343.917 82.4853 344.9 79.2699 346.46 76.5639C348.02 73.8579 350.128 71.7142 352.663 70.2553C355.198 68.7963 358.111 68.0507 361.235 68.061C364.358 68.0713 367.632 68.8372 370.869 70.3151C374.105 71.793 377.242 73.9539 380.099 76.6744C382.956 79.395 385.478 82.6219 387.521 86.1709C389.563 89.7199 391.086 93.5215 392.003 97.3586C392.92 101.196 393.213 104.993 392.865 108.534C392.516 112.076 391.534 115.291 389.974 117.997C388.413 120.703 386.305 122.847 383.77 124.306Z" stroke="#6A8E29" stroke-width="1.01525"/>
<path d="M362.238 175.382C362.424 165.148 380.231 164.566 386.559 171.084C389.721 174.582 391.329 171.205 387.527 174.642C383.725 178.08 365.4 178.879 362.238 175.382ZM364.081 183.095C367.917 192.583 384.753 186.755 388.329 178.404C390.031 174.006 392.74 176.585 387.96 174.736C383.18 172.886 365.782 178.697 364.081 183.095ZM452.207 158.565C451.908 148.335 434.096 147.948 427.84 154.536C424.716 158.068 423.072 154.708 426.911 158.104C430.75 161.499 449.083 162.097 452.207 158.565ZM450.449 166.298C446.717 175.828 429.818 170.185 426.15 161.874C424.4 157.495 421.719 160.104 426.479 158.202C431.238 156.3 448.699 161.919 450.449 166.298ZM445.957 187.608C445.771 197.841 427.964 198.423 421.636 191.905C418.473 188.408 416.866 191.785 420.668 188.347C424.47 184.91 442.795 184.111 445.957 187.608ZM444.114 179.895C440.278 170.406 423.442 176.235 419.865 184.586C418.164 188.983 415.455 186.405 420.235 188.254C425.015 190.103 442.413 184.293 444.114 179.895ZM404.748 305.534C414.98 305.278 415.442 287.468 408.881 281.184C405.362 278.045 408.728 276.415 405.317 280.24C401.905 284.065 401.229 302.395 404.748 305.534ZM397.023 303.743C387.508 299.971 393.223 283.096 401.55 279.463C405.936 277.732 403.339 275.04 405.22 279.808C407.102 284.575 401.409 302.012 397.023 303.743ZM371.046 256.136C370.147 266.331 387.792 268.796 394.775 262.985C398.29 259.842 399.531 263.37 396.115 259.549C392.698 255.729 374.561 252.993 371.046 256.136ZM373.696 248.661C378.515 239.632 394.639 247.211 397.311 255.894C398.537 260.447 401.504 258.17 396.555 259.503C391.606 260.835 374.922 253.214 373.696 248.661ZM441.548 281.753C434.166 288.842 421.188 276.636 421.341 267.552C421.588 262.843 418.061 264.087 423.179 264.356C428.298 264.624 441.795 277.045 441.548 281.753ZM445.713 275.005C449.73 265.591 433.72 257.774 425.279 261.133C420.962 263.03 420.877 259.291 422.94 263.983C425.002 268.675 441.396 276.902 445.713 275.005ZM370.508 244.021C377.968 251.028 390.81 238.68 390.557 229.598C390.259 224.893 393.799 226.098 388.684 226.423C383.569 226.747 370.209 239.315 370.508 244.021ZM366.269 237.319C362.149 227.95 378.072 219.957 386.55 223.223C390.887 225.073 390.931 221.333 388.92 226.047C386.909 230.761 370.606 239.169 366.269 237.319ZM362.694 206.277C365.433 216.139 382.819 212.251 387.317 204.358C389.505 200.18 391.905 203.049 387.365 200.671C382.825 198.293 364.881 202.1 362.694 206.277ZM362.55 198.348C363.892 188.202 381.651 189.636 387.202 196.828C389.948 200.66 391.927 197.487 387.761 200.472C383.595 203.458 365.297 202.181 362.55 198.348ZM447.579 245.627C444.949 255.518 427.521 251.821 422.936 243.978C420.703 239.825 418.334 242.719 422.848 240.292C427.362 237.864 445.346 241.474 447.579 245.627ZM447.636 237.697C446.182 227.565 428.441 229.195 422.969 236.447C420.265 240.31 418.251 237.158 422.45 240.097C426.648 243.037 444.931 241.559 447.636 237.697ZM448.356 216.54C450.159 206.465 432.803 202.439 425.331 207.605C421.55 210.423 420.628 206.798 423.691 210.907C426.753 215.017 444.575 219.357 448.356 216.54ZM445.051 223.749C439.447 232.313 424.062 223.328 422.173 214.442C421.358 209.798 418.2 211.801 423.248 210.915C428.296 210.028 444.235 219.104 445.051 223.749Z" fill="#E3DBDB"/>
<path d="M428.023 243.326C428.461 242.401 428.731 241.407 428.815 240.4C428.9 239.394 428.798 238.395 428.516 237.46C428.235 236.526 427.778 235.674 427.172 234.954C426.567 234.233 425.824 233.658 424.987 233.262C423.297 232.461 421.324 232.435 419.503 233.19C417.681 233.945 416.161 235.418 415.276 237.287C414.391 239.155 414.213 241.265 414.782 243.152C415.352 245.04 416.621 246.55 418.312 247.351C419.149 247.748 420.064 247.958 421.005 247.97C421.946 247.983 422.894 247.797 423.796 247.423C424.698 247.049 425.536 246.495 426.261 245.792C426.986 245.089 427.585 244.251 428.023 243.326ZM429.664 210.348C429.669 211.372 429.493 212.386 429.143 213.334C428.794 214.282 428.279 215.144 427.628 215.871C426.977 216.599 426.203 217.177 425.35 217.574C424.496 217.97 423.58 218.177 422.654 218.182C420.783 218.192 418.985 217.381 417.654 215.926C416.324 214.471 415.57 212.493 415.558 210.425C415.547 208.358 416.279 206.371 417.594 204.902C418.908 203.433 420.698 202.602 422.568 202.591C423.494 202.586 424.413 202.783 425.27 203.17C426.128 203.557 426.909 204.127 427.568 204.847C428.227 205.567 428.751 206.424 429.111 207.368C429.47 208.312 429.658 209.324 429.664 210.348ZM382.223 203.762C381.775 202.842 381.495 201.851 381.399 200.845C381.304 199.84 381.394 198.84 381.666 197.902C381.937 196.964 382.385 196.108 382.982 195.381C383.58 194.654 384.316 194.071 385.149 193.665C386.83 192.845 388.803 192.798 390.632 193.533C392.462 194.267 393.998 195.724 394.904 197.583C395.809 199.441 396.01 201.549 395.461 203.443C394.913 205.336 393.66 206.861 391.979 207.68C391.146 208.086 390.233 208.306 389.292 208.329C388.351 208.352 387.401 208.176 386.495 207.812C385.589 207.448 384.746 206.903 384.013 206.209C383.28 205.514 382.672 204.682 382.223 203.762ZM385.894 231.734C385.033 231.18 384.279 230.478 383.676 229.668C383.072 228.859 382.63 227.957 382.376 227.014C382.121 226.072 382.059 225.107 382.192 224.176C382.326 223.244 382.652 222.364 383.153 221.585C384.165 220.012 385.826 218.947 387.771 218.625C389.716 218.304 391.786 218.751 393.525 219.87C394.386 220.423 395.14 221.125 395.743 221.935C396.347 222.745 396.789 223.646 397.043 224.589C397.298 225.531 397.36 226.496 397.227 227.427C397.093 228.359 396.767 229.239 396.266 230.018C395.765 230.797 395.099 231.46 394.307 231.967C393.514 232.475 392.611 232.819 391.648 232.978C390.685 233.137 389.681 233.109 388.694 232.896C387.707 232.682 386.755 232.287 385.894 231.734ZM426.027 269.636C426.882 269.073 427.628 268.363 428.223 267.546C428.818 266.73 429.25 265.823 429.494 264.878C429.738 263.933 429.79 262.968 429.646 262.038C429.503 261.108 429.166 260.231 428.657 259.458C427.628 257.896 425.955 256.849 424.007 256.549C422.058 256.249 419.994 256.719 418.267 257.857C416.541 258.994 415.294 260.705 414.801 262.614C414.307 264.523 414.609 266.473 415.638 268.035C416.147 268.808 416.82 269.463 417.618 269.962C418.416 270.461 419.323 270.795 420.288 270.943C421.253 271.092 422.256 271.053 423.241 270.829C424.226 270.604 425.173 270.199 426.027 269.636ZM390.215 260.638C390.118 259.619 390.204 258.593 390.468 257.618C390.731 256.643 391.167 255.738 391.751 254.956C392.334 254.173 393.054 253.528 393.869 253.057C394.684 252.586 395.578 252.299 396.5 252.211C398.362 252.035 400.225 252.683 401.68 254.013C403.135 255.343 404.062 257.247 404.258 259.305C404.453 261.363 403.901 263.408 402.722 264.988C401.544 266.568 399.835 267.555 397.973 267.732C397.051 267.82 396.119 267.706 395.23 267.397C394.341 267.088 393.513 266.589 392.793 265.931C392.072 265.272 391.474 264.466 391.031 263.557C390.589 262.649 390.312 261.658 390.215 260.638ZM407.063 285.98C405.04 286.406 402.947 286.087 401.244 285.094C399.541 284.101 398.367 282.514 397.982 280.684C397.597 278.854 398.031 276.929 399.189 275.333C400.347 273.738 402.134 272.602 404.157 272.176C406.18 271.75 408.273 272.069 409.976 273.062C411.679 274.055 412.853 275.641 413.238 277.472C413.429 278.378 413.421 279.317 413.214 280.235C413.007 281.153 412.605 282.032 412.031 282.822C411.458 283.612 410.724 284.298 409.872 284.84C409.019 285.381 408.065 285.769 407.063 285.98ZM426.419 190.055C426.623 189.052 426.646 188.022 426.488 187.025C426.329 186.027 425.991 185.082 425.494 184.242C424.996 183.402 424.349 182.684 423.589 182.13C422.828 181.575 421.97 181.195 421.062 181.01C420.155 180.825 419.216 180.84 418.299 181.053C417.382 181.266 416.506 181.674 415.72 182.253C414.934 182.831 414.253 183.57 413.717 184.426C413.181 185.282 412.801 186.239 412.596 187.242C412.184 189.268 412.517 191.359 413.521 193.055C414.526 194.752 416.12 195.914 417.953 196.287C418.861 196.472 419.8 196.457 420.716 196.244C421.633 196.031 422.509 195.623 423.295 195.045C424.081 194.466 424.762 193.727 425.298 192.871C425.834 192.015 426.215 191.058 426.419 190.055ZM432.643 156.333C432.858 157.334 432.893 158.363 432.745 159.362C432.597 160.361 432.27 161.311 431.782 162.156C431.294 163.001 430.654 163.726 429.9 164.289C429.146 164.852 428.292 165.242 427.386 165.436C425.557 165.83 423.631 165.404 422.03 164.252C420.43 163.101 419.287 161.319 418.852 159.298C418.418 157.276 418.727 155.182 419.713 153.475C420.699 151.767 422.28 150.587 424.109 150.194C425.015 149.999 425.954 150.004 426.873 150.207C427.792 150.41 428.672 150.808 429.465 151.378C430.257 151.948 430.946 152.679 431.491 153.529C432.036 154.379 432.428 155.332 432.643 156.333ZM381.776 172.934C381.572 173.938 381.548 174.967 381.707 175.965C381.866 176.962 382.203 177.908 382.701 178.748C383.198 179.588 383.846 180.305 384.606 180.86C385.366 181.415 386.225 181.795 387.132 181.98C388.965 182.353 390.887 181.906 392.475 180.737C394.062 179.568 395.186 177.773 395.598 175.748C396.011 173.722 395.678 171.63 394.673 169.934C393.669 168.238 392.075 167.075 390.242 166.702C389.334 166.518 388.395 166.532 387.479 166.745C386.562 166.959 385.685 167.366 384.899 167.945C384.113 168.524 383.433 169.262 382.897 170.118C382.361 170.974 381.98 171.931 381.776 172.934Z" fill="#6A8E29"/>
</svg>
