<svg width="488" height="464" viewBox="0 0 488 464" fill="none" xmlns="http://www.w3.org/2000/svg">
<path d="M436.192 183L471 227.519L469.753 266.748L436.192 254.33V183Z" fill="#84959C"/>
<path d="M215.023 413.703L201.616 265.503L436.192 254.33L466.396 265.668L463.64 375.525L433.877 428.251L215.023 413.703Z" fill="#EBBC7A"/>
<path d="M434.538 256.201L433.877 428.251" stroke="#DBA55A" stroke-width="0.351088"/>
<path d="M272.495 295.719L342.053 292.967C349.456 327.515 267.483 326.067 272.495 295.719Z" fill="#DBA55A"/>
<path d="M190.592 212.06L195.442 267.539L436.192 254.33V183L190.592 212.06Z" fill="#84959C"/>
<path d="M215.023 413.703L202.056 418.565L204.04 439.92L428.476 463.256L464.412 388.404L463.64 375.525L433.877 428.251L215.023 413.703Z" fill="#D59F61"/>
<path d="M216.607 402.714L428.696 417.464L428.328 427.801L418.003 427.246L411.053 438.418L374.241 434.856C374.241 434.856 373.855 434.306 373.8 434.196C373.745 434.085 373.717 433.095 373.717 433.095L373.69 432.049L373.414 431.031L372.697 430.233L371.898 429.572C371.898 429.572 371.182 429.517 371.044 429.517C370.906 429.517 370.107 429.655 370.107 429.655L369.556 430.123L369.17 430.591L369.06 431.279L369.115 432.214C369.115 432.214 369.17 432.599 369.142 432.792C369.115 432.985 368.784 433.342 368.784 433.342C368.784 433.342 368.288 433.645 368.178 433.645C368.068 433.645 367.461 433.535 367.351 433.453C367.241 433.37 366.194 433.287 366.194 433.287L365.89 433.205C365.89 433.205 365.918 433.122 365.78 432.599C365.642 432.077 365.477 431.251 365.477 431.251C365.477 431.251 365.312 430.783 365.257 430.673C365.202 430.563 365.146 430.315 364.926 430.068C364.705 429.82 364.816 429.93 364.595 429.682C364.375 429.435 364.292 429.352 364.099 429.242C363.906 429.132 363.438 428.939 363.328 428.884C363.217 428.829 362.749 428.802 362.556 428.912C362.363 429.022 362.391 428.802 362.253 428.884C362.115 428.967 361.729 429.077 361.729 429.077L361.343 429.325L361.261 429.737L361.206 430.343L361.095 431.113L361.04 431.691L360.985 432.187L360.737 432.599L360.269 432.792L359.414 432.71L358.643 432.572L357.981 432.352L357.706 432.379L357.568 431.636L357.458 430.866C357.458 430.866 357.485 430.37 357.485 430.26C357.485 430.15 357.375 429.71 357.375 429.71C357.375 429.71 357.513 429.82 357.044 429.352C356.576 428.884 356.438 428.719 356.438 428.719C356.438 428.719 356.162 428.361 355.997 428.306C355.832 428.251 355.336 428.114 355.198 428.114C355.06 428.114 354.812 427.949 354.371 428.031C353.93 428.114 353.462 428.389 353.462 428.389L353.186 428.774L353.131 429.49L353.021 430.095V430.646L353.159 431.196V431.664L352.745 431.911L352.359 432.242L350.844 432.104L350.1 431.856L349.714 431.719L349.659 431.141L349.686 430.425L349.548 429.49L349.273 428.967L348.97 428.527L348.611 428.086L348.115 427.646L347.178 427.426L346.545 427.508L345.856 427.729L345.497 427.949L345.332 428.334L345.277 428.829L345.415 429.545L345.387 430.453V430.811L344.946 431.141L344.588 431.361H344.119L343.127 431.168L342.493 431.141L342.135 430.976L341.915 430.866L341.832 429.737L341.805 429.077L341.556 428.389L341.06 427.756L340.619 427.261L340.234 426.986L339.517 426.793C339.517 426.793 338.994 426.573 338.773 426.573C338.553 426.573 338.167 426.93 338.167 426.93C338.167 426.93 337.919 427.178 337.781 427.398C337.643 427.618 337.533 427.949 337.533 427.949L337.505 428.582L337.533 429.27L337.368 429.875V430.205L337.092 430.563L336.706 430.728L335.521 430.701L334.584 430.536L334.364 430.425L334.226 429.792C334.226 429.792 334.088 428.912 334.061 428.747C334.033 428.582 333.95 427.949 333.95 427.949L333.234 426.903C333.234 426.903 332.876 426.545 332.242 426.408C331.608 426.27 331.856 426.132 331.305 426.187C330.754 426.242 330.285 426.518 330.285 426.518C330.285 426.518 329.954 426.16 329.927 426.986C329.899 427.811 329.899 428.031 329.899 428.031V428.967L329.734 429.49L329.265 429.958C329.265 429.958 328.714 430.15 328.273 430.04C327.832 429.93 327.364 430.013 327.061 429.875C326.758 429.737 326.647 429.627 326.647 429.627C326.647 429.627 326.565 428.994 326.537 428.664C326.51 428.334 326.482 427.976 326.317 427.591C326.151 427.206 326.014 426.793 325.931 426.683C325.848 426.573 326.096 426.435 325.352 426.132C324.608 425.83 324.663 425.637 324.36 425.61C324.057 425.582 323.836 425.472 323.478 425.582C323.12 425.692 322.762 425.967 322.762 425.967C322.762 425.967 322.348 426.242 322.348 426.573C322.348 426.903 322.459 427.343 322.459 427.343L322.376 428.059L322.293 428.692C322.293 428.692 322.238 429.049 322.018 429.16C321.797 429.27 321.88 429.352 321.356 429.352C320.833 429.352 320.089 429.297 320.089 429.297L319.234 429.049L319.262 428.416L318.876 426.408C318.876 426.408 318.545 425.857 318.407 425.775C318.27 425.692 318.27 425.582 317.939 425.362C317.608 425.142 317.884 425.059 317.388 424.977C316.892 424.894 316.589 424.922 316.451 424.949C316.313 424.977 315.762 425.197 315.624 425.307C315.486 425.417 315.156 425.692 315.156 425.692C315.156 425.692 314.852 426.325 314.908 426.518C314.963 426.71 315.1 427.453 315.1 427.453C315.1 427.453 315.073 427.894 314.99 428.059C314.908 428.224 314.632 428.554 314.632 428.554L314.439 428.719L313.282 428.829C313.282 428.829 312.978 428.527 312.372 428.582C311.766 428.637 311.793 428.527 311.793 428.527C311.793 428.527 311.986 427.949 311.821 427.453C311.656 426.958 311.545 426.848 311.545 426.408C311.545 425.967 311.573 425.83 311.408 425.637C311.242 425.444 311.683 425.472 310.884 425.087C310.085 424.701 310.057 424.564 309.864 424.481C309.671 424.399 308.872 424.261 308.624 424.316C308.376 424.371 307.963 424.701 307.963 424.701C307.963 424.701 307.853 425.059 307.853 425.169C307.853 425.279 307.88 426.05 307.88 426.05L307.825 426.738L307.77 427.371L307.467 427.839L307.136 428.059C307.136 428.059 306.943 428.224 306.42 428.141C305.896 428.059 305.042 427.811 305.042 427.811L304.601 427.756C304.601 427.756 304.298 426.573 304.298 426.298C304.298 426.022 304.435 426.022 304.242 425.61C304.05 425.197 303.994 425.032 303.774 424.784C303.554 424.536 303.664 424.509 303.361 424.316C303.057 424.124 303.443 424.151 302.892 423.986C302.341 423.821 303.14 423.848 302.258 423.793C301.376 423.738 301.514 423.711 301.376 423.738C301.239 423.766 300.853 423.986 300.853 423.986C300.853 423.986 300.77 423.903 300.632 424.344C300.495 424.784 300.467 424.756 300.495 424.977C300.522 425.197 300.522 425.252 300.55 425.527C300.577 425.802 300.577 425.912 300.577 426.132V426.6L300.357 426.958C300.357 426.958 299.998 427.343 299.888 427.426C299.778 427.508 299.447 427.729 299.447 427.729C299.447 427.729 299.282 427.756 298.813 427.618C298.345 427.481 298.538 427.563 298.097 427.453C297.656 427.343 297.684 427.371 297.518 427.343C297.353 427.316 297.325 427.316 297.325 427.316L297.188 425.857C297.188 425.857 297.325 425.417 297.16 425.087C296.995 424.756 297.215 425.004 296.912 424.564C296.609 424.124 296.747 424.261 296.526 424.041C296.306 423.821 296.195 423.793 295.947 423.573C295.699 423.353 296.251 423.573 295.617 423.298C294.983 423.023 295.121 423.05 294.928 423.023C294.735 422.995 294.68 422.83 294.377 423.05C294.073 423.27 294.239 423.05 293.991 423.353C293.743 423.656 293.605 423.876 293.605 423.876C293.605 423.876 293.577 423.986 293.522 424.289C293.467 424.591 293.412 424.481 293.412 424.922C293.412 425.362 293.384 425.004 293.412 425.389C293.44 425.775 293.467 425.775 293.44 425.995C293.412 426.215 293.412 426.38 293.412 426.38C293.412 426.38 293.302 426.628 293.109 426.738C292.916 426.848 293.026 426.793 292.806 426.903C292.585 427.013 292.144 427.096 292.144 427.096C292.144 427.096 292.007 426.93 291.621 426.93C291.235 426.93 291.29 426.958 290.959 426.93C290.629 426.903 290.518 426.875 290.518 426.875L290.243 426.71L290.133 425.72L290.05 424.977C290.05 424.977 290.077 424.674 289.885 424.344C289.692 424.013 289.747 423.986 289.554 423.711C289.361 423.436 289.278 423.353 289.113 423.215C288.948 423.078 289.885 423.298 288.727 422.913C287.57 422.527 287.735 422.527 287.735 422.527L286.963 422.61L286.688 422.968C286.688 422.968 286.55 422.858 286.495 423.353C286.44 423.848 286.44 424.068 286.44 424.068L286.467 424.564L286.55 425.114L286.495 425.582C286.495 425.582 286.522 425.802 286.247 425.967C285.971 426.132 285.806 426.298 285.696 426.298C285.585 426.298 284.841 426.545 284.841 426.545L283.519 426.242L283.133 425.995C283.133 425.995 283.243 425.444 283.188 425.169C283.133 424.894 283.215 425.059 283.05 424.481C282.885 423.903 283.105 424.261 282.83 423.711C282.554 423.16 282.609 423.188 282.499 422.995C282.389 422.803 282.554 422.885 282.196 422.637C281.838 422.39 281.893 422.472 281.7 422.307C281.507 422.142 281.81 422.06 281.204 422.005C280.597 421.949 280.901 421.839 280.57 421.949C280.239 422.06 280.322 421.949 280.129 422.115C279.936 422.28 279.853 422.28 279.688 422.527C279.523 422.775 279.523 422.39 279.412 422.968C279.302 423.546 279.385 423.133 279.302 423.573C279.22 424.013 279.109 423.518 279.219 424.179C279.33 424.839 279.412 424.922 279.412 424.922L279.468 425.197L279.275 425.554C279.275 425.554 279.302 425.665 278.944 425.747C278.586 425.83 279.027 425.885 278.475 425.83C277.924 425.775 278.365 425.912 277.649 425.692C276.932 425.472 277.125 425.499 276.932 425.472C276.739 425.444 276.657 425.444 276.657 425.444H276.271C276.271 425.444 276.271 425.499 276.243 425.004C276.216 424.509 276.409 424.784 276.216 424.399C276.023 424.013 276.133 424.289 275.968 423.738C275.802 423.188 276.05 423.546 275.802 423.133C275.554 422.72 275.802 423.023 275.554 422.72C275.306 422.417 275.775 422.748 275.168 422.252C274.562 421.757 275.306 422.032 274.535 421.729C273.763 421.427 273.818 421.427 273.57 421.399C273.322 421.372 273.57 421.041 273.102 421.509C272.633 421.977 272.771 421.592 272.633 422.005C272.495 422.417 272.55 422.252 272.495 422.555C272.44 422.858 272.385 422.748 272.468 423.215C272.55 423.683 272.55 423.546 272.578 423.848C272.605 424.151 272.661 424.426 272.661 424.426C272.661 424.426 272.826 424.344 272.661 424.619C272.495 424.894 273.129 424.646 272.413 424.922C271.696 425.197 271.613 425.224 271.613 425.224C271.613 425.224 271.999 425.169 271.448 425.252C270.897 425.334 271.558 425.527 270.897 425.334C270.235 425.142 270.428 425.252 270.235 425.142C270.043 425.032 269.987 425.004 269.822 424.977C269.657 424.949 269.629 425.087 269.519 424.894C269.409 424.701 269.436 425.032 269.409 424.591C269.381 424.151 269.519 424.399 269.354 423.876C269.188 423.353 269.354 423.848 269.188 423.353C269.023 422.858 269.078 422.995 269.023 422.858C268.968 422.72 269.023 422.775 268.83 422.417C268.637 422.06 268.913 422.335 268.554 421.977C268.196 421.619 268.444 421.812 268.169 421.592C267.893 421.372 268.251 421.564 267.893 421.372C267.535 421.179 268.169 421.179 267.48 421.151C266.791 421.124 266.763 421.124 266.763 421.124C266.763 421.124 266.846 421.069 266.598 421.151C266.35 421.234 266.295 421.124 266.157 421.317C266.019 421.509 266.102 421.014 266.019 421.509C265.936 422.005 265.964 421.619 265.936 422.06C265.909 422.5 265.991 422.115 265.909 422.555C265.826 422.995 265.826 422.885 265.826 423.16V423.573C265.826 423.766 265.881 423.793 265.716 424.041C265.551 424.289 265.854 424.124 265.551 424.289C265.247 424.454 264.889 424.756 264.889 424.756C264.889 424.756 265.192 424.619 264.228 424.646C263.263 424.674 263.125 424.619 263.125 424.619C263.125 424.619 263.07 424.454 262.877 424.399C262.684 424.344 262.492 424.399 262.464 424.261C262.436 424.124 262.409 424.509 262.409 423.986C262.409 423.463 262.381 423.821 262.409 423.408C262.436 422.995 262.492 423.298 262.436 422.913C262.381 422.527 262.464 422.83 262.381 422.472C262.299 422.115 262.492 422.445 262.299 422.005C262.106 421.564 262.436 421.922 262.106 421.564C261.775 421.206 262.381 421.427 261.748 421.179C261.114 420.931 261.224 420.959 261.114 420.904C261.003 420.849 261.224 420.849 260.976 420.821C260.728 420.794 260.673 420.821 260.507 420.739C260.342 420.656 260.645 420.739 260.342 420.656C260.039 420.574 260.287 420.546 259.929 420.518C259.57 420.491 259.543 420.491 259.543 420.491C259.543 420.491 259.543 420.436 259.377 420.711C259.212 420.986 259.212 420.711 259.212 420.986V421.399C259.212 421.537 259.35 420.959 259.185 421.619L259.019 422.28C259.019 422.28 258.964 421.619 259.019 422.417C259.074 423.215 259.047 423.188 259.074 423.325C259.102 423.463 259.157 423.325 259.102 423.546C259.047 423.766 259.24 423.628 259.019 423.821C258.799 424.013 259.185 423.986 258.771 424.013C258.358 424.041 258.275 424.041 258.275 424.041L224.214 421.259L222.595 414.741L216.746 414.014L216.607 402.714Z" fill="white"/>
<path d="M428.476 463.256L428.035 437.058L433.877 428.251" stroke="#EBBC7A" stroke-width="0.351088"/>
<path d="M397.072 68.1077C390.072 66.8619 382.173 58.886 371.057 41.8397C368.803 38.3839 366.828 35.4073 366.668 35.225C365.468 31.9197 354.878 24.5032 375.7 29.8547C375.806 30.0265 378.453 30.2955 381.582 30.4524C393.822 31.0664 403.961 32.9234 409.378 35.5438C417.845 39.6394 419.803 46.7164 415.38 57.2324C412.568 57.4236 412.278 60.1358 411.5 62.3595L410.026 63.7247C406.094 67.3678 401.551 68.9049 397.072 68.1077Z" fill="#FAC100"/>
<path d="M354.773 9.74646C354.222 9.74708 353.784 10.058 353.33 10.6597C352.686 11.5122 352.434 11.5831 351.414 11.1984C350.424 10.8249 350.101 10.8944 349.355 11.6402C348.066 12.9285 348.601 13.9635 351.699 16.1728C354.271 18.0074 355.715 19.7555 356.328 21.7787C356.55 22.5104 356.302 23.0422 355.248 24.0933C353.381 25.9558 351.033 31.1439 349.201 37.4501C347.122 44.6098 346.954 46.0003 348.073 46.7839C349.548 47.816 351.821 47.3216 354.843 45.3119C359.267 42.3703 363.886 38.486 365.18 36.6192L366.496 35.2477L368.084 37.2129C369.934 36.4091 372.075 34.3496 372.142 29.042L366.171 25.6932L365.326 24.6191C364.861 24.0285 363.821 23.2071 363.015 22.7937C361.594 22.0651 361.545 21.9591 361.435 19.3315C361.277 15.5527 360.237 13.3099 357.721 11.3226C356.373 10.2572 355.48 9.74557 354.773 9.74646ZM379.085 30.3733C378.199 30.3717 378.037 30.4208 378.037 30.4208C378.884 35.8738 376.153 40.4982 372.26 43.6087C374.895 47.6486 376.145 49.4101 378.449 52.4622C383.939 48.9841 388.888 39.8738 387.44 30.8541C385.552 30.688 383.595 30.5535 381.582 30.4525C380.408 30.3937 379.617 30.3743 379.085 30.3733ZM396.482 32.1227C396.585 41.9956 393.113 50.9516 384.882 60.0402C388.694 64.1584 390.742 65.8176 393.912 67.0543C401.875 61.0143 406.446 43.6335 408.387 35.119C405.069 33.5141 402.741 33.0447 396.482 32.1227ZM414.279 38.9394C414.441 39.1055 414.596 39.2754 414.747 39.4471C414.634 39.1953 414.48 39.0209 414.279 38.9394ZM414.747 39.4471C416.489 43.3411 408.033 66.2851 402.493 67.9422C405.126 67.3147 407.684 65.8943 410.026 63.7247L411.499 62.3596L420.231 64.2187L415.379 57.2324C418.628 49.5091 418.433 43.6417 414.747 39.4471Z" fill="#303030"/>
<path d="M366.401 23.0506C366.528 21.5972 366.739 18.8933 366.871 17.0419C367.701 5.37862 370.878 0 376.939 0C377.904 0 379.407 0.468502 380.361 0.869609C381.82 1.48318 382.602 2.9004 383.456 3.5328C385.012 3.75048 388.617 4.68948 389.536 7.33394C391.305 12.422 388.666 16.9087 377.985 26.0329C376.761 27.1682 373.746 29.3608 373.746 29.3608C372.786 29.3965 370.706 28.5923 370.456 28.2874C369.951 27.6696 369.409 29.5909 367.334 31.2378C365.627 31.3862 366.279 24.4477 366.401 23.0506Z" fill="#CCCCCC"/>
<path d="M352.269 11.4661C358.085 14.1224 359.042 18.2454 359.562 21.2672" stroke="#303030" stroke-width="0.407173"/>
<path d="M383.456 3.53281C386.601 11.2884 380.449 16.881 376.67 21.835L370.385 28.2261" stroke="#ECECEC" stroke-width="0.622983"/>
<path d="M167.276 158.108C160.276 156.862 152.377 148.886 141.261 131.84C139.007 128.384 137.032 125.407 136.872 125.225C135.672 121.92 125.081 114.503 145.904 119.855C146.01 120.026 148.657 120.295 151.786 120.452C164.026 121.066 174.165 122.923 179.582 125.544C188.049 129.639 190.007 136.716 185.584 147.232C182.772 147.424 182.482 150.136 181.704 152.359L180.23 153.725C176.298 157.368 171.755 158.905 167.276 158.108Z" fill="#FAC100"/>
<path d="M124.977 99.7465C124.426 99.7471 123.988 100.058 123.534 100.66C122.89 101.512 122.638 101.583 121.618 101.198C120.628 100.825 120.305 100.894 119.559 101.64C118.27 102.928 118.805 103.963 121.903 106.173C124.475 108.007 125.919 109.756 126.532 111.779C126.754 112.51 126.506 113.042 125.452 114.093C123.585 115.956 121.237 121.144 119.405 127.45C117.326 134.61 117.158 136 118.277 136.784C119.752 137.816 122.025 137.322 125.047 135.312C129.471 132.37 134.09 128.486 135.384 126.619L136.7 125.248L138.288 127.213C140.138 126.409 142.279 124.35 142.346 119.042L136.375 115.693L135.53 114.619C135.065 114.028 134.025 113.207 133.219 112.794C131.798 112.065 131.749 111.959 131.639 109.332C131.48 105.553 130.441 103.31 127.925 101.323C126.577 100.257 125.684 99.7456 124.977 99.7465ZM149.289 120.373C148.403 120.372 148.241 120.421 148.241 120.421C149.088 125.874 146.357 130.498 142.464 133.609C145.099 137.649 146.349 139.41 148.653 142.462C154.143 138.984 159.092 129.874 157.644 120.854C155.756 120.688 153.799 120.554 151.786 120.453C150.612 120.394 149.821 120.374 149.289 120.373ZM166.686 122.123C166.789 131.996 163.317 140.952 155.086 150.04C158.898 154.158 160.946 155.818 164.116 157.054C172.079 151.014 176.65 133.633 178.59 125.119C175.273 123.514 172.945 123.045 166.686 122.123ZM184.483 128.939C184.645 129.106 184.8 129.275 184.951 129.447C184.838 129.195 184.684 129.021 184.483 128.939ZM184.951 129.447C186.693 133.341 178.237 156.285 172.697 157.942C175.33 157.315 177.888 155.894 180.23 153.725L181.703 152.36L190.435 154.219L185.583 147.232C188.832 139.509 188.637 133.642 184.951 129.447Z" fill="#303030"/>
<path d="M136.605 113.051C136.732 111.597 136.943 108.893 137.075 107.042C137.905 95.3786 141.082 90 147.143 90C148.108 90 149.611 90.4685 150.565 90.8696C152.024 91.4832 152.806 92.9004 153.66 93.5328C155.216 93.7505 158.821 94.6895 159.74 97.3339C161.509 102.422 158.87 106.909 148.189 116.033C146.965 117.168 143.95 119.361 143.95 119.361C142.99 119.397 140.91 118.592 140.66 118.287C140.155 117.67 139.613 119.591 137.538 121.238C135.831 121.386 136.483 114.448 136.605 113.051Z" fill="#CCCCCC"/>
<path d="M122.473 101.466C128.289 104.122 129.246 108.245 129.766 111.267" stroke="#303030" stroke-width="0.407173"/>
<path d="M153.66 93.5328C156.805 101.288 150.653 106.881 146.874 111.835L140.589 118.226" stroke="#ECECEC" stroke-width="0.622983"/>
<path d="M67.2763 410.108C60.276 408.862 52.3767 400.886 41.2607 383.84C39.0072 380.384 37.0324 377.407 36.8723 377.225C35.6717 373.92 25.0815 366.503 45.9041 371.855C46.0105 372.027 48.6571 372.295 51.7856 372.452C64.0262 373.066 74.1647 374.923 79.5819 377.544C88.049 381.639 90.0074 388.716 85.5836 399.232C82.7716 399.424 82.482 402.136 81.7036 404.359L80.2301 405.725C76.2979 409.368 71.7553 410.905 67.2763 410.108Z" fill="#FAC100"/>
<path d="M24.9767 351.746C24.4263 351.747 23.9878 352.058 23.5336 352.66C22.8902 353.512 22.6382 353.583 21.6184 353.198C20.6284 352.825 20.3049 352.894 19.5587 353.64C18.2697 354.928 18.8053 355.963 21.9031 358.173C24.4754 360.007 25.9188 361.756 26.532 363.779C26.7537 364.51 26.5055 365.042 25.4521 366.093C23.5853 367.956 21.2365 373.144 19.4051 379.45C17.3259 386.61 17.158 388 18.2774 388.784C19.7517 389.816 22.0246 389.322 25.0471 387.312C29.4709 384.37 34.0898 380.486 35.3842 378.619L36.7002 377.248L38.2884 379.213C40.1383 378.409 42.2793 376.35 42.3457 371.042L36.3748 367.693L35.5298 366.619C35.0649 366.028 34.025 365.207 33.2188 364.794C31.7978 364.065 31.7491 363.959 31.639 361.332C31.4805 357.553 30.4406 355.31 27.9251 353.323C26.5766 352.257 25.6843 351.746 24.9767 351.746ZM49.2892 372.373C48.4034 372.372 48.2407 372.421 48.2407 372.421C49.0876 377.874 46.3566 382.498 42.4644 385.609C45.0988 389.649 46.349 391.41 48.6529 394.462C54.1427 390.984 59.092 381.874 57.6435 372.854C55.7555 372.688 53.799 372.554 51.7856 372.453C50.6124 372.394 49.8207 372.374 49.2892 372.373ZM66.6864 374.123C66.7893 383.996 63.3173 392.952 55.0864 402.04C58.8979 406.158 60.9458 407.818 64.1156 409.054C72.0793 403.014 76.6501 385.633 78.5905 377.119C75.2725 375.514 72.9448 375.045 66.6864 374.123ZM84.4826 380.939C84.6452 381.106 84.7998 381.275 84.9508 381.447C84.8381 381.195 84.6841 381.021 84.4826 380.939ZM84.9508 381.447C86.6931 385.341 78.237 408.285 72.6972 409.942C75.3296 409.315 77.888 407.894 80.2298 405.725L81.7035 404.36L90.4354 406.219L85.5834 399.232C88.8324 391.509 88.6369 385.642 84.9508 381.447Z" fill="#303030"/>
<path d="M36.6051 365.051C36.7317 363.597 36.9432 360.893 37.075 359.042C37.9047 347.379 41.0823 342 47.1428 342C48.1075 342 49.6111 342.469 50.5647 342.87C52.0236 343.483 52.8058 344.9 53.6605 345.533C55.2161 345.75 58.8208 346.689 59.7401 349.334C61.5089 354.422 58.8701 358.909 48.1891 368.033C46.9648 369.168 43.9496 371.361 43.9496 371.361C42.9903 371.397 40.9097 370.592 40.6604 370.287C40.1553 369.67 39.6126 371.591 37.5378 373.238C35.8313 373.386 36.4833 366.448 36.6051 365.051Z" fill="#CCCCCC"/>
<path d="M22.4734 353.466C28.2892 356.122 29.2458 360.245 29.7664 363.267" stroke="#303030" stroke-width="0.407173"/>
<path d="M53.6605 345.533C56.8052 353.288 50.6526 358.881 46.8741 363.835L40.5891 370.226" stroke="#ECECEC" stroke-width="0.622983"/>
</svg>
