<svg width="488" height="464" viewBox="0 0 488 464" fill="none" xmlns="http://www.w3.org/2000/svg">
<path d="M25.3501 207.772L155.418 196.284L161.117 260.559L31.0496 272.048L25.3501 207.772ZM32.2106 130.159L135.007 121.079C137.914 120.822 140.469 123.027 140.735 126.023L141.477 134.394C141.743 137.39 139.616 140.008 136.708 140.265L33.9118 149.345C31.0041 149.602 28.4493 147.397 28.1837 144.401L27.4414 136.03C27.1757 133.034 29.3028 130.416 32.2106 130.159ZM38.0763 149.178L132.579 140.831C142.43 139.961 151.086 147.431 151.986 157.581L164.549 299.262C165.449 309.412 158.243 318.283 148.391 319.153L53.8887 327.501C44.0371 328.371 35.3815 320.9 34.4815 310.751L21.9182 169.07C21.0182 158.92 28.2247 150.048 38.0763 149.178Z" fill="#FFE488"/>
<path d="M32.2106 130.159L135.007 121.079C137.914 120.822 140.469 123.027 140.735 126.023L141.477 134.394C141.743 137.39 139.616 140.008 136.708 140.265L33.9119 149.345C31.0041 149.602 28.4493 147.397 28.1837 144.401L27.4414 136.03C27.1758 133.034 29.3028 130.416 32.2106 130.159Z" fill="#EBB500"/>
<path d="M25.3501 207.772L155.418 196.284L161.117 260.559L31.0496 272.048L25.3501 207.772Z" fill="#F9F9F9" stroke="#F9F9F9" stroke-width="1.55818" stroke-linecap="round"/>
<path d="M81.9297 233.902C93.7525 252.07 102.478 258.833 109.42 256.75C117.074 254.453 119.816 242.044 115.716 237.956C111.121 233.375 99.2689 231.82 81.9297 233.902Z" fill="#FAC100"/>
<path d="M105.208 258.915C100.003 258.428 93.6898 252.923 84.4167 240.785C82.5368 238.324 80.8929 236.207 80.7635 236.079C80.6341 235.952 80.1862 236.469 79.7681 237.227C78.9459 238.719 75.826 241.947 72.786 244.451C70.7091 246.162 69.0792 246.682 67.9315 245.999C67.0602 245.48 67.0901 244.421 68.1326 238.886C69.0508 234.012 70.4223 229.947 71.6635 228.422C72.364 227.561 72.5099 227.144 72.2987 226.606C71.7148 225.12 70.5418 223.895 68.5371 222.678C66.1228 221.211 65.6619 220.465 66.5188 219.41C67.0149 218.8 67.2468 218.726 67.9961 218.944C68.768 219.168 68.9476 219.099 69.3613 218.414C70.0288 217.31 70.7381 217.357 72.6189 218.63C74.5922 219.967 75.5031 221.591 75.8718 224.431C76.1281 226.405 76.1705 226.482 77.2589 226.94C77.8764 227.199 78.6923 227.752 79.0719 228.167L79.762 228.922L79.7539 226.915C79.7493 225.81 79.7232 223.757 79.6958 222.352C79.5229 213.502 81.488 209.24 85.9222 208.849C86.628 208.786 87.7594 209.043 88.484 209.283C89.5924 209.652 90.2595 210.67 90.9272 211.092C92.0799 211.156 94.647 212.017 95.9027 213.703C98.4542 217.129 96.7462 221.02 89.3378 228.658C87.9697 230.068 86.9233 231.323 87.0126 231.445C87.1018 231.568 89.0562 231.6 91.3557 231.516C100.353 231.188 107.895 231.933 112.033 233.56C118.502 236.101 120.408 241.312 117.875 249.53L121.892 254.485L115.379 253.647L114.392 254.772C111.759 257.774 108.538 259.227 105.208 258.915ZM109.875 254.86C114.694 251.952 117.643 243.505 115.224 239.543C114.466 238.301 112.222 236.509 111.816 236.821C111.684 236.923 111.632 237.649 111.702 238.434C111.894 240.607 111.603 244.278 111.078 246.288C110.53 248.384 108.782 251.952 107.331 253.935C106.758 254.718 106.427 255.47 106.569 255.665C106.881 256.095 108.47 255.708 109.875 254.86ZM101.384 234.796L96.3084 234.638C96.9922 239.826 95.7705 242.927 92.7994 246.585L96.9992 250.73C100.184 246.949 102.338 240.262 101.384 234.796ZM87.0965 235.164L84.0294 234.782L85.8084 237.717C87.1921 238.069 87.0965 235.164 87.0965 235.164ZM90.9009 222.337C94.5836 217.826 94.9099 216.552 92.8941 214.557C92.2722 213.942 91.8567 214.192 91.9397 215.133C92.0844 216.771 89.9486 221.354 87.1859 225.334C86.6147 226.157 86.1591 226.963 86.1734 227.125C86.2224 227.676 88.0699 225.806 90.9009 222.337ZM86.747 220.875C89.4735 216.459 89.8593 213.864 88.0014 212.434C86.2081 211.054 84.4304 211.726 83.4909 214.138C82.6324 216.342 82.141 224.861 82.8186 225.793C83.1167 226.203 84.6162 224.326 86.747 220.875Z" fill="#1A1400"/>
<path d="M166.173 196.584H296.747V261.112H166.173V196.584ZM179.862 119.875H283.058C285.977 119.875 288.327 122.296 288.327 125.303V133.707C288.327 136.715 285.977 139.136 283.058 139.136H179.862C176.943 139.136 174.593 136.715 174.593 133.707V125.303C174.593 122.296 176.943 119.875 179.862 119.875ZM184.025 139.336H278.895C288.785 139.336 296.747 147.54 296.747 157.729V299.967C296.747 310.156 288.785 318.36 278.895 318.36H184.025C174.135 318.36 166.173 310.156 166.173 299.967V157.729C166.173 147.54 174.135 139.336 184.025 139.336Z" fill="#F4BC00"/>
<path d="M179.862 119.875H283.058C285.977 119.875 288.327 122.296 288.327 125.303V133.707C288.327 136.715 285.977 139.136 283.058 139.136H179.862C176.943 139.136 174.593 136.715 174.593 133.707V125.303C174.593 122.296 176.943 119.875 179.862 119.875Z" fill="#EBB500"/>
<path d="M166.173 196.584H296.747V261.112H166.173V196.584Z" fill="#F9F9F9" stroke="#F9F9F9" stroke-width="1.55818" stroke-linecap="round"/>
<path d="M220.224 227.591C230.395 246.729 238.49 254.234 245.588 252.769C253.415 251.154 257.243 239.035 253.519 234.602C249.347 229.634 237.679 227.042 220.224 227.591Z" fill="#FAC100"/>
<path d="M241.201 254.555C236.06 253.612 230.258 247.572 222.093 234.665C220.438 232.049 218.987 229.795 218.87 229.657C218.752 229.519 218.26 229.994 217.777 230.713C216.826 232.126 213.433 235.067 210.184 237.295C207.964 238.816 206.295 239.191 205.212 238.409C204.39 237.816 204.513 236.763 206.04 231.342C207.386 226.567 209.111 222.639 210.482 221.228C211.256 220.432 211.438 220.03 211.275 219.476C210.825 217.944 209.764 216.62 207.875 215.231C205.6 213.559 205.206 212.775 206.153 211.799C206.701 211.234 206.939 211.182 207.666 211.465C208.415 211.756 208.6 211.702 209.073 211.057C209.835 210.016 210.537 210.125 212.298 211.559C214.146 213.064 214.91 214.762 215.026 217.623C215.107 219.612 215.143 219.693 216.186 220.244C216.778 220.557 217.542 221.179 217.884 221.627L218.504 222.44L218.674 220.439C218.767 219.338 218.922 217.291 219.019 215.889C219.628 207.058 221.962 202.986 226.413 202.986C227.122 202.986 228.226 203.34 228.927 203.644C229.998 204.109 230.573 205.182 231.201 205.661C232.343 205.825 234.824 206.909 235.926 208.699C238.165 212.337 236.12 216.062 228.066 223.018C226.579 224.303 225.426 225.461 225.504 225.591C225.582 225.721 227.526 225.925 229.824 226.043C238.814 226.508 246.261 227.914 250.24 229.898C256.459 232.999 257.897 238.358 254.648 246.32L258.212 251.61L251.798 250.202L250.716 251.236C247.828 253.995 244.491 255.158 241.201 254.555ZM246.209 250.926C251.265 248.454 254.949 240.299 252.89 236.139C252.244 234.835 250.167 232.853 249.735 233.128C249.594 233.218 249.479 233.936 249.479 234.725C249.479 236.906 248.864 240.538 248.163 242.493C247.433 244.533 245.376 247.934 243.757 249.781C243.117 250.51 242.72 251.23 242.844 251.437C243.118 251.893 244.734 251.647 246.209 250.926ZM239.523 230.193L234.481 229.589C234.704 234.817 233.213 237.799 229.931 241.181L233.748 245.679C237.254 242.194 239.99 235.722 239.523 230.193ZM225.259 229.303L222.238 228.652L223.75 231.732C225.097 232.204 225.259 229.303 225.259 229.303ZM230.181 216.86C234.248 212.69 234.686 211.45 232.854 209.286C232.289 208.618 231.853 208.831 231.852 209.775C231.852 211.42 229.32 215.797 226.216 219.518C225.574 220.288 225.049 221.05 225.049 221.213C225.049 221.767 227.055 220.066 230.181 216.86ZM226.173 215.038C229.279 210.879 229.892 208.328 228.168 206.74C226.503 205.208 224.673 205.72 223.524 208.041C222.475 210.161 221.233 218.603 221.825 219.591C222.086 220.026 223.746 218.288 226.173 215.038Z" fill="#1A1400"/>
<path d="M325.156 194.464L452.121 224.971L437.067 287.716L310.102 257.209L325.156 194.464ZM356.363 123.073L456.707 147.183C459.545 147.865 461.265 150.768 460.564 153.693L458.603 161.864C457.901 164.789 455.051 166.594 452.213 165.912L351.869 141.802C349.031 141.12 347.311 138.217 348.012 135.292L349.973 127.121C350.674 124.196 353.524 122.391 356.363 123.073ZM355.87 142.969L448.119 165.134C457.735 167.445 463.563 177.282 461.186 187.19L428.003 325.497C425.626 335.405 415.97 341.521 406.354 339.21L314.105 317.045C304.489 314.735 298.661 304.898 301.038 294.99L334.221 156.683C336.598 146.775 346.254 140.659 355.87 142.969Z" fill="#B77300"/>
<path d="M356.363 123.073L456.707 147.183C459.545 147.865 461.265 150.768 460.564 153.693L458.603 161.864C457.901 164.789 455.051 166.594 452.213 165.912L351.869 141.802C349.031 141.12 347.311 138.217 348.012 135.292L349.973 127.121C350.674 124.196 353.524 122.391 356.363 123.073Z" fill="#EBB500"/>
<path d="M325.156 194.464L452.121 224.971L437.067 287.716L310.102 257.209L325.156 194.464Z" fill="#F9F9F9" stroke="#F9F9F9" stroke-width="1.55818" stroke-linecap="round"/>
<path d="M370.48 237.242C375.906 258.228 382.025 267.416 389.269 267.651C397.257 267.909 403.806 257.019 401.22 251.839C398.322 246.033 387.58 240.787 370.48 237.242Z" fill="#FAC100"/>
<path d="M384.587 268.362C379.808 266.244 375.575 259.016 370.647 244.558C369.648 241.627 368.763 239.097 368.681 238.935C368.599 238.773 368.01 239.12 367.372 239.706C366.118 240.859 362.133 242.926 358.454 244.332C355.94 245.293 354.229 245.267 353.359 244.254C352.698 243.485 353.063 242.49 355.813 237.576C358.235 233.247 360.829 229.83 362.491 228.779C363.429 228.186 363.7 227.838 363.671 227.261C363.591 225.666 362.869 224.131 361.355 222.339C359.533 220.181 359.334 219.327 360.482 218.6C361.147 218.178 361.39 218.183 362.031 218.628C362.691 219.086 362.884 219.077 363.494 218.56C364.478 217.725 365.136 217.996 366.513 219.802C367.959 221.696 368.305 223.526 367.751 226.335C367.365 228.289 367.381 228.375 368.268 229.155C368.77 229.598 369.368 230.381 369.596 230.896L370.009 231.832L370.641 229.926C370.988 228.877 371.617 226.923 372.038 225.583C374.691 217.138 377.91 213.723 382.238 214.763C382.927 214.929 383.919 215.532 384.529 215.991C385.462 216.693 385.771 217.87 386.269 218.483C387.342 218.91 389.502 220.544 390.155 222.542C391.484 226.602 388.626 229.746 379.172 234.628C377.426 235.53 376.035 236.386 376.08 236.531C376.126 236.676 377.968 237.328 380.175 237.98C388.809 240.533 395.722 243.64 399.128 246.499C404.452 250.967 404.6 256.514 399.583 263.497L401.814 269.473L395.906 266.606L394.613 267.358C391.161 269.366 387.645 269.718 384.587 268.362ZM390.302 266.004C395.796 264.781 401.281 257.713 400.248 253.186C399.925 251.768 398.368 249.355 397.884 249.521C397.726 249.576 397.446 250.247 397.262 251.014C396.753 253.135 395.308 256.523 394.171 258.26C392.984 260.073 390.191 262.899 388.185 264.317C387.393 264.877 386.839 265.484 386.912 265.714C387.071 266.221 388.7 266.36 390.302 266.004ZM388.638 244.282L383.877 242.517C382.874 247.652 380.729 250.203 376.748 252.725L379.41 257.99C383.633 255.42 387.803 249.766 388.638 244.282ZM374.976 240.083L372.19 238.745L372.942 242.093C374.142 242.867 374.976 240.083 374.976 240.083ZM382.665 229.135C387.593 226.03 388.307 224.926 387.031 222.394C386.637 221.612 386.164 221.718 385.943 222.636C385.559 224.235 382.075 227.9 378.19 230.793C377.386 231.391 376.698 232.01 376.66 232.168C376.531 232.707 378.878 231.521 382.665 229.135ZM379.193 226.426C383.183 223.108 384.375 220.77 383.069 218.824C381.808 216.945 379.908 217.016 378.25 219.004C376.735 220.82 373.557 228.739 373.903 229.838C374.055 230.322 376.074 229.019 379.193 226.426Z" fill="#1A1400"/>
</svg>
