<svg width="221" height="74" viewBox="0 0 221 74" fill="none" xmlns="http://www.w3.org/2000/svg">
<path d="M38.2373 73.4314C37.2262 73.3217 35.7626 72.9471 35.0308 72.6109C34.363 72.304 34.016 71.9513 33.8532 71.414L33.7182 70.9685L33.1001 70.8452C32.4254 70.7106 31.9858 70.5049 30.6522 69.6995C29.4619 68.9806 29.464 68.9808 28.9206 69.5549C28.419 70.0848 28.1537 70.2322 27.4143 70.3916C25.3453 70.8377 20.0801 69.1686 17.2433 67.1674C16.8868 66.9159 16.5237 66.6323 16.4365 66.5371C16.2439 66.3271 16.0549 65.8868 16.0549 65.6484C16.0549 65.5522 15.9878 65.387 15.9058 65.2814C15.7378 65.065 14.938 64.5701 14.5162 64.4216C13.7303 64.145 13.6115 63.1742 14.3089 62.7281C15.1956 62.1608 16.0148 60.4771 16.658 57.8999C16.81 57.2906 17.2159 55.1849 17.3877 54.1146C17.4189 53.92 17.5321 53.7251 17.7531 53.4857C18.0113 53.206 18.0546 53.123 17.9765 53.0574C17.7788 52.8911 17.5033 52.2652 17.4255 51.8055C17.3593 51.4146 17.366 51.2352 17.4634 50.7839C17.5387 50.4354 17.6001 49.6666 17.6324 48.6674C17.6781 47.2572 17.6991 47.0674 17.8397 46.7942C18.2016 46.0911 19.0161 45.8761 19.8315 46.2684C19.9875 46.3434 20.1275 46.4048 20.1425 46.4048C20.2411 46.4048 19.7375 45.816 19.0797 45.162C18.2171 44.3044 17.9993 43.956 17.9997 43.4336C18.0002 43.0054 18.1793 42.6843 18.5608 42.4285L18.8397 42.2414L18.8106 41.641C18.7946 41.3107 18.7692 41.0011 18.7543 40.9531C18.7393 40.905 18.3932 40.6472 17.9852 40.3801C17.5771 40.1131 17.0245 39.7272 16.7571 39.5227L16.271 39.1508C15.2643 38.2223 16.271 39.1508 15.2643 38.2223L14.8494 37.7527C13.8152 36.5823 13.4542 35.5185 13.6891 34.3335L13.7719 33.9154L13.437 33.2659C13.2528 32.9087 13.1021 32.532 13.1021 32.4288C13.1021 32.3257 13.0616 32.2301 13.012 32.2164C12.2383 32.0028 12.0919 31.933 11.8506 31.6623C11.5388 31.3126 11.4852 31.1207 11.5429 30.5614C11.5861 30.142 11.5822 30.1291 11.377 30.0216C11.2615 29.9611 10.9298 29.8758 10.6401 29.8321C10.3503 29.7885 9.96737 29.7127 9.78912 29.6638L9.46503 29.5749C8.93447 28.8614 7.9886 28.1952 7.9886 28.1952C7.9886 28.5149 7.90156 28.522 7.76752 28.2135C7.67179 27.993 7.63904 27.9758 7.3044 27.9697C7.03494 27.9647 6.67236 27.8477 5.86399 27.5047C4.38061 26.8754 4.41364 26.8825 3.78812 27.0603C3.14333 27.2437 2.92348 27.2455 2.54391 27.0708C2.21299 26.9185 2.02355 26.6776 1.83992 26.1756C1.76235 25.9635 1.61903 25.7603 1.4608 25.638C0.699256 25.0494 0.762866 24.1543 1.59806 23.7066C1.78527 23.6063 1.93854 23.5033 1.93865 23.4777C1.9388 23.4522 1.71085 23.2422 1.43217 23.0112C0.117079 21.9209 -0.248266 21.1581 0.15635 20.3476C0.622416 19.414 1.87855 19.0437 4.60362 19.0364C5.49488 19.034 6.36784 18.9985 6.54353 18.9575C6.71922 18.9164 7.20535 18.6727 7.62384 18.4159C8.50154 17.8772 9.06945 17.6844 9.59337 17.7472C10.4704 17.8525 11.0564 18.3849 11.8349 19.7838L12.0279 20.1306L12.5006 19.8026C12.9829 19.4679 13.5349 19.2546 13.9187 19.2546C14.0366 19.2546 14.451 19.356 14.8395 19.4799L15.5458 19.7053C16.9507 20.0562 16.7202 20.0687 16.9507 20.0562C17.186 20.0953 17.3872 20.1184 17.3978 20.1075C17.4085 20.0967 17.3698 19.8921 17.3119 19.653C17.2539 19.4138 17.1748 18.5284 17.1362 17.6854C17.0976 16.8424 17.034 16.0418 16.995 15.9063C16.9515 15.7556 16.7441 15.4854 16.461 15.211C15.9202 14.6867 15.7662 14.2969 15.7679 13.4573C15.7699 12.4586 16.0868 11.5281 16.5214 11.2445C16.8683 11.0182 17.1751 11.0378 17.9236 11.3343C18.5227 11.5715 18.5783 11.5811 18.7683 11.4807C18.8802 11.4215 19.1105 11.373 19.2801 11.3727C20.1184 11.3716 20.5455 11.8973 20.9223 13.3946L21.0547 13.9208L21.7057 13.8783C22.5794 13.8213 23.3199 13.9712 24.4508 14.4342C24.9457 14.6368 25.4196 14.8025 25.5038 14.8025C25.5881 14.8025 25.8305 14.7471 26.0425 14.6794L26.428 14.5562L26.2189 14.3327C25.649 13.7233 25.6275 12.9904 26.1607 12.3496C26.4264 12.0303 27.3145 11.6009 28.9466 11.0024C31.5408 10.0512 32.5257 9.55474 33.2236 8.84639C33.7743 8.28739 33.7963 8.17744 33.8406 5.75245L33.88 3.59941L34.1035 3.12155C34.5136 2.24446 35.0503 1.79106 36.2203 1.33316C37.224 0.763438 37.8772 0.812593 37.8772 0.812593L38.6154 0.640707C39.8694 0.34871 39.9512 0.376131 40.6906 1.33689C41.3129 2.14546 42.825 3.65735 43.6028 4.24872C43.9987 4.54973 44.6574 4.94192 45.2953 5.2564C47.4466 6.317 48.1593 6.96973 48.7155 8.38871C48.847 8.72414 49.0028 9.02938 49.0616 9.067C49.1354 9.11417 49.3691 9.06274 49.814 8.90146C50.6898 8.58401 51.0899 8.54197 51.4952 8.72481C51.8944 8.90491 52.1058 9.11018 52.8314 10.022C53.7415 11.1657 54.6077 11.9589 55.3681 12.3446C56.0426 12.6868 56.3498 12.7584 57.7685 12.9038C59.2034 13.051 60.078 13.372 61.6364 14.3235C62.5974 14.9102 63.5799 15.4071 64.0927 15.5658C64.3377 15.6416 65.0547 15.7259 65.9728 15.7868C67.2952 15.8745 67.5301 15.9101 68.1298 16.1137C68.9576 16.3948 69.5889 16.729 69.822 17.0098C70.1156 17.3634 70.065 17.6622 69.5272 18.7499C68.4289 20.971 67.6365 23.3477 67.3272 25.3488C67.2776 25.6699 67.2376 26.5238 67.2384 27.2464C67.2393 27.9689 67.2254 28.4944 67.2076 28.4141C66.9997 30.0326 66.5597 30.6919 65.6771 31.2352C65.4863 31.3349 65.2072 31.4095 64.9983 31.4167L64.6436 31.4289L64.5501 31.7991C64.2876 32.8387 62.9022 34.8598 61.2455 36.62C60.3776 37.5421 60.0595 37.9157 60.0595 38.0131C60.0595 38.0479 60.3593 37.9387 60.7257 37.7703C61.3318 37.4918 61.4444 37.4642 61.9737 37.4642C62.4948 37.4642 62.5918 37.4871 62.9035 37.6832C63.7195 38.1966 64.248 39.5795 64.2564 41.2229C64.2596 41.8503 64.2305 42.0687 64.0961 42.4272C63.8137 43.1805 63.8036 43.1355 64.4895 44.1788C64.8325 44.7006 65.204 45.3082 65.315 45.529C66.1088 47.1076 65.8085 48.4568 64.4288 49.51C64.1683 49.7089 63.9537 49.8974 63.9519 49.9289C63.9501 49.9605 64.0864 50.0471 64.2547 50.1215C65.3392 50.6005 65.6558 51.3595 65.353 52.7545C65.2297 53.3226 65.2155 54.2843 65.3245 54.6886C65.5524 55.5342 66.1703 55.8452 67.7944 55.9317C68.2737 55.9572 68.7794 56.0117 68.9181 56.0528C70.0983 56.4024 70.3353 57.6497 69.4902 59.064C69.0398 59.8176 68.2913 60.6915 67.8545 60.9735C66.6491 61.7519 65.3735 62.8886 64.7643 63.7273C64.5865 63.972 64.2669 64.5394 64.054 64.9883C63.612 65.92 63.2105 66.3823 62.519 66.7558C61.8634 67.1099 61.2974 67.2331 60.3476 67.2285C58.8279 67.2212 57.1473 66.7199 55.5831 65.8073C54.8148 65.3591 54.5671 65.2808 53.0735 65.0139C52.234 64.8639 51.5258 64.6792 50.6608 64.3847C49.4904 63.9862 49.4032 63.9676 48.6803 63.9628C47.642 63.9558 47.3295 64.1069 46.3072 65.1097C45.583 65.8203 45.5165 65.8666 44.8899 66.0973C44.4777 66.2491 44.1349 66.43 43.971 66.5822C43.2732 67.2299 43.1485 68.5183 43.5716 70.7096C43.7271 71.5148 43.7287 71.5608 43.6105 71.8132C43.4747 72.1033 43.2596 72.2327 42.5945 72.4247C42.3568 72.4933 41.8229 72.713 41.4081 72.9129C40.3611 73.4174 39.4625 73.5644 38.2373 73.4314ZM40.5815 71.2978C40.936 71.1271 41.3419 70.9399 41.4834 70.8818L41.7407 70.7762L41.6433 70.1768C41.5897 69.8471 41.545 69.1505 41.5438 68.6286C41.539 66.3752 42.3416 65.0772 44.143 64.4254C44.5479 64.2789 44.6991 64.1659 45.2626 63.5886C46.035 62.7974 46.7628 62.3835 47.6963 62.2047C48.7992 61.9934 49.4959 62.0842 51.237 62.6662C51.959 62.9075 52.7402 63.1027 53.5925 63.2546C55.0378 63.5124 55.5567 63.6879 56.5305 64.2482C58.4148 65.3325 60.51 65.7215 61.6119 65.1916C61.9666 65.021 62.2571 64.6419 62.5368 63.9846C62.6672 63.6782 62.9308 63.1884 63.1226 62.8961C63.7474 61.9436 65.1895 60.5855 66.5968 59.6242C67.0576 59.3094 67.675 58.62 67.966 58.0953L68.128 57.8031L67.5688 57.7613C65.5919 57.6135 64.4388 57.0161 63.8474 55.8335C63.4488 55.0364 63.334 53.7903 63.5525 52.6332C63.6938 51.8847 63.6901 51.8247 63.4985 51.7651C63.161 51.6602 62.4642 51.2777 62.2676 51.0894C61.9228 50.7593 61.7679 50.3741 61.8037 49.9362C61.8448 49.4342 62.0889 49.065 62.7033 48.5756C62.9675 48.3652 63.3558 48.0255 63.5662 47.8209C63.9006 47.4956 63.9485 47.4131 63.9479 47.164C63.947 46.7728 63.7141 46.2991 62.9497 45.134C61.9678 43.6371 61.8321 42.996 62.3042 42.0836C62.4347 41.8313 62.4653 41.6566 62.4616 41.1865C62.4553 40.3906 62.1438 39.2524 61.9323 39.2524C61.8948 39.2524 61.6912 39.3299 61.4798 39.4246C61.1329 39.5801 61.0451 39.6719 60.578 40.3673C60.0148 41.2057 59.6012 41.6187 59.2544 41.689C58.7137 41.7986 58.1122 41.3771 57.9925 40.8048C57.9016 40.3704 57.9476 38.9036 58.0707 38.3134C58.265 37.3808 58.6192 36.7715 59.5188 35.8221C60.5432 34.7408 60.9893 34.2129 61.688 33.2548C62.5375 32.09 62.8039 31.5492 62.8736 30.848C62.938 30.2002 63.0949 29.875 63.4904 29.5693C63.8072 29.3244 64.3337 29.2623 64.7303 29.4232C64.993 29.5297 65.0215 29.5287 65.1273 29.4103C65.3963 29.109 65.4534 28.7212 65.4478 27.2303C65.4419 25.6467 65.5266 24.9233 65.9022 23.3539C66.2535 21.8861 67.0701 19.6335 67.737 18.2929L67.9068 17.9516L67.5489 17.8312C67.1332 17.6912 66.1243 17.5808 65.2362 17.5779C64.0112 17.574 62.6313 17.0643 60.7716 15.9288C59.2292 14.9871 58.6922 14.8032 57.0707 14.6615C55.9842 14.5665 55.5091 14.4432 54.694 14.0447C53.5605 13.4905 52.7616 12.8043 51.6226 11.4064C51.2148 10.906 50.8517 10.4965 50.8157 10.4965C50.7797 10.4965 50.5345 10.5753 50.2708 10.6717C49.7349 10.8676 49.0625 10.9745 48.8321 10.9004C48.24 10.7662 48.2796 10.9497 47.558 10.1039C47.4325 9.95667 47.2284 9.5642 47.1046 9.23172C46.9808 8.89924 46.7804 8.49071 46.6593 8.32386C46.3744 7.93125 45.6788 7.46665 44.6238 6.96432C42.8506 6.11999 41.1359 4.73103 39.6773 2.95769L39.2096 2.38894L38.9215 2.4368C38.337 2.53391 36.8909 2.99233 36.4368 3.22448C36.0857 3.40394 35.9284 3.53546 35.8078 3.75055C35.6548 4.02317 35.6468 4.11673 35.6457 5.64491C35.6439 8.15266 35.5099 8.84915 34.8631 9.71481C34.0613 10.788 32.7654 11.5441 29.9722 12.5684C27.9113 13.3242 27.8581 13.3521 28.3042 13.4426C28.9227 13.5679 29.2347 13.8893 29.2347 14.4011C29.2347 15.1502 28.3744 15.8269 26.7248 16.3754C25.5938 16.7514 25.2387 16.723 23.8231 16.1428L22.7888 15.719L21.5285 15.717C20.3974 15.7151 20.2467 15.7002 20.0595 15.5718C19.6886 15.3173 19.4638 14.9098 19.2502 14.1048L19.0461 13.3358L18.78 13.3814C18.6233 13.4082 18.3315 13.3796 18.0708 13.3119C17.8271 13.2487 17.6141 13.1969 17.5975 13.1969C17.5809 13.1969 17.5673 13.3182 17.5673 13.4664C17.5673 13.6974 17.6229 13.7895 17.956 14.1113C18.6633 14.7945 18.8431 15.3892 18.9043 17.2476C18.9532 18.7329 19.0858 19.5195 19.3733 20.0299C19.7171 20.64 19.6282 21.0955 19.0918 21.4722C18.6531 21.7803 18.1913 21.8987 17.4233 21.9001C16.6222 21.9015 15.9973 21.7758 14.7729 21.3668L13.8818 21.0692L13.3229 21.441C13.0154 21.6456 12.6538 21.8449 12.5193 21.884C11.5945 22.1528 10.7849 21.6641 10.1206 20.4361C9.9669 20.1519 9.75061 19.8315 9.63999 19.7241C9.46057 19.5499 9.41476 19.5373 9.21559 19.6077C9.0928 19.6511 8.70366 19.8675 8.35084 20.0887C7.25884 20.7732 7.12716 20.8012 4.71167 20.8621C3.26495 20.8986 2.52808 20.9457 2.31398 21.0153L2.00489 21.1157L2.73329 21.7361C3.51401 22.401 3.88252 22.8453 4.02583 23.2945C4.19138 23.8134 3.96857 24.4686 3.52575 24.765C3.30086 24.9155 3.2688 24.992 3.36577 25.1467C3.40831 25.2146 3.52644 25.2193 3.84932 25.1661C4.38792 25.0772 4.9186 25.1603 5.61841 25.4432C8.33171 26.5396 8.61083 26.6826 9.56917 27.4673C10.0584 27.8679 10.0729 27.8739 10.875 28.0106C12.5397 28.2942 13.6599 29.2286 13.5171 30.2145C13.4841 30.442 13.4886 30.4436 14.3624 30.5316C14.9246 30.5882 15.5338 30.764 15.7776 30.94C15.8844 31.017 16.0276 31.2284 16.096 31.4099C16.1998 31.6852 16.2064 31.7868 16.1363 32.0239C16.0458 32.3303 15.7209 32.6561 15.4329 32.7293C15.3043 32.762 15.2671 32.8081 15.3004 32.8935C15.3259 32.9588 15.3977 33.2189 15.4599 33.4715C15.5581 33.8702 15.5606 34.0118 15.4788 34.5446C15.3642 35.2913 15.441 35.557 15.9802 36.2787C16.6114 37.1237 17.4428 37.8217 19.3679 39.1226C20.1576 39.6563 20.5202 40.1429 20.5202 40.669C20.5202 40.8295 20.5587 41.312 20.6058 41.7413C20.7025 42.6224 20.646 42.9579 20.3382 43.3285C20.2402 43.4465 20.1601 43.5717 20.1601 43.6067C20.1601 43.6417 20.3584 43.8668 20.6008 44.107C21.4033 44.9022 21.8777 45.6219 22.2121 46.5508C22.3693 46.9875 22.4164 47.2679 22.4453 47.9375C22.4878 48.9222 22.4129 49.2804 22.1011 49.5832C21.919 49.76 21.8177 49.7987 21.5373 49.7987C21.2449 49.7987 21.1099 49.7416 20.6014 49.4033C20.2746 49.1859 19.8836 48.8657 19.7324 48.6917L19.4577 48.3754L19.4176 49.452C19.3934 50.1005 19.3318 50.6881 19.2627 50.9299C19.125 51.4114 19.1538 51.5601 19.4768 52.036C19.7313 52.4109 19.8709 52.7958 19.8716 53.1244C19.8723 53.4849 19.657 54.0407 19.3975 54.348C19.1467 54.6448 19.1255 54.7148 18.8879 56.0234C18.3021 59.2503 17.5366 61.5388 16.547 63.0214L16.3438 63.3259L16.5851 63.477C16.8953 63.6713 17.4433 64.265 17.6078 64.5848C17.6781 64.7216 17.7741 64.9648 17.8212 65.1254C17.9354 65.5148 18.5264 65.929 20.0521 66.689C22.2421 67.78 24.5466 68.5084 26.2098 68.6353C27.0683 68.7008 27.3381 68.6124 27.7421 68.1332C28.1553 67.643 28.6803 67.3488 29.2323 67.2981C29.8351 67.2427 30.487 67.4657 31.4376 68.0525C32.5859 68.7612 33.0983 69.0022 33.664 69.0994C34.8067 69.2958 35.3852 69.7563 35.5401 70.5928C35.5839 70.8294 35.6364 70.8915 35.8882 71.0043C36.7221 71.378 38.2492 71.6623 39.2491 71.6302C39.8872 71.6098 39.9834 71.5857 40.5815 71.2978Z" fill="#F4F9EB"/>
<path d="M28.0032 35.5582C28.0477 36.1087 28.53 36.519 29.0805 36.4745L38.0513 35.7502C38.6018 35.7058 39.012 35.2235 38.9676 34.673C38.9231 34.1225 38.4408 33.7123 37.8903 33.7567L29.9163 34.4005L29.2725 26.4265C29.228 25.876 28.7457 25.4657 28.1952 25.5102C27.6448 25.5546 27.2345 26.0369 27.279 26.5874L28.0032 35.5582ZM29.7617 36.1257C37.2793 27.2875 49.1878 24.3384 59.4043 23.6505C64.49 23.308 69.1006 23.53 72.4408 23.8382C74.1098 23.9922 75.4587 24.1675 76.3878 24.3038C76.8523 24.3719 77.2116 24.4303 77.4533 24.4713C77.5742 24.4919 77.6656 24.508 77.726 24.5189C77.7562 24.5244 77.7787 24.5285 77.7932 24.5312C77.8005 24.5326 77.8057 24.5336 77.809 24.5342C77.8106 24.5345 77.8117 24.5347 77.8124 24.5348C77.8127 24.5349 77.8128 24.5349 77.8129 24.5349C77.8129 24.5349 77.8127 24.5349 78 23.5526C78.1873 22.5703 78.1869 22.5702 78.1863 22.5701C78.186 22.57 78.1853 22.5699 78.1846 22.5697C78.1832 22.5695 78.1812 22.5691 78.1788 22.5687C78.174 22.5677 78.1671 22.5665 78.1582 22.5648C78.1405 22.5615 78.1147 22.5568 78.0812 22.5507C78.0142 22.5386 77.9159 22.5213 77.7881 22.4996C77.5324 22.4561 77.1582 22.3954 76.6781 22.325C75.7179 22.1841 74.3332 22.0044 72.6245 21.8467C69.2094 21.5316 64.4885 21.3036 59.2699 21.655C48.8778 22.3547 36.2862 25.3682 28.2383 34.8298L29.7617 36.1257Z" fill="black"/>
<path d="M87.904 26.3498C87.6907 26.3498 87.4933 26.3018 87.312 26.2058C87.1413 26.1098 87.056 25.9712 87.056 25.7898V15.1978C87.056 15.0485 87.1147 14.9205 87.232 14.8138C87.36 14.7072 87.52 14.6538 87.712 14.6538H90.832C91.4827 14.6538 92.0747 14.7712 92.608 15.0058C93.1413 15.2298 93.5627 15.6032 93.872 16.1258C94.1813 16.6378 94.336 17.3205 94.336 18.1738V18.3018C94.336 19.1552 94.176 19.8432 93.856 20.3658C93.5467 20.8885 93.1147 21.2672 92.56 21.5018C92.016 21.7258 91.408 21.8378 90.736 21.8378H88.752V25.7898C88.752 25.9712 88.6613 26.1098 88.48 26.2058C88.3093 26.3018 88.1173 26.3498 87.904 26.3498ZM88.752 20.4938H90.736C91.3333 20.4938 91.7973 20.3232 92.128 19.9818C92.4693 19.6405 92.64 19.1178 92.64 18.4138V18.2218C92.64 17.5178 92.4693 17.0005 92.128 16.6698C91.7973 16.3285 91.3333 16.1578 90.736 16.1578H88.752V20.4938ZM97.121 26.3498C96.8863 26.3498 96.689 26.2912 96.529 26.1738C96.3797 26.0565 96.305 25.9285 96.305 25.7898V19.3098C96.305 19.1498 96.3797 19.0218 96.529 18.9258C96.689 18.8192 96.8863 18.7658 97.121 18.7658C97.3343 18.7658 97.5157 18.8192 97.665 18.9258C97.8143 19.0218 97.889 19.1498 97.889 19.3098V20.0138C98.0063 19.7898 98.161 19.5765 98.353 19.3738C98.5557 19.1712 98.7903 19.0058 99.057 18.8778C99.3237 18.7392 99.6117 18.6698 99.921 18.6698H100.433C100.604 18.6698 100.753 18.7445 100.881 18.8938C101.009 19.0325 101.073 19.2032 101.073 19.4058C101.073 19.6085 101.009 19.7845 100.881 19.9338C100.753 20.0832 100.604 20.1578 100.433 20.1578H99.921C99.601 20.1578 99.2917 20.2538 98.993 20.4458C98.6943 20.6378 98.449 20.9098 98.257 21.2618C98.0757 21.6032 97.985 22.0192 97.985 22.5098V25.7898C97.985 25.9285 97.8997 26.0565 97.729 26.1738C97.569 26.2912 97.3663 26.3498 97.121 26.3498ZM105.581 26.4778C105.005 26.4778 104.467 26.3285 103.965 26.0298C103.464 25.7312 103.059 25.3418 102.749 24.8618C102.451 24.3712 102.301 23.8485 102.301 23.2938V21.8218C102.301 21.2565 102.445 20.7338 102.733 20.2538C103.032 19.7738 103.432 19.3898 103.933 19.1018C104.445 18.8138 105 18.6698 105.597 18.6698C106.195 18.6698 106.744 18.8138 107.245 19.1018C107.747 19.3792 108.147 19.7578 108.445 20.2378C108.755 20.7072 108.909 21.2352 108.909 21.8218V23.2938C108.909 23.8378 108.755 24.3552 108.445 24.8458C108.147 25.3365 107.741 25.7312 107.229 26.0298C106.728 26.3285 106.179 26.4778 105.581 26.4778ZM105.597 24.9898C105.896 24.9898 106.168 24.9098 106.413 24.7498C106.659 24.5898 106.856 24.3818 107.005 24.1258C107.155 23.8592 107.229 23.5818 107.229 23.2938V21.8218C107.229 21.5445 107.155 21.2778 107.005 21.0218C106.856 20.7658 106.659 20.5578 106.413 20.3978C106.168 20.2378 105.896 20.1578 105.597 20.1578C105.288 20.1578 105.011 20.2378 104.765 20.3978C104.531 20.5578 104.339 20.7658 104.189 21.0218C104.051 21.2778 103.981 21.5445 103.981 21.8218V23.2938C103.981 23.5818 104.051 23.8592 104.189 24.1258C104.339 24.3818 104.536 24.5898 104.781 24.7498C105.027 24.9098 105.299 24.9898 105.597 24.9898ZM113.699 26.4778C113.197 26.4778 112.733 26.3285 112.307 26.0298C111.88 25.7312 111.533 25.3418 111.267 24.8618C111.011 24.3712 110.883 23.8485 110.883 23.2938V21.8218C110.883 21.2352 111.011 20.7072 111.267 20.2378C111.533 19.7578 111.88 19.3792 112.307 19.1018C112.733 18.8138 113.208 18.6698 113.731 18.6698C114.243 18.6698 114.675 18.7978 115.027 19.0538C115.379 19.2992 115.64 19.5765 115.811 19.8858V14.7978C115.811 14.6378 115.896 14.5098 116.067 14.4138C116.237 14.3072 116.44 14.2538 116.675 14.2538C116.909 14.2538 117.101 14.3072 117.251 14.4138C117.411 14.5098 117.491 14.6378 117.491 14.7978V25.7898C117.491 25.9285 117.411 26.0565 117.251 26.1738C117.101 26.2912 116.909 26.3498 116.675 26.3498C116.472 26.3498 116.291 26.2912 116.131 26.1738C115.981 26.0565 115.907 25.9285 115.907 25.7898V25.2298C115.747 25.5605 115.464 25.8538 115.059 26.1098C114.653 26.3552 114.2 26.4778 113.699 26.4778ZM114.179 24.9898C114.488 24.9898 114.765 24.9045 115.011 24.7338C115.256 24.5632 115.448 24.3765 115.587 24.1738C115.736 23.9605 115.811 23.7898 115.811 23.6618V21.8218C115.811 21.4698 115.731 21.1712 115.571 20.9258C115.411 20.6805 115.208 20.4938 114.963 20.3658C114.717 20.2272 114.461 20.1578 114.195 20.1578C113.896 20.1578 113.619 20.2378 113.363 20.3978C113.117 20.5578 112.92 20.7658 112.771 21.0218C112.632 21.2778 112.563 21.5445 112.563 21.8218V23.2938C112.563 23.5712 112.632 23.8432 112.771 24.1098C112.92 24.3765 113.117 24.5898 113.363 24.7498C113.608 24.9098 113.88 24.9898 114.179 24.9898ZM123.296 26.4778C122.699 26.4778 122.144 26.3338 121.632 26.0458C121.131 25.7472 120.731 25.3578 120.432 24.8778C120.134 24.3872 119.984 23.8698 119.984 23.3258V19.3258C119.984 19.1872 120.064 19.0592 120.224 18.9418C120.395 18.8245 120.598 18.7658 120.832 18.7658C121.056 18.7658 121.248 18.8245 121.408 18.9418C121.579 19.0592 121.664 19.1872 121.664 19.3258V23.3258C121.664 23.6032 121.734 23.8698 121.872 24.1258C122.022 24.3818 122.219 24.5898 122.464 24.7498C122.72 24.9098 122.998 24.9898 123.296 24.9898C123.595 24.9898 123.867 24.9098 124.112 24.7498C124.358 24.5898 124.55 24.3818 124.688 24.1258C124.838 23.8698 124.912 23.6032 124.912 23.3258V19.3098C124.912 19.1605 124.998 19.0325 125.168 18.9258C125.35 18.8192 125.547 18.7658 125.76 18.7658C126.006 18.7658 126.203 18.8192 126.352 18.9258C126.512 19.0325 126.592 19.1605 126.592 19.3098V23.3258C126.592 23.8912 126.443 24.4138 126.144 24.8938C125.846 25.3738 125.446 25.7578 124.944 26.0458C124.443 26.3338 123.894 26.4778 123.296 26.4778ZM129.9 16.8618C129.633 16.8618 129.404 16.7712 129.212 16.5898C129.02 16.4085 128.924 16.2058 128.924 15.9818C128.924 15.7365 129.02 15.5285 129.212 15.3578C129.404 15.1872 129.633 15.1018 129.9 15.1018C130.166 15.1018 130.39 15.1872 130.572 15.3578C130.764 15.5285 130.86 15.7365 130.86 15.9818C130.86 16.2058 130.764 16.4085 130.572 16.5898C130.39 16.7712 130.166 16.8618 129.9 16.8618ZM129.9 26.3498C129.654 26.3498 129.452 26.2912 129.292 26.1738C129.142 26.0565 129.068 25.9285 129.068 25.7898V19.3098C129.068 19.1498 129.142 19.0218 129.292 18.9258C129.452 18.8192 129.654 18.7658 129.9 18.7658C130.134 18.7658 130.332 18.8192 130.492 18.9258C130.662 19.0218 130.748 19.1498 130.748 19.3098V25.7898C130.748 25.9285 130.662 26.0565 130.492 26.1738C130.332 26.2912 130.134 26.3498 129.9 26.3498ZM136.057 26.3498C135.151 26.3498 134.457 26.1525 133.977 25.7578C133.497 25.3525 133.257 24.7178 133.257 23.8538V15.8378C133.257 15.6778 133.343 15.5498 133.513 15.4538C133.695 15.3472 133.887 15.2938 134.089 15.2938C134.292 15.2938 134.484 15.3472 134.665 15.4538C134.847 15.5498 134.937 15.6778 134.937 15.8378V18.7658H136.889C137.039 18.7658 137.151 18.8298 137.225 18.9578C137.311 19.0858 137.353 19.2298 137.353 19.3898C137.353 19.5498 137.311 19.6938 137.225 19.8218C137.151 19.9498 137.039 20.0138 136.889 20.0138H134.937V23.8538C134.937 24.2378 135.017 24.5098 135.177 24.6698C135.348 24.8298 135.641 24.9098 136.057 24.9098H136.601C136.847 24.9098 137.028 24.9845 137.145 25.1338C137.273 25.2725 137.337 25.4378 137.337 25.6298C137.337 25.8112 137.273 25.9765 137.145 26.1258C137.028 26.2752 136.847 26.3498 136.601 26.3498H136.057ZM144.959 26.4778C144.373 26.4778 143.871 26.3072 143.455 25.9658C143.039 25.6138 142.831 25.0805 142.831 24.3658C142.831 23.7578 142.991 23.2885 143.311 22.9578C143.631 22.6272 144.069 22.3978 144.623 22.2698C145.189 22.1418 145.839 22.0778 146.575 22.0778H147.279V21.7898C147.279 21.5125 147.226 21.2458 147.119 20.9898C147.023 20.7232 146.858 20.5045 146.623 20.3338C146.399 20.1525 146.09 20.0618 145.695 20.0618C145.301 20.0618 144.997 20.0992 144.783 20.1738C144.57 20.2485 144.399 20.3285 144.271 20.4138C144.143 20.4992 144.026 20.5418 143.919 20.5418C143.727 20.5418 143.578 20.4512 143.471 20.2698C143.365 20.0778 143.311 19.8858 143.311 19.6938C143.311 19.5018 143.434 19.3312 143.679 19.1818C143.935 19.0218 144.25 18.8992 144.623 18.8138C144.997 18.7178 145.365 18.6698 145.727 18.6698C146.517 18.6698 147.146 18.8192 147.615 19.1178C148.085 19.4058 148.426 19.7845 148.639 20.2538C148.853 20.7232 148.959 21.2298 148.959 21.7738V25.7898C148.959 25.9392 148.879 26.0725 148.719 26.1898C148.57 26.2965 148.378 26.3498 148.143 26.3498C147.93 26.3498 147.749 26.2965 147.599 26.1898C147.45 26.0725 147.375 25.9392 147.375 25.7898V25.2298C147.098 25.5498 146.762 25.8378 146.367 26.0938C145.973 26.3498 145.503 26.4778 144.959 26.4778ZM145.567 25.1978C145.834 25.1978 146.095 25.1178 146.351 24.9578C146.618 24.7978 146.837 24.5952 147.007 24.3498C147.189 24.1045 147.279 23.8538 147.279 23.5978V23.0058H146.879C146.474 23.0058 146.09 23.0325 145.727 23.0858C145.365 23.1285 145.071 23.2352 144.847 23.4058C144.634 23.5658 144.527 23.8165 144.527 24.1578C144.527 24.5205 144.623 24.7872 144.815 24.9578C145.018 25.1178 145.269 25.1978 145.567 25.1978ZM146.607 17.1658C146.565 17.1658 146.527 17.1605 146.495 17.1498C146.463 17.1392 146.431 17.1285 146.399 17.1178L144.463 16.1418C144.293 16.0565 144.207 15.9125 144.207 15.7098C144.207 15.5605 144.255 15.4165 144.351 15.2778C144.458 15.1285 144.591 15.0538 144.751 15.0538C144.805 15.0538 144.863 15.0645 144.927 15.0858L146.911 16.0938C147.071 16.1792 147.151 16.3178 147.151 16.5098C147.151 16.6592 147.098 16.8085 146.991 16.9578C146.895 17.0965 146.767 17.1658 146.607 17.1658ZM159.106 26.4458C158.423 26.4458 157.81 26.3285 157.266 26.0938C156.733 25.8592 156.306 25.4805 155.986 24.9578C155.677 24.4352 155.522 23.7418 155.522 22.8778V18.2218C155.522 17.3578 155.677 16.6645 155.986 16.1418C156.306 15.6192 156.733 15.2405 157.266 15.0058C157.81 14.7712 158.407 14.6538 159.058 14.6538C159.783 14.6538 160.418 14.7765 160.962 15.0218C161.506 15.2672 161.933 15.6085 162.242 16.0458C162.551 16.4832 162.706 17.0058 162.706 17.6138C162.706 17.9338 162.631 18.1525 162.482 18.2698C162.343 18.3765 162.135 18.4298 161.858 18.4298C161.634 18.4298 161.437 18.3925 161.266 18.3178C161.106 18.2325 161.021 18.0832 161.01 17.8698C160.978 17.5605 160.903 17.2778 160.786 17.0218C160.669 16.7552 160.477 16.5472 160.21 16.3978C159.943 16.2378 159.575 16.1578 159.106 16.1578C158.509 16.1578 158.039 16.3285 157.698 16.6698C157.367 17.0005 157.202 17.5178 157.202 18.2218V22.8778C157.202 23.5818 157.367 24.1045 157.698 24.4458C158.039 24.7765 158.509 24.9418 159.106 24.9418C159.693 24.9418 160.157 24.7765 160.498 24.4458C160.839 24.1045 161.01 23.5818 161.01 22.8778V21.5658H159.394C159.223 21.5658 159.09 21.4965 158.994 21.3578C158.898 21.2192 158.85 21.0592 158.85 20.8778C158.85 20.7178 158.898 20.5685 158.994 20.4298C159.09 20.2805 159.223 20.2058 159.394 20.2058H162.146C162.327 20.2058 162.466 20.2645 162.562 20.3818C162.658 20.4885 162.706 20.6218 162.706 20.7818V22.8778C162.706 23.7418 162.546 24.4352 162.226 24.9578C161.906 25.4805 161.474 25.8592 160.93 26.0938C160.386 26.3285 159.778 26.4458 159.106 26.4458ZM168.334 26.4778C167.737 26.4778 167.182 26.3338 166.67 26.0458C166.169 25.7472 165.769 25.3578 165.47 24.8778C165.171 24.3872 165.022 23.8698 165.022 23.3258V19.3258C165.022 19.1872 165.102 19.0592 165.262 18.9418C165.433 18.8245 165.635 18.7658 165.87 18.7658C166.094 18.7658 166.286 18.8245 166.446 18.9418C166.617 19.0592 166.702 19.1872 166.702 19.3258V23.3258C166.702 23.6032 166.771 23.8698 166.91 24.1258C167.059 24.3818 167.257 24.5898 167.502 24.7498C167.758 24.9098 168.035 24.9898 168.334 24.9898C168.633 24.9898 168.905 24.9098 169.15 24.7498C169.395 24.5898 169.587 24.3818 169.726 24.1258C169.875 23.8698 169.95 23.6032 169.95 23.3258V19.3098C169.95 19.1605 170.035 19.0325 170.206 18.9258C170.387 18.8192 170.585 18.7658 170.798 18.7658C171.043 18.7658 171.241 18.8192 171.39 18.9258C171.55 19.0325 171.63 19.1605 171.63 19.3098V23.3258C171.63 23.8912 171.481 24.4138 171.182 24.8938C170.883 25.3738 170.483 25.7578 169.982 26.0458C169.481 26.3338 168.931 26.4778 168.334 26.4778ZM177.529 26.4778C176.804 26.4778 176.164 26.3445 175.609 26.0778C175.054 25.8112 174.617 25.4432 174.297 24.9738C173.977 24.4938 173.817 23.9338 173.817 23.2938V21.7738C173.817 21.2085 173.966 20.6912 174.265 20.2218C174.574 19.7525 174.98 19.3792 175.481 19.1018C175.982 18.8138 176.537 18.6698 177.145 18.6698C177.721 18.6698 178.249 18.7978 178.729 19.0538C179.209 19.2992 179.593 19.6458 179.881 20.0938C180.18 20.5418 180.329 21.0538 180.329 21.6298C180.329 22.0778 180.26 22.3978 180.121 22.5898C179.982 22.7818 179.801 22.8992 179.577 22.9418C179.353 22.9845 179.118 23.0058 178.873 23.0058H175.497V23.3738C175.497 23.9072 175.689 24.3338 176.073 24.6538C176.468 24.9632 176.969 25.1178 177.577 25.1178C177.95 25.1178 178.254 25.0645 178.489 24.9578C178.724 24.8512 178.921 24.7498 179.081 24.6538C179.241 24.5578 179.39 24.5098 179.529 24.5098C179.668 24.5098 179.785 24.5525 179.881 24.6378C179.977 24.7232 180.052 24.8245 180.105 24.9418C180.158 25.0592 180.185 25.1658 180.185 25.2618C180.185 25.4218 180.073 25.5978 179.849 25.7898C179.636 25.9818 179.332 26.1472 178.937 26.2858C178.542 26.4138 178.073 26.4778 177.529 26.4778ZM175.497 21.9658H178.153C178.388 21.9658 178.542 21.9338 178.617 21.8698C178.702 21.8058 178.745 21.6778 178.745 21.4858C178.745 21.2085 178.676 20.9525 178.537 20.7178C178.398 20.4725 178.206 20.2858 177.961 20.1578C177.716 20.0192 177.438 19.9498 177.129 19.9498C176.83 19.9498 176.558 20.0138 176.313 20.1418C176.068 20.2698 175.87 20.4458 175.721 20.6698C175.572 20.8938 175.497 21.1552 175.497 21.4538V21.9658ZM184.819 26.4778C184.296 26.4778 183.827 26.4138 183.411 26.2858C182.995 26.1578 182.664 25.9978 182.419 25.8058C182.184 25.6032 182.067 25.4005 182.067 25.1978C182.067 25.1018 182.088 24.9952 182.131 24.8778C182.184 24.7605 182.253 24.6592 182.339 24.5738C182.435 24.4885 182.536 24.4458 182.643 24.4458C182.781 24.4458 182.925 24.5098 183.075 24.6378C183.235 24.7552 183.443 24.8778 183.699 25.0058C183.955 25.1232 184.312 25.1818 184.771 25.1818C185.304 25.1818 185.661 25.0912 185.843 24.9098C186.035 24.7285 186.131 24.5312 186.131 24.3178C186.131 24.0405 186.035 23.8272 185.843 23.6778C185.661 23.5178 185.421 23.3898 185.123 23.2938C184.835 23.1978 184.525 23.1072 184.195 23.0218C183.864 22.9258 183.549 22.8032 183.251 22.6538C182.963 22.5045 182.723 22.2965 182.531 22.0298C182.349 21.7632 182.259 21.4112 182.259 20.9738C182.259 20.6112 182.349 20.2538 182.531 19.9018C182.712 19.5392 183 19.2458 183.395 19.0218C183.8 18.7872 184.339 18.6698 185.011 18.6698C185.416 18.6698 185.8 18.7125 186.163 18.7978C186.525 18.8832 186.824 19.0005 187.059 19.1498C187.293 19.2885 187.411 19.4432 187.411 19.6138C187.411 19.6885 187.384 19.7952 187.331 19.9338C187.277 20.0618 187.203 20.1792 187.107 20.2858C187.021 20.3818 186.909 20.4298 186.771 20.4298C186.664 20.4298 186.531 20.3925 186.371 20.3178C186.211 20.2325 186.024 20.1525 185.811 20.0778C185.597 20.0032 185.336 19.9658 185.027 19.9658C184.717 19.9658 184.467 20.0192 184.275 20.1258C184.093 20.2218 183.96 20.3392 183.875 20.4778C183.789 20.6165 183.747 20.7552 183.747 20.8938C183.747 21.1285 183.837 21.3098 184.019 21.4378C184.2 21.5658 184.44 21.6725 184.739 21.7578C185.037 21.8432 185.352 21.9338 185.683 22.0298C186.013 22.1152 186.323 22.2432 186.611 22.4138C186.909 22.5845 187.149 22.8138 187.331 23.1018C187.523 23.3898 187.619 23.7738 187.619 24.2538C187.619 24.9258 187.373 25.4645 186.883 25.8698C186.403 26.2752 185.715 26.4778 184.819 26.4778ZM190.631 26.3498C190.385 26.3498 190.183 26.2912 190.023 26.1738C189.873 26.0565 189.799 25.9285 189.799 25.7898V19.3098C189.799 19.1498 189.873 19.0218 190.023 18.9258C190.183 18.8192 190.385 18.7658 190.631 18.7658C190.833 18.7658 191.009 18.8192 191.159 18.9258C191.308 19.0218 191.383 19.1498 191.383 19.3098V19.8858C191.543 19.5765 191.804 19.2992 192.167 19.0538C192.54 18.7978 192.993 18.6698 193.527 18.6698C194.028 18.6698 194.487 18.8138 194.903 19.1018C195.329 19.3792 195.671 19.7578 195.927 20.2378C196.183 20.7072 196.311 21.2352 196.311 21.8218V25.7898C196.311 25.9712 196.22 26.1098 196.039 26.2058C195.868 26.3018 195.676 26.3498 195.463 26.3498C195.271 26.3498 195.084 26.3018 194.903 26.2058C194.721 26.1098 194.631 25.9712 194.631 25.7898V21.8218C194.631 21.5445 194.556 21.2778 194.407 21.0218C194.268 20.7658 194.076 20.5578 193.831 20.3978C193.585 20.2378 193.313 20.1578 193.015 20.1578C192.759 20.1578 192.513 20.2272 192.279 20.3658C192.044 20.4938 191.852 20.6805 191.703 20.9258C191.553 21.1712 191.479 21.4698 191.479 21.8218V25.7898C191.479 25.9285 191.393 26.0565 191.223 26.1738C191.063 26.2912 190.865 26.3498 190.631 26.3498ZM202.21 26.4778C201.485 26.4778 200.845 26.3445 200.29 26.0778C199.736 25.8112 199.298 25.4432 198.978 24.9738C198.658 24.4938 198.498 23.9338 198.498 23.2938V21.7738C198.498 21.2085 198.648 20.6912 198.946 20.2218C199.256 19.7525 199.661 19.3792 200.162 19.1018C200.664 18.8138 201.218 18.6698 201.826 18.6698C202.402 18.6698 202.93 18.7978 203.41 19.0538C203.89 19.2992 204.274 19.6458 204.562 20.0938C204.861 20.5418 205.01 21.0538 205.01 21.6298C205.01 22.0778 204.941 22.3978 204.802 22.5898C204.664 22.7818 204.482 22.8992 204.258 22.9418C204.034 22.9845 203.8 23.0058 203.554 23.0058H200.178V23.3738C200.178 23.9072 200.37 24.3338 200.754 24.6538C201.149 24.9632 201.65 25.1178 202.258 25.1178C202.632 25.1178 202.936 25.0645 203.17 24.9578C203.405 24.8512 203.602 24.7498 203.762 24.6538C203.922 24.5578 204.072 24.5098 204.21 24.5098C204.349 24.5098 204.466 24.5525 204.562 24.6378C204.658 24.7232 204.733 24.8245 204.786 24.9418C204.84 25.0592 204.866 25.1658 204.866 25.2618C204.866 25.4218 204.754 25.5978 204.53 25.7898C204.317 25.9818 204.013 26.1472 203.618 26.2858C203.224 26.4138 202.754 26.4778 202.21 26.4778ZM200.178 21.9658H202.834C203.069 21.9658 203.224 21.9338 203.298 21.8698C203.384 21.8058 203.426 21.6778 203.426 21.4858C203.426 21.2085 203.357 20.9525 203.218 20.7178C203.08 20.4725 202.888 20.2858 202.642 20.1578C202.397 20.0192 202.12 19.9498 201.81 19.9498C201.512 19.9498 201.24 20.0138 200.994 20.1418C200.749 20.2698 200.552 20.4458 200.402 20.6698C200.253 20.8938 200.178 21.1552 200.178 21.4538V21.9658ZM209.5 26.4778C208.977 26.4778 208.508 26.4138 208.092 26.2858C207.676 26.1578 207.345 25.9978 207.1 25.8058C206.865 25.6032 206.748 25.4005 206.748 25.1978C206.748 25.1018 206.769 24.9952 206.812 24.8778C206.865 24.7605 206.935 24.6592 207.02 24.5738C207.116 24.4885 207.217 24.4458 207.324 24.4458C207.463 24.4458 207.607 24.5098 207.756 24.6378C207.916 24.7552 208.124 24.8778 208.38 25.0058C208.636 25.1232 208.993 25.1818 209.452 25.1818C209.985 25.1818 210.343 25.0912 210.524 24.9098C210.716 24.7285 210.812 24.5312 210.812 24.3178C210.812 24.0405 210.716 23.8272 210.524 23.6778C210.343 23.5178 210.103 23.3898 209.804 23.2938C209.516 23.1978 209.207 23.1072 208.876 23.0218C208.545 22.9258 208.231 22.8032 207.932 22.6538C207.644 22.5045 207.404 22.2965 207.212 22.0298C207.031 21.7632 206.94 21.4112 206.94 20.9738C206.94 20.6112 207.031 20.2538 207.212 19.9018C207.393 19.5392 207.681 19.2458 208.076 19.0218C208.481 18.7872 209.02 18.6698 209.692 18.6698C210.097 18.6698 210.481 18.7125 210.844 18.7978C211.207 18.8832 211.505 19.0005 211.74 19.1498C211.975 19.2885 212.092 19.4432 212.092 19.6138C212.092 19.6885 212.065 19.7952 212.012 19.9338C211.959 20.0618 211.884 20.1792 211.788 20.2858C211.703 20.3818 211.591 20.4298 211.452 20.4298C211.345 20.4298 211.212 20.3925 211.052 20.3178C210.892 20.2325 210.705 20.1525 210.492 20.0778C210.279 20.0032 210.017 19.9658 209.708 19.9658C209.399 19.9658 209.148 20.0192 208.956 20.1258C208.775 20.2218 208.641 20.3392 208.556 20.4778C208.471 20.6165 208.428 20.7552 208.428 20.8938C208.428 21.1285 208.519 21.3098 208.7 21.4378C208.881 21.5658 209.121 21.6725 209.42 21.7578C209.719 21.8432 210.033 21.9338 210.364 22.0298C210.695 22.1152 211.004 22.2432 211.292 22.4138C211.591 22.5845 211.831 22.8138 212.012 23.1018C212.204 23.3898 212.3 23.7738 212.3 24.2538C212.3 24.9258 212.055 25.4645 211.564 25.8698C211.084 26.2752 210.396 26.4778 209.5 26.4778Z" fill="black"/>
</svg>
