<svg width="211" height="214" viewBox="0 0 211 214" fill="none" xmlns="http://www.w3.org/2000/svg">
<path d="M50.8724 40.6383L34.0633 162.412L44.393 164.863L51.1235 169.085L108.173 58.8439C92.1038 48.1142 74.4725 39.7868 50.8724 40.6383Z" fill="#DAB183"/>
<path d="M199.405 62.5924L139.138 73.0484L138.838 72.0947L136.703 65.4553L136.011 61.9404C136.011 61.9404 135.379 57.5179 135.273 57.2174C135.167 56.9169 135.175 55.9848 135.175 55.9848L134.585 55.39L134.12 56.2292L134.293 60.3062L133.993 63.2831L132.58 56.0526L132.192 55.5551L131.445 56.0714L131.771 64.5288L131.508 73.9522L132.973 74.0291L133.511 67.4216L134.134 68.4692L134.747 68.8869L135.095 68.5541L135.408 67.7685L137.648 73.2728L137.922 73.2597L124.403 75.6048L119.248 73.5967L119.126 73.8341L118.822 73.6812L107.413 97.1151L97.1747 98.5159L93.8152 108.142L85.1748 104.253C85.0809 104.162 84.9268 104.218 84.7246 104.395L107.728 59.2529L101.036 55.8714L45.5404 163.991L51.832 168.946L66.7655 139.639L82.5976 148.084L72.7909 168.227C94.7302 192.981 112.014 195.061 129.048 195.92L160.561 138.382L183.685 120.022C184.164 120.119 184.662 120.055 185.1 119.838C185.538 119.621 185.891 119.264 186.103 118.824C186.237 118.545 186.31 118.241 186.317 117.932L186.459 117.819L186.314 117.741C186.29 117.351 186.161 116.974 185.942 116.649C185.723 116.324 185.422 116.064 185.068 115.894C184.746 115.741 184.391 115.668 184.034 115.682C183.677 115.696 183.329 115.797 183.02 115.975L182.818 115.867L175.109 111.819L175.194 111.663L175.262 111.697L177.317 107.788L179.319 104.132L179.255 104.099L179.328 103.96L179.676 103.073L179.851 103.16L178.759 98.3921L203.165 75.6279L199.405 62.5924ZM58.0924 42.8951C58.0924 42.8951 51.1382 40.8 50.4941 40.6681L34.6034 162.46L41.4755 163.986L58.0924 42.8951ZM174.072 113.713L181.806 117.775L181.922 117.837C181.92 118.086 181.96 118.333 182.04 118.568L163.236 133.498L174.072 113.713Z" fill="#AEAEAE"/>
</svg>
