<svg width="314" height="180" viewBox="0 0 314 180" fill="none" xmlns="http://www.w3.org/2000/svg">
<path d="M110.393 179.642C109.991 151.663 132.542 114.876 160.52 114.474C188.499 114.071 211.311 150.207 211.714 178.185M193.848 61.9271C194.099 64.0132 194.244 66.1463 194.275 68.3163C194.637 93.535 179.525 114.2 160.52 114.474C141.516 114.747 125.816 94.5244 125.453 69.3057C125.426 67.4423 125.484 65.6038 125.622 63.7966" fill="#E3DBDB"/>
<path d="M193.848 61.9271C194.099 64.0132 194.244 66.1463 194.275 68.3163C194.638 93.535 179.525 114.2 160.521 114.474C141.516 114.747 125.816 94.5244 125.453 69.3057C125.426 67.4423 125.484 65.6038 125.622 63.7966" fill="#FFBB8E"/>
<path d="M83.5101 43.1714L84.5303 114.137C113.656 139.984 204.742 137.936 233.804 111.991L232.648 40.1833C232.707 52.8799 199.504 64.3348 158.351 64.9264C117.199 65.518 83.6805 55.0223 83.4858 41.4835" fill="black" fill-opacity="0.2"/>
<path d="M125.381 35.5405C125.292 29.3434 126.866 23.5097 129.691 18.4649C135.425 8.22468 146.311 1.23483 158.89 1.054C171.527 0.872332 182.652 7.60833 188.659 17.7567C191.578 22.6873 193.288 28.4234 193.376 34.563C182.716 39.9301 137.631 40.18 125.381 35.5405ZM188.949 17.7053C214.537 21.2271 232.37 29.4763 232.512 39.3412L232.648 40.1833C232.707 52.8799 199.504 64.3349 158.351 64.9265C117.199 65.5181 83.6805 55.0223 83.4859 41.4835C83.3441 31.6187 100.933 22.8602 126.409 18.6043" fill="#E3DBDB"/>
<path d="M188.659 17.7567C191.578 22.6873 193.288 28.4234 193.376 34.563C182.716 39.9301 137.631 40.18 125.381 35.5405C125.292 29.3434 126.866 23.5097 129.691 18.4649" stroke="#C8B7B7" stroke-width="0.521538" stroke-linecap="round"/>
<path d="M297.083 139.713C291.97 138.798 286.2 132.941 278.08 120.422C276.434 117.884 274.992 115.698 274.875 115.564C273.998 113.137 266.262 107.69 281.472 111.62C281.55 111.746 283.483 111.944 285.768 112.059C294.709 112.51 302.115 113.874 306.072 115.798C312.257 118.806 313.688 124.003 310.456 131.726C308.402 131.867 308.191 133.858 307.622 135.491L306.546 136.494C303.673 139.17 300.355 140.298 297.083 139.713Z" fill="#FAC100"/>
<path d="M266.185 96.8529C265.783 96.8534 265.463 97.0817 265.131 97.5236C264.661 98.1497 264.477 98.2017 263.732 97.9192C263.009 97.6449 262.773 97.6959 262.228 98.2436C261.286 99.1898 261.677 99.9499 263.94 101.572C265.819 102.92 266.873 104.203 267.321 105.689C267.483 106.227 267.302 106.617 266.533 107.389C265.169 108.757 263.453 112.567 262.115 117.198C260.597 122.456 260.474 123.477 261.292 124.053C262.369 124.811 264.029 124.448 266.237 122.972C269.468 120.812 272.842 117.959 273.788 116.588L274.749 115.581L275.909 117.024C277.26 116.434 278.824 114.921 278.873 111.023L274.511 108.564L273.894 107.775C273.554 107.342 272.795 106.738 272.206 106.435C271.168 105.9 271.132 105.822 271.052 103.892C270.936 101.117 270.176 99.4698 268.339 98.0104C267.354 97.228 266.702 96.8522 266.185 96.8529ZM283.945 112.001C283.297 112 283.179 112.036 283.179 112.036C283.797 116.041 281.802 119.437 278.959 121.721C280.884 124.688 281.797 125.982 283.48 128.223C287.49 125.669 291.105 118.978 290.047 112.354C288.668 112.232 287.239 112.133 285.768 112.059C284.911 112.016 284.333 112.002 283.945 112.001ZM296.652 113.286C296.728 120.536 294.191 127.114 288.179 133.788C290.963 136.813 292.459 138.031 294.775 138.939C300.592 134.504 303.93 121.739 305.348 115.486C302.924 114.308 301.224 113.963 296.652 113.286ZM309.652 118.292C309.771 118.414 309.884 118.539 309.994 118.665C309.911 118.48 309.799 118.352 309.652 118.292ZM309.994 118.665C311.266 121.525 305.09 138.374 301.043 139.591C302.966 139.131 304.835 138.087 306.545 136.494L307.622 135.492L314 136.857L310.456 131.726C312.829 126.054 312.686 121.745 309.994 118.665Z" fill="#303030"/>
<path d="M274.679 106.623C274.772 105.556 274.926 103.57 275.023 102.211C275.629 93.6452 277.95 89.6952 282.377 89.6952C283.081 89.6952 284.18 90.0393 284.876 90.3338C285.942 90.7844 286.513 91.8252 287.138 92.2897C288.274 92.4495 290.907 93.1391 291.578 95.0812C292.87 98.8178 290.943 102.113 283.141 108.814C282.247 109.647 280.044 111.258 280.044 111.258C279.344 111.284 277.824 110.693 277.642 110.469C277.273 110.016 276.876 111.427 275.361 112.636C274.114 112.745 274.59 107.649 274.679 106.623Z" fill="#CCCCCC"/>
<path d="M264.357 98.1157C268.605 100.066 269.304 103.094 269.684 105.314" stroke="#303030" stroke-width="0.407173"/>
<path d="M287.137 92.2897C289.435 97.9853 284.94 102.092 282.18 105.731L277.589 110.424" stroke="#ECECEC" stroke-width="0.622983"/>
<path d="M274.782 44.3877C271.175 45.2471 265.774 43.1284 256.996 37.4099C255.216 36.2506 253.667 35.259 253.553 35.2063C252.309 33.9004 245.732 32.6001 256.794 30.8174C256.88 30.8762 258.202 30.4563 259.733 29.8843C265.723 27.6461 270.957 26.4261 274.084 26.5397C278.97 26.7171 281.342 29.6396 281.352 35.4962C280.043 36.1665 280.453 37.5013 280.531 38.7073L280.101 39.6532C278.955 42.1775 277.089 43.8378 274.782 44.3877Z" fill="#FAC100"/>
<path d="M242.693 25.6849C242.43 25.7988 242.283 26.0355 242.187 26.4121C242.051 26.9457 241.945 27.031 241.378 27.0607C240.828 27.0895 240.687 27.1889 240.481 27.6935C240.124 28.5652 240.59 28.9412 242.522 29.3403C244.126 29.6717 245.172 30.1955 245.875 31.02C246.13 31.3182 246.119 31.6194 245.827 32.331C245.309 33.5919 245.234 36.5156 245.634 39.8581C246.087 43.653 246.289 44.3413 246.984 44.4786C247.899 44.6594 248.888 43.9578 249.93 42.3891C251.454 40.0931 252.88 37.3137 253.123 36.169L253.475 35.2526L254.634 35.8485C255.358 35.0888 255.967 33.6787 254.924 31.17L251.385 30.8283L250.762 30.4978C250.42 30.3162 249.755 30.1447 249.285 30.1168C248.457 30.0676 248.412 30.0279 247.827 28.8154C246.986 27.0717 246.033 26.2321 244.425 25.8172C243.563 25.5947 243.032 25.5384 242.693 25.6849ZM258.521 30.3625C258.096 30.5445 258.028 30.6012 258.028 30.6012C259.538 32.9897 259.166 35.7274 257.931 37.9931C260.011 39.3483 260.967 39.9183 262.689 40.8774C264.615 38.1092 265.142 32.8049 262.621 28.8639C261.683 29.1755 260.718 29.5162 259.733 29.8844C259.159 30.0989 258.776 30.2532 258.521 30.3625ZM267.211 27.5935C269.26 32.2134 269.41 37.1402 267.306 43.1117C269.967 44.2608 271.284 44.618 273.054 44.545C275.646 40.0618 274.317 30.9477 273.522 26.5447C271.607 26.4752 270.397 26.735 267.211 27.5935ZM277.119 27.1243C277.231 27.1688 277.34 27.2167 277.447 27.2663C277.342 27.1712 277.233 27.121 277.119 27.1243ZM277.447 27.2663C279.07 28.7371 279.664 41.2683 277.345 43.1909C278.48 42.3525 279.418 41.1567 280.101 39.6534L280.531 38.7074L285.091 37.7788L281.351 35.4963C281.344 31.195 280.062 28.4772 277.447 27.2663Z" fill="#303030"/>
<path d="M250.96 29.5385C250.726 28.8291 250.28 27.5144 249.968 26.6169C248.004 20.9629 248.438 17.7785 251.342 16.5275C251.804 16.3283 252.619 16.2382 253.157 16.2299C253.981 16.2172 254.643 16.7219 255.18 16.8427C255.97 16.6239 257.887 16.3212 258.863 17.3746C260.741 19.4013 260.385 22.0551 257.115 28.5491C256.758 29.3356 255.757 30.9887 255.757 30.9887C255.305 31.2035 254.145 31.2549 253.964 31.1631C253.597 30.9769 253.726 31.9921 253.065 33.1946C252.277 33.6167 251.185 30.2204 250.96 29.5385Z" fill="#CCCCCC"/>
<path d="M241.842 27.01C245.167 27.0581 246.46 28.7988 247.322 30.1119" stroke="#303030" stroke-width="0.407173"/>
<path d="M255.18 16.8428C258.258 19.8394 256.442 23.7385 255.635 26.8473L253.917 31.1491" stroke="#ECECEC" stroke-width="0.622983"/>
<path d="M29.7091 118.345C33.8799 116.075 37.1967 109.353 40.6327 96.2066C41.3292 93.5415 41.9505 91.2388 42.0134 91.0894C42.0748 88.7423 47.2145 81.8053 35.1563 89.5996C35.1254 89.731 33.5057 90.4613 31.5572 91.2226C23.9333 94.2012 17.9039 97.5222 15.0266 100.328C10.5295 104.713 10.7857 109.608 15.8122 115.332C17.6339 114.858 18.391 116.514 19.3543 117.757L20.5765 118.31C23.8379 119.785 27.0405 119.797 29.7091 118.345Z" fill="#FAC100"/>
<path d="M44.1596 72.4385C44.5083 72.3225 44.8519 72.4266 45.2668 72.7116C45.8547 73.1153 46.0293 73.1068 46.594 72.6474C47.142 72.2015 47.3616 72.177 47.9921 72.4914C49.0811 73.0345 48.9607 73.8032 47.4657 75.8577C46.2243 77.5637 45.6798 78.976 45.7193 80.3869C45.7336 80.8972 46.0033 81.1814 46.8929 81.6241C48.4693 82.4086 51.0545 85.1969 53.5484 88.8028C56.3798 92.8967 56.7802 93.7417 56.237 94.4747C55.5214 95.4402 53.977 95.608 51.6374 94.9749C48.2129 94.0481 44.4656 92.5657 43.2508 91.6574L42.1271 91.0674L41.5367 92.6479C40.1949 92.5303 38.4031 91.6791 37.2384 88.3322L40.3123 84.9482L40.6204 84.0893C40.79 83.6169 41.275 82.8768 41.6982 82.4444C42.4442 81.6824 42.4527 81.605 41.9667 79.9178C41.2678 77.4913 41.4521 75.8511 42.6252 74.0605C43.2541 73.1005 43.7111 72.5877 44.1596 72.4385ZM33.1217 90.6443C33.6824 90.4558 33.7959 90.4525 33.7959 90.4525C34.4127 94.0847 37.1208 96.4353 40.2442 97.5815C39.4299 100.697 39.0106 102.077 38.1967 104.497C33.9836 103.456 28.9215 98.7344 27.9313 92.7163C29.0921 92.2117 30.3031 91.7126 31.5571 91.2226C32.2878 90.9371 32.7852 90.7574 33.1217 90.6443ZM22.4715 95.4329C24.4945 101.707 28.5881 106.643 35.7243 110.657C34.1809 114.071 33.2346 115.555 31.4883 117.009C25.1662 114.869 18.5946 104.83 15.5646 99.849C17.3269 98.1307 18.7021 97.3409 22.4715 95.4329ZM12.6403 103.515C12.5725 103.654 12.5104 103.795 12.4512 103.935C12.4693 103.752 12.5299 103.609 12.6403 103.515ZM12.4512 103.935C12.1711 106.77 22.3804 119.51 26.2401 119.387C24.4399 119.547 22.5188 119.188 20.5765 118.31L19.3543 117.757L14.2163 120.782L15.8122 115.332C12.1206 111.128 11.0034 107.371 12.4512 103.935Z" fill="#303030"/>
<path d="M39.6074 83.3235C39.2198 82.43 38.5139 80.7625 38.0388 79.618C35.0463 72.4079 31.8959 69.6743 28.0569 70.9565C27.4458 71.1606 26.5924 71.7754 26.0732 72.2312C25.2789 72.9284 25.0832 73.9913 24.6755 74.5726C23.7361 75.0396 21.6514 76.3969 21.6284 78.266C21.5841 81.8622 24.2046 84.145 32.9003 87.6629C33.916 88.1228 36.2897 88.8733 36.2897 88.8733C36.9049 88.693 38.0527 87.7435 38.1462 87.4977C38.3354 86.9996 39.0856 88.1014 40.7482 88.7053C41.8606 88.4382 39.98 84.1825 39.6074 83.3235Z" fill="#CCCCCC"/>
<path d="M46.1089 72.9978C42.9867 75.9104 43.2528 78.7236 43.5622 80.7473" stroke="#303030" stroke-width="0.407173"/>
<path d="M24.6756 74.5726C24.3239 80.1491 29.4041 82.3888 32.8455 84.7264L38.1784 87.4438" stroke="#ECECEC" stroke-width="0.622983"/>
</svg>
