<svg width="672" height="408" viewBox="0 0 672 408" fill="none" xmlns="http://www.w3.org/2000/svg">
<path d="M159.051 25.5009C158.223 25.4727 157.529 26.121 157.501 26.9489C157.473 27.7769 158.121 28.4709 158.949 28.4991L159.051 25.5009ZM278.854 98.4928C279.678 98.5737 280.412 97.9708 280.493 97.1464L281.81 83.7108C281.891 82.8863 281.288 82.1524 280.464 82.0716C279.639 81.9907 278.905 82.5936 278.824 83.4181L277.654 95.3608L265.711 94.1899C264.886 94.1091 264.152 94.712 264.072 95.5364C263.991 96.3609 264.594 97.0948 265.418 97.1756L278.854 98.4928ZM158.949 28.4991C198.996 29.8638 217.062 33.3772 230.896 43.2441C237.839 48.196 243.791 54.8017 250.927 63.756C258.019 72.6546 266.348 83.9611 277.841 97.9521L280.159 96.0479C268.652 82.0389 260.486 70.9364 253.273 61.8862C246.104 52.8916 239.939 46.0088 232.638 40.8016C217.984 30.3505 199.05 26.8639 159.051 25.5009L158.949 28.4991Z" fill="#4C4C4C"/>
<path d="M654.545 236.815C654.443 235.993 653.694 235.409 652.872 235.511C652.049 235.613 651.466 236.362 651.568 237.185L654.545 236.815ZM575.93 377.096C575.433 377.759 575.566 378.699 576.229 379.197L587.022 387.305C587.685 387.803 588.625 387.669 589.123 387.007C589.62 386.345 589.487 385.404 588.824 384.907L579.23 377.699L586.438 368.105C586.935 367.443 586.802 366.502 586.139 366.005C585.477 365.507 584.537 365.641 584.039 366.303L575.93 377.096ZM651.568 237.185C656.298 275.328 657.06 302.652 654.795 322.298C652.529 341.946 647.255 353.747 640.063 361.043C632.881 368.33 623.577 371.339 612.74 372.94C607.318 373.741 601.571 374.182 595.55 374.65C589.547 375.116 583.285 375.608 576.919 376.512L577.341 379.482C583.598 378.594 589.768 378.108 595.782 377.641C601.779 377.175 607.635 376.726 613.178 375.907C624.271 374.269 634.345 371.119 642.2 363.149C650.047 355.188 655.47 342.633 657.775 322.642C660.08 302.65 659.287 275.055 654.545 236.815L651.568 237.185Z" fill="#4C4C4C"/>
<path d="M451.152 369.5C451.98 369.5 452.652 368.829 452.652 368C452.652 367.172 451.98 366.5 451.152 366.5V369.5ZM159.939 366.94C159.354 367.525 159.354 368.475 159.939 369.061L169.485 378.607C170.071 379.193 171.021 379.193 171.607 378.607C172.192 378.021 172.192 377.071 171.607 376.486L163.121 368L171.607 359.515C172.192 358.929 172.192 357.979 171.607 357.394C171.021 356.808 170.071 356.808 169.485 357.394L159.939 366.94ZM451.152 366.5C299.672 366.5 215 366.5 161 366.5L161 369.5C215 369.5 299.672 369.5 451.152 369.5V366.5Z" fill="#4C4C4C"/>
<path d="M407 153.5C406.172 153.5 405.5 154.172 405.5 155C405.5 155.829 406.172 156.5 407 156.5L407 153.5ZM544.061 42.0607C544.647 41.4749 544.647 40.5251 544.061 39.9393L534.515 30.3934C533.929 29.8076 532.979 29.8076 532.393 30.3934C531.808 30.9792 531.808 31.9289 532.393 32.5147L540.879 41L532.393 49.4853C531.808 50.0711 531.808 51.0208 532.393 51.6066C532.979 52.1924 533.929 52.1924 534.515 51.6066L544.061 42.0607ZM407 156.5C419.203 156.5 428.715 148.915 437.299 138.121C445.866 127.349 453.841 112.936 462.768 98.801C480.754 70.3228 502.863 42.5 543 42.5L543 39.5C501.137 39.5 478.246 68.6771 460.232 97.199C451.159 111.564 443.384 125.651 434.951 136.254C426.535 146.836 417.797 153.5 407 153.5L407 156.5Z" fill="#4C4C4C"/>
<path d="M73.0835 345.647H138.917V378.158H73.0835V345.647ZM79.9852 307H132.015C133.487 307 134.672 308.22 134.672 309.735V313.969C134.672 315.484 133.487 316.704 132.015 316.704H79.9852C78.5135 316.704 77.3286 315.484 77.3286 313.969V309.735C77.3286 308.22 78.5135 307 79.9852 307ZM82.0841 316.805H129.916C134.902 316.805 138.917 320.938 138.917 326.072V397.733C138.917 402.867 134.902 407 129.916 407H82.0841C77.0978 407 73.0835 402.867 73.0835 397.733V326.072C73.0835 320.938 77.0978 316.805 82.0841 316.805Z" fill="#FFE488"/>
<path d="M79.9852 307H132.015C133.487 307 134.672 308.22 134.672 309.735V313.969C134.672 315.484 133.487 316.704 132.015 316.704H79.9852C78.5135 316.704 77.3286 315.484 77.3286 313.969V309.735C77.3286 308.22 78.5135 307 79.9852 307Z" fill="#EBB500"/>
<path d="M73.0835 345.647H138.917V378.158H73.0835V345.647Z" fill="#F9F9F9" stroke="#F9F9F9" stroke-width="1.55818" stroke-linecap="round"/>
<path d="M100.335 361.269C105.463 370.911 109.544 374.692 113.123 373.954C117.07 373.141 118.999 367.035 117.122 364.801C115.019 362.299 109.136 360.993 100.335 361.269Z" fill="#FAC100"/>
<path d="M110.911 374.854C108.319 374.379 105.394 371.336 101.277 364.833C100.443 363.515 99.7114 362.38 99.6521 362.31C99.5928 362.241 99.3449 362.48 99.1011 362.842C98.6218 363.554 96.9112 365.036 95.2729 366.158C94.1536 366.925 93.312 367.113 92.766 366.72C92.3515 366.421 92.4137 365.89 93.1837 363.159C93.8619 360.753 94.7317 358.774 95.423 358.064C95.8132 357.663 95.905 357.46 95.8229 357.181C95.5958 356.409 95.0613 355.742 94.1087 355.042C92.9615 354.199 92.7632 353.804 93.2406 353.313C93.5169 353.029 93.6367 353.002 94.0033 353.145C94.3809 353.291 94.4742 353.264 94.7125 352.939C95.0969 352.414 95.451 352.469 96.3388 353.192C97.2704 353.95 97.6555 354.806 97.7142 356.247C97.755 357.25 97.7729 357.29 98.2991 357.568C98.5977 357.726 98.9828 358.039 99.1549 358.264L99.4679 358.674L99.5532 357.666C99.6001 357.111 99.6784 356.08 99.7272 355.374C100.034 350.924 101.211 348.873 103.456 348.873C103.813 348.873 104.37 349.051 104.723 349.204C105.263 349.438 105.553 349.979 105.869 350.22C106.445 350.303 107.696 350.85 108.252 351.751C109.381 353.584 108.35 355.461 104.289 358.966C103.539 359.613 102.958 360.196 102.997 360.261C103.036 360.327 104.016 360.43 105.175 360.49C109.708 360.724 113.462 361.432 115.468 362.432C118.604 363.994 119.329 366.694 117.691 370.705L119.488 373.371L116.254 372.661L115.709 373.182C114.252 374.572 112.57 375.158 110.911 374.854ZM113.436 373.026C115.985 371.78 117.843 367.672 116.804 365.576C116.479 364.919 115.432 363.92 115.214 364.059C115.143 364.104 115.085 364.466 115.085 364.863C115.085 365.962 114.775 367.792 114.422 368.777C114.053 369.805 113.016 371.518 112.2 372.449C111.877 372.816 111.677 373.179 111.74 373.283C111.878 373.513 112.692 373.389 113.436 373.026ZM110.065 362.58L107.523 362.276C107.636 364.91 106.884 366.412 105.229 368.116L107.154 370.382C108.921 368.626 110.301 365.366 110.065 362.58ZM102.873 362.132L101.35 361.804L102.113 363.356C102.792 363.593 102.873 362.132 102.873 362.132ZM105.355 355.863C107.406 353.762 107.626 353.137 106.703 352.047C106.418 351.71 106.198 351.818 106.198 352.293C106.197 353.122 104.921 355.327 103.356 357.202C103.033 357.59 102.768 357.974 102.768 358.056C102.768 358.335 103.779 357.478 105.355 355.863ZM103.334 354.945C104.9 352.85 105.209 351.564 104.34 350.764C103.501 349.992 102.578 350.251 101.999 351.419C101.47 352.488 100.844 356.741 101.142 357.239C101.274 357.458 102.11 356.582 103.334 354.945Z" fill="#4C4C4C"/>
<mask id="mask0_446_1861" style="mask-type:luminance" maskUnits="userSpaceOnUse" x="484" y="311" width="60" height="97">
<path d="M484.368 311.935L487.084 396.882C491.71 409.822 536.249 414.165 541.119 395.013L541.489 382.423C541.228 380.806 540.712 379.237 541.638 377.393C541.257 376.19 541.25 374.972 541.745 373.735C541.377 372.233 541.746 370.786 542.278 369.351L541.916 367.929L542.645 343.206L543.021 341.909C542.661 340.67 542.484 339.468 542.793 338.162C542.281 336.752 542.566 335.402 542.914 334.058C542.468 332.769 542.537 331.405 543.034 329.98L543.549 312.51C524.103 314.301 504.565 315.437 484.368 311.935Z" fill="white"/>
</mask>
<g mask="url(#mask0_446_1861)">
<path d="M543.549 311.935L540.833 396.882C536.206 409.822 491.667 414.165 486.798 395.013L486.427 382.423C486.688 380.806 487.205 379.237 486.279 377.393C486.659 376.19 486.666 374.972 486.171 373.735C486.54 372.233 486.171 370.786 485.638 369.351L486 367.929L485.272 343.206L484.895 341.909C485.255 340.67 485.432 339.468 485.123 338.162C485.636 336.752 485.351 335.402 485.002 334.058C485.449 332.769 485.379 331.405 484.882 329.98L484.368 312.51C503.813 314.301 523.351 315.437 543.549 311.935Z" fill="#004FAC"/>
</g>
<mask id="mask1_446_1861" style="mask-type:luminance" maskUnits="userSpaceOnUse" x="484" y="312" width="60" height="96">
<mask id="mask2_446_1861" style="mask-type:luminance" maskUnits="userSpaceOnUse" x="484" y="312" width="60" height="96">
<path d="M484.846 312.683L487.518 396.252C492.069 408.982 535.886 413.255 540.676 394.414L541.041 382.028C540.784 380.437 540.276 378.893 541.187 377.08C540.813 375.896 540.806 374.698 541.293 373.481C540.93 372.003 541.293 370.579 541.817 369.168L541.461 367.769L542.178 343.447L542.548 342.171C542.194 340.952 542.02 339.77 542.324 338.485C541.819 337.097 542.1 335.77 542.443 334.448C542.004 333.179 542.072 331.838 542.561 330.436L543.067 313.249C523.937 315.011 504.716 316.129 484.846 312.683Z" fill="white"/>
</mask>
<g mask="url(#mask2_446_1861)">
<path d="M543.067 312.683L540.395 396.252C535.844 408.982 492.027 413.255 487.237 394.414L486.872 382.028C487.129 380.437 487.637 378.893 486.726 377.08C487.1 375.896 487.108 374.698 486.62 373.481C486.983 372.003 486.62 370.579 486.096 369.168L486.452 367.769L485.736 343.447L485.365 342.171C485.719 340.952 485.893 339.77 485.59 338.485C486.094 337.097 485.813 335.77 485.471 334.448C485.909 333.179 485.841 331.838 485.352 330.436L484.846 313.249C503.976 315.011 523.197 316.129 543.067 312.683Z" fill="white"/>
</g>
</mask>
<g mask="url(#mask1_446_1861)">
<path d="M541.768 379.499C541.492 380.707 540.593 381.867 539.14 382.931C537.687 383.994 535.697 384.948 533.339 385.749C528.623 387.352 522.439 388.348 516.092 388.565C509.744 388.782 503.229 388.22 497.845 386.74C492.461 385.261 488.242 382.859 486.38 379.515L485.563 379.976C487.623 383.675 492.087 386.136 497.598 387.65C503.109 389.164 509.7 389.725 516.124 389.505C522.548 389.286 528.801 388.285 533.639 386.64C536.059 385.818 538.125 384.836 539.69 383.69C541.255 382.544 542.334 381.221 542.679 379.71L541.768 379.499ZM541.768 375C541.492 376.208 540.593 377.368 539.14 378.431C537.687 379.495 535.697 380.449 533.339 381.25C528.623 382.852 522.439 383.848 516.092 384.065C509.744 384.282 503.229 383.72 497.845 382.241C492.461 380.762 488.242 378.36 486.38 375.016L485.563 375.477C487.623 379.176 492.087 381.636 497.598 383.15C503.109 384.664 509.7 385.226 516.124 385.006C522.548 384.786 528.801 383.785 533.639 382.141C536.059 381.319 538.125 380.337 539.69 379.191C541.255 378.045 542.334 376.722 542.679 375.211L541.768 375ZM541.768 371.499C541.492 372.707 540.593 373.867 539.14 374.931C537.687 375.995 535.697 376.95 533.339 377.751C528.623 379.354 522.439 380.35 516.092 380.567C509.744 380.784 503.229 380.222 497.845 378.742C492.461 377.263 488.242 374.861 486.38 371.517L485.563 371.976C487.623 375.675 492.087 378.136 497.598 379.65C503.109 381.164 509.7 381.727 516.124 381.507C522.548 381.287 528.801 380.287 533.639 378.642C536.059 377.82 538.125 376.838 539.69 375.692C541.255 374.546 542.334 373.221 542.679 371.71L541.768 371.499ZM542.577 329.527C542.249 330.197 541.303 330.958 539.827 331.64C538.351 332.323 536.37 332.943 534.039 333.47C529.379 334.524 523.32 335.212 517.006 335.399C510.693 335.587 504.121 335.277 498.425 334.35C492.729 333.422 487.91 331.858 485.136 329.65L484.556 330.387C487.57 332.787 492.5 334.338 498.275 335.278C504.05 336.219 510.671 336.529 517.034 336.34C523.398 336.151 529.5 335.462 534.245 334.389C536.617 333.852 538.649 333.221 540.218 332.496C541.787 331.77 542.917 330.965 543.417 329.943L542.577 329.527ZM542.577 333.327C542.249 333.996 541.303 334.757 539.827 335.44C538.351 336.122 536.37 336.743 534.039 337.27C529.379 338.324 523.32 339.011 517.006 339.199C510.693 339.387 504.121 339.077 498.425 338.149C492.729 337.222 487.91 335.658 485.136 333.45L484.556 334.187C487.57 336.586 492.5 338.137 498.275 339.078C504.05 340.018 510.671 340.329 517.034 340.139C523.398 339.95 529.5 339.261 534.245 338.188C536.617 337.651 538.649 337.02 540.218 336.295C541.787 335.57 542.917 334.765 543.417 333.743L542.577 333.327ZM542.577 337.327C542.249 337.996 541.303 338.757 539.827 339.44C538.351 340.122 536.37 340.743 534.039 341.27C529.379 342.324 523.32 343.011 517.006 343.199C510.693 343.386 504.121 343.075 498.425 342.147C492.729 341.22 487.91 339.658 485.136 337.449L484.556 338.186C487.57 340.586 492.5 342.137 498.275 343.077C504.05 344.018 510.671 344.328 517.034 344.139C523.398 343.95 529.5 343.261 534.245 342.188C536.617 341.651 538.649 341.02 540.218 340.295C541.787 339.569 542.917 338.764 543.417 337.742L542.577 337.327ZM486.58 367.205L485.362 367.89C487.471 371.676 491.995 374.152 497.537 375.674C503.079 377.197 509.689 377.757 516.132 377.537C522.574 377.317 528.843 376.316 533.712 374.662C536.147 373.834 538.233 372.845 539.826 371.679C541.418 370.512 542.542 369.148 542.904 367.562L541.543 367.248C541.284 368.382 540.43 369.502 539.005 370.545C537.58 371.589 535.609 372.536 533.266 373.333C528.581 374.925 522.413 375.92 516.084 376.136C509.755 376.352 503.257 375.792 497.904 374.321C492.552 372.85 488.394 370.461 486.58 367.205ZM542.371 340.724C542.086 341.306 541.184 342.057 539.73 342.729C538.277 343.401 536.309 344.02 533.989 344.544C529.349 345.594 523.3 346.28 516.999 346.467C510.697 346.655 504.137 346.343 498.461 345.419C492.784 344.495 487.994 342.929 485.279 340.767L484.414 341.868C487.486 344.314 492.443 345.86 498.238 346.804C504.032 347.747 510.665 348.059 517.04 347.87C523.416 347.68 529.53 346.99 534.295 345.912C536.678 345.374 538.722 344.741 540.313 344.005C541.905 343.269 543.079 342.453 543.622 341.344L542.371 340.724Z" fill="#01449F"/>
</g>
<path d="M543.783 311.875C543.783 313.942 530.386 315.618 513.859 315.618C497.333 315.618 484.532 314.092 484.532 312.025C484.532 309.958 497.333 308.133 513.859 308.133C530.386 308.133 543.783 309.808 543.783 311.875Z" fill="#0056BC"/>
<path d="M514.001 308C505.904 308 498.575 308.41 493.243 309.077C490.576 309.41 488.413 309.804 486.869 310.261C486.097 310.489 485.481 310.727 485.004 311.019C484.527 311.311 484.082 311.718 484.082 312.342C484.082 312.967 484.527 313.372 485.004 313.664C485.481 313.956 486.097 314.194 486.869 314.422C488.413 314.879 490.576 315.274 493.243 315.608C498.575 316.275 505.904 316.684 514.001 316.684C522.097 316.684 529.425 316.275 534.758 315.608C537.424 315.274 539.587 314.879 541.131 314.422C541.903 314.194 542.52 313.956 542.998 313.664C543.475 313.372 543.918 312.967 543.918 312.342C543.918 311.718 543.475 311.311 542.998 311.019C542.52 310.727 541.903 310.489 541.131 310.261C539.587 309.804 537.424 309.41 534.758 309.077C529.425 308.41 522.097 308 514.001 308ZM514.001 309.371C522.051 309.371 529.341 309.779 534.59 310.436C537.214 310.764 539.333 311.158 540.748 311.577C541.455 311.786 541.988 312.007 542.29 312.191C542.591 312.375 542.556 312.462 542.556 312.342C542.556 312.222 542.591 312.309 542.29 312.493C541.988 312.678 541.455 312.899 540.748 313.108C539.333 313.526 537.214 313.919 534.59 314.247C529.341 314.904 522.051 315.313 514.001 315.313C505.95 315.313 498.659 314.904 493.411 314.247C490.786 313.919 488.667 313.526 487.253 313.108C486.545 312.899 486.013 312.678 485.712 312.493C485.41 312.309 485.444 312.222 485.444 312.342C485.444 312.462 485.41 312.375 485.712 312.191C486.013 312.007 486.545 311.786 487.253 311.577C488.667 311.158 490.786 310.764 493.411 310.436C498.659 309.779 505.95 309.371 514.001 309.371Z" fill="#8A96A6"/>
<path d="M593.194 15.1262L594.381 50.7447C600.603 61.0072 610.974 66.2534 621.525 66.7045C632.992 67.1946 648.312 63.5308 650.1 50.8202L650.251 18.371C637.754 27.8944 623.877 28.1207 613.921 26.7945C606.21 25.7673 598.673 20.3031 593.194 15.1262Z" fill="#ADADAD"/>
<mask id="mask3_446_1861" style="mask-type:luminance" maskUnits="userSpaceOnUse" x="593" y="15" width="58" height="52">
<path d="M593.194 15.1262L594.381 50.7447C600.603 61.0072 610.974 66.2534 621.525 66.7045C632.992 67.1946 648.312 63.5308 650.1 50.8202L650.251 18.371C637.754 27.8944 623.877 28.1207 613.921 26.7945C606.21 25.7673 598.673 20.3031 593.194 15.1262Z" fill="white"/>
</mask>
<g mask="url(#mask3_446_1861)">
<path d="M593.661 24.7585L592.869 24.9786C593.119 25.8794 593.813 28.4052 596.719 31.0523C599.624 33.6994 604.728 36.5004 613.796 38.1857L613.805 38.188L613.816 38.1891C627.41 40.0535 633.022 38.3565 639.743 37.2265L639.814 37.2153L652.14 30.2421L651.736 29.5266L639.534 36.4298C632.789 37.569 627.378 39.2179 613.935 37.3755C604.981 35.7097 600.035 32.9617 597.272 30.4441C594.508 27.9253 593.914 25.6698 593.661 24.7585ZM593.921 38.9723L593.17 39.3074C595.885 45.4104 601.14 49.2836 607.271 51.579C613.403 53.8744 620.425 54.6115 626.786 54.4589H626.803L626.821 54.4566C640.908 52.9078 641.057 50.9511 645.281 49.209L645.327 49.1898L645.369 49.1594C647.371 47.6751 649.535 46.2084 650.511 44.0709L649.764 43.7289C648.927 45.5624 646.91 46.9928 644.9 48.4823C640.571 50.2909 640.654 52.1066 626.747 53.6373C620.47 53.7862 613.546 53.0505 607.56 50.8093C601.568 48.566 596.529 44.8336 593.921 38.9723Z" fill="#A3A3A3"/>
</g>
<path d="M651.831 14.5165L653.537 15.5837L651.938 90.2884L649.165 92.5295L649.912 18.5719L651.831 14.5165ZM597.077 20.6529L604.088 24.4148L604.061 100L597.557 97.1185L597.077 20.6529Z" fill="#DE0517"/>
<path d="M647.314 33.5069L644.597 33.6491C644.637 34.4085 644.837 34.6146 645.032 35.1049C645.227 35.5952 645.463 36.1796 645.682 36.8451C646.122 38.1752 646.484 39.8124 646.318 41.4856C645.739 46.5605 644.179 53.168 641.221 58.8524C638.262 64.5393 633.975 69.2412 627.91 70.9377C624.754 71.7489 623.535 71.6979 619.001 70.3215C616.89 69.5768 615.161 68.2894 614.059 67.0827C613.507 66.478 613.115 65.8911 612.912 65.4644C612.708 65.0376 612.799 64.784 612.71 65.0513L610.128 64.1925C609.815 65.1342 610.097 65.8842 610.455 66.6358C610.812 67.3873 611.35 68.1527 612.05 68.9199C613.451 70.4543 615.515 71.9841 618.113 72.8968L618.14 72.907L618.168 72.9149C622.907 74.3558 625.165 74.4578 628.606 73.5717L628.618 73.5682L628.632 73.5636C635.638 71.6081 640.458 66.2147 643.634 60.1105C646.81 54.0063 648.414 47.1327 649.025 41.7777L649.026 41.7675L649.027 41.7585C649.248 39.5326 648.771 37.5202 648.266 35.9895C648.013 35.2242 647.749 34.5744 647.559 34.0958C647.368 33.6173 647.294 33.1196 647.314 33.5069Z" fill="#757575"/>
<path d="M651.888 13.5791C651.888 20.7369 638.367 27.2865 622.128 27.2865C605.888 27.2865 593.081 20.7369 593.081 13.5791C593.081 6.42132 606.246 0.618774 622.485 0.618774C638.724 0.618774 651.888 6.42132 651.888 13.5791Z" fill="#F2F2F2"/>
<path d="M622.485 0C614.292 0 606.871 1.45609 601.444 3.84825C598.731 5.04434 596.512 6.47436 594.946 8.10616C593.38 9.73797 592.463 11.6001 592.463 13.5795C592.463 17.5279 595.906 21.0898 601.246 23.6741C606.585 26.2584 613.925 27.9049 622.128 27.9049C630.331 27.9049 637.845 26.2585 643.36 23.6775C646.117 22.387 648.377 20.8639 649.973 19.1645C651.568 17.4651 652.507 15.564 652.507 13.5795C652.507 11.6001 651.589 9.73797 650.023 8.10616C648.458 6.47436 646.239 5.04434 643.525 3.84825C638.098 1.45609 630.679 0 622.485 0ZM622.485 1.23799C630.531 1.23799 637.812 2.68273 643.027 4.98129C645.634 6.13057 647.722 7.49341 649.131 8.96271C650.541 10.432 651.27 11.9799 651.27 13.5795C651.27 15.1739 650.519 16.7753 649.072 18.317C647.624 19.8588 645.489 21.3152 642.836 22.5569C637.531 25.0401 630.164 26.6681 622.128 26.6681C614.091 26.6681 606.908 25.0402 601.784 22.5603C596.66 20.0803 593.699 16.7889 593.699 13.5795C593.699 11.9799 594.428 10.432 595.838 8.96271C597.248 7.49341 599.335 6.13057 601.943 4.98129C607.157 2.68273 614.439 1.23799 622.485 1.23799Z" fill="#A4A4A4"/>
<path d="M599.81 21.3141L600.866 20.0312L600.715 18.7483L603.203 17.1636L605.691 17.0127L610.818 19.1257L611.044 21.6159L606.294 24.7099C603.67 23.6809 600.707 22.7273 599.81 21.3141Z" fill="#DE0517"/>
<path d="M601.966 4.13735L644.05 22.6453L642.909 26.5415C642.425 28.1924 645.851 33.7995 648.074 29.2896L650.049 25.2834L647.177 20.9227L604.851 2.84369L601.966 4.13735Z" fill="#9E9E9E" stroke="#9F9F9F" stroke-width="2.77809"/>
<path d="M638.702 17.9906L641.798 19.3599L645.398 18.0987L645.182 17.2339L641.942 15.7205L638.774 17.2339L638.702 17.9906ZM634.764 20.3834L637.86 21.7527L641.46 20.4915L641.244 19.6267L638.004 18.1133L634.836 19.6267L634.764 20.3834ZM605.248 3.77772L607.541 4.79157L610.206 3.85776L610.046 3.21744L607.647 2.09686L605.302 3.21744L605.248 3.77772ZM601.742 5.12508L604.035 6.13892L606.7 5.20512L606.54 4.56479L604.141 3.44421L601.796 4.56479L601.742 5.12508Z" fill="#575656"/>
<path d="M639.921 26.0683H642.673L648.668 28.785L645.802 39.6517H643.239" fill="#D5D5D5"/>
<path d="M639.922 26.0683L646.481 28.8227L643.239 39.6517L636.604 36.4067L639.922 26.0683Z" fill="#DBDBDB"/>
<path d="M639.412 36.7464C640.131 36.7464 640.713 36.1551 640.713 35.4258C640.713 34.6964 640.131 34.1052 639.412 34.1052C638.694 34.1052 638.112 34.6964 638.112 35.4258C638.112 36.1551 638.694 36.7464 639.412 36.7464Z" fill="#C20A17"/>
<path d="M640.713 32.7468C641.432 32.7468 642.014 32.1555 642.014 31.4262C642.014 30.6968 641.432 30.1056 640.713 30.1056C639.995 30.1056 639.413 30.6968 639.413 31.4262C639.413 32.1555 639.995 32.7468 640.713 32.7468Z" fill="#3D7D4D"/>
<path d="M376.586 111L389 126.899L388.555 140.909L376.586 136.474V111Z" fill="#84959C"/>
<path d="M297.713 193.391L292.932 140.464L376.587 136.474L387.358 140.523L386.376 179.756L375.761 198.587L297.713 193.391Z" fill="#EBBC7A"/>
<path d="M375.997 137.142L375.761 198.587" stroke="#DBA55A" stroke-width="0.351088"/>
<path d="M318.209 151.255L343.014 150.272C345.655 162.611 316.421 162.094 318.209 151.255Z" fill="#DBA55A"/>
<path d="M289 121.378L290.73 141.191L376.587 136.474V111L289 121.378Z" fill="#84959C"/>
<path d="M297.713 193.391L293.088 195.127L293.796 202.754L373.835 211.088L386.65 184.356L386.375 179.756L375.761 198.587L297.713 193.391Z" fill="#D59F61"/>
<path d="M298.277 189.466L373.913 194.734L373.782 198.426L370.1 198.227L367.621 202.217L354.493 200.945C354.493 200.945 354.356 200.749 354.336 200.709C354.316 200.67 354.306 200.316 354.306 200.316L354.297 199.943L354.198 199.579L353.943 199.294L353.658 199.058C353.658 199.058 353.402 199.039 353.353 199.039C353.304 199.039 353.019 199.088 353.019 199.088L352.822 199.255L352.685 199.422L352.646 199.668L352.665 200.002C352.665 200.002 352.685 200.139 352.675 200.208C352.665 200.277 352.547 200.405 352.547 200.405C352.547 200.405 352.37 200.513 352.331 200.513C352.292 200.513 352.076 200.474 352.036 200.444C351.997 200.415 351.623 200.385 351.623 200.385L351.515 200.356C351.515 200.356 351.525 200.326 351.476 200.139C351.427 199.953 351.368 199.658 351.368 199.658C351.368 199.658 351.309 199.491 351.289 199.452C351.27 199.412 351.25 199.324 351.171 199.235C351.093 199.147 351.132 199.186 351.053 199.098C350.975 199.009 350.945 198.98 350.877 198.94C350.808 198.901 350.641 198.832 350.601 198.813C350.562 198.793 350.395 198.783 350.326 198.823C350.257 198.862 350.267 198.783 350.218 198.813C350.169 198.842 350.031 198.881 350.031 198.881L349.894 198.97L349.864 199.117L349.845 199.334L349.805 199.609L349.786 199.815L349.766 199.992L349.677 200.139L349.51 200.208L349.206 200.179L348.931 200.13L348.695 200.051L348.596 200.061L348.547 199.795L348.508 199.52C348.508 199.52 348.518 199.343 348.518 199.304C348.518 199.265 348.478 199.108 348.478 199.108C348.478 199.108 348.528 199.147 348.361 198.98C348.193 198.813 348.144 198.754 348.144 198.754C348.144 198.754 348.046 198.626 347.987 198.606C347.928 198.587 347.751 198.537 347.702 198.537C347.653 198.537 347.564 198.479 347.407 198.508C347.25 198.538 347.083 198.636 347.083 198.636L346.985 198.773L346.965 199.029L346.926 199.245V199.442L346.975 199.638V199.805L346.827 199.894L346.69 200.012L346.149 199.963L345.884 199.874L345.746 199.825L345.727 199.619L345.736 199.363L345.687 199.029L345.589 198.842L345.481 198.685L345.353 198.528L345.176 198.37L344.842 198.292L344.616 198.321L344.37 198.4L344.243 198.479L344.184 198.616L344.164 198.793L344.213 199.049L344.203 199.373V199.501L344.046 199.619L343.918 199.697H343.751L343.397 199.628L343.171 199.619L343.044 199.56L342.965 199.52L342.936 199.117L342.926 198.881L342.837 198.636L342.66 198.41L342.503 198.233L342.366 198.135L342.11 198.066C342.11 198.066 341.923 197.987 341.845 197.987C341.766 197.987 341.628 198.115 341.628 198.115C341.628 198.115 341.54 198.203 341.491 198.282C341.442 198.361 341.402 198.479 341.402 198.479L341.393 198.705L341.402 198.95L341.343 199.166V199.284L341.245 199.412L341.108 199.471L340.685 199.461L340.351 199.402L340.272 199.363L340.223 199.137C340.223 199.137 340.174 198.823 340.164 198.764C340.154 198.705 340.125 198.479 340.125 198.479L339.869 198.105C339.869 198.105 339.741 197.977 339.515 197.928C339.289 197.879 339.378 197.83 339.181 197.85C338.985 197.869 338.818 197.967 338.818 197.967C338.818 197.967 338.7 197.84 338.69 198.135C338.68 198.429 338.68 198.508 338.68 198.508V198.842L338.621 199.029L338.454 199.196C338.454 199.196 338.257 199.265 338.1 199.225C337.943 199.186 337.776 199.216 337.668 199.166C337.56 199.117 337.52 199.078 337.52 199.078C337.52 199.078 337.491 198.852 337.481 198.734C337.471 198.616 337.461 198.488 337.402 198.351C337.343 198.213 337.294 198.066 337.265 198.026C337.235 197.987 337.324 197.938 337.058 197.83C336.793 197.722 336.813 197.653 336.705 197.643C336.596 197.633 336.518 197.594 336.39 197.633C336.262 197.673 336.135 197.771 336.135 197.771C336.135 197.771 335.987 197.869 335.987 197.987C335.987 198.105 336.026 198.262 336.026 198.262L335.997 198.518L335.968 198.744C335.968 198.744 335.948 198.872 335.869 198.911C335.791 198.95 335.82 198.98 335.633 198.98C335.447 198.98 335.181 198.96 335.181 198.96L334.877 198.872L334.886 198.646L334.749 197.928C334.749 197.928 334.631 197.732 334.582 197.702C334.533 197.673 334.533 197.633 334.415 197.555C334.297 197.476 334.395 197.447 334.218 197.417C334.041 197.388 333.933 197.397 333.884 197.407C333.835 197.417 333.638 197.496 333.589 197.535C333.54 197.574 333.422 197.673 333.422 197.673C333.422 197.673 333.314 197.899 333.334 197.967C333.353 198.036 333.402 198.302 333.402 198.302C333.402 198.302 333.393 198.459 333.363 198.518C333.334 198.577 333.235 198.695 333.235 198.695L333.167 198.754L332.754 198.793C332.754 198.793 332.646 198.685 332.429 198.705C332.213 198.724 332.223 198.685 332.223 198.685C332.223 198.685 332.292 198.479 332.233 198.302C332.174 198.125 332.135 198.085 332.135 197.928C332.135 197.771 332.144 197.722 332.085 197.653C332.027 197.584 332.184 197.594 331.899 197.456C331.614 197.319 331.604 197.27 331.535 197.24C331.466 197.211 331.181 197.162 331.093 197.181C331.004 197.201 330.857 197.319 330.857 197.319C330.857 197.319 330.818 197.447 330.818 197.486C330.818 197.525 330.827 197.8 330.827 197.8L330.808 198.046L330.788 198.272L330.68 198.439L330.562 198.518C330.562 198.518 330.493 198.577 330.307 198.547C330.12 198.518 329.815 198.429 329.815 198.429L329.658 198.41C329.658 198.41 329.55 197.987 329.55 197.889C329.55 197.791 329.599 197.791 329.53 197.643C329.461 197.496 329.442 197.437 329.363 197.348C329.285 197.26 329.324 197.25 329.216 197.181C329.108 197.112 329.245 197.122 329.049 197.063C328.852 197.004 329.137 197.014 328.823 196.995C328.508 196.975 328.557 196.965 328.508 196.975C328.459 196.985 328.321 197.063 328.321 197.063C328.321 197.063 328.292 197.034 328.243 197.191C328.194 197.348 328.184 197.338 328.194 197.417C328.203 197.496 328.203 197.515 328.213 197.614C328.223 197.712 328.223 197.751 328.223 197.83V197.997L328.144 198.125C328.144 198.125 328.017 198.262 327.977 198.292C327.938 198.321 327.82 198.4 327.82 198.4C327.82 198.4 327.761 198.41 327.594 198.361C327.427 198.311 327.496 198.341 327.339 198.302C327.181 198.262 327.191 198.272 327.132 198.262C327.073 198.252 327.063 198.252 327.063 198.252L327.014 197.732C327.014 197.732 327.063 197.574 327.004 197.456C326.945 197.338 327.024 197.427 326.916 197.27C326.808 197.112 326.857 197.162 326.778 197.083C326.7 197.004 326.66 196.995 326.572 196.916C326.484 196.837 326.68 196.916 326.454 196.818C326.228 196.719 326.277 196.729 326.208 196.719C326.14 196.709 326.12 196.651 326.012 196.729C325.904 196.808 325.963 196.729 325.874 196.837C325.786 196.945 325.737 197.024 325.737 197.024C325.737 197.024 325.727 197.063 325.707 197.171C325.687 197.28 325.668 197.24 325.668 197.397C325.668 197.555 325.658 197.427 325.668 197.565C325.678 197.702 325.687 197.702 325.678 197.781C325.668 197.859 325.668 197.918 325.668 197.918C325.668 197.918 325.629 198.007 325.56 198.046C325.491 198.085 325.53 198.066 325.452 198.105C325.373 198.144 325.216 198.174 325.216 198.174C325.216 198.174 325.167 198.115 325.029 198.115C324.891 198.115 324.911 198.125 324.793 198.115C324.675 198.105 324.636 198.095 324.636 198.095L324.538 198.036L324.498 197.682L324.469 197.417C324.469 197.417 324.479 197.309 324.41 197.191C324.341 197.073 324.361 197.063 324.292 196.965C324.223 196.867 324.194 196.837 324.135 196.788C324.076 196.739 324.41 196.818 323.997 196.68C323.584 196.542 323.643 196.542 323.643 196.542L323.368 196.572L323.27 196.7C323.27 196.7 323.221 196.66 323.201 196.837C323.181 197.014 323.181 197.093 323.181 197.093L323.191 197.27L323.221 197.466L323.201 197.633C323.201 197.633 323.211 197.712 323.113 197.771C323.014 197.83 322.955 197.889 322.916 197.889C322.877 197.889 322.611 197.977 322.611 197.977L322.14 197.869L322.002 197.781C322.002 197.781 322.041 197.584 322.022 197.486C322.002 197.388 322.031 197.447 321.973 197.24C321.914 197.034 321.992 197.162 321.894 196.965C321.796 196.768 321.815 196.778 321.776 196.709C321.737 196.641 321.796 196.67 321.668 196.582C321.54 196.493 321.56 196.523 321.491 196.464C321.422 196.405 321.53 196.375 321.314 196.356C321.098 196.336 321.206 196.297 321.088 196.336C320.97 196.375 321 196.336 320.931 196.395C320.862 196.454 320.832 196.454 320.774 196.542C320.715 196.631 320.715 196.493 320.675 196.7C320.636 196.906 320.665 196.759 320.636 196.916C320.606 197.073 320.567 196.896 320.606 197.132C320.646 197.368 320.675 197.397 320.675 197.397L320.695 197.496L320.626 197.623C320.626 197.623 320.636 197.663 320.508 197.692C320.38 197.722 320.538 197.741 320.341 197.722C320.145 197.702 320.302 197.751 320.046 197.673C319.791 197.594 319.86 197.604 319.791 197.594C319.722 197.584 319.692 197.584 319.692 197.584H319.555C319.555 197.584 319.555 197.604 319.545 197.427C319.535 197.25 319.604 197.348 319.535 197.211C319.466 197.073 319.506 197.171 319.447 196.975C319.388 196.778 319.476 196.906 319.388 196.759C319.299 196.611 319.388 196.719 319.299 196.611C319.211 196.503 319.378 196.621 319.162 196.444C318.946 196.267 319.211 196.366 318.936 196.257C318.661 196.149 318.68 196.149 318.592 196.139C318.503 196.13 318.592 196.012 318.425 196.179C318.258 196.346 318.307 196.208 318.258 196.356C318.208 196.503 318.228 196.444 318.208 196.552C318.189 196.66 318.169 196.621 318.199 196.788C318.228 196.955 318.228 196.906 318.238 197.014C318.248 197.122 318.267 197.221 318.267 197.221C318.267 197.221 318.326 197.191 318.267 197.289C318.208 197.388 318.434 197.299 318.179 197.397C317.923 197.496 317.894 197.506 317.894 197.506C317.894 197.506 318.032 197.486 317.835 197.515C317.638 197.545 317.874 197.614 317.638 197.545C317.403 197.476 317.471 197.515 317.403 197.476C317.334 197.437 317.314 197.427 317.255 197.417C317.196 197.407 317.186 197.456 317.147 197.388C317.108 197.319 317.118 197.437 317.108 197.28C317.098 197.122 317.147 197.211 317.088 197.024C317.029 196.837 317.088 197.014 317.029 196.837C316.97 196.66 316.99 196.709 316.97 196.66C316.95 196.611 316.97 196.631 316.901 196.503C316.833 196.375 316.931 196.474 316.803 196.346C316.675 196.218 316.764 196.287 316.665 196.208C316.567 196.13 316.695 196.198 316.567 196.13C316.439 196.061 316.665 196.061 316.42 196.051C316.174 196.041 316.164 196.041 316.164 196.041C316.164 196.041 316.194 196.022 316.105 196.051C316.017 196.081 315.997 196.041 315.948 196.11C315.899 196.179 315.928 196.002 315.899 196.179C315.869 196.356 315.879 196.218 315.869 196.375C315.86 196.533 315.889 196.395 315.86 196.552C315.83 196.709 315.83 196.67 315.83 196.768V196.916C315.83 196.985 315.85 196.995 315.791 197.083C315.732 197.171 315.84 197.112 315.732 197.171C315.624 197.23 315.496 197.338 315.496 197.338C315.496 197.338 315.604 197.289 315.26 197.299C314.916 197.309 314.867 197.289 314.867 197.289C314.867 197.289 314.847 197.23 314.778 197.211C314.71 197.191 314.641 197.211 314.631 197.162C314.621 197.112 314.611 197.25 314.611 197.063C314.611 196.877 314.602 197.004 314.611 196.857C314.621 196.71 314.641 196.818 314.621 196.68C314.602 196.542 314.631 196.651 314.602 196.523C314.572 196.395 314.641 196.513 314.572 196.356C314.503 196.198 314.621 196.326 314.503 196.198C314.385 196.071 314.602 196.149 314.376 196.061C314.149 195.972 314.189 195.982 314.149 195.963C314.11 195.943 314.189 195.943 314.1 195.933C314.012 195.923 313.992 195.933 313.933 195.904C313.874 195.874 313.982 195.904 313.874 195.874C313.766 195.845 313.855 195.835 313.727 195.825C313.599 195.815 313.589 195.815 313.589 195.815C313.589 195.815 313.589 195.796 313.53 195.894C313.471 195.992 313.471 195.894 313.471 195.992V196.139C313.471 196.189 313.52 195.982 313.462 196.218L313.403 196.454C313.403 196.454 313.383 196.218 313.403 196.503C313.422 196.788 313.412 196.778 313.422 196.827C313.432 196.877 313.452 196.827 313.432 196.906C313.412 196.985 313.481 196.936 313.403 197.004C313.324 197.073 313.462 197.063 313.314 197.073C313.167 197.083 313.137 197.083 313.137 197.083L300.99 196.09L300.413 193.762L298.327 193.502L298.277 189.466Z" fill="white"/>
<path d="M373.835 211.088L373.678 201.732L375.761 198.587" stroke="#EBBC7A" stroke-width="0.351088"/>
<path d="M39.9983 16.7617C44.2066 27.3737 49.1414 39.6287 55.43 51.4085C59.65 46.8243 63.3908 39.1104 64.4611 32.1496C64.4611 41.2601 64.6404 46.9134 56.9808 54.2537C61.4796 62.3297 66.6493 70.0969 72.6971 76.8568C77.4622 68.0232 81.2458 56.6351 84.5838 45.9592C84.0018 57.2105 82.9213 69.5712 75.9034 80.0887L75.4947 79.8414C80.9053 85.3574 82.3776 87.409 87.9971 95.0383C84.4156 94.5288 83.5662 95.2612 81.0327 95.8711C74.718 88.3285 68.1477 80.1066 62.1569 71.3658L62.3489 71.9183C50.7159 70.0378 36.7094 62.2466 34.1378 58.1087C41.0957 62.6344 51.2186 64.9912 59.3933 67.2222C49.2507 51.6298 41.2856 34.5239 39.9983 16.7617Z" fill="#6A8E29"/>
<path d="M42.1396 5.52231C42.1203 5.52212 42.1037 5.53175 42.0845 5.53181C41.6586 5.53312 41.251 5.60219 40.8635 5.73499C40.8108 5.75303 40.7577 5.76751 40.7059 5.78816C40.3301 5.93803 39.9833 6.16447 39.6653 6.46036C39.6183 6.50407 39.5703 6.5443 39.5248 6.59139C39.2182 6.9087 38.9507 7.30969 38.7216 7.78958C38.6868 7.86244 38.6519 7.93304 38.6191 8.00985C38.4036 8.51451 38.236 9.11054 38.1177 9.79481C38.1003 9.89592 38.0835 9.9953 38.0684 10.1005C37.9653 10.8158 37.9202 11.6299 37.9355 12.5444C37.9377 12.6819 37.9398 12.82 37.9449 12.9621C37.9794 13.9074 38.0815 14.9596 38.2545 16.1219C38.2673 16.2085 38.2635 16.2695 38.2773 16.3574C38.2601 16.2676 38.2287 16.2192 38.2108 16.1314C37.9665 14.9301 37.6613 13.9059 37.3031 13.0438C37.2536 12.9245 37.2046 12.8057 37.1531 12.6925C36.7787 11.8684 36.3575 11.2053 35.8979 10.6835C35.841 10.6188 35.787 10.5502 35.7289 10.4898C35.2547 9.99642 34.7479 9.64662 34.2174 9.42073C34.1594 9.39599 34.1032 9.36655 34.0446 9.34477C33.5045 9.14367 32.947 9.06968 32.3812 9.09792C32.3217 9.10086 32.2642 9.09648 32.2046 9.10171C31.6336 9.15196 31.0604 9.30927 30.4956 9.54795C30.4446 9.56952 30.3946 9.58389 30.3437 9.60682C29.7677 9.86634 29.2065 10.2122 28.6708 10.6227C28.6359 10.6495 28.601 10.6714 28.5663 10.6987C28.0144 11.1331 27.4925 11.6332 27.0207 12.1798C27.0115 12.1904 27.0013 12.1995 26.9922 12.2102C26.0897 13.263 25.3797 14.476 24.9642 15.6795C24.9485 15.7248 24.9277 15.769 24.9129 15.8143C24.738 16.3502 24.6364 16.8779 24.5958 17.3923C24.591 17.4527 24.5815 17.5127 24.5787 17.5726C24.5558 18.0658 24.6128 18.5341 24.7382 18.9759C24.7586 19.0477 24.7763 19.1186 24.8009 19.1886C24.9503 19.6148 25.1846 20.0017 25.5015 20.3469C25.5526 20.4025 25.6054 20.4552 25.6611 20.5083C26.0074 20.8389 26.4418 21.1198 26.9789 21.3381C27.0614 21.3717 27.1517 21.3987 27.239 21.4293C27.818 21.632 28.493 21.7722 29.2936 21.8261C29.3862 21.8324 29.4904 21.8297 29.586 21.8337C30.4399 21.8699 31.3995 21.8305 32.5141 21.6742C32.5938 21.6631 32.6856 21.6428 32.7667 21.6306C33.9502 21.452 35.2581 21.1763 36.7524 20.7514C34.2292 21.7548 32.5119 22.8562 31.4185 23.9852C31.4102 23.9937 31.3982 24.0013 31.39 24.0099C30.8516 24.5709 30.4712 25.1385 30.2222 25.7037C30.2193 25.7101 30.2136 25.7162 30.2108 25.7227C29.9657 26.2857 29.8571 26.8479 29.8576 27.3975C29.8576 27.4057 29.8556 27.4139 29.8557 27.4222C29.8595 27.9703 29.9775 28.5058 30.1842 29.0229C30.1882 29.0331 30.1896 29.0432 30.1937 29.0533C30.4044 29.5709 30.7061 30.0676 31.0786 30.5363C31.0841 30.5432 31.0883 30.5503 31.0938 30.5572C31.4665 31.0228 31.9103 31.4582 32.4021 31.858C32.4131 31.8669 32.4215 31.8776 32.4325 31.8864C32.6754 32.0822 32.9602 32.2358 33.2243 32.4124C33.5116 32.6046 33.78 32.8151 34.0864 32.9821C34.3681 33.1357 34.6689 33.2411 34.9618 33.3714C35.2774 33.5117 35.5847 33.6746 35.9074 33.7853C36.5157 33.9942 37.1296 34.1485 37.7323 34.2392C37.7379 34.24 37.7438 34.2421 37.7494 34.243C38.3539 34.3328 38.9425 34.3541 39.5001 34.3075C39.5138 34.3064 39.5283 34.3088 39.5419 34.3075C40.0922 34.2579 40.6069 34.132 41.0705 33.9315C41.0846 33.9254 41.1002 33.9226 41.1142 33.9164C41.5733 33.7116 41.9744 33.4243 42.3067 33.0524C42.3173 33.0405 42.3304 33.0322 42.3409 33.0201C42.6665 32.6448 42.9135 32.178 43.0738 31.6206C43.0804 31.598 43.0923 31.5809 43.0985 31.5579C43.252 30.9908 43.3059 30.3223 43.2523 29.5546C43.2507 29.5311 43.2542 29.5119 43.2523 29.4882C43.1923 28.7198 43.0109 27.8409 42.7074 26.8582C42.697 26.8248 42.699 26.8026 42.6884 26.7689C42.6913 26.773 42.695 26.7744 42.6979 26.7784C43.1188 27.3678 43.5569 27.8464 44.0062 28.2216C44.0204 28.2335 44.0356 28.2403 44.0499 28.252C44.4958 28.6175 44.9509 28.8892 45.4114 29.0685C45.4157 29.0702 45.4203 29.0706 45.4247 29.0723C45.892 29.2526 46.3629 29.3442 46.8317 29.3571C46.8394 29.3573 46.8468 29.357 46.8545 29.3571C47.321 29.3675 47.7843 29.302 48.2388 29.171C48.2465 29.1688 48.2539 29.1657 48.2616 29.1634C48.7151 29.0305 49.1589 28.8338 49.587 28.5843C49.7636 28.4814 49.9233 28.3357 50.094 28.2159C50.3433 28.0409 50.6003 27.8834 50.8346 27.6766C50.8423 27.6698 50.8477 27.6607 50.8555 27.6538C51.6399 26.9567 52.3342 26.1008 52.8778 25.1758C52.8799 25.1722 52.8795 25.168 52.8816 25.1644C53.424 24.239 53.819 23.2503 54.0114 22.2952C54.1082 21.8152 54.1547 21.3458 54.1424 20.8957C54.1424 20.8925 54.1425 20.8894 54.1424 20.8862C54.1423 20.8822 54.1407 20.8788 54.1405 20.8748C54.1267 20.4312 54.0558 20.0057 53.9222 19.6158C53.9201 19.6098 53.9167 19.6048 53.9146 19.5988C53.7784 19.2089 53.5811 18.8504 53.3107 18.5392L53.3088 18.5373C53.0364 18.2242 52.6921 17.9559 52.2701 17.7474L52.2682 17.7474C52.2671 17.7468 52.2656 17.746 52.2644 17.7455C51.4158 17.3282 50.2514 17.1469 48.7173 17.3012L48.7781 17.2879C49.2459 16.9067 49.6 16.4873 49.8623 16.0422C49.8707 16.0279 49.8826 16.0148 49.8908 16.0004C50.145 15.5573 50.3 15.0887 50.3769 14.6047C50.3795 14.5886 50.3859 14.5734 50.3883 14.5573C50.4585 14.0809 50.4425 13.5899 50.3655 13.0951C50.361 13.0658 50.363 13.0371 50.3579 13.0078C50.2746 12.5218 50.1214 12.0327 49.9193 11.5494C49.9039 11.5127 49.8935 11.476 49.8775 11.4393C49.775 11.2041 49.6224 10.9809 49.4958 10.75C49.3394 10.4645 49.2006 10.1762 49.0116 9.90119C48.8585 9.67825 48.6706 9.47675 48.4989 9.26317C48.2982 9.01344 48.1117 8.76003 47.8894 8.5264C47.1116 7.70859 46.2141 7.02311 45.2822 6.50029C45.1971 6.4525 45.121 6.39111 45.0354 6.34648C44.5998 6.11925 44.1615 5.93603 43.7232 5.7996C43.6708 5.78329 43.6198 5.76322 43.5675 5.74833C43.1153 5.61946 42.6705 5.55077 42.2364 5.53755C42.2049 5.53659 42.171 5.52262 42.1396 5.52231ZM34.9542 43.2399C34.7125 43.2468 34.4754 43.2711 34.2459 43.3158L34.244 43.3177C33.7926 43.4063 33.3664 43.5698 32.9813 43.819C32.9808 43.8193 32.978 43.8206 32.9775 43.8209C32.9753 43.8223 32.9739 43.8252 32.9718 43.8266C31.813 44.5824 31.013 46.1101 30.9134 48.6688L30.9096 48.5985C30.5617 48.0241 30.1524 47.5711 29.7019 47.2143C29.691 47.2056 29.6825 47.1924 29.6715 47.1839C29.2251 46.8369 28.7334 46.5948 28.2151 46.4357C28.1962 46.4299 28.1789 46.4204 28.16 46.4148C27.6503 46.2653 27.1133 46.2075 26.5611 46.2154C26.5257 46.2159 26.4923 46.2105 26.4567 46.2116C25.9109 46.2286 25.3505 46.3204 24.7895 46.468C24.748 46.4789 24.7075 46.4849 24.666 46.4965C24.1114 46.651 23.5583 46.8702 23.014 47.1307C22.9666 47.1534 22.9188 47.1699 22.8716 47.1934C22.5751 47.3403 22.2988 47.5345 22.0114 47.708C21.7197 47.8841 21.4219 48.0415 21.1436 48.2416C20.885 48.4274 20.6581 48.6436 20.4144 48.8473C20.1365 49.0795 19.8501 49.2983 19.596 49.5499C19.3881 49.7557 19.2212 49.9792 19.032 50.1955C18.7942 50.4674 18.5443 50.7313 18.3408 51.0158C18.0226 51.4607 17.7538 51.9153 17.5357 52.3773C17.5094 52.4331 17.4788 52.4867 17.4541 52.5425C17.2452 53.0148 17.1025 53.4889 17.0211 53.9591C17.0105 54.0202 16.9971 54.0805 16.9888 54.1414C16.9261 54.6052 16.9397 55.0608 17.0249 55.5029C17.0367 55.5641 17.0461 55.6246 17.061 55.6852C17.1676 56.1209 17.3621 56.5362 17.6383 56.9309C17.6783 56.9881 17.714 57.0456 17.7579 57.1018C18.0603 57.4894 18.4608 57.8477 18.9561 58.1746C19.0261 58.2209 19.0946 58.2665 19.1688 58.3113C19.691 58.6271 20.3218 58.9033 21.0581 59.1393C21.1665 59.174 21.2734 59.209 21.3867 59.2418C22.156 59.4646 23.0427 59.6386 24.0489 59.7621C24.1947 59.78 24.3403 59.7977 24.4913 59.8134C25.5326 59.9211 26.7019 59.9704 28.0024 59.9596C28.103 59.9587 28.1717 59.9726 28.2739 59.971C28.1757 59.9759 28.1196 60.003 28.0233 60.0089C26.6606 60.0925 25.4844 60.2706 24.4799 60.533C24.3494 60.5671 24.2193 60.6007 24.0945 60.6375C23.1282 60.9222 22.3318 61.2828 21.6867 61.7085C21.6078 61.7605 21.5256 61.8103 21.4512 61.8642C20.8395 62.3068 20.3807 62.8082 20.0517 63.3529C20.0133 63.4164 19.9688 63.4762 19.934 63.5409C19.6322 64.101 19.4656 64.7009 19.4099 65.3239C19.4042 65.3876 19.3905 65.4478 19.3871 65.5119C19.3538 66.1478 19.4374 66.8019 19.6131 67.4602C19.6287 67.5186 19.6378 67.5746 19.6549 67.633C19.8515 68.3067 20.1456 68.9781 20.5151 69.6306C20.5367 69.6688 20.5537 69.7065 20.5758 69.7445C20.9636 70.4111 21.4294 71.0517 21.9506 71.6491C21.9704 71.6719 21.9857 71.6968 22.0057 71.7194C23.0224 72.8689 24.2423 73.8346 25.4977 74.4728C25.54 74.4943 25.5807 74.5204 25.6231 74.5411C26.1813 74.8143 26.7425 75.0056 27.2979 75.1298C27.3687 75.1456 27.4382 75.1679 27.5087 75.181C28.0458 75.2814 28.5679 75.2891 29.0715 75.219C29.1513 75.2079 29.2302 75.2006 29.3088 75.1848C29.7971 75.087 30.2559 74.8902 30.6817 74.5981C30.7541 74.5484 30.8242 74.4962 30.8944 74.4405C31.3081 74.1121 31.6807 73.6812 32.0014 73.1283C32.0532 73.0392 32.0968 72.9388 32.1458 72.8435C32.4538 72.243 32.7111 71.5315 32.892 70.6693C32.9143 70.563 32.9269 70.4417 32.9471 70.3313C33.1156 69.4074 33.2199 68.3598 33.2205 67.126C33.2206 67.0156 33.2086 66.8876 33.2072 66.7747C33.1908 65.4618 33.0932 64.0004 32.8597 62.318C32.8608 62.3224 32.8624 62.3249 32.8635 62.3294C33.2206 63.7896 33.6344 65.0347 34.094 66.0854C34.0945 66.0865 34.0954 66.0899 34.0959 66.0911C34.5539 67.1371 35.0567 67.9885 35.5903 68.6716C35.5959 68.6787 35.6019 68.6874 35.6074 68.6944C36.1409 69.373 36.7052 69.8796 37.2879 70.2401C37.2939 70.2438 37.2991 70.2498 37.305 70.2534C37.884 70.6085 38.4805 70.8127 39.0824 70.8971C39.094 70.8988 39.105 70.9051 39.1166 70.9066C39.7153 70.9858 40.3188 70.9386 40.9148 70.7927C40.9294 70.7891 40.9439 70.7888 40.9585 70.7851C41.5508 70.6351 42.1354 70.3808 42.6998 70.0502C42.716 70.0407 42.7329 70.0352 42.7491 70.0256C43.3133 69.6899 43.8542 69.2715 44.3651 68.797C44.3782 68.7848 44.3919 68.7751 44.405 68.7628C44.9116 68.2877 45.383 67.7538 45.812 67.1829C45.8274 67.1625 45.8443 67.1446 45.8595 67.1241C46.2861 66.5495 46.6658 65.9373 46.9893 65.3087C46.998 65.2918 47.0092 65.2763 47.0178 65.2594C47.346 64.6148 47.6123 63.9546 47.8059 63.2978C47.8063 63.2966 47.8055 63.2953 47.8059 63.294C47.9964 62.647 48.1111 62.0062 48.1458 61.3894C48.1467 61.3724 48.1506 61.3552 48.1515 61.3382C48.1813 60.7284 48.125 60.1464 47.9768 59.6083C47.9722 59.5917 47.972 59.5735 47.9673 59.557C47.8134 59.0225 47.5584 58.5389 47.202 58.1176C47.1898 58.1032 47.1822 58.0864 47.1697 58.0721C46.8052 57.6544 46.3273 57.3066 45.7342 57.0448C45.7185 57.0379 45.7063 57.0288 45.6905 57.022C45.095 56.7666 44.3733 56.6059 43.5277 56.5454C43.492 56.5428 43.4632 56.5343 43.427 56.5321C42.5738 56.4808 41.5812 56.5444 40.4553 56.7277C40.4229 56.7329 40.4025 56.7279 40.3698 56.7334C40.3848 56.7256 40.3929 56.7165 40.4078 56.7087C41.1131 56.3379 41.7029 55.9333 42.1795 55.4991C42.1827 55.4961 42.1838 55.4926 42.1871 55.4896C42.6649 55.0526 43.0345 54.588 43.3055 54.1053C43.3125 54.0929 43.3157 54.0798 43.3226 54.0673C43.5867 53.5872 43.7599 53.0911 43.8448 52.5843C43.8457 52.5786 43.8457 52.573 43.8467 52.5672C43.9302 52.0569 43.9298 51.5367 43.8562 51.0177C43.8547 51.007 43.8521 50.9962 43.8505 50.9854C43.7747 50.4718 43.6287 49.9589 43.4232 49.4549C43.3227 49.2084 43.1689 48.9744 43.0415 48.7334C42.8995 48.4645 42.7823 48.1895 42.6105 47.9301C42.6083 47.9268 42.6051 47.9239 42.6029 47.9206C41.9603 46.9533 41.125 46.0638 40.1951 45.3249C40.184 45.316 40.1721 45.3109 40.1609 45.3021C39.233 44.57 38.2156 43.9852 37.2025 43.6292C36.6916 43.4496 36.182 43.3279 35.6872 43.2722C35.6859 43.272 35.6846 43.2723 35.6834 43.2722C35.6743 43.2711 35.6658 43.2712 35.6568 43.2703C35.419 43.2448 35.1839 43.2333 34.9542 43.2399ZM65.0402 21.0533C64.8791 21.0495 64.7318 21.081 64.573 21.0856C64.2033 21.096 63.8371 21.1067 63.4888 21.1634C63.4421 21.171 63.3944 21.174 63.3482 21.1824C62.8788 21.2682 62.4461 21.4055 62.0456 21.5812C61.9901 21.6056 61.9324 21.6253 61.8785 21.6515C61.4999 21.8351 61.1717 22.0692 60.8911 22.3426C60.8461 22.3864 60.8002 22.4275 60.7582 22.4737C60.4982 22.7591 60.3032 23.0927 60.1714 23.4706C60.1481 23.5372 60.1275 23.6042 60.1087 23.6738C60.0021 24.0687 59.9673 24.5091 60.0214 25.0011C60.0299 25.0789 60.0483 25.16 60.0613 25.2403C60.1445 25.7561 60.3107 26.3176 60.593 26.938C60.6312 27.0221 60.6836 27.1119 60.7259 27.1981C61.0446 27.8478 61.4572 28.5438 62.019 29.3078C62.0732 29.3814 62.1447 29.4609 62.2013 29.5356C62.8146 30.3458 63.5445 31.2104 64.461 32.1504C63.5616 31.398 62.7265 30.8083 61.9526 30.3616C61.9506 30.3605 61.9469 30.359 61.945 30.3578C61.1835 29.919 60.4846 29.6219 59.841 29.4407C59.8294 29.4374 59.8146 29.4306 59.803 29.4274C58.5155 29.0726 57.463 29.2004 56.6281 29.6495C56.618 29.655 56.6059 29.6573 56.5958 29.6628C56.1856 29.8888 55.8318 30.1959 55.5267 30.561C55.5191 30.5701 55.5096 30.5765 55.5021 30.5857C55.2012 30.9517 54.9544 31.3788 54.7539 31.8447C54.7476 31.8593 54.7392 31.8717 54.733 31.8864C54.6629 32.0527 54.6332 32.2463 54.5754 32.4219C54.4651 32.7572 54.3434 33.0849 54.2773 33.4454C54.2352 33.6746 54.2374 33.9162 54.2127 34.1518C54.1788 34.4765 54.1267 34.7957 54.1254 35.1259C54.1205 36.2532 54.3073 37.3852 54.6628 38.3787C54.6689 38.3959 54.6698 38.4148 54.676 38.4319C54.8552 38.9221 55.0785 39.3747 55.3407 39.7744C55.345 39.781 55.3477 39.7888 55.352 39.7953C55.6148 40.1921 55.9199 40.5307 56.2616 40.7998C56.2724 40.8083 56.2812 40.82 56.292 40.8283C56.6338 41.091 57.0152 41.276 57.4313 41.3752C57.4457 41.3786 57.4586 41.3852 57.4731 41.3885C57.8904 41.4811 58.3452 41.4767 58.8327 41.3695C58.8505 41.3656 58.8661 41.3661 58.884 41.3619C59.3758 41.2463 59.903 41.0157 60.462 40.6612C60.4797 40.6499 60.4954 40.6423 60.5132 40.6308C61.071 40.2703 61.6625 39.7739 62.283 39.1402C62.3021 39.1206 62.3188 39.1144 62.3381 39.0946C62.3314 39.1081 62.3313 39.1192 62.3248 39.1326C62.0573 39.6843 61.8741 40.2045 61.776 40.6916C61.7742 40.7006 61.7759 40.7091 61.7741 40.7181C61.678 41.2083 61.6587 41.6668 61.7114 42.091C61.7126 42.1003 61.7159 42.1084 61.7171 42.1176C61.7728 42.5402 61.8937 42.9309 62.0741 43.2873C62.0768 43.2926 62.0809 43.2972 62.0836 43.3025C62.2664 43.6594 62.5053 43.9828 62.79 44.2729C62.7937 44.2767 62.7995 44.2786 62.8033 44.2824C63.3796 44.8652 64.1365 45.3147 64.9813 45.6249C64.993 45.6292 65.0056 45.6301 65.0174 45.6344C65.8611 45.9396 66.786 46.1121 67.7024 46.1452C67.7037 46.1452 67.705 46.1451 67.7062 46.1452C68.6289 46.178 69.5433 46.0709 70.3457 45.8262C70.748 45.7032 71.1232 45.5465 71.4584 45.3533L71.4603 45.3514C71.7959 45.1578 72.0922 44.9302 72.3357 44.6659L72.3376 44.664L72.3394 44.6621C72.341 44.6604 72.3417 44.6581 72.3433 44.6564C72.5833 44.3941 72.7723 44.0957 72.8977 43.764L72.8996 43.762C72.9005 43.7597 72.9007 43.7568 72.9015 43.7545C73.0258 43.4213 73.0874 43.0523 73.0724 42.6493C73.0724 42.6475 73.0706 42.6454 73.0705 42.6436C73.0546 42.2394 72.9639 41.7985 72.7838 41.3239C72.7825 41.3204 72.7794 41.316 72.7781 41.3125C72.5967 40.8379 72.3273 40.3289 71.9578 39.7839L71.992 39.8238C72.474 40.0228 72.9397 40.1196 73.3857 40.1352C73.397 40.1356 73.4087 40.1387 73.4199 40.139C73.861 40.1502 74.2816 40.0749 74.6808 39.9339C74.6914 39.9301 74.7024 39.9283 74.7131 39.9244C75.1027 39.7828 75.4674 39.572 75.8106 39.3111C75.8316 39.2951 75.8543 39.2838 75.8752 39.2674C76.0287 39.1468 76.1575 38.9809 76.3005 38.8401C76.4906 38.6532 76.6882 38.4825 76.8588 38.2648C77.4272 37.5394 77.8708 36.6547 78.1918 35.7203C78.2101 35.6672 78.2352 35.6237 78.2526 35.5703C78.555 34.6413 78.7076 33.6764 78.7197 32.7523C78.7207 32.679 78.7359 32.6066 78.7349 32.5339C78.7316 32.2942 78.6901 32.0745 78.6646 31.8446C78.6382 31.605 78.6249 31.3613 78.5735 31.1364C78.4876 30.7605 78.3661 30.41 78.207 30.0901C78.1839 30.0436 78.1634 29.9965 78.1386 29.9515C77.9649 29.6342 77.7486 29.3578 77.493 29.1216C77.4569 29.0883 77.4226 29.0544 77.3848 29.0229C77.1154 28.798 76.8007 28.6259 76.4429 28.5064C76.3966 28.4909 76.3522 28.4744 76.3043 28.4608C75.9361 28.3568 75.52 28.3158 75.0587 28.3393C74.9924 28.3427 74.9275 28.3445 74.8593 28.3507C74.3883 28.3937 73.8681 28.511 73.3003 28.702C73.2152 28.7306 73.1312 28.7591 73.0439 28.7912C72.4644 29.0049 71.8332 29.3032 71.1526 29.6856C71.0464 29.7453 70.9405 29.8057 70.8317 29.8698C70.1385 30.2782 69.3932 30.7781 68.5948 31.3756C68.5269 31.4264 68.4737 31.4525 68.405 31.5047C68.4623 31.4579 68.484 31.4165 68.5398 31.3699C69.3553 30.6889 70.0105 30.0341 70.5184 29.4065C70.5836 29.326 70.6497 29.2468 70.7102 29.1672C71.1837 28.544 71.5148 27.9513 71.7223 27.388C71.7474 27.3199 71.7768 27.2519 71.7983 27.1848C71.9779 26.6244 72.0339 26.0984 71.9882 25.6049C71.983 25.5485 71.9827 25.4914 71.9749 25.4359C71.9057 24.948 71.7342 24.4982 71.4831 24.0839C71.4562 24.0396 71.4357 23.9944 71.4071 23.951C71.1353 23.5391 70.7825 23.1681 70.3703 22.8382C70.335 22.8099 70.3059 22.7785 70.2697 22.7509C69.8428 22.4246 69.3551 22.1475 68.8322 21.9116C68.7882 21.8917 68.7495 21.8681 68.705 21.8489C68.2707 21.6615 67.8072 21.5328 67.3378 21.4103C67.0432 21.3332 66.7555 21.2746 66.4548 21.2242C66.1322 21.1699 65.8202 21.131 65.4978 21.1083C65.3451 21.0975 65.1915 21.0569 65.0402 21.0533ZM89.082 35.4469C89.0563 35.448 89.0335 35.466 89.0079 35.4677C88.5797 35.4963 88.1659 35.6138 87.7698 35.8171C87.707 35.8494 87.6455 35.8826 87.5837 35.9197C87.1955 36.1523 86.8313 36.4779 86.4976 36.9128C86.4458 36.9803 86.3978 37.0566 86.3476 37.1293C86.02 37.6033 85.7245 38.1791 85.476 38.8895C85.4442 38.9802 85.4189 39.0853 85.3886 39.1801C85.145 39.9426 84.9415 40.8168 84.8057 41.8594C84.7944 41.9459 84.7895 42.0481 84.7791 42.1366C84.6473 43.2526 84.571 44.5036 84.5835 45.9591C84.442 44.6786 84.2274 43.5749 83.9531 42.6322C83.9522 42.6294 83.952 42.6275 83.9512 42.6246C83.6801 41.6952 83.3491 40.9248 82.9751 40.2909C82.9702 40.2825 82.9668 40.2708 82.9618 40.2624C82.5826 39.6252 82.158 39.1303 81.701 38.7604C81.6998 38.7595 81.6984 38.7595 81.6972 38.7585C81.2402 38.3893 80.7519 38.145 80.2445 38.0085L80.2426 38.0085C79.7449 37.8748 79.2285 37.8487 78.7083 37.9059C78.6942 37.9075 78.6807 37.9061 78.6665 37.9078C78.1431 37.9701 77.6157 38.1211 77.0962 38.3427C77.0891 38.3457 77.0823 38.3473 77.0753 38.3503C76.5621 38.5711 76.0588 38.8648 75.5752 39.2086C75.5584 39.2205 75.5406 39.2288 75.5239 39.2409C75.2839 39.4138 75.0719 39.6342 74.8441 39.8314C74.6009 40.0419 74.3443 40.2302 74.1187 40.4637C73.8625 40.729 73.6502 41.0279 73.4218 41.3163C73.2607 41.5198 73.0768 41.7063 72.9319 41.9183C72.7478 42.1875 72.6192 42.4715 72.4648 42.75C72.3242 43.0037 72.156 43.2503 72.0432 43.5077C71.8152 44.0274 71.6513 44.5496 71.5552 45.0609C71.5525 45.0756 71.5465 45.09 71.5438 45.1046C71.4509 45.6205 71.4342 46.123 71.502 46.5971C71.5035 46.607 71.5024 46.6177 71.5039 46.6275C71.5751 47.0991 71.737 47.5385 71.9939 47.9359C72.0015 47.9478 72.0069 47.9601 72.0147 47.9719C72.2737 48.3608 72.6347 48.7029 73.099 48.9878C73.1209 49.0013 73.1374 49.0164 73.1598 49.0296C73.6333 49.3083 74.2225 49.5243 74.9257 49.6676C74.9555 49.6737 74.9791 49.6827 75.0093 49.6885C75.7205 49.825 76.5609 49.8795 77.5253 49.8499C77.5609 49.8488 77.5824 49.857 77.6184 49.8556C77.6109 49.8583 77.6068 49.8624 77.5994 49.8651C76.9582 50.101 76.414 50.3796 75.9606 50.6949C75.9529 50.7003 75.9474 50.7066 75.9397 50.712C75.4886 51.0291 75.1237 51.38 74.8422 51.7583L74.8403 51.7602C74.8385 51.7626 74.8382 51.7654 74.8365 51.7678C74.5561 52.1468 74.3544 52.5515 74.225 52.9736C74.2213 52.9859 74.2211 52.9992 74.2174 53.0116C74.0935 53.4302 74.0355 53.864 74.0408 54.3066C74.0429 54.4802 74.0949 54.6573 74.1149 54.8326C74.147 55.1136 74.16 55.3936 74.2345 55.6757C74.3022 55.9322 74.422 56.1832 74.5213 56.4372C74.6004 56.6396 74.6538 56.8459 74.751 57.0448C74.755 57.053 74.7622 57.0594 74.7662 57.0676C75.6439 58.8485 77.2086 60.4542 78.8545 61.285C79.0857 61.4017 79.3189 61.4626 79.5514 61.5471C80.15 61.7645 80.7481 61.9106 81.3155 61.8756C81.3173 61.8755 81.3193 61.8757 81.3212 61.8756C81.7138 61.8507 82.0931 61.7558 82.4472 61.5869L82.4491 61.5869L82.451 61.585C82.8045 61.4154 83.1351 61.169 83.4308 60.8369L83.4327 60.835C83.4346 60.8329 83.4365 60.8295 83.4384 60.8274C83.7323 60.4947 83.9938 60.0753 84.2113 59.5627C84.2121 59.5606 84.2123 59.5572 84.2132 59.5551C84.4307 59.04 84.6063 58.43 84.7278 57.7151L84.724 57.774C84.9554 58.299 85.2511 58.7287 85.5936 59.0804C85.6013 59.0883 85.6068 59.0992 85.6145 59.107C85.9547 59.4503 86.3451 59.709 86.7672 59.9007C86.7811 59.9071 86.793 59.9173 86.807 59.9235C87.2255 60.1079 87.6788 60.2175 88.1514 60.271C88.1747 60.2736 88.1964 60.2801 88.2198 60.2824C88.6854 60.329 89.1698 60.3116 89.663 60.2482C89.6952 60.2441 89.7256 60.2433 89.7579 60.2387C90.7653 60.0962 91.7958 59.7288 92.7657 59.2285C92.8189 59.2011 92.8706 59.1865 92.9233 59.1583C93.8645 58.654 94.716 58.007 95.4261 57.2879C95.4885 57.2247 95.5618 57.1737 95.6217 57.1094C95.7864 56.9324 95.9071 56.7432 96.0508 56.5587C96.227 56.3323 96.4138 56.112 96.554 55.877C96.7711 55.5135 96.9409 55.1447 97.0572 54.7699C97.073 54.719 97.0909 54.669 97.1047 54.618C97.2087 54.2328 97.2478 53.8466 97.2243 53.4635C97.2211 53.4107 97.2207 53.3586 97.2148 53.3059C97.1725 52.9249 97.0525 52.5503 96.8616 52.1855C96.8348 52.1342 96.8119 52.0826 96.7819 52.0317C96.5698 51.6719 96.2718 51.3267 95.8913 50.9968C95.8339 50.947 95.7781 50.8977 95.7166 50.8487C95.312 50.5266 94.8122 50.2255 94.2203 49.9468C94.1286 49.9036 94.0376 49.8615 93.9411 49.8195C93.3158 49.5472 92.5856 49.3031 91.7498 49.0885C91.6321 49.0582 91.515 49.0282 91.3928 48.9992C90.523 48.7929 89.5395 48.6209 88.4363 48.4865C88.3493 48.4759 88.2912 48.4567 88.2027 48.4466C88.2836 48.4531 88.3321 48.4374 88.4116 48.4428C89.5752 48.5226 90.5911 48.5011 91.4707 48.3897C91.5863 48.375 91.7015 48.3617 91.8125 48.3441C92.66 48.2097 93.372 47.9909 93.9639 47.7023C94.0362 47.667 94.1117 47.6351 94.1804 47.5978C94.7467 47.2908 95.1903 46.9172 95.5286 46.4927C95.568 46.4432 95.6117 46.3972 95.6482 46.3465C95.9656 45.9056 96.1725 45.4171 96.2882 44.8957C96.2999 44.8429 96.3163 44.7935 96.3261 44.74C96.4244 44.2059 96.4251 43.6432 96.3489 43.0671C96.3421 43.0156 96.3418 42.9668 96.3337 42.9152C96.242 42.3265 96.0695 41.7295 95.8305 41.1397C95.8147 41.1007 95.8032 41.0628 95.7869 41.0239C95.5305 40.4144 95.2058 39.8173 94.8279 39.2522C94.8186 39.2383 94.8107 39.2243 94.8013 39.2105C94.0663 38.1216 93.1383 37.1672 92.1429 36.4875C92.1108 36.4655 92.0802 36.4405 92.048 36.4191C91.6063 36.1268 91.1535 35.9035 90.6978 35.7374C90.6377 35.7154 90.5795 35.6885 90.5194 35.669C90.0747 35.525 89.6327 35.459 89.1977 35.464C89.1597 35.4644 89.1198 35.4452 89.082 35.4469Z" fill="#FAC100"/>
</svg>
