<svg width="218" height="903" viewBox="0 0 218 903" fill="none" xmlns="http://www.w3.org/2000/svg">
<path d="M139.086 72.5024C138.258 72.4552 137.55 73.0874 137.502 73.9145C137.455 74.7415 138.087 75.4503 138.914 75.4976L139.086 72.5024ZM168.738 147.811C169.186 148.508 170.114 148.71 170.811 148.262L182.167 140.962C182.864 140.514 183.066 139.585 182.618 138.889C182.17 138.192 181.242 137.99 180.545 138.438L170.451 144.927L163.962 134.833C163.514 134.136 162.585 133.934 161.889 134.382C161.192 134.83 160.99 135.758 161.438 136.455L168.738 147.811ZM138.914 75.4976C150.759 76.1741 159.021 78.1808 164.654 81.3914C170.208 84.5573 173.282 88.9357 174.702 94.6356C176.145 100.423 175.892 107.617 174.606 116.353C173.323 125.075 171.041 135.152 168.534 146.681L171.466 147.319C173.959 135.848 176.272 125.641 177.574 116.789C178.875 107.951 179.202 100.282 177.613 93.9101C176.003 87.451 172.437 82.3749 166.139 78.7851C159.92 75.2399 151.119 73.1897 139.086 72.5024L138.914 75.4976Z" fill="#4C4C4C"/>
<path d="M147.086 459.502C146.258 459.455 145.55 460.087 145.502 460.914C145.455 461.742 146.087 462.45 146.914 462.498L147.086 459.502ZM185.939 557.061C186.525 557.646 187.475 557.646 188.061 557.061L197.607 547.515C198.192 546.929 198.192 545.979 197.607 545.393C197.021 544.808 196.071 544.808 195.485 545.393L187 553.879L178.515 545.393C177.929 544.808 176.979 544.808 176.393 545.393C175.808 545.979 175.808 546.929 176.393 547.515L185.939 557.061ZM146.914 462.498C158.641 463.167 166.763 466.191 172.429 470.969C178.094 475.746 181.479 482.423 183.448 490.743C185.422 499.084 185.946 508.965 185.965 520.027C185.975 525.55 185.859 531.339 185.74 537.358C185.621 543.371 185.5 549.608 185.5 556H188.5C188.5 549.642 188.621 543.433 188.74 537.417C188.858 531.406 188.975 525.583 188.965 520.022C188.946 508.915 188.425 498.746 186.368 490.052C184.306 481.339 180.676 473.999 174.363 468.676C168.053 463.355 159.236 460.196 147.086 459.502L146.914 462.498Z" fill="#4C4C4C"/>
<path d="M105 685.5C105.829 685.5 106.5 684.828 106.5 684C106.5 683.172 105.829 682.5 105 682.5L105 685.5ZM27.1425 780.231C27.8221 780.704 28.7571 780.537 29.2307 779.858L36.9499 768.782C37.4236 768.103 37.2567 767.168 36.577 766.694C35.8974 766.22 34.9624 766.387 34.4887 767.067L27.6272 776.912L17.7825 770.05C17.1028 769.577 16.1679 769.743 15.6942 770.423C15.2205 771.103 15.3874 772.038 16.0671 772.511L27.1425 780.231ZM105 682.5C57.1313 682.5 16.3481 722.281 26.5235 779.264L29.4768 778.736C19.6522 723.719 58.8689 685.5 105 685.5L105 682.5Z" fill="#4C4C4C"/>
<path d="M54.5842 255.5C55.4126 255.5 56.0842 254.828 56.0842 254C56.0842 253.172 55.4126 252.5 54.5842 252.5V255.5ZM20.9321 329.351C21.6781 329.711 22.5749 329.398 22.935 328.652L28.8041 316.495C29.1643 315.749 28.8515 314.852 28.1054 314.492C27.3594 314.132 26.4626 314.444 26.1025 315.19L20.8855 325.997L10.0789 320.78C9.33284 320.42 8.43609 320.733 8.07593 321.479C7.71577 322.225 8.02859 323.122 8.77463 323.482L20.9321 329.351ZM54.5842 252.5C42.6893 252.5 33.5345 254.458 26.7644 258.203C19.9494 261.973 15.6447 267.503 13.4072 274.413C11.1852 281.275 11.0194 289.434 12.3181 298.509C13.6182 307.595 16.4009 317.695 20.1679 328.494L23.0005 327.506C19.2675 316.805 16.5502 306.905 15.2878 298.084C14.0241 289.253 14.2332 281.6 16.2613 275.337C18.2737 269.122 22.094 264.215 28.2165 260.828C34.3839 257.417 42.9791 255.5 54.5842 255.5V252.5Z" fill="#4C4C4C"/>
<path d="M1.0835 841.647H66.9167V874.158H1.0835V841.647ZM7.98523 803H60.015C61.4868 803 62.6716 804.22 62.6716 805.735V809.969C62.6716 811.484 61.4868 812.704 60.015 812.704H7.98523C6.51348 812.704 5.32863 811.484 5.32863 809.969V805.735C5.32863 804.22 6.51348 803 7.98523 803ZM10.0841 812.805H57.9162C62.9025 812.805 66.9167 816.938 66.9167 822.072V893.733C66.9167 898.867 62.9025 903 57.9162 903H10.0841C5.09776 903 1.0835 898.867 1.0835 893.733V822.072C1.0835 816.938 5.09776 812.805 10.0841 812.805Z" fill="#FFE488"/>
<path d="M7.98521 803H60.015C61.4867 803 62.6716 804.22 62.6716 805.735V809.969C62.6716 811.484 61.4867 812.704 60.015 812.704H7.98521C6.51346 812.704 5.32861 811.484 5.32861 809.969V805.735C5.32861 804.22 6.51346 803 7.98521 803Z" fill="#EBB500"/>
<path d="M1.0835 841.647H66.9167V874.158H1.0835V841.647Z" fill="#F9F9F9" stroke="#F9F9F9" stroke-width="1.55818" stroke-linecap="round"/>
<path d="M28.335 857.269C33.4634 866.911 37.5445 870.692 41.1233 869.954C45.0698 869.141 46.9994 863.035 45.1222 860.801C43.0186 858.299 37.1356 856.993 28.335 857.269Z" fill="#FAC100"/>
<path d="M38.9117 870.854C36.3193 870.379 33.394 867.336 29.2775 860.834C28.443 859.515 27.7117 858.38 27.6524 858.31C27.5931 858.241 27.3451 858.48 27.1014 858.842C26.622 859.554 24.9114 861.036 23.2732 862.158C22.1539 862.925 21.3122 863.113 20.7663 862.72C20.3517 862.421 20.414 861.89 21.184 859.159C21.8622 856.753 22.732 854.774 23.4233 854.064C23.8134 853.663 23.9052 853.46 23.8231 853.181C23.5961 852.409 23.0615 851.742 22.1089 851.042C20.9618 850.2 20.7635 849.805 21.2408 849.313C21.5172 849.029 21.6369 849.002 22.0035 849.145C22.3812 849.291 22.4745 849.264 22.7127 848.939C23.0971 848.415 23.4513 848.47 24.3391 849.192C25.2706 849.95 25.6558 850.806 25.7144 852.247C25.7552 853.25 25.7731 853.29 26.2994 853.568C26.5979 853.726 26.983 854.039 27.1552 854.264L27.4681 854.674L27.5535 853.666C27.6004 853.112 27.6787 852.08 27.7274 851.374C28.0347 846.925 29.2114 844.873 31.4558 844.873C31.8131 844.873 32.3699 845.052 32.723 845.205C33.2632 845.439 33.5529 845.979 33.8695 846.22C34.4456 846.304 35.6964 846.85 36.252 847.751C37.3808 849.584 36.3497 851.461 32.289 854.966C31.5391 855.613 30.9578 856.196 30.9971 856.262C31.0365 856.327 32.0166 856.43 33.1751 856.49C37.7081 856.724 41.4626 857.432 43.4687 858.432C46.6043 859.994 47.3295 862.694 45.6913 866.706L47.488 869.371L44.2545 868.661L43.7088 869.182C42.2526 870.572 40.5704 871.158 38.9117 870.854ZM41.4362 869.026C43.9856 867.78 45.8433 863.672 44.8047 861.576C44.4792 860.919 43.4321 859.92 43.2143 860.059C43.1433 860.104 43.0851 860.466 43.0851 860.863C43.0851 861.962 42.7751 863.792 42.4219 864.777C42.0533 865.805 41.0166 867.518 40.2 868.449C39.8774 868.817 39.6775 869.179 39.74 869.283C39.8778 869.513 40.6926 869.389 41.4362 869.026ZM38.0653 858.58L35.5234 858.276C35.6358 860.91 34.8841 862.412 33.2291 864.116L35.1537 866.382C36.9216 864.626 38.301 861.366 38.0653 858.58ZM30.8736 858.132L29.3504 857.804L30.113 859.356C30.7923 859.594 30.8736 858.132 30.8736 858.132ZM33.3555 851.863C35.4059 849.762 35.6265 849.137 34.703 848.047C34.418 847.71 34.1982 847.818 34.198 848.293C34.1977 849.122 32.921 851.327 31.3563 853.202C31.0328 853.59 30.7681 853.974 30.7681 854.056C30.7681 854.335 31.7793 853.478 33.3555 851.863ZM31.3345 850.945C32.9004 848.85 33.2097 847.564 32.3403 846.764C31.5012 845.992 30.5784 846.251 29.9992 847.42C29.4699 848.488 28.8437 852.741 29.1425 853.239C29.274 853.458 30.1107 852.582 31.3345 850.945Z" fill="#4C4C4C"/>
<mask id="mask0_447_2011" style="mask-type:luminance" maskUnits="userSpaceOnUse" x="158" y="612" width="60" height="97">
<path d="M158.368 612.935L161.084 697.882C165.71 710.822 210.249 715.166 215.119 696.013L215.489 683.423C215.228 681.806 214.712 680.237 215.638 678.394C215.257 677.19 215.25 675.972 215.745 674.735C215.377 673.233 215.746 671.786 216.278 670.351L215.916 668.929L216.645 644.206L217.021 642.909C216.661 641.67 216.484 640.468 216.793 639.162C216.281 637.752 216.566 636.403 216.914 635.058C216.468 633.769 216.537 632.405 217.034 630.98L217.549 613.51C198.103 615.301 178.565 616.437 158.368 612.935Z" fill="white"/>
</mask>
<g mask="url(#mask0_447_2011)">
<path d="M217.549 612.935L214.833 697.882C210.206 710.822 165.667 715.166 160.798 696.013L160.427 683.423C160.688 681.806 161.205 680.237 160.279 678.394C160.659 677.19 160.666 675.972 160.171 674.735C160.54 673.233 160.171 671.786 159.638 670.351L160 668.929L159.272 644.206L158.895 642.909C159.255 641.67 159.432 640.468 159.123 639.162C159.636 637.752 159.351 636.403 159.002 635.058C159.449 633.769 159.379 632.405 158.882 630.98L158.368 613.51C177.813 615.301 197.351 616.437 217.549 612.935Z" fill="#004FAC"/>
</g>
<mask id="mask1_447_2011" style="mask-type:luminance" maskUnits="userSpaceOnUse" x="158" y="613" width="60" height="96">
<mask id="mask2_447_2011" style="mask-type:luminance" maskUnits="userSpaceOnUse" x="158" y="613" width="60" height="96">
<path d="M158.846 613.683L161.518 697.252C166.07 709.983 209.886 714.255 214.677 695.414L215.041 683.028C214.784 681.437 214.276 679.893 215.187 678.08C214.813 676.896 214.806 675.698 215.293 674.481C214.931 673.003 215.294 671.579 215.817 670.168L215.461 668.769L216.178 644.447L216.548 643.171C216.194 641.953 216.02 640.77 216.324 639.485C215.82 638.097 216.1 636.77 216.443 635.448C216.004 634.179 216.072 632.838 216.561 631.436L217.067 614.249C197.937 616.011 178.716 617.129 158.846 613.683Z" fill="white"/>
</mask>
<g mask="url(#mask2_447_2011)">
<path d="M217.067 613.683L214.395 697.252C209.844 709.983 166.028 714.255 161.237 695.414L160.872 683.028C161.129 681.437 161.637 679.893 160.727 678.08C161.101 676.896 161.108 675.698 160.621 674.481C160.983 673.003 160.62 671.579 160.096 670.168L160.452 668.769L159.736 644.447L159.365 643.171C159.719 641.953 159.894 640.77 159.59 639.485C160.094 638.097 159.813 636.77 159.471 635.448C159.91 634.179 159.842 632.838 159.353 631.436L158.846 614.249C177.976 616.011 197.198 617.129 217.067 613.683Z" fill="white"/>
</g>
</mask>
<g mask="url(#mask1_447_2011)">
<path d="M215.768 680.499C215.492 681.707 214.593 682.867 213.14 683.931C211.688 684.994 209.697 685.948 207.339 686.749C202.624 688.352 196.44 689.348 190.092 689.565C183.744 689.782 177.229 689.22 171.845 687.741C166.461 686.261 162.242 683.859 160.38 680.516L159.563 680.976C161.624 684.675 166.088 687.136 171.598 688.65C177.109 690.164 183.7 690.725 190.125 690.505C196.549 690.286 202.801 689.285 207.639 687.64C210.059 686.818 212.126 685.836 213.69 684.69C215.255 683.544 216.334 682.221 216.68 680.71L215.768 680.499ZM215.768 676C215.492 677.208 214.593 678.368 213.14 679.431C211.688 680.495 209.697 681.449 207.339 682.25C202.624 683.853 196.44 684.849 190.092 685.066C183.744 685.283 177.229 684.721 171.845 683.241C166.461 681.762 162.242 679.36 160.38 676.016L159.563 676.477C161.624 680.176 166.088 682.636 171.598 684.15C177.109 685.665 183.7 686.226 190.125 686.006C196.549 685.787 202.801 684.786 207.639 683.141C210.059 682.319 212.126 681.337 213.69 680.191C215.255 679.045 216.334 677.722 216.68 676.211L215.768 676ZM215.768 672.499C215.492 673.707 214.593 674.867 213.14 675.931C211.688 676.995 209.697 677.95 207.339 678.751C202.624 680.354 196.44 681.35 190.092 681.567C183.744 681.784 177.229 681.222 171.845 679.742C166.461 678.263 162.242 675.861 160.38 672.517L159.563 672.976C161.624 676.675 166.088 679.136 171.598 680.65C177.109 682.164 183.7 682.727 190.125 682.507C196.549 682.288 202.801 681.287 207.639 679.642C210.059 678.82 212.126 677.838 213.69 676.692C215.255 675.546 216.334 674.221 216.68 672.71L215.768 672.499ZM216.577 630.528C216.249 631.197 215.304 631.958 213.827 632.64C212.351 633.323 210.37 633.944 208.04 634.471C203.379 635.525 197.32 636.212 191.006 636.399C184.693 636.587 178.121 636.277 172.425 635.35C166.729 634.422 161.91 632.858 159.137 630.65L158.557 631.387C161.57 633.787 166.5 635.338 172.275 636.278C178.05 637.219 184.671 637.529 191.035 637.34C197.398 637.151 203.5 636.462 208.245 635.389C210.617 634.852 212.65 634.221 214.218 633.496C215.787 632.77 216.917 631.965 217.417 630.943L216.577 630.528ZM216.577 634.327C216.249 634.996 215.304 635.757 213.827 636.44C212.351 637.123 210.37 637.743 208.04 638.27C203.379 639.324 197.32 640.011 191.006 640.199C184.693 640.387 178.121 640.077 172.425 639.149C166.729 638.222 161.91 636.658 159.137 634.45L158.557 635.187C161.57 637.586 166.5 639.137 172.275 640.078C178.05 641.018 184.671 641.329 191.035 641.139C197.398 640.95 203.5 640.261 208.245 639.188C210.617 638.652 212.65 638.021 214.218 637.295C215.787 636.57 216.917 635.765 217.417 634.743L216.577 634.327ZM216.577 638.327C216.249 638.996 215.304 639.757 213.827 640.44C212.351 641.122 210.37 641.743 208.04 642.27C203.379 643.324 197.32 644.011 191.006 644.199C184.693 644.387 178.121 644.075 172.425 643.148C166.729 642.22 161.91 640.658 159.137 638.449L158.557 639.187C161.57 641.586 166.5 643.137 172.275 644.078C178.05 645.018 184.671 645.329 191.035 645.139C197.398 644.95 203.5 644.261 208.245 643.188C210.617 642.651 212.65 642.02 214.218 641.295C215.787 640.569 216.917 639.765 217.417 638.743L216.577 638.327ZM160.581 668.205L159.363 668.89C161.471 672.676 165.996 675.152 171.537 676.674C177.079 678.197 183.689 678.758 190.132 678.537C196.575 678.317 202.843 677.317 207.712 675.662C210.147 674.835 212.233 673.845 213.826 672.679C215.418 671.513 216.542 670.148 216.904 668.562L215.543 668.248C215.284 669.382 214.43 670.502 213.005 671.545C211.58 672.589 209.609 673.537 207.266 674.333C202.581 675.925 196.414 676.92 190.084 677.136C183.755 677.353 177.258 676.792 171.905 675.321C166.552 673.85 162.394 671.462 160.581 668.205ZM216.372 641.724C216.087 642.307 215.184 643.057 213.731 643.729C212.277 644.401 210.309 645.02 207.989 645.544C203.349 646.594 197.3 647.28 190.999 647.467C184.697 647.655 178.137 647.343 172.461 646.419C166.785 645.495 161.994 643.929 159.279 641.767L158.414 642.868C161.486 645.314 166.443 646.86 172.238 647.804C178.032 648.747 184.665 649.06 191.041 648.87C197.416 648.68 203.53 647.99 208.295 646.913C210.678 646.374 212.722 645.741 214.314 645.005C215.905 644.269 217.08 643.453 217.622 642.345L216.372 641.724Z" fill="#01449F"/>
</g>
<path d="M217.783 612.875C217.783 614.942 204.386 616.618 187.859 616.618C171.333 616.618 158.532 615.092 158.532 613.025C158.532 610.958 171.333 609.133 187.859 609.133C204.386 609.133 217.783 610.808 217.783 612.875Z" fill="#0056BC"/>
<path d="M188.001 609C179.904 609 172.575 609.41 167.243 610.077C164.576 610.41 162.413 610.804 160.869 611.261C160.097 611.489 159.481 611.727 159.004 612.019C158.527 612.311 158.082 612.718 158.082 613.342C158.082 613.967 158.527 614.372 159.004 614.664C159.481 614.956 160.097 615.194 160.869 615.422C162.413 615.879 164.576 616.274 167.243 616.608C172.575 617.275 179.904 617.684 188.001 617.684C196.097 617.684 203.425 617.275 208.758 616.608C211.424 616.274 213.587 615.879 215.131 615.422C215.903 615.194 216.52 614.956 216.998 614.664C217.475 614.372 217.918 613.967 217.918 613.342C217.918 612.718 217.475 612.311 216.998 612.019C216.52 611.727 215.903 611.489 215.131 611.261C213.587 610.804 211.424 610.41 208.758 610.077C203.425 609.41 196.097 609 188.001 609ZM188.001 610.371C196.051 610.371 203.341 610.779 208.59 611.436C211.214 611.764 213.333 612.158 214.748 612.577C215.455 612.786 215.988 613.007 216.29 613.191C216.591 613.375 216.556 613.462 216.556 613.342C216.556 613.222 216.591 613.309 216.29 613.493C215.988 613.678 215.455 613.899 214.748 614.108C213.333 614.526 211.214 614.919 208.59 615.247C203.341 615.904 196.051 616.313 188.001 616.313C179.95 616.313 172.659 615.904 167.411 615.247C164.786 614.919 162.667 614.526 161.253 614.108C160.545 613.899 160.013 613.678 159.712 613.493C159.41 613.309 159.444 613.222 159.444 613.342C159.444 613.462 159.41 613.375 159.712 613.191C160.013 613.007 160.545 612.786 161.253 612.577C162.667 612.158 164.786 611.764 167.411 611.436C172.659 610.779 179.95 610.371 188.001 610.371Z" fill="#8A96A6"/>
<path d="M25.1936 386.126L26.3811 421.745C32.6025 432.007 42.974 437.253 53.5251 437.704C64.9913 438.195 80.3117 434.531 82.1001 421.82L82.2509 389.371C69.7542 398.894 55.8763 399.121 45.9205 397.794C38.2099 396.767 30.6729 391.303 25.1936 386.126Z" fill="#ADADAD"/>
<mask id="mask3_447_2011" style="mask-type:luminance" maskUnits="userSpaceOnUse" x="25" y="386" width="58" height="52">
<path d="M25.1936 386.126L26.3811 421.745C32.6025 432.007 42.974 437.253 53.5251 437.704C64.9913 438.195 80.3117 434.531 82.1001 421.82L82.2509 389.371C69.7543 398.894 55.8763 399.121 45.9205 397.794C38.2099 396.767 30.6729 391.303 25.1936 386.126Z" fill="white"/>
</mask>
<g mask="url(#mask3_447_2011)">
<path d="M25.6604 395.759L24.8689 395.979C25.1188 396.879 25.8131 399.405 28.7183 402.052C31.6236 404.699 36.7279 407.5 45.7961 409.186L45.8051 409.188L45.8153 409.189C59.4102 411.054 65.0213 409.356 71.7432 408.227L71.8142 408.215L84.1394 401.242L83.7357 400.527L71.5334 407.43C64.7892 408.569 59.3774 410.218 45.9348 408.376C36.9807 406.71 32.0351 403.962 29.272 401.444C26.5075 398.925 25.9133 396.67 25.6604 395.759ZM25.9209 409.972L25.17 410.307C27.8849 416.41 33.1397 420.284 39.271 422.579C45.4023 424.874 52.4248 425.612 58.7854 425.459H58.8023L58.8204 425.457C72.9082 423.908 73.057 421.951 77.2805 420.209L77.3268 420.19L77.3685 420.159C79.3709 418.675 81.5352 417.208 82.5112 415.071L81.7637 414.729C80.9265 416.562 78.9094 417.993 76.8995 419.482C72.5708 421.291 72.654 423.107 58.7471 424.637C52.4693 424.786 45.5462 424.05 39.5597 421.809C33.5676 419.566 28.5283 415.834 25.9209 409.972Z" fill="#A3A3A3"/>
</g>
<path d="M83.831 385.516L85.537 386.584L83.9376 461.288L81.1652 463.53L81.9116 389.572L83.831 385.516ZM29.0771 391.653L36.088 395.415L36.0613 471L29.557 468.119L29.0771 391.653Z" fill="#DE0517"/>
<path d="M79.3136 404.507L76.5962 404.649C76.6361 405.408 76.836 405.615 77.0314 406.105C77.2268 406.595 77.4621 407.18 77.682 407.845C78.1215 409.175 78.4834 410.812 78.3179 412.485C77.7381 417.56 76.1781 424.168 73.2203 429.852C70.2612 435.539 65.975 440.241 59.9097 441.938C56.7539 442.749 55.5347 442.698 51.0009 441.321C48.8895 440.577 47.1607 439.289 46.0589 438.083C45.5068 437.478 45.1141 436.891 44.9111 436.464C44.708 436.038 44.798 435.784 44.7092 436.051L42.1272 435.192C41.8143 436.134 42.0965 436.884 42.4541 437.636C42.8118 438.387 43.3491 439.153 44.0496 439.92C45.4507 441.454 47.5147 442.984 50.1124 443.897L50.1395 443.907L50.1677 443.915C54.9061 445.356 57.1644 445.458 60.6053 444.572L60.6178 444.568L60.6313 444.564C67.6376 442.608 72.457 437.215 75.6332 431.11C78.8095 425.006 80.4138 418.133 81.024 412.778L81.0252 412.767L81.0263 412.758C81.2474 410.533 80.771 408.52 80.2652 406.989C80.0124 406.224 79.749 405.574 79.5583 405.096C79.3676 404.617 79.2932 404.12 79.3136 404.507Z" fill="#757575"/>
<path d="M83.8884 384.579C83.8884 391.737 70.3668 398.287 54.1276 398.287C37.8884 398.287 25.0811 391.737 25.0811 384.579C25.081 377.421 38.2455 371.619 54.4847 371.619C70.7239 371.619 83.8884 377.421 83.8884 384.579Z" fill="#F2F2F2"/>
<path d="M54.4851 371C46.2919 371 38.8712 372.456 33.444 374.848C30.7304 376.044 28.5119 377.474 26.946 379.106C25.3801 380.738 24.4631 382.6 24.4631 384.579C24.4631 388.528 27.906 392.09 33.2456 394.674C38.5852 397.258 45.925 398.905 54.1277 398.905C62.3304 398.905 69.8447 397.258 75.3594 394.677C78.1167 393.387 80.377 391.864 81.9724 390.165C83.5678 388.465 84.5071 386.564 84.5071 384.579C84.5071 382.6 83.589 380.738 82.0231 379.106C80.4573 377.474 78.2387 376.044 75.5251 374.848C70.0979 372.456 62.6783 371 54.4851 371ZM54.4851 372.238C62.5311 372.238 69.8119 373.683 75.0267 375.981C77.6341 377.131 79.7213 378.493 81.1313 379.963C82.5412 381.432 83.2702 382.98 83.2702 384.579C83.2702 386.174 82.5189 387.775 81.0715 389.317C79.6241 390.859 77.4891 392.315 74.8362 393.557C69.5303 396.04 62.1642 397.668 54.1277 397.668C46.0912 397.668 38.9073 396.04 33.7834 393.56C28.6595 391.08 25.6989 387.789 25.6989 384.579C25.6989 382.98 26.4279 381.432 27.8379 379.963C29.2478 378.493 31.335 377.131 33.9424 375.981C39.1572 373.683 46.4391 372.238 54.4851 372.238Z" fill="#A4A4A4"/>
<path d="M31.8098 392.314L32.8654 391.031L32.7146 389.748L35.2027 388.164L37.6908 388.013L42.8179 390.126L43.0441 392.616L38.294 395.71C35.6701 394.681 32.7068 393.727 31.8098 392.314Z" fill="#DE0517"/>
<path d="M33.9653 375.137L76.0499 393.645L74.908 397.541C74.4242 399.192 77.8502 404.799 80.0734 400.29L82.0484 396.283L79.1766 391.923L36.8501 373.844L33.9653 375.137Z" fill="#9E9E9E" stroke="#9F9F9F" stroke-width="2.77809"/>
<path d="M70.7017 388.991L73.7978 390.36L77.398 389.099L77.182 388.234L73.9418 386.72L70.7737 388.234L70.7017 388.991ZM66.7638 391.383L69.86 392.753L73.4602 391.491L73.2442 390.627L70.004 389.113L66.8358 390.627L66.7638 391.383ZM37.2482 374.778L39.5407 375.792L42.2064 374.858L42.0465 374.217L39.6473 373.097L37.3015 374.217L37.2482 374.778ZM33.7422 376.125L36.0347 377.139L38.7004 376.205L38.5405 375.565L36.1413 374.444L33.7955 375.565L33.7422 376.125Z" fill="#575656"/>
<path d="M71.9214 397.068H74.6734L80.6675 399.785L77.8024 410.652H75.2389" fill="#D5D5D5"/>
<path d="M71.9215 397.068L78.4811 399.823L75.239 410.652L68.604 407.407L71.9215 397.068Z" fill="#DBDBDB"/>
<path d="M71.4124 407.746C72.1307 407.746 72.713 407.155 72.713 406.426C72.713 405.696 72.1307 405.105 71.4124 405.105C70.6941 405.105 70.1118 405.696 70.1118 406.426C70.1118 407.155 70.6941 407.746 71.4124 407.746Z" fill="#C20A17"/>
<path d="M72.7132 403.747C73.4315 403.747 74.0138 403.155 74.0138 402.426C74.0138 401.697 73.4315 401.105 72.7132 401.105C71.9949 401.105 71.4126 401.697 71.4126 402.426C71.4126 403.155 71.9949 403.747 72.7132 403.747Z" fill="#3D7D4D"/>
<path d="M204.587 194L217 209.899L216.555 223.909L204.587 219.474V194Z" fill="#84959C"/>
<path d="M125.713 276.391L120.931 223.464L204.587 219.474L215.358 223.523L214.375 262.756L203.761 281.587L125.713 276.391Z" fill="#EBBC7A"/>
<path d="M203.997 220.142L203.761 281.587" stroke="#DBA55A" stroke-width="0.351088"/>
<path d="M146.209 234.255L171.014 233.272C173.655 245.611 144.421 245.094 146.209 234.255Z" fill="#DBA55A"/>
<path d="M117 204.378L118.73 224.191L204.587 219.474V194L117 204.378Z" fill="#84959C"/>
<path d="M125.713 276.391L121.088 278.127L121.796 285.754L201.835 294.088L214.65 267.356L214.375 262.756L203.761 281.587L125.713 276.391Z" fill="#D59F61"/>
<path d="M126.278 272.466L201.913 277.734L201.782 281.426L198.1 281.227L195.622 285.217L182.493 283.945C182.493 283.945 182.356 283.749 182.336 283.709C182.317 283.67 182.307 283.316 182.307 283.316L182.297 282.943L182.199 282.579L181.943 282.294L181.658 282.058C181.658 282.058 181.403 282.039 181.353 282.039C181.304 282.039 181.019 282.088 181.019 282.088L180.823 282.255L180.685 282.422L180.646 282.668L180.665 283.002C180.665 283.002 180.685 283.139 180.675 283.208C180.665 283.277 180.547 283.405 180.547 283.405C180.547 283.405 180.371 283.513 180.331 283.513C180.292 283.513 180.076 283.474 180.036 283.444C179.997 283.415 179.624 283.385 179.624 283.385L179.516 283.356C179.516 283.356 179.525 283.326 179.476 283.139C179.427 282.953 179.368 282.658 179.368 282.658C179.368 282.658 179.309 282.491 179.29 282.452C179.27 282.412 179.25 282.324 179.172 282.235C179.093 282.147 179.132 282.186 179.054 282.098C178.975 282.009 178.946 281.98 178.877 281.94C178.808 281.901 178.641 281.832 178.602 281.813C178.562 281.793 178.395 281.783 178.326 281.823C178.258 281.862 178.267 281.783 178.218 281.813C178.169 281.842 178.032 281.881 178.032 281.881L177.894 281.97L177.864 282.117L177.845 282.334L177.806 282.609L177.786 282.815L177.766 282.992L177.678 283.139L177.511 283.208L177.206 283.179L176.931 283.13L176.695 283.051L176.597 283.061L176.548 282.795L176.508 282.52C176.508 282.52 176.518 282.343 176.518 282.304C176.518 282.265 176.479 282.108 176.479 282.108C176.479 282.108 176.528 282.147 176.361 281.98C176.194 281.813 176.145 281.754 176.145 281.754C176.145 281.754 176.046 281.626 175.987 281.606C175.928 281.587 175.751 281.537 175.702 281.537C175.653 281.537 175.565 281.479 175.407 281.508C175.25 281.538 175.083 281.636 175.083 281.636L174.985 281.773L174.965 282.029L174.926 282.245V282.442L174.975 282.638V282.805L174.828 282.894L174.69 283.012L174.15 282.963L173.884 282.874L173.747 282.825L173.727 282.619L173.737 282.363L173.688 282.029L173.589 281.842L173.481 281.685L173.353 281.528L173.177 281.37L172.842 281.292L172.616 281.321L172.371 281.4L172.243 281.479L172.184 281.616L172.164 281.793L172.213 282.049L172.204 282.373V282.501L172.046 282.619L171.919 282.697H171.751L171.398 282.628L171.172 282.619L171.044 282.56L170.965 282.52L170.936 282.117L170.926 281.881L170.837 281.636L170.661 281.41L170.503 281.233L170.366 281.135L170.11 281.066C170.11 281.066 169.923 280.987 169.845 280.987C169.766 280.987 169.629 281.115 169.629 281.115C169.629 281.115 169.54 281.203 169.491 281.282C169.442 281.361 169.403 281.479 169.403 281.479L169.393 281.705L169.403 281.95L169.344 282.166V282.284L169.245 282.412L169.108 282.471L168.685 282.461L168.351 282.402L168.272 282.363L168.223 282.137C168.223 282.137 168.174 281.823 168.164 281.764C168.154 281.705 168.125 281.479 168.125 281.479L167.869 281.105C167.869 281.105 167.742 280.977 167.516 280.928C167.29 280.879 167.378 280.83 167.181 280.85C166.985 280.869 166.818 280.967 166.818 280.967C166.818 280.967 166.7 280.84 166.69 281.135C166.68 281.429 166.68 281.508 166.68 281.508V281.842L166.621 282.029L166.454 282.196C166.454 282.196 166.258 282.265 166.1 282.225C165.943 282.186 165.776 282.216 165.668 282.166C165.56 282.117 165.521 282.078 165.521 282.078C165.521 282.078 165.491 281.852 165.481 281.734C165.471 281.616 165.462 281.488 165.403 281.351C165.344 281.213 165.295 281.066 165.265 281.026C165.236 280.987 165.324 280.938 165.059 280.83C164.793 280.722 164.813 280.653 164.705 280.643C164.597 280.633 164.518 280.594 164.39 280.633C164.263 280.673 164.135 280.771 164.135 280.771C164.135 280.771 163.987 280.869 163.987 280.987C163.987 281.105 164.027 281.262 164.027 281.262L163.997 281.518L163.968 281.744C163.968 281.744 163.948 281.872 163.869 281.911C163.791 281.95 163.82 281.98 163.634 281.98C163.447 281.98 163.182 281.96 163.182 281.96L162.877 281.872L162.887 281.646L162.749 280.928C162.749 280.928 162.631 280.732 162.582 280.702C162.533 280.673 162.533 280.633 162.415 280.555C162.297 280.476 162.395 280.447 162.218 280.417C162.041 280.388 161.933 280.397 161.884 280.407C161.835 280.417 161.639 280.496 161.589 280.535C161.54 280.574 161.422 280.673 161.422 280.673C161.422 280.673 161.314 280.899 161.334 280.967C161.354 281.036 161.403 281.302 161.403 281.302C161.403 281.302 161.393 281.459 161.363 281.518C161.334 281.577 161.236 281.695 161.236 281.695L161.167 281.754L160.754 281.793C160.754 281.793 160.646 281.685 160.43 281.705C160.213 281.724 160.223 281.685 160.223 281.685C160.223 281.685 160.292 281.479 160.233 281.302C160.174 281.125 160.135 281.085 160.135 280.928C160.135 280.771 160.145 280.722 160.086 280.653C160.027 280.584 160.184 280.594 159.899 280.456C159.614 280.319 159.604 280.27 159.535 280.24C159.467 280.211 159.182 280.162 159.093 280.181C159.005 280.201 158.857 280.319 158.857 280.319C158.857 280.319 158.818 280.447 158.818 280.486C158.818 280.525 158.828 280.8 158.828 280.8L158.808 281.046L158.788 281.272L158.68 281.439L158.562 281.518C158.562 281.518 158.494 281.577 158.307 281.547C158.12 281.518 157.815 281.429 157.815 281.429L157.658 281.41C157.658 281.41 157.55 280.987 157.55 280.889C157.55 280.791 157.599 280.791 157.53 280.643C157.462 280.496 157.442 280.437 157.363 280.348C157.285 280.26 157.324 280.25 157.216 280.181C157.108 280.112 157.245 280.122 157.049 280.063C156.852 280.004 157.137 280.014 156.823 279.995C156.508 279.975 156.557 279.965 156.508 279.975C156.459 279.985 156.322 280.063 156.322 280.063C156.322 280.063 156.292 280.034 156.243 280.191C156.194 280.348 156.184 280.338 156.194 280.417C156.204 280.496 156.204 280.515 156.214 280.614C156.223 280.712 156.223 280.751 156.223 280.83V280.997L156.145 281.125C156.145 281.125 156.017 281.262 155.978 281.292C155.938 281.321 155.82 281.4 155.82 281.4C155.82 281.4 155.761 281.41 155.594 281.361C155.427 281.311 155.496 281.341 155.339 281.302C155.182 281.262 155.191 281.272 155.132 281.262C155.073 281.252 155.064 281.252 155.064 281.252L155.014 280.732C155.014 280.732 155.064 280.574 155.005 280.456C154.946 280.338 155.024 280.427 154.916 280.27C154.808 280.112 154.857 280.162 154.779 280.083C154.7 280.004 154.661 279.995 154.572 279.916C154.484 279.837 154.68 279.916 154.454 279.818C154.228 279.719 154.277 279.729 154.209 279.719C154.14 279.709 154.12 279.651 154.012 279.729C153.904 279.808 153.963 279.729 153.874 279.837C153.786 279.945 153.737 280.024 153.737 280.024C153.737 280.024 153.727 280.063 153.707 280.171C153.688 280.28 153.668 280.24 153.668 280.397C153.668 280.555 153.658 280.427 153.668 280.565C153.678 280.702 153.688 280.702 153.678 280.781C153.668 280.859 153.668 280.918 153.668 280.918C153.668 280.918 153.629 281.007 153.56 281.046C153.491 281.085 153.53 281.066 153.452 281.105C153.373 281.144 153.216 281.174 153.216 281.174C153.216 281.174 153.167 281.115 153.029 281.115C152.892 281.115 152.911 281.125 152.793 281.115C152.675 281.105 152.636 281.095 152.636 281.095L152.538 281.036L152.499 280.682L152.469 280.417C152.469 280.417 152.479 280.309 152.41 280.191C152.341 280.073 152.361 280.063 152.292 279.965C152.223 279.867 152.194 279.837 152.135 279.788C152.076 279.739 152.41 279.818 151.997 279.68C151.585 279.542 151.644 279.542 151.644 279.542L151.368 279.572L151.27 279.7C151.27 279.7 151.221 279.66 151.201 279.837C151.182 280.014 151.182 280.093 151.182 280.093L151.191 280.27L151.221 280.466L151.201 280.633C151.201 280.633 151.211 280.712 151.113 280.771C151.015 280.83 150.956 280.889 150.916 280.889C150.877 280.889 150.612 280.977 150.612 280.977L150.14 280.869L150.002 280.781C150.002 280.781 150.042 280.584 150.022 280.486C150.002 280.388 150.032 280.447 149.973 280.24C149.914 280.034 149.992 280.162 149.894 279.965C149.796 279.768 149.816 279.778 149.776 279.709C149.737 279.641 149.796 279.67 149.668 279.582C149.54 279.493 149.56 279.523 149.491 279.464C149.422 279.405 149.531 279.375 149.314 279.356C149.098 279.336 149.206 279.297 149.088 279.336C148.97 279.375 149 279.336 148.931 279.395C148.862 279.454 148.833 279.454 148.774 279.542C148.715 279.631 148.715 279.493 148.675 279.7C148.636 279.906 148.666 279.759 148.636 279.916C148.607 280.073 148.567 279.896 148.607 280.132C148.646 280.368 148.675 280.397 148.675 280.397L148.695 280.496L148.626 280.623C148.626 280.623 148.636 280.663 148.508 280.692C148.381 280.722 148.538 280.741 148.341 280.722C148.145 280.702 148.302 280.751 148.046 280.673C147.791 280.594 147.86 280.604 147.791 280.594C147.722 280.584 147.693 280.584 147.693 280.584H147.555C147.555 280.584 147.555 280.604 147.545 280.427C147.535 280.25 147.604 280.348 147.535 280.211C147.467 280.073 147.506 280.171 147.447 279.975C147.388 279.778 147.476 279.906 147.388 279.759C147.3 279.611 147.388 279.719 147.3 279.611C147.211 279.503 147.378 279.621 147.162 279.444C146.946 279.267 147.211 279.366 146.936 279.257C146.661 279.149 146.68 279.149 146.592 279.139C146.503 279.13 146.592 279.012 146.425 279.179C146.258 279.346 146.307 279.208 146.258 279.356C146.209 279.503 146.228 279.444 146.209 279.552C146.189 279.66 146.169 279.621 146.199 279.788C146.228 279.955 146.228 279.906 146.238 280.014C146.248 280.122 146.268 280.221 146.268 280.221C146.268 280.221 146.327 280.191 146.268 280.289C146.209 280.388 146.435 280.299 146.179 280.397C145.924 280.496 145.894 280.506 145.894 280.506C145.894 280.506 146.032 280.486 145.835 280.515C145.639 280.545 145.875 280.614 145.639 280.545C145.403 280.476 145.472 280.515 145.403 280.476C145.334 280.437 145.314 280.427 145.255 280.417C145.196 280.407 145.187 280.456 145.147 280.388C145.108 280.319 145.118 280.437 145.108 280.28C145.098 280.122 145.147 280.211 145.088 280.024C145.029 279.837 145.088 280.014 145.029 279.837C144.97 279.66 144.99 279.709 144.97 279.66C144.951 279.611 144.97 279.631 144.902 279.503C144.833 279.375 144.931 279.474 144.803 279.346C144.676 279.218 144.764 279.287 144.666 279.208C144.567 279.13 144.695 279.198 144.567 279.13C144.44 279.061 144.666 279.061 144.42 279.051C144.174 279.041 144.164 279.041 144.164 279.041C144.164 279.041 144.194 279.022 144.105 279.051C144.017 279.081 143.997 279.041 143.948 279.11C143.899 279.179 143.929 279.002 143.899 279.179C143.87 279.356 143.879 279.218 143.87 279.375C143.86 279.533 143.889 279.395 143.86 279.552C143.83 279.709 143.83 279.67 143.83 279.768V279.916C143.83 279.985 143.85 279.995 143.791 280.083C143.732 280.171 143.84 280.112 143.732 280.171C143.624 280.23 143.496 280.338 143.496 280.338C143.496 280.338 143.604 280.289 143.26 280.299C142.916 280.309 142.867 280.289 142.867 280.289C142.867 280.289 142.848 280.23 142.779 280.211C142.71 280.191 142.641 280.211 142.631 280.162C142.621 280.112 142.612 280.25 142.612 280.063C142.612 279.877 142.602 280.004 142.612 279.857C142.621 279.71 142.641 279.818 142.621 279.68C142.602 279.542 142.631 279.651 142.602 279.523C142.572 279.395 142.641 279.513 142.572 279.356C142.504 279.198 142.621 279.326 142.504 279.198C142.386 279.071 142.602 279.149 142.376 279.061C142.15 278.972 142.189 278.982 142.15 278.963C142.11 278.943 142.189 278.943 142.101 278.933C142.012 278.923 141.992 278.933 141.934 278.904C141.875 278.874 141.983 278.904 141.875 278.874C141.766 278.845 141.855 278.835 141.727 278.825C141.599 278.815 141.59 278.815 141.59 278.815C141.59 278.815 141.59 278.796 141.531 278.894C141.472 278.992 141.472 278.894 141.472 278.992V279.139C141.472 279.189 141.521 278.982 141.462 279.218L141.403 279.454C141.403 279.454 141.383 279.218 141.403 279.503C141.422 279.788 141.413 279.778 141.422 279.827C141.432 279.877 141.452 279.827 141.432 279.906C141.413 279.985 141.481 279.936 141.403 280.004C141.324 280.073 141.462 280.063 141.314 280.073C141.167 280.083 141.137 280.083 141.137 280.083L128.99 279.09L128.413 276.762L126.327 276.502L126.278 272.466Z" fill="white"/>
<path d="M201.835 294.088L201.677 284.732L203.761 281.587" stroke="#EBBC7A" stroke-width="0.351088"/>
<path d="M40.9981 16.7617C45.2063 27.3738 50.1412 39.6287 56.4297 51.4085C60.6497 46.8244 64.3905 39.1105 65.4608 32.1496C65.4608 41.2602 65.6401 46.9135 57.9805 54.2537C62.4794 62.3298 67.6491 70.097 73.6968 76.8569C78.462 68.0232 82.2455 56.6351 85.5835 45.9593C85.0016 57.2106 83.9211 69.5713 76.9032 80.0887L76.4945 79.8415C81.905 85.3574 83.3774 87.409 88.9968 95.0383C85.4154 94.5289 84.566 95.2612 82.0325 95.8711C75.7178 88.3285 69.1474 80.1067 63.1566 71.3659L63.3487 71.9184C51.7156 70.0379 37.7091 62.2466 35.1375 58.1087C42.0954 62.6344 52.2183 64.9913 60.3931 67.2222C50.2505 51.6299 42.2853 34.524 40.9981 16.7617Z" fill="#6A8E29"/>
<path d="M43.1391 5.52231C43.1198 5.52212 43.1032 5.53175 43.084 5.53181C42.6581 5.53312 42.2505 5.60219 41.863 5.73499C41.8103 5.75303 41.7573 5.76751 41.7054 5.78816C41.3297 5.93803 40.9828 6.16447 40.6648 6.46036C40.6178 6.50407 40.5699 6.5443 40.5243 6.59139C40.2177 6.9087 39.9503 7.30969 39.7211 7.78958C39.6863 7.86244 39.6514 7.93304 39.6186 8.00985C39.4031 8.51451 39.2355 9.11054 39.1173 9.79481C39.0998 9.89592 39.083 9.9953 39.0679 10.1005C38.9649 10.8158 38.9197 11.6299 38.935 12.5444C38.9372 12.6819 38.9393 12.82 38.9445 12.9621C38.979 13.9074 39.081 14.9596 39.254 16.1219C39.2669 16.2085 39.2631 16.2695 39.2768 16.3574C39.2596 16.2676 39.2282 16.2192 39.2103 16.1314C38.966 14.9301 38.6608 13.9059 38.3026 13.0438C38.2531 12.9245 38.2041 12.8057 38.1526 12.6925C37.7782 11.8684 37.357 11.2053 36.8975 10.6835C36.8405 10.6188 36.7865 10.5502 36.7285 10.4898C36.2543 9.99642 35.7474 9.64662 35.2169 9.42073C35.1589 9.39599 35.1027 9.36655 35.0441 9.34477C34.504 9.14367 33.9466 9.06968 33.3807 9.09792C33.3212 9.10086 33.2637 9.09648 33.2041 9.10171C32.6331 9.15196 32.0599 9.30927 31.4951 9.54795C31.4441 9.56952 31.3941 9.58389 31.3432 9.60682C30.7672 9.86634 30.206 10.2122 29.6703 10.6227C29.6354 10.6495 29.6005 10.6714 29.5659 10.6987C29.0139 11.1331 28.492 11.6332 28.0202 12.1798C28.011 12.1904 28.0008 12.1995 27.9917 12.2102C27.0892 13.263 26.3792 14.476 25.9637 15.6795C25.948 15.7248 25.9272 15.769 25.9124 15.8143C25.7375 16.3502 25.636 16.8779 25.5953 17.3923C25.5905 17.4527 25.581 17.5127 25.5782 17.5726C25.5554 18.0658 25.6123 18.5341 25.7377 18.9759C25.7581 19.0477 25.7758 19.1186 25.8004 19.1886C25.9498 19.6148 26.1841 20.0017 26.5011 20.3469C26.5521 20.4025 26.6049 20.4552 26.6606 20.5083C27.0069 20.8389 27.4413 21.1198 27.9784 21.3381C28.0609 21.3717 28.1512 21.3987 28.2385 21.4293C28.8175 21.632 29.4925 21.7722 30.2931 21.8261C30.3857 21.8324 30.4899 21.8297 30.5856 21.8337C31.4394 21.8699 32.399 21.8305 33.5136 21.6742C33.5933 21.6631 33.6851 21.6428 33.7662 21.6306C34.9497 21.452 36.2576 21.1763 37.752 20.7514C35.2287 21.7548 33.5114 22.8562 32.418 23.9852C32.4097 23.9937 32.3977 24.0013 32.3895 24.0099C31.8511 24.5709 31.4707 25.1385 31.2217 25.7037C31.2189 25.7101 31.2131 25.7162 31.2103 25.7227C30.9652 26.2857 30.8566 26.8479 30.8571 27.3975C30.8571 27.4057 30.8551 27.4139 30.8552 27.4222C30.859 27.9703 30.977 28.5058 31.1837 29.0229C31.1878 29.0331 31.1891 29.0432 31.1932 29.0533C31.4039 29.5709 31.7056 30.0676 32.0781 30.5363C32.0836 30.5432 32.0878 30.5503 32.0933 30.5572C32.4661 31.0228 32.9098 31.4582 33.4016 31.858C33.4126 31.8669 33.421 31.8776 33.432 31.8864C33.6749 32.0822 33.9597 32.2358 34.2238 32.4124C34.5111 32.6046 34.7795 32.8151 35.0859 32.9821C35.3676 33.1357 35.6684 33.2411 35.9613 33.3714C36.2769 33.5117 36.5842 33.6746 36.907 33.7853C37.5152 33.9942 38.1292 34.1485 38.7318 34.2392C38.7374 34.24 38.7433 34.2421 38.7489 34.243C39.3534 34.3328 39.942 34.3541 40.4996 34.3075C40.5133 34.3064 40.5278 34.3088 40.5414 34.3075C41.0917 34.2579 41.6064 34.132 42.07 33.9315C42.0841 33.9254 42.0997 33.9226 42.1137 33.9164C42.5729 33.7116 42.9739 33.4243 43.3062 33.0524C43.3168 33.0405 43.3299 33.0322 43.3404 33.0201C43.666 32.6448 43.913 32.178 44.0733 31.6206C44.0799 31.598 44.0918 31.5809 44.098 31.5579C44.2515 30.9908 44.3054 30.3223 44.2518 29.5546C44.2502 29.5311 44.2537 29.5119 44.2518 29.4882C44.1918 28.7198 44.0104 27.8409 43.7069 26.8582C43.6966 26.8248 43.6985 26.8026 43.6879 26.7689C43.6908 26.773 43.6945 26.7744 43.6974 26.7784C44.1183 27.3678 44.5564 27.8464 45.0057 28.2216C45.0199 28.2335 45.0351 28.2403 45.0494 28.252C45.4953 28.6175 45.9504 28.8892 46.4109 29.0685C46.4153 29.0702 46.4198 29.0706 46.4242 29.0723C46.8915 29.2526 47.3624 29.3442 47.8312 29.3571C47.8389 29.3573 47.8463 29.357 47.854 29.3571C48.3206 29.3675 48.7838 29.302 49.2383 29.171C49.246 29.1688 49.2534 29.1657 49.2611 29.1634C49.7146 29.0305 50.1584 28.8338 50.5865 28.5843C50.7631 28.4814 50.9228 28.3357 51.0935 28.2159C51.3428 28.0409 51.5998 27.8834 51.8341 27.6766C51.8418 27.6698 51.8473 27.6607 51.855 27.6538C52.6394 26.9567 53.3337 26.1008 53.8773 25.1758C53.8794 25.1722 53.879 25.168 53.8811 25.1644C54.4235 24.239 54.8185 23.2503 55.0109 22.2952C55.1077 21.8152 55.1542 21.3458 55.142 20.8957C55.1419 20.8925 55.142 20.8894 55.142 20.8862C55.1418 20.8822 55.1402 20.8788 55.1401 20.8748C55.1262 20.4312 55.0553 20.0057 54.9217 19.6158C54.9196 19.6098 54.9162 19.6048 54.9141 19.5988C54.7779 19.2089 54.5806 18.8504 54.3102 18.5392L54.3083 18.5373C54.0359 18.2242 53.6916 17.9559 53.2696 17.7474L53.2677 17.7474C53.2666 17.7468 53.2651 17.746 53.2639 17.7455C52.4153 17.3282 51.2509 17.1469 49.7168 17.3012L49.7776 17.2879C50.2454 16.9067 50.5995 16.4873 50.8618 16.0422C50.8703 16.0279 50.8821 16.0148 50.8903 16.0004C51.1445 15.5573 51.2995 15.0887 51.3764 14.6047C51.379 14.5886 51.3855 14.5734 51.3878 14.5573C51.458 14.0809 51.442 13.5899 51.365 13.0951C51.3605 13.0658 51.3625 13.0371 51.3575 13.0078C51.2741 12.5218 51.1209 12.0327 50.9188 11.5494C50.9034 11.5127 50.893 11.476 50.877 11.4393C50.7745 11.2041 50.6219 10.9809 50.4954 10.75C50.3389 10.4645 50.2001 10.1762 50.0111 9.90119C49.858 9.67825 49.6701 9.47675 49.4984 9.26317C49.2977 9.01344 49.1113 8.76003 48.8889 8.5264C48.1111 7.70859 47.2136 7.02311 46.2817 6.50029C46.1966 6.4525 46.1205 6.39111 46.0349 6.34648C45.5993 6.11925 45.161 5.93603 44.7227 5.7996C44.6704 5.78329 44.6193 5.76322 44.567 5.74833C44.1148 5.61946 43.67 5.55077 43.2359 5.53755C43.2044 5.53659 43.1705 5.52262 43.1391 5.52231ZM35.9537 43.2399C35.712 43.2468 35.4749 43.2711 35.2454 43.3158L35.2435 43.3177C34.7921 43.4063 34.366 43.5698 33.9808 43.819C33.9803 43.8193 33.9775 43.8206 33.977 43.8209C33.9748 43.8223 33.9734 43.8252 33.9713 43.8266C32.8125 44.5824 32.0126 46.1101 31.9129 48.6688L31.9091 48.5985C31.5612 48.0241 31.1519 47.5711 30.7014 47.2143C30.6905 47.2056 30.682 47.1924 30.671 47.1839C30.2246 46.8369 29.733 46.5948 29.2146 46.4357C29.1957 46.4299 29.1784 46.4204 29.1595 46.4148C28.6498 46.2653 28.1128 46.2075 27.5606 46.2154C27.5252 46.2159 27.4918 46.2105 27.4562 46.2116C26.9104 46.2286 26.35 46.3204 25.789 46.468C25.7475 46.4789 25.7071 46.4849 25.6655 46.4965C25.1109 46.651 24.5578 46.8702 24.0135 47.1307C23.9661 47.1534 23.9183 47.1699 23.8711 47.1934C23.5746 47.3403 23.2983 47.5345 23.0109 47.708C22.7192 47.8841 22.4214 48.0415 22.1431 48.2416C21.8846 48.4274 21.6576 48.6436 21.4139 48.8473C21.1361 49.0795 20.8496 49.2983 20.5955 49.5499C20.3876 49.7557 20.2207 49.9792 20.0315 50.1955C19.7937 50.4674 19.5438 50.7313 19.3404 51.0158C19.0222 51.4607 18.7533 51.9153 18.5352 52.3773C18.5089 52.4331 18.4783 52.4867 18.4536 52.5425C18.2447 53.0148 18.1021 53.4889 18.0206 53.9591C18.01 54.0202 17.9966 54.0805 17.9883 54.1414C17.9256 54.6052 17.9392 55.0608 18.0244 55.5029C18.0362 55.5641 18.0456 55.6246 18.0605 55.6852C18.1672 56.1209 18.3616 56.5362 18.6378 56.9309C18.6778 56.9881 18.7135 57.0456 18.7574 57.1018C19.0598 57.4894 19.4604 57.8477 19.9556 58.1746C20.0257 58.2209 20.0941 58.2665 20.1683 58.3113C20.6905 58.6271 21.3213 58.9033 22.0577 59.1393C22.166 59.174 22.2729 59.209 22.3862 59.2418C23.1555 59.4646 24.0422 59.6386 25.0484 59.7621C25.1942 59.78 25.3398 59.7977 25.4908 59.8134C26.5321 59.9211 27.7014 59.9704 29.0019 59.9596C29.1025 59.9587 29.1712 59.9726 29.2734 59.971C29.1752 59.9759 29.1191 60.003 29.0228 60.0089C27.6601 60.0925 26.4839 60.2706 25.4795 60.533C25.3489 60.5671 25.2188 60.6007 25.094 60.6375C24.1278 60.9222 23.3313 61.2828 22.6862 61.7085C22.6073 61.7605 22.5251 61.8103 22.4507 61.8642C21.839 62.3068 21.3802 62.8082 21.0512 63.3529C21.0129 63.4164 20.9683 63.4762 20.9335 63.5409C20.6317 64.101 20.4651 64.7009 20.4094 65.3239C20.4037 65.3876 20.39 65.4478 20.3866 65.5119C20.3533 66.1478 20.4369 66.8019 20.6126 67.4602C20.6282 67.5186 20.6373 67.5746 20.6544 67.633C20.851 68.3067 21.1451 68.9781 21.5146 69.6306C21.5362 69.6688 21.5532 69.7065 21.5753 69.7445C21.9632 70.4111 22.4289 71.0517 22.9501 71.6491C22.97 71.6719 22.9852 71.6968 23.0052 71.7194C24.0219 72.8689 25.2419 73.8346 26.4973 74.4728C26.5395 74.4943 26.5802 74.5204 26.6226 74.5411C27.1809 74.8143 27.742 75.0056 28.2974 75.1298C28.3682 75.1456 28.4377 75.1679 28.5082 75.181C29.0453 75.2814 29.5674 75.2891 30.071 75.219C30.1508 75.2079 30.2297 75.2006 30.3083 75.1848C30.7966 75.087 31.2554 74.8902 31.6812 74.5981C31.7536 74.5484 31.8237 74.4962 31.8939 74.4405C32.3076 74.1121 32.6802 73.6812 33.001 73.1283C33.0527 73.0392 33.0963 72.9388 33.1453 72.8435C33.4533 72.243 33.7106 71.5315 33.8915 70.6693C33.9138 70.563 33.9265 70.4417 33.9466 70.3313C34.1151 69.4074 34.2194 68.3598 34.22 67.126C34.2201 67.0156 34.2081 66.8876 34.2067 66.7747C34.1903 65.4618 34.0927 64.0004 33.8592 62.318C33.8603 62.3224 33.862 62.3249 33.863 62.3294C34.2201 63.7896 34.6339 65.0347 35.0935 66.0854C35.094 66.0865 35.0949 66.0899 35.0954 66.0911C35.5534 67.1371 36.0562 67.9885 36.5898 68.6716C36.5954 68.6787 36.6014 68.6874 36.6069 68.6944C37.1404 69.373 37.7048 69.8796 38.2875 70.2401C38.2934 70.2438 38.2986 70.2498 38.3045 70.2534C38.8835 70.6085 39.48 70.8127 40.0819 70.8971C40.0935 70.8988 40.1045 70.9051 40.1161 70.9066C40.7148 70.9858 41.3183 70.9386 41.9143 70.7927C41.9289 70.7891 41.9434 70.7888 41.958 70.7851C42.5503 70.6351 43.1349 70.3808 43.6993 70.0502C43.7155 70.0407 43.7324 70.0352 43.7486 70.0256C44.3128 69.6899 44.8537 69.2715 45.3646 68.797C45.3777 68.7848 45.3914 68.7751 45.4045 68.7628C45.9111 68.2877 46.3825 67.7538 46.8116 67.1829C46.8269 67.1625 46.8438 67.1446 46.859 67.1241C47.2856 66.5495 47.6653 65.9373 47.9889 65.3087C47.9976 65.2918 48.0087 65.2763 48.0173 65.2594C48.3455 64.6148 48.6118 63.9546 48.8054 63.2978C48.8058 63.2966 48.805 63.2953 48.8054 63.294C48.9959 62.647 49.1106 62.0062 49.1453 61.3894C49.1462 61.3724 49.1501 61.3552 49.151 61.3382C49.1808 60.7284 49.1245 60.1464 48.9763 59.6083C48.9717 59.5917 48.9715 59.5735 48.9668 59.557C48.8129 59.0225 48.5579 58.5389 48.2015 58.1176C48.1893 58.1032 48.1817 58.0864 48.1693 58.0721C47.8047 57.6544 47.3268 57.3066 46.7337 57.0448C46.718 57.0379 46.7059 57.0288 46.69 57.022C46.0945 56.7666 45.3728 56.6059 44.5272 56.5454C44.4915 56.5428 44.4627 56.5343 44.4265 56.5321C43.5733 56.4808 42.5807 56.5444 41.4548 56.7277C41.4224 56.7329 41.402 56.7279 41.3693 56.7334C41.3843 56.7256 41.3924 56.7165 41.4073 56.7087C42.1126 56.3379 42.7024 55.9333 43.179 55.4991C43.1822 55.4961 43.1833 55.4926 43.1866 55.4896C43.6644 55.0526 44.034 54.588 44.305 54.1053C44.312 54.0929 44.3152 54.0798 44.3221 54.0673C44.5862 53.5872 44.7594 53.0911 44.8443 52.5843C44.8453 52.5786 44.8453 52.573 44.8462 52.5672C44.9297 52.0569 44.9293 51.5367 44.8557 51.0177C44.8542 51.007 44.8516 50.9962 44.85 50.9854C44.7742 50.4718 44.6282 49.9589 44.4227 49.4549C44.3222 49.2084 44.1684 48.9744 44.0411 48.7334C43.899 48.4645 43.7818 48.1895 43.61 47.9301C43.6078 47.9268 43.6046 47.9239 43.6024 47.9206C42.9598 46.9533 42.1245 46.0638 41.1946 45.3249C41.1835 45.316 41.1716 45.3109 41.1604 45.3021C40.2325 44.57 39.2151 43.9852 38.202 43.6292C37.6911 43.4496 37.1816 43.3279 36.6867 43.2722C36.6854 43.272 36.6842 43.2723 36.6829 43.2722C36.6738 43.2711 36.6653 43.2712 36.6563 43.2703C36.4185 43.2448 36.1834 43.2333 35.9537 43.2399ZM66.0397 21.0533C65.8786 21.0495 65.7313 21.081 65.5725 21.0856C65.2028 21.096 64.8367 21.1067 64.4883 21.1634C64.4417 21.171 64.3939 21.174 64.3478 21.1824C63.8783 21.2682 63.4456 21.4055 63.0451 21.5812C62.9896 21.6056 62.9319 21.6253 62.878 21.6515C62.4994 21.8351 62.1712 22.0692 61.8906 22.3426C61.8456 22.3864 61.7997 22.4275 61.7577 22.4737C61.4977 22.7591 61.3027 23.0927 61.1709 23.4706C61.1477 23.5372 61.127 23.6042 61.1083 23.6738C61.0016 24.0687 60.9668 24.5091 61.0209 25.0011C61.0295 25.0789 61.0478 25.16 61.0608 25.2403C61.144 25.7561 61.3102 26.3176 61.5925 26.938C61.6308 27.0221 61.6831 27.1119 61.7254 27.1981C62.0441 27.8478 62.4567 28.5438 63.0185 29.3078C63.0727 29.3814 63.1443 29.4609 63.2008 29.5356C63.8141 30.3458 64.544 31.2104 65.4605 32.1504C64.5611 31.398 63.726 30.8083 62.9521 30.3616C62.9501 30.3605 62.9465 30.359 62.9445 30.3578C62.183 29.919 61.4841 29.6219 60.8405 29.4407C60.8289 29.4374 60.8141 29.4306 60.8025 29.4274C59.515 29.0726 58.4625 29.2004 57.6276 29.6495C57.6175 29.655 57.6054 29.6573 57.5953 29.6628C57.1851 29.8888 56.8313 30.1959 56.5263 30.561C56.5187 30.5701 56.5091 30.5765 56.5016 30.5857C56.2007 30.9517 55.9539 31.3788 55.7534 31.8447C55.7471 31.8593 55.7387 31.8717 55.7325 31.8864C55.6624 32.0527 55.6327 32.2463 55.5749 32.4219C55.4646 32.7572 55.3429 33.0849 55.2768 33.4454C55.2347 33.6746 55.2369 33.9162 55.2122 34.1518C55.1783 34.4765 55.1262 34.7957 55.1249 35.1259C55.1201 36.2532 55.3068 37.3852 55.6623 38.3787C55.6684 38.3959 55.6693 38.4148 55.6756 38.4319C55.8547 38.9221 56.078 39.3747 56.3402 39.7744C56.3445 39.781 56.3472 39.7888 56.3516 39.7953C56.6143 40.1921 56.9194 40.5307 57.2611 40.7998C57.2719 40.8083 57.2807 40.82 57.2915 40.8283C57.6333 41.091 58.0147 41.276 58.4308 41.3752C58.4452 41.3786 58.4581 41.3852 58.4726 41.3885C58.8899 41.4811 59.3447 41.4767 59.8322 41.3695C59.85 41.3656 59.8657 41.3661 59.8835 41.3619C60.3753 41.2463 60.9025 41.0157 61.4615 40.6612C61.4792 40.6499 61.4949 40.6423 61.5127 40.6308C62.0705 40.2703 62.662 39.7739 63.2825 39.1402C63.3016 39.1206 63.3184 39.1144 63.3376 39.0946C63.331 39.1081 63.3308 39.1192 63.3243 39.1326C63.0568 39.6843 62.8736 40.2045 62.7755 40.6916C62.7737 40.7006 62.7754 40.7091 62.7736 40.7181C62.6776 41.2083 62.6582 41.6668 62.7109 42.091C62.7121 42.1003 62.7154 42.1084 62.7166 42.1176C62.7723 42.5402 62.8932 42.9309 63.0736 43.2873C63.0763 43.2926 63.0804 43.2972 63.0831 43.3025C63.2659 43.6594 63.5048 43.9828 63.7895 44.2729C63.7932 44.2767 63.799 44.2786 63.8028 44.2824C64.3791 44.8652 65.136 45.3147 65.9808 45.6249C65.9925 45.6292 66.0051 45.6301 66.0169 45.6344C66.8606 45.9396 67.7855 46.1121 68.7019 46.1452C68.7032 46.1452 68.7045 46.1451 68.7057 46.1452C69.6284 46.178 70.5428 46.0709 71.3452 45.8262C71.7475 45.7032 72.1227 45.5465 72.4579 45.3533L72.4598 45.3514C72.7954 45.1578 73.0917 44.9302 73.3352 44.6659L73.3371 44.664L73.3389 44.6621C73.3405 44.6604 73.3412 44.6581 73.3428 44.6564C73.5828 44.3941 73.7718 44.0957 73.8973 43.764L73.8991 43.762C73.9 43.7597 73.9002 43.7568 73.901 43.7545C74.0253 43.4213 74.0869 43.0523 74.0719 42.6493C74.0719 42.6475 74.0701 42.6454 74.07 42.6436C74.0541 42.2394 73.9634 41.7985 73.7833 41.3239C73.782 41.3204 73.7789 41.316 73.7776 41.3125C73.5962 40.8379 73.3268 40.3289 72.9573 39.7839L72.9915 39.8238C73.4735 40.0228 73.9392 40.1196 74.3852 40.1352C74.3965 40.1356 74.4082 40.1387 74.4194 40.139C74.8606 40.1502 75.2811 40.0749 75.6803 39.9339C75.6909 39.9301 75.7019 39.9283 75.7126 39.9244C76.1023 39.7828 76.4669 39.572 76.8101 39.3111C76.8311 39.2951 76.8538 39.2838 76.8747 39.2674C77.0282 39.1468 77.157 38.9809 77.3 38.8401C77.4901 38.6532 77.6878 38.4825 77.8583 38.2648C78.4267 37.5394 78.8703 36.6547 79.1913 35.7203C79.2096 35.6672 79.2347 35.6237 79.2521 35.5703C79.5545 34.6413 79.7071 33.6764 79.7192 32.7523C79.7202 32.679 79.7354 32.6066 79.7344 32.5339C79.7312 32.2942 79.6896 32.0745 79.6642 31.8446C79.6377 31.605 79.6244 31.3613 79.573 31.1364C79.4872 30.7605 79.3656 30.41 79.2065 30.0901C79.1834 30.0436 79.1629 29.9965 79.1382 29.9515C78.9644 29.6342 78.7481 29.3578 78.4925 29.1216C78.4564 29.0883 78.4221 29.0544 78.3843 29.0229C78.115 28.798 77.8002 28.6259 77.4425 28.5064C77.3961 28.4909 77.3518 28.4744 77.3038 28.4608C76.9356 28.3568 76.5195 28.3158 76.0582 28.3393C75.9919 28.3427 75.927 28.3445 75.8588 28.3507C75.3878 28.3937 74.8676 28.511 74.2998 28.702C74.2147 28.7306 74.1308 28.7591 74.0434 28.7912C73.4639 29.0049 72.8327 29.3032 72.1522 29.6856C72.0459 29.7453 71.94 29.8057 71.8312 29.8698C71.1381 30.2782 70.3927 30.7781 69.5944 31.3756C69.5264 31.4264 69.4732 31.4525 69.4045 31.5047C69.4618 31.4579 69.4835 31.4165 69.5393 31.3699C70.3548 30.6889 71.0101 30.0341 71.5179 29.4065C71.5831 29.326 71.6493 29.2468 71.7097 29.1672C72.1832 28.544 72.5144 27.9513 72.7218 27.388C72.7469 27.3199 72.7763 27.2519 72.7978 27.1848C72.9774 26.6244 73.0334 26.0984 72.9877 25.6049C72.9825 25.5485 72.9822 25.4914 72.9744 25.4359C72.9052 24.948 72.7337 24.4982 72.4826 24.0839C72.4557 24.0396 72.4353 23.9944 72.4066 23.951C72.1348 23.5391 71.782 23.1681 71.3698 22.8382C71.3345 22.8099 71.3054 22.7785 71.2692 22.7509C70.8423 22.4246 70.3546 22.1475 69.8317 21.9116C69.7878 21.8917 69.749 21.8681 69.7045 21.8489C69.2702 21.6615 68.8067 21.5328 68.3373 21.4103C68.0427 21.3332 67.755 21.2746 67.4543 21.2242C67.1317 21.1699 66.8197 21.131 66.4973 21.1083C66.3446 21.0975 66.191 21.0569 66.0397 21.0533ZM90.0815 35.4469C90.0558 35.448 90.033 35.466 90.0074 35.4677C89.5792 35.4963 89.1654 35.6138 88.7693 35.8171C88.7065 35.8494 88.645 35.8826 88.5832 35.9197C88.195 36.1523 87.8308 36.4779 87.4971 36.9128C87.4453 36.9803 87.3973 37.0566 87.3471 37.1293C87.0195 37.6033 86.724 38.1791 86.4755 38.8895C86.4437 38.9802 86.4184 39.0853 86.3881 39.1801C86.1446 39.9426 85.9411 40.8168 85.8052 41.8594C85.7939 41.9459 85.789 42.0481 85.7786 42.1366C85.6468 43.2526 85.5705 44.5036 85.583 45.9591C85.4416 44.6786 85.2269 43.5749 84.9526 42.6322C84.9517 42.6294 84.9515 42.6275 84.9507 42.6246C84.6796 41.6952 84.3486 40.9248 83.9746 40.2909C83.9697 40.2825 83.9663 40.2708 83.9614 40.2624C83.5821 39.6252 83.1575 39.1303 82.7005 38.7604C82.6993 38.7595 82.6979 38.7595 82.6967 38.7585C82.2397 38.3893 81.7514 38.145 81.244 38.0085L81.2421 38.0085C80.7445 37.8748 80.228 37.8487 79.7078 37.9059C79.6937 37.9075 79.6802 37.9061 79.6661 37.9078C79.1426 37.9701 78.6152 38.1211 78.0957 38.3427C78.0887 38.3457 78.0818 38.3473 78.0748 38.3503C77.5616 38.5711 77.0583 38.8648 76.5747 39.2086C76.5579 39.2205 76.5401 39.2288 76.5234 39.2409C76.2834 39.4138 76.0714 39.6342 75.8436 39.8314C75.6004 40.0419 75.3438 40.2302 75.1182 40.4637C74.862 40.729 74.6497 41.0279 74.4213 41.3163C74.2602 41.5198 74.0763 41.7063 73.9314 41.9183C73.7473 42.1875 73.6187 42.4715 73.4643 42.75C73.3237 43.0037 73.1555 43.2503 73.0427 43.5077C72.8148 44.0274 72.6508 44.5496 72.5547 45.0609C72.552 45.0756 72.546 45.09 72.5433 45.1046C72.4504 45.6205 72.4338 46.123 72.5016 46.5971C72.503 46.607 72.502 46.6177 72.5035 46.6275C72.5747 47.0991 72.7365 47.5385 72.9934 47.9359C73.0011 47.9478 73.0064 47.9601 73.0142 47.9719C73.2732 48.3608 73.6342 48.7029 74.0985 48.9878C74.1204 49.0013 74.1369 49.0164 74.1593 49.0296C74.6328 49.3083 75.222 49.5243 75.9252 49.6676C75.955 49.6737 75.9786 49.6827 76.0088 49.6885C76.72 49.825 77.5604 49.8795 78.5248 49.8499C78.5604 49.8488 78.5819 49.857 78.6179 49.8556C78.6104 49.8583 78.6063 49.8624 78.5989 49.8651C77.9577 50.101 77.4135 50.3796 76.9601 50.6949C76.9524 50.7003 76.9469 50.7066 76.9392 50.712C76.4881 51.0291 76.1232 51.38 75.8417 51.7583L75.8398 51.7602C75.838 51.7626 75.8378 51.7654 75.836 51.7678C75.5556 52.1468 75.3539 52.5515 75.2245 52.9736C75.2208 52.9859 75.2206 52.9992 75.217 53.0116C75.093 53.4302 75.0351 53.864 75.0404 54.3066C75.0424 54.4802 75.0944 54.6573 75.1144 54.8326C75.1465 55.1136 75.1595 55.3936 75.234 55.6757C75.3017 55.9322 75.4215 56.1832 75.5208 56.4372C75.5999 56.6396 75.6533 56.8459 75.7505 57.0448C75.7545 57.053 75.7617 57.0594 75.7657 57.0676C76.6434 58.8485 78.2081 60.4542 79.854 61.285C80.0852 61.4017 80.3184 61.4626 80.5509 61.5471C81.1495 61.7645 81.7476 61.9106 82.315 61.8756C82.3168 61.8755 82.3189 61.8757 82.3207 61.8756C82.7133 61.8507 83.0927 61.7558 83.4467 61.5869L83.4486 61.5869L83.4505 61.585C83.804 61.4154 84.1346 61.169 84.4303 60.8369L84.4322 60.835C84.4341 60.8329 84.436 60.8295 84.4379 60.8274C84.7318 60.4947 84.9933 60.0753 85.2108 59.5627C85.2116 59.5606 85.2118 59.5572 85.2127 59.5551C85.4302 59.04 85.6058 58.43 85.7273 57.7151L85.7235 57.774C85.9549 58.299 86.2506 58.7287 86.5932 59.0804C86.6008 59.0883 86.6063 59.0992 86.614 59.107C86.9542 59.4503 87.3446 59.709 87.7667 59.9007C87.7807 59.9071 87.7925 59.9173 87.8065 59.9235C88.225 60.1079 88.6783 60.2175 89.151 60.271C89.1743 60.2736 89.1959 60.2801 89.2193 60.2824C89.6849 60.329 90.1693 60.3116 90.6625 60.2482C90.6947 60.2441 90.7251 60.2433 90.7574 60.2387C91.7648 60.0962 92.7953 59.7288 93.7652 59.2285C93.8184 59.2011 93.8701 59.1865 93.9229 59.1583C94.864 58.654 95.7155 58.007 96.4256 57.2879C96.488 57.2247 96.5613 57.1737 96.6212 57.1094C96.7859 56.9324 96.9066 56.7432 97.0503 56.5587C97.2266 56.3323 97.4133 56.112 97.5535 55.877C97.7706 55.5135 97.9404 55.1447 98.0567 54.7699C98.0726 54.719 98.0904 54.669 98.1042 54.618C98.2082 54.2328 98.2473 53.8466 98.2238 53.4635C98.2206 53.4107 98.2202 53.3586 98.2143 53.3059C98.172 52.9249 98.052 52.5503 97.8611 52.1855C97.8343 52.1342 97.8114 52.0826 97.7814 52.0317C97.5693 51.6719 97.2713 51.3267 96.8908 50.9968C96.8334 50.947 96.7776 50.8977 96.7161 50.8487C96.3115 50.5266 95.8117 50.2255 95.2198 49.9468C95.1281 49.9036 95.0371 49.8615 94.9407 49.8195C94.3153 49.5472 93.5852 49.3031 92.7493 49.0885C92.6316 49.0582 92.5145 49.0282 92.3924 48.9992C91.5225 48.7929 90.539 48.6209 89.4358 48.4865C89.3488 48.4759 89.2907 48.4567 89.2022 48.4466C89.2831 48.4531 89.3317 48.4374 89.4111 48.4428C90.5747 48.5226 91.5906 48.5011 92.4702 48.3897C92.5858 48.375 92.701 48.3617 92.812 48.3441C93.6595 48.2097 94.3715 47.9909 94.9634 47.7023C95.0357 47.667 95.1112 47.6351 95.1799 47.5978C95.7462 47.2908 96.1898 46.9172 96.5281 46.4927C96.5675 46.4432 96.6113 46.3972 96.6478 46.3465C96.9651 45.9056 97.172 45.4171 97.2877 44.8957C97.2994 44.8429 97.3158 44.7935 97.3257 44.74C97.424 44.2059 97.4246 43.6432 97.3484 43.0671C97.3416 43.0156 97.3413 42.9668 97.3333 42.9152C97.2415 42.3265 97.069 41.7295 96.8301 41.1397C96.8142 41.1007 96.8028 41.0628 96.7864 41.0239C96.5301 40.4144 96.2053 39.8173 95.8274 39.2522C95.8181 39.2383 95.8102 39.2243 95.8009 39.2105C95.0658 38.1216 94.1378 37.1672 93.1424 36.4875C93.1103 36.4655 93.0798 36.4405 93.0475 36.4191C92.6058 36.1268 92.153 35.9035 91.6974 35.7374C91.6372 35.7154 91.579 35.6885 91.5189 35.669C91.0742 35.525 90.6322 35.459 90.1972 35.464C90.1592 35.4644 90.1193 35.4452 90.0815 35.4469Z" fill="#FAC100"/>
</svg>
