<svg width="176" height="180" viewBox="0 0 176 180" fill="none" xmlns="http://www.w3.org/2000/svg">
<path d="M45.2464 40.0562C50.0518 55.7896 55.7017 73.9802 63.1978 91.9021C69.1931 86.8121 74.7896 77.2974 76.7582 68.0598C76.0542 80.546 75.8571 88.3447 65.051 96.2398C70.4408 108.58 76.7513 120.686 84.3133 131.66C91.3658 120.9 97.3033 106.362 102.59 92.6737C100.943 107.929 98.5436 124.565 88.3498 136.996L87.8225 136.541C94.6289 145.63 101.778 162.518 108.7 174.562C103.952 172.852 102.76 173.616 99.326 173.735C91.4675 161.613 77.9808 134.828 70.648 121.155L70.862 121.967C55.4567 116.102 37.3355 101.465 34.2176 95.0668C43.1689 103.236 56.5187 109.327 67.2739 114.695C54.9205 90.459 45.5947 64.7636 45.2464 40.0562Z" fill="#6A8E29"/>
<path d="M64.5435 2.73188C62.3259 3.04905 60.0532 8.70234 58.2786 14.9097C55.4545 9.11599 52.4598 4.33876 50.4589 4.49857C48.4868 4.65607 47.8069 9.58913 47.7534 15.4964C42.9235 9.51833 37.8898 4.28898 35.8527 5.069C34.0041 5.77683 34.9473 11.3159 36.7393 17.5695C31.7599 13.4755 27.1844 10.4457 25.6665 11.4676C23.956 12.619 26.4427 18.6992 29.816 25.1187C23.5873 22.9209 18.0912 21.6061 17.1883 23.2379C16.2912 24.8593 20.077 29.12 24.9722 33.6131C18.5159 31.9834 12.8356 31.1664 12.123 32.9319C11.4902 34.4994 14.8822 37.8684 19.4603 41.4915C13.5829 42.1348 8.79097 43.2682 8.82426 45.1553C8.85374 46.8269 12.655 48.8464 17.6414 50.7488C14.2699 52.1878 12.0309 53.7086 12.3609 55.1068C12.7419 56.7212 16.5124 57.9492 21.3671 58.8488C16.6399 61.8028 13.048 64.8048 13.8897 66.6262C14.7236 68.4309 19.7767 68.7835 25.66 68.4972C23.0049 72.6243 21.3726 76.3009 22.6873 77.6892C24.0609 79.1399 28.4321 77.856 33.3396 75.6585C30.8699 80.5401 29.3603 84.9636 30.9177 86.3336C32.774 87.9666 38.6167 84.9604 44.3374 81.1737C43.9123 88.527 44.1903 95.8297 46.5637 96.7447C48.4986 97.4907 51.5012 93.8561 54.3997 89.1336C55.5708 95.4292 57.2287 100.9 59.3347 101.292C61.497 101.694 63.7417 96.6638 65.5605 90.7145C68.3157 96.2929 71.2058 100.821 73.1521 100.666C75.2348 100.5 75.8701 95.0031 75.8543 88.6609C80.6684 94.6125 85.6762 99.8037 87.7061 99.0264C89.5859 98.3066 88.5762 92.5894 86.725 86.2065C91.8543 90.4626 96.6282 93.6698 98.1857 92.6213C99.9938 91.4041 97.1153 84.6902 93.4527 77.8782C100.191 80.343 106.394 81.9708 107.358 80.2284C108.195 78.7167 104.941 74.9057 100.533 70.7561C105.605 71.8484 109.652 72.1698 110.246 70.6974C110.881 69.1251 107.466 65.7409 102.866 62.1051C108.275 61.4442 112.54 60.3372 112.508 58.5587C112.476 56.7529 108.02 54.5437 102.446 52.5122C106.945 50.8377 110.224 48.992 109.829 47.3197C109.478 45.8318 106.24 44.6769 101.937 43.7993C105.658 41.2738 108.208 38.8368 107.485 37.2736C106.818 35.8305 103.438 35.3248 99.1114 35.3212C101.918 31.0337 103.702 27.1577 102.345 25.725C100.784 24.0762 95.3566 25.9529 89.6618 28.701C92.373 23.5056 94.134 18.6692 92.4912 17.224C90.7739 15.7133 85.6435 18.1847 80.3557 21.5592C80.6708 14.6672 80.2776 8.14635 78.0447 7.28551C76.0591 6.52001 72.9484 10.3556 69.9805 15.2584C68.8062 8.81426 67.1292 3.14047 64.9836 2.74166C64.8373 2.71447 64.6904 2.71087 64.5435 2.73188ZM64.2404 40.4811C64.3952 40.4891 64.5508 40.5008 64.7032 40.5006C65.1299 40.8999 65.5924 41.2685 66.0918 41.5959C66.578 42.3462 67.1792 43.0569 67.9009 43.6918C68.7051 44.3992 69.5914 44.9475 70.5086 45.3574C70.5502 45.9185 70.6567 46.4894 70.8247 47.0622C70.6006 48.1113 70.6014 49.2514 70.8801 50.4326C71.1522 51.5854 71.6574 52.6596 72.3339 53.6172C72.0707 54.802 72.1103 56.0387 72.4252 57.2386C72.042 57.6403 71.7015 58.0914 71.4212 58.5978C70.8862 59.5647 70.6155 60.6221 70.5737 61.7042C70.335 62.0201 70.1308 62.3551 69.9544 62.7049C69.4297 62.7892 68.9131 62.924 68.4126 63.1156C68.3914 63.1237 68.3718 63.1334 68.3507 63.1417C67.0196 62.5984 65.579 62.3419 64.1361 62.4572C62.817 62.5625 61.647 62.9738 60.6679 63.6013C60.4182 63.5717 60.1723 63.5544 59.928 63.5459C59.1175 62.7832 58.1693 62.1398 57.1084 61.6618C56.6601 61.0236 56.132 60.4147 55.508 59.8658C54.6443 59.106 53.6886 58.5253 52.6982 58.1089C52.4193 57.1744 51.9678 56.2583 51.3553 55.3969C51.5867 54.3387 51.5913 53.1877 51.3096 51.9939C51.0812 51.026 50.6825 50.1172 50.1623 49.2819C50.2246 48.7405 50.2248 48.1928 50.1688 47.6456C51.3986 47.05 52.4369 46.1215 53.1285 44.8717C53.7257 43.7923 53.9932 42.597 53.9792 41.384C55.6371 42.3502 57.554 42.8575 59.4749 42.7041C61.4442 42.5468 63.0867 41.7223 64.2404 40.4811Z" fill="#FAC100"/>
<path d="M66.7303 73.4543C55.083 74.3845 43.4554 65.8766 40.7592 54.4515C38.063 43.0263 45.3192 33.0103 56.9665 32.0801C68.6137 31.1498 80.2414 39.6577 82.9376 51.0828C85.6338 62.508 78.3776 72.524 66.7303 73.4543Z" fill="#803300"/>
<path d="M157.195 53.2445C151.742 52.2706 145.588 46.0352 136.929 32.709C135.174 30.0074 133.636 27.6803 133.511 27.5378C132.576 24.9538 124.326 19.1558 140.547 23.3395C140.629 23.4738 142.691 23.6841 145.128 23.8068C154.663 24.2867 162.561 25.7385 166.78 27.787C173.376 30.9889 174.902 36.5214 171.456 44.7425C169.265 44.8919 169.04 47.0123 168.433 48.7507L167.285 49.818C164.222 52.6661 160.684 53.8676 157.195 53.2445Z" fill="#FAC100"/>
<path d="M124.245 7.61951C123.816 7.61999 123.474 7.86307 123.121 8.33348C122.619 8.99993 122.423 9.05536 121.629 8.75458C120.858 8.46262 120.606 8.5169 120.024 9.09994C119.02 10.1071 119.437 10.9162 121.85 12.6434C123.854 14.0777 124.979 15.4443 125.456 17.026C125.629 17.598 125.436 18.0137 124.615 18.8354C123.161 20.2915 121.331 24.3473 119.905 29.2773C118.285 34.8745 118.154 35.9616 119.026 36.5742C120.175 37.381 121.945 36.9946 124.3 35.4234C127.746 33.1238 131.344 30.0872 132.352 28.6278L133.377 27.5555L134.614 29.0919C136.055 28.4635 137.723 26.8535 137.775 22.7042L133.123 20.0861L132.465 19.2465C132.103 18.7847 131.293 18.1426 130.665 17.8194C129.558 17.2498 129.52 17.167 129.434 15.1128C129.311 12.1586 128.501 10.4053 126.541 8.85168C125.491 8.01877 124.796 7.61881 124.245 7.61951ZM143.183 23.7449C142.493 23.7437 142.367 23.782 142.367 23.782C143.026 28.045 140.899 31.6602 137.867 34.092C139.919 37.2502 140.893 38.6273 142.688 41.0133C146.964 38.2942 150.819 31.1721 149.691 24.1208C148.22 23.9909 146.696 23.8858 145.128 23.8069C144.214 23.7609 143.597 23.7457 143.183 23.7449ZM156.735 25.1126C156.815 32.8309 154.111 39.8324 147.699 46.9376C150.668 50.1571 152.263 51.4541 154.733 52.4209C160.936 47.6991 164.497 34.1113 166.008 27.455C163.424 26.2003 161.61 25.8334 156.735 25.1126ZM170.598 30.4416C170.725 30.5715 170.845 30.7043 170.963 30.8385C170.875 30.6416 170.755 30.5054 170.598 30.4416ZM170.963 30.8385C172.32 33.8827 165.733 51.8196 161.417 53.1151C163.468 52.6245 165.461 51.5141 167.285 49.818L168.433 48.7508L175.235 50.2042L171.455 44.7425C173.986 38.7047 173.834 34.1178 170.963 30.8385Z" fill="#303030"/>
<path d="M133.303 18.0202C133.401 16.884 133.566 14.7702 133.669 13.3228C134.315 4.20483 136.79 0 141.511 0C142.263 0 143.434 0.36626 144.177 0.679832C145.313 1.1595 145.923 2.26744 146.588 2.76183C147.8 2.93201 150.608 3.66609 151.324 5.73344C152.702 9.71112 150.647 13.2187 142.326 20.3517C141.373 21.2392 139.024 22.9533 139.024 22.9533C138.277 22.9813 136.656 22.3525 136.462 22.1142C136.068 21.6312 135.646 23.1332 134.029 24.4207C132.7 24.5367 133.208 19.1124 133.303 18.0202Z" fill="#CCCCCC"/>
<path d="M122.295 8.96375C126.825 11.0403 127.57 14.2636 127.976 16.6259" stroke="#303030" stroke-width="0.407173"/>
<path d="M146.588 2.76184C149.038 8.82492 144.245 13.1971 141.302 17.0699L136.406 22.0663" stroke="#ECECEC" stroke-width="0.622983"/>
</svg>
