<svg width="37" height="37" viewBox="0 0 37 37" fill="none" xmlns="http://www.w3.org/2000/svg">
<path id="logo" d="M32.6429 0.465332H4.35714C3.33416 0.465332 2.35309 0.871709 1.62973 1.59506C0.906376 2.31842 0.5 3.2995 0.5 4.32247L0.5 32.6082C0.5 33.6312 0.906376 34.6122 1.62973 35.3356C2.35309 36.059 3.33416 36.4653 4.35714 36.4653H15.3862V24.2261H10.3237V18.4653H15.3862V14.0746C15.3862 9.08042 18.3594 6.32176 22.9132 6.32176C25.0941 6.32176 27.3746 6.71069 27.3746 6.71069V11.6125H24.8619C22.3861 11.6125 21.6138 13.1489 21.6138 14.7247V18.4653H27.1408L26.2569 24.2261H21.6138V36.4653H32.6429C33.6658 36.4653 34.6469 36.059 35.3703 35.3356C36.0936 34.6122 36.5 33.6312 36.5 32.6082V4.32247C36.5 3.2995 36.0936 2.31842 35.3703 1.59506C34.6469 0.871709 33.6658 0.465332 32.6429 0.465332Z" fill="#1A1400"/>
</svg>
