<svg width="82" height="32" viewBox="0 0 82 32" fill="none" xmlns="http://www.w3.org/2000/svg">
<path d="M77.1034 12.6177C75.8072 12.3869 74.3446 10.9093 72.2863 7.75128C71.8691 7.11106 71.5034 6.55961 71.4738 6.52582C71.4441 6.492 71.3201 6.60822 71.1982 6.78415C70.9586 7.13001 70.1033 7.84961 69.2842 8.39457C68.7245 8.76689 68.3037 8.85844 68.0307 8.66724C67.8235 8.52209 67.8546 8.26445 68.2396 6.93804C68.5787 5.76975 69.0136 4.80858 69.3592 4.46353C69.5543 4.26881 69.6002 4.17033 69.5591 4.03477C69.4456 3.65996 69.1783 3.3361 68.7021 2.99623C68.1285 2.58692 68.0293 2.39512 68.268 2.15644C68.4062 2.01822 68.466 2.00544 68.6493 2.07463C68.8382 2.14596 68.8848 2.13281 69.0039 1.97481C69.1962 1.72001 69.3732 1.74675 69.8171 2.09767C70.2829 2.46582 70.4754 2.88132 70.5048 3.58138C70.5252 4.06817 70.5342 4.08779 70.7972 4.22278C70.9465 4.29942 71.1391 4.45154 71.2252 4.56096L71.3816 4.7599L71.4243 4.27037C71.4478 4.00113 71.4869 3.50019 71.5113 3.15719C71.6649 0.99645 72.2533 0 73.3754 0C73.5541 0 73.8325 0.0868293 74.009 0.161106C74.2792 0.274811 74.424 0.537337 74.5823 0.654497C74.8703 0.694811 75.4957 0.960036 75.7735 1.39802C76.3379 2.288 75.8224 3.19949 73.7921 4.90153C73.4171 5.21584 73.1264 5.49907 73.1461 5.53091C73.1657 5.56281 73.6558 5.61257 74.2351 5.64166C76.5016 5.75537 78.3788 6.09944 79.3819 6.58489C80.9496 7.34365 81.3123 8.65473 80.4931 10.6029L81.3915 11.8973L79.7747 11.5528L79.5019 11.8057C78.7738 12.4806 77.9327 12.7654 77.1034 12.6177ZM78.3656 11.7299C79.6403 11.125 80.5691 9.12969 80.0498 8.1118C79.8871 7.79284 79.3636 7.30774 79.2547 7.37505C79.2191 7.39705 79.19 7.57282 79.19 7.76573C79.19 8.29952 79.035 9.18805 78.8584 9.66647C78.6741 10.1656 78.1558 10.9977 77.7475 11.4496C77.5861 11.6282 77.4862 11.8043 77.5175 11.8549C77.5864 11.9664 77.9938 11.9063 78.3656 11.7299ZM76.6802 6.65705L75.4092 6.5093C75.4655 7.78834 75.0896 8.51797 74.2621 9.34547L75.2244 10.446C76.1083 9.59326 76.798 8.00968 76.6802 6.65705ZM73.0844 6.43915L72.3227 6.27992L72.7041 7.03365C73.0437 7.14913 73.0844 6.43915 73.0844 6.43915ZM74.3253 3.39476C75.3505 2.37443 75.4608 2.07109 74.999 1.54148C74.8565 1.37805 74.7466 1.43014 74.7466 1.66124C74.7464 2.06363 74.108 3.13475 73.3257 4.04527C73.1639 4.23351 73.0316 4.42008 73.0316 4.45983C73.0316 4.59539 73.5372 4.17911 74.3253 3.39476ZM73.3148 2.94889C74.0977 1.93138 74.2524 1.30703 73.8177 0.918644C73.3981 0.54373 72.9368 0.669147 72.6472 1.23686C72.3825 1.75563 72.0694 3.82128 72.2188 4.06302C72.2845 4.16934 72.7029 3.74408 73.3148 2.94889ZM45.9745 10.1918C45.3435 10.1918 44.8482 10.0959 44.4888 9.90421C44.1373 9.71251 43.9616 9.44892 43.9616 9.11342C43.9616 8.9297 43.9855 8.77394 44.0335 8.64614C44.0894 8.51035 44.1653 8.44245 44.2611 8.44245C44.3011 8.44245 44.345 8.45441 44.3929 8.47833C44.4488 8.50225 44.5366 8.55417 44.6565 8.63409C44.8082 8.72998 44.98 8.82583 45.1717 8.92165C45.3634 9.01753 45.5591 9.09741 45.7588 9.16128C45.9665 9.22517 46.1582 9.25712 46.3339 9.25712C46.5575 9.25712 46.7253 9.2012 46.8371 9.08937C46.9569 8.97755 47.0168 8.82578 47.0168 8.63408C47.0168 8.49828 46.9769 8.38245 46.8971 8.2866C46.8172 8.19071 46.6774 8.08288 46.4777 7.9631L45.675 7.45988C45.3554 7.26018 45.0918 7.04052 44.8842 6.80088C44.6845 6.56125 44.5846 6.26171 44.5846 5.90227C44.5846 5.37507 44.7843 4.94772 45.1837 4.62022C45.5831 4.29273 46.1622 4.12897 46.921 4.12897C47.4323 4.12897 47.8117 4.18089 48.0593 4.28474C48.3149 4.38062 48.4427 4.55636 48.4427 4.81194C48.4427 5.03559 48.4068 5.2233 48.3349 5.37508C48.271 5.52684 48.1832 5.60272 48.0713 5.60272C48.0314 5.60272 47.9834 5.59474 47.9275 5.5788C47.8796 5.56285 47.8316 5.54286 47.7837 5.51884C47.7118 5.47887 47.608 5.41896 47.4721 5.33911C47.3364 5.25927 47.1846 5.18739 47.0168 5.12345C46.8571 5.05955 46.6894 5.02761 46.5136 5.02761C46.3459 5.02761 46.2101 5.07953 46.1062 5.18337C46.0024 5.27926 45.9505 5.40706 45.9505 5.56677C45.9505 5.71055 45.9944 5.83037 46.0824 5.92623C46.1702 6.02211 46.3259 6.12196 46.5496 6.22576L47.3284 6.57324C47.6959 6.733 47.9794 6.92869 48.1791 7.16034C48.3868 7.38399 48.4907 7.69152 48.4907 8.08292C48.4907 8.54621 48.3708 8.9376 48.1312 9.25712C47.8996 9.56864 47.592 9.80428 47.2086 9.96404C46.8252 10.1158 46.4138 10.1918 45.9745 10.1918ZM41.8887 10.1678C41.697 10.1678 41.5572 10.084 41.4694 9.91623C41.3815 9.74849 41.3416 9.54081 41.3496 9.29319C41.3575 9.02161 41.3815 8.69811 41.4215 8.32269C41.4615 7.94726 41.5014 7.57582 41.5413 7.20839L41.9127 4.27289C41.9527 3.92942 41.9566 3.62988 41.9245 3.37428C41.8926 3.11866 41.8487 2.895 41.7928 2.7033C41.7449 2.50361 41.7209 2.32788 41.7209 2.17611C41.7209 2.07227 41.7928 1.98441 41.9366 1.91251C42.0804 1.83267 42.2481 1.76877 42.4398 1.72081C42.6395 1.67286 42.8152 1.64889 42.967 1.64889C43.1587 1.64889 43.3105 1.74474 43.4223 1.93645C43.5421 2.12816 43.602 2.34783 43.602 2.59545C43.602 2.67528 43.594 2.84302 43.5781 3.09867C43.5622 3.35427 43.5302 3.64582 43.4823 3.97332L43.0988 6.7291C43.019 7.30422 42.9591 7.88333 42.9191 8.46643C42.8871 9.04155 42.8432 9.60868 42.7873 10.1678L41.8887 10.1678ZM37.6832 10.1918C37.0681 10.1918 36.5809 10.0001 36.2214 9.61666C35.87 9.22525 35.6942 8.69007 35.6942 8.01111C35.6942 7.44399 35.7741 6.92479 35.9339 6.45351C36.1016 5.98223 36.3333 5.57086 36.6288 5.2194C36.9323 4.86794 37.2798 4.59636 37.6712 4.40465C38.0706 4.21294 38.4979 4.11709 38.9532 4.11709C39.4884 4.11709 39.9078 4.23291 40.2113 4.46455C40.5228 4.69621 40.6786 5.03169 40.6786 5.47101C40.6786 5.91033 40.5268 6.29375 40.2233 6.62124C39.9198 6.94874 39.4884 7.22832 38.9293 7.45997C38.3781 7.69161 37.7231 7.88731 36.9643 8.04707L36.8085 7.29222C37.2319 7.2363 37.6193 7.14045 37.9708 7.00467C38.3222 6.86887 38.6058 6.68914 38.8214 6.46548C39.0451 6.24183 39.1569 5.98222 39.1569 5.68668C39.1648 5.479 39.1289 5.31525 39.0491 5.19544C38.9693 5.07562 38.8335 5.01571 38.6418 5.01571C38.3622 5.01571 38.1146 5.13552 37.8989 5.37516C37.6912 5.6068 37.5275 5.91433 37.4076 6.29775C37.2958 6.68115 37.2399 7.09252 37.2399 7.53186C37.2399 8.05905 37.3158 8.43048 37.4676 8.64614C37.6193 8.85382 37.8669 8.95766 38.2104 8.95766C38.5619 8.95766 38.8814 8.89775 39.1689 8.77793C39.4565 8.65013 39.7001 8.52233 39.8998 8.39453C39.9637 8.35456 40.0196 8.32262 40.0676 8.29869C40.1235 8.2667 40.1714 8.2507 40.2114 8.2507C40.2593 8.2507 40.2953 8.27068 40.3192 8.31065C40.3431 8.34265 40.3551 8.38257 40.3551 8.43041C40.3551 8.57419 40.2912 8.74593 40.1634 8.94563C40.0436 9.14531 39.8638 9.34102 39.6242 9.53273C39.3926 9.71645 39.113 9.8722 38.7855 10C38.458 10.1278 38.0906 10.1918 37.6832 10.1918ZM33.3818 10.1918C33.238 10.1918 33.1342 10.1039 33.0703 9.92818C33.0144 9.75245 32.9864 9.56074 32.9864 9.35306C32.9864 9.10544 32.9984 8.88178 33.0223 8.68209C33.0463 8.47441 33.0743 8.23477 33.1062 7.96319L33.5376 4.11709H34.5081C34.6758 4.11709 34.7876 4.20496 34.8435 4.38069C34.9075 4.55642 34.9394 4.75611 34.9394 4.97977C34.9394 5.09159 34.9314 5.21141 34.9154 5.33922C34.8995 5.45904 34.8755 5.64675 34.8435 5.90235L34.6159 7.85535C34.568 8.26273 34.524 8.6062 34.4841 8.88578C34.4442 9.16534 34.4122 9.40897 34.3883 9.61666C34.3643 9.81635 34.3403 10.008 34.3164 10.1918H33.3818ZM34.4362 3.52999C34.1886 3.52999 33.9769 3.45011 33.8012 3.29035C33.6254 3.12261 33.5376 2.90295 33.5376 2.63137C33.5376 2.31186 33.6414 2.06424 33.8491 1.88852C34.0568 1.71278 34.2924 1.62491 34.556 1.62491C34.8116 1.62491 35.0233 1.7008 35.191 1.85256C35.3588 1.99634 35.4426 2.216 35.4426 2.51156C35.4426 2.79912 35.3428 3.04274 35.1431 3.24244C34.9434 3.43414 34.7078 3.52999 34.4362 3.52999ZM23.7246 10.1439C23.5888 10.1439 23.5009 10.0839 23.461 9.96412C23.4211 9.8443 23.4011 9.70053 23.4011 9.53278C23.4011 9.25321 23.4171 8.95766 23.449 8.64614C23.481 8.32663 23.5129 8.01511 23.5449 7.71158L24.2278 1.67285L25.3301 1.66103C25.6257 1.65315 25.8493 1.67713 26.0011 1.73295C26.1529 1.78089 26.2487 1.89271 26.2887 2.06842L27.9901 8.51454L27.3071 8.49062L29.955 2.4998C30.0669 2.2442 30.2785 2.04451 30.5901 1.90073C30.9016 1.74896 31.265 1.67308 31.6804 1.67308C31.8561 1.67308 31.9959 1.713 32.0997 1.79284C32.2036 1.8647 32.2435 2.00849 32.2196 2.22418L31.4048 10.0961H30.3265C30.1907 10.0961 30.0908 10.0362 30.0269 9.91637C29.963 9.78857 29.9311 9.59286 29.9311 9.32927C29.9311 9.01775 29.9391 8.67428 29.955 8.29886C29.979 7.91544 30.011 7.54801 30.0509 7.19655L30.5421 3.41035L30.614 3.45834L28.9486 7.22057C28.677 7.81965 28.4533 8.29492 28.2776 8.64638C28.1019 8.99784 27.9541 9.26143 27.8343 9.43717C27.7145 9.61289 27.6026 9.72872 27.4988 9.78463C27.4029 9.83258 27.2951 9.85655 27.1753 9.85655C27.0555 9.85655 26.9556 9.82859 26.8758 9.77267C26.8039 9.71675 26.748 9.60493 26.708 9.43719L25.0546 3.39845L25.1983 3.38663L24.8389 6.48988C24.767 7.12091 24.7311 7.62414 24.7311 7.99956C24.739 8.37499 24.763 8.66653 24.8029 8.87421C24.8509 9.07391 24.8948 9.22968 24.9347 9.34151C24.9827 9.45334 25.0066 9.55717 25.0066 9.65303C25.0066 9.74094 24.9547 9.81683 24.8509 9.88068C24.755 9.93659 24.6352 9.98453 24.4914 10.0245C24.3476 10.0645 24.2038 10.0924 24.0601 10.1084C23.9243 10.1323 23.8125 10.1439 23.7246 10.1439ZM71.0745 26.7125C69.7027 26.7125 68.6261 26.5041 67.8447 26.0873C67.0806 25.6706 66.6986 25.0975 66.6986 24.3682C66.6986 23.9688 66.7507 23.6302 66.8549 23.3524C66.9764 23.0572 67.1414 22.9096 67.3498 22.9096C67.4366 22.9096 67.5321 22.9356 67.6363 22.9877C67.7578 23.0398 67.9488 23.1527 68.2093 23.3263C68.5392 23.5347 68.9126 23.7431 69.3293 23.9515C69.7461 24.1598 70.1715 24.3335 70.6056 24.4724C71.0571 24.6113 71.4739 24.6808 71.8559 24.6808C72.3421 24.6808 72.7068 24.5592 72.9499 24.3161C73.2104 24.073 73.3406 23.7431 73.3406 23.3263C73.3406 23.0311 73.2538 22.7794 73.0801 22.571C72.9065 22.3626 72.6026 22.1282 72.1685 21.8677L70.4233 20.7737C69.7287 20.3396 69.1557 19.8621 68.7042 19.3411C68.2701 18.8202 68.053 18.169 68.053 17.3876C68.053 16.2415 68.4872 15.3125 69.3554 14.6006C70.2236 13.8886 71.4826 13.5327 73.1322 13.5327C74.2436 13.5327 75.0684 13.6455 75.6067 13.8713C76.1623 14.0796 76.4402 14.4617 76.4402 15.0173C76.4402 15.5036 76.362 15.9116 76.2058 16.2416C76.0668 16.5715 75.8758 16.7364 75.6327 16.7364C75.5459 16.7364 75.4417 16.7191 75.3202 16.6843C75.216 16.6496 75.1118 16.6062 75.0076 16.5541C74.8513 16.4672 74.6256 16.337 74.3304 16.1634C74.0352 15.9897 73.7052 15.8334 73.3406 15.6945C72.9933 15.5556 72.6286 15.4861 72.2466 15.4861C71.882 15.4861 71.5868 15.599 71.361 15.8248C71.1353 16.0331 71.0224 16.311 71.0224 16.6583C71.0224 16.9708 71.1179 17.2313 71.3089 17.4397C71.4999 17.648 71.8385 17.8651 72.3248 18.0908L74.0178 18.8462C74.8166 19.1935 75.433 19.6189 75.8671 20.1225C76.3186 20.6087 76.5444 21.2773 76.5444 22.1281C76.5444 23.1353 76.2839 23.9862 75.763 24.6807C75.2594 25.358 74.5908 25.8702 73.7573 26.2175C72.9238 26.5474 72.0295 26.7125 71.0745 26.7125ZM65.1422 10.4532C65.0589 11.0213 64.6974 11.2585 64.0575 11.1647C63.7832 11.1246 63.5668 11.0196 63.4083 10.8495C63.2354 10.6641 63.1685 10.4376 63.2078 10.1699C63.245 9.91518 63.3769 9.72108 63.6032 9.58748C63.8113 9.46462 64.046 9.42224 64.3071 9.46049C64.5618 9.49785 64.7709 9.60683 64.9346 9.78751C65.1098 9.97994 65.179 10.2019 65.1422 10.4532ZM62.7541 7.72791C62.4679 7.72939 62.2048 7.80248 61.9646 7.94438C61.6161 8.15005 61.4132 8.44905 61.3557 8.84112C61.2953 9.25331 61.398 9.60231 61.6642 9.88778C61.6829 9.90786 61.7023 9.92735 61.7221 9.94625C61.4934 10.14 61.3563 10.3924 61.3108 10.7034C61.2504 11.1155 61.353 11.4645 61.6192 11.75C61.8633 12.0117 62.1966 12.1731 62.6188 12.2349C63.3043 12.3353 63.7824 12.1894 64.0529 11.7965C64.1067 11.9199 64.1832 12.0338 64.2819 12.1397C64.5259 12.4013 64.8592 12.5633 65.2814 12.6251C66.2667 12.7694 66.8228 12.4044 66.951 11.5298C67.0006 11.1911 66.9251 10.8865 66.7248 10.6173C66.9919 10.4332 67.1568 10.1272 67.2194 9.70002C67.2761 9.31297 67.1693 8.97181 66.8996 8.67554C66.6477 8.39732 66.3256 8.22915 65.9336 8.17171C65.5314 8.11279 65.17 8.17762 64.8496 8.36708C64.6245 8.49983 64.4602 8.67173 64.3566 8.88228C64.3477 8.88117 64.3399 8.8808 64.3317 8.87932C64.2931 8.65163 64.1873 8.44232 64.0141 8.25209C63.7622 7.97387 63.4401 7.80624 63.0481 7.74878C62.9475 7.73401 62.8496 7.72718 62.7541 7.72791ZM64.099 9.18965C64.1793 9.18909 64.2617 9.19408 64.3463 9.20693C64.6764 9.25536 64.9476 9.39699 65.1597 9.63121C65.3868 9.8806 65.4764 10.168 65.4287 10.4939C65.3209 11.2302 64.8521 11.5375 64.0227 11.416C63.6672 11.3639 63.3871 11.2277 63.1817 11.0074C62.9575 10.7671 62.8705 10.4734 62.9214 10.1264C62.9696 9.79633 63.1405 9.54512 63.4339 9.37198C63.6361 9.25251 63.858 9.19161 64.099 9.18965ZM62.1404 26.7125C61.8278 26.7125 61.6021 26.5215 61.4631 26.1394C61.3416 25.7574 61.2808 25.3406 61.2808 24.8892C61.2808 24.3509 61.3068 23.8647 61.3589 23.4305C61.4111 22.979 61.4718 22.4581 61.5413 21.8677L62.479 13.5066H64.5888C64.9534 13.5066 65.1965 13.6976 65.3181 14.0797C65.457 14.4617 65.5265 14.8958 65.5265 15.382C65.5265 15.6251 65.509 15.8856 65.4743 16.1634C65.4396 16.4239 65.3875 16.832 65.3181 17.3876L64.8232 21.6333C64.7191 22.5189 64.6235 23.2656 64.5366 23.8733C64.4498 24.4811 64.3803 25.0107 64.3283 25.4622C64.2761 25.8963 64.2242 26.3131 64.172 26.7125H62.1404ZM49.5336 26.6343C48.8564 26.6343 48.3094 26.4433 47.8927 26.0613C47.4759 25.6793 47.2675 25.0976 47.2675 24.3162C47.2675 24.0557 47.2675 23.8039 47.2675 23.5608C47.2849 23.3177 47.3109 23.0225 47.3457 22.6752C47.3977 22.3105 47.4585 21.8417 47.528 21.2687L48.5178 13.5067H50.5234C50.8186 13.5067 51.0357 13.6803 51.1746 14.0276C51.3309 14.3575 51.409 14.7656 51.409 15.2518C51.409 15.6165 51.383 16.094 51.3309 16.6844C51.2788 17.2748 51.2007 17.926 51.0965 18.6379L50.7839 20.8259C50.7145 21.3121 50.6624 21.7288 50.6276 22.0761C50.6103 22.4234 50.6016 22.7186 50.6016 22.9617C50.6016 23.2569 50.6277 23.4913 50.6797 23.665C50.7491 23.8213 50.8881 23.8994 51.0965 23.8994C51.3396 23.8994 51.6521 23.7171 52.0342 23.3524C52.4162 22.9878 52.8156 22.5016 53.2323 21.8938C53.6491 21.286 54.0398 20.6349 54.4045 19.9403C54.7691 19.2283 55.0643 18.5424 55.29 17.8826C55.5332 17.2053 55.6547 16.6236 55.6547 16.1374C55.6547 15.738 55.6026 15.4081 55.4984 15.1476C55.4116 14.8698 55.3768 14.644 55.3942 14.4704C55.3942 14.3141 55.507 14.1752 55.7328 14.0536C55.9585 13.9321 56.2277 13.8366 56.5402 13.7671C56.8528 13.6803 57.1567 13.6195 57.4519 13.5848C57.7644 13.5327 58.0075 13.5067 58.1812 13.5067C58.4938 13.5067 58.7369 13.6803 58.9105 14.0276C59.1015 14.3749 59.1623 14.8698 59.0928 15.5123L57.8686 26.5562H55.9412C55.7328 26.5562 55.5504 26.4521 55.3942 26.2437C55.2553 26.0353 55.1511 25.8009 55.0816 25.5404C55.0122 25.2626 54.9775 25.0368 54.9775 24.8632C54.9775 24.4638 55.0383 24.0297 55.1598 23.5608C55.2814 23.092 55.455 22.4929 55.6808 21.7636C55.9065 21.0343 56.1756 20.0966 56.4882 18.9505V19.3933C55.811 21.1645 55.073 22.5797 54.2742 23.639C53.4754 24.6982 52.668 25.4623 51.8518 25.9311C51.0531 26.4 50.2803 26.6343 49.5336 26.6343ZM38.3074 26.7125C37.6301 26.7125 36.9703 26.6083 36.3278 26.3999C35.6853 26.2089 35.1123 25.9918 34.6087 25.7487L35.5724 22.9357C35.9892 23.2482 36.4493 23.5434 36.9529 23.8212C37.4565 24.0817 37.9427 24.2901 38.4115 24.4464C38.8977 24.6026 39.2971 24.6808 39.6097 24.6808C40.1133 24.6808 40.5734 24.4464 40.9902 23.9775C41.4069 23.5087 41.7369 22.8575 41.98 22.024C42.2231 21.1731 42.3446 20.2007 42.3446 19.1067C42.3446 18.169 42.2752 17.4484 42.1363 16.9448C42.0147 16.4413 41.815 16.1895 41.5372 16.1895C41.3462 16.1895 40.9728 16.4239 40.4172 16.8927C39.8615 17.3616 39.1929 18.1777 38.4115 19.3412C37.6301 20.5046 36.7966 22.1455 35.911 24.264L35.2338 21.9719C36.2062 19.784 37.1266 18.0822 37.9948 16.8667C38.863 15.6338 39.6878 14.7742 40.4693 14.288C41.2507 13.7845 41.9973 13.5327 42.7093 13.5327C43.7859 13.5327 44.5239 13.9407 44.9233 14.7569C45.34 15.573 45.5484 16.667 45.5484 18.0388C45.5484 19.7232 45.2272 21.2165 44.5847 22.5189C43.9595 23.8212 43.1 24.8458 42.006 25.5924C40.9121 26.3391 39.6792 26.7125 38.3074 26.7125ZM33.671 32C33.3931 32 33.1674 31.8784 32.9938 31.6353C32.8201 31.4096 32.6986 31.1404 32.6291 30.8279C32.577 30.5153 32.551 30.2288 32.551 29.9683C32.551 29.621 32.5683 29.1956 32.6031 28.692C32.6378 28.1885 32.6899 27.5894 32.7593 26.8948L34.2701 13.5066H36.1975C36.458 13.5066 36.6664 13.6108 36.8227 13.8192C36.9963 14.0276 37.1266 14.2794 37.2134 14.5746C37.3176 14.8524 37.3697 15.1215 37.3697 15.382C37.3697 15.7119 37.2568 16.2068 37.031 16.8667C36.8227 17.5092 36.5535 18.334 36.2236 19.3412L35.5724 21.3207H36.4841L36.0933 24.8371L35.885 25.1757L35.7287 32H33.671ZM21.3247 26.6343C20.6475 26.6343 20.1005 26.4433 19.6837 26.0613C19.267 25.6793 19.0586 25.0976 19.0586 24.3161C19.0586 24.0557 19.0586 23.8039 19.0586 23.5608C19.076 23.3177 19.102 23.0225 19.1368 22.6752C19.1889 22.3105 19.2496 21.8417 19.3191 21.2686L20.3089 13.5066H22.3145C22.6097 13.5066 22.8268 13.6803 22.9657 14.0276C23.122 14.3575 23.2001 14.7656 23.2001 15.2518C23.2001 15.6164 23.174 16.094 23.122 16.6844C23.0699 17.2748 22.9917 17.9259 22.8875 18.6379L22.575 20.8258C22.5055 21.312 22.4534 21.7288 22.4187 22.0761C22.4013 22.4234 22.3926 22.7186 22.3926 22.9617C22.3926 23.2569 22.4187 23.4913 22.4708 23.665C22.5402 23.8212 22.6791 23.8994 22.8875 23.8994C23.1306 23.8994 23.4432 23.7171 23.8252 23.3524C24.2072 22.9877 24.6066 22.5015 25.0234 21.8938C25.4401 21.286 25.8308 20.6348 26.1955 19.9402C26.5602 19.2283 26.8554 18.5424 27.0811 17.8825C27.3242 17.2053 27.4458 16.6236 27.4458 16.1374C27.4458 15.738 27.3937 15.4081 27.2895 15.1476C27.2027 14.8697 27.1679 14.644 27.1853 14.4704C27.1853 14.3141 27.2982 14.1752 27.5239 14.0536C27.7496 13.9321 28.0188 13.8366 28.3314 13.7671C28.6439 13.6803 28.9478 13.6195 29.243 13.5848C29.5556 13.5327 29.7987 13.5067 29.9723 13.5067C30.2849 13.5067 30.528 13.6803 30.7016 14.0276C30.8926 14.3749 30.9534 14.8698 30.884 15.5123L29.6597 26.5562H27.7323C27.5239 26.5562 27.3416 26.452 27.1853 26.2436C27.0464 26.0353 26.9422 25.8008 26.8727 25.5404C26.8033 25.2625 26.7685 25.0368 26.7685 24.8631C26.7685 24.4638 26.8293 24.0296 26.9509 23.5608C27.0724 23.092 27.246 22.4929 27.4718 21.7636C27.6975 21.0342 27.9667 20.0965 28.2792 18.9505V19.3933C27.602 21.1645 26.864 22.5797 26.0653 23.6389C25.2665 24.6982 24.459 25.4622 23.6429 25.9311C22.8441 26.3999 22.0714 26.6343 21.3247 26.6343ZM1.06011 26.5249C0.716293 26.5249 0.448877 26.3339 0.257865 25.9519C0.0859551 25.5698 0 25.121 0 24.6052C0 23.8603 0.0859551 22.6474 0.257865 20.9665L1.69045 6.8125C2.72191 6.71701 3.78203 6.65016 4.87079 6.61194C5.95956 6.55465 6.94327 6.526 7.82192 6.526C10.859 6.526 13.218 7.26139 14.8989 8.73219C16.5798 10.1839 17.4202 12.2181 17.4202 14.835C17.4202 17.0507 16.9427 19.0277 15.9877 20.7659C15.0517 22.485 13.6764 23.8412 11.8618 24.8345C10.0663 25.8086 7.87923 26.2957 5.30057 26.2957C4.53652 26.2957 3.79158 26.3339 3.06573 26.4103C2.33989 26.4867 1.67135 26.5249 1.06011 26.5249ZM4.06854 24.0322C6.01686 24.0322 7.66911 23.6597 9.0253 22.9148C10.3815 22.1698 11.4129 21.1288 12.1197 19.7917C12.8264 18.4547 13.1798 16.917 13.1798 15.1788C13.1798 13.1159 12.6163 11.5305 11.4893 10.4226C10.3815 9.29565 8.58597 8.73217 6.10282 8.73217H5.38652L4.0972 21.6255C4.0781 21.9502 4.059 22.3226 4.03989 22.7429C4.03989 23.1631 4.04945 23.5929 4.06854 24.0322Z" fill="#1A1400"/>
</svg>
