<svg width="33" height="56" viewBox="0 0 33 56" fill="none" xmlns="http://www.w3.org/2000/svg">
<path d="M21.5967 15.3357C20.6372 19.5041 19.5042 24.3179 17.9018 28.9465C16.31 27.1513 14.748 24.1275 14.1045 21.3968C14.4813 24.9721 14.6555 27.1908 17.5041 30.0644C16.3432 33.2379 14.9466 36.2907 13.2166 38.949C11.2679 35.4867 9.53981 31.0211 7.98919 26.8345C8.64782 31.2494 9.51797 36.0992 12.2848 40.2202L12.4104 40.1229C10.8406 42.2924 9.3092 46.6489 7.75744 49.648C8.92643 49.4448 9.23894 49.7315 10.106 49.9685C11.8924 47.0028 14.8626 40.2202 16.4918 36.7846L16.4508 37.0016C20.2385 36.253 24.5704 33.1827 25.2538 31.5565C23.129 33.3389 19.8628 34.273 17.2387 35.1559C19.9642 29.0277 21.9035 22.3075 21.5967 15.3357Z" fill="#6A8E29"/>
<path d="M16.1388 3.63114C16.7026 3.85209 17.3654 5.58645 17.9117 7.44814C18.5307 5.97556 19.2089 4.80073 19.7156 4.96433C20.215 5.12557 20.465 6.56188 20.5728 8.23683C21.6943 6.83072 22.879 5.64857 23.4047 5.98983C23.8818 6.29951 23.7326 7.81129 23.3809 9.47509C24.5701 8.61105 25.6745 8.02427 26.0733 8.40325C26.5226 8.8303 25.9932 10.4039 25.2458 12.0211C26.78 11.7676 28.1437 11.7206 28.3973 12.2359C28.6492 12.7478 27.7634 13.7296 26.6018 14.7116C28.2024 14.6324 29.6206 14.7372 29.8283 15.279C30.0127 15.76 29.2119 16.5128 28.1163 17.2674C29.6074 17.7971 30.8328 18.4013 30.8546 18.9334C30.8738 19.4047 29.9484 19.7514 28.7224 19.9948C29.5948 20.6015 30.1832 21.1643 30.1224 21.5405C30.0522 21.9749 29.1218 22.0993 27.9131 22.0668C29.1513 23.1824 30.1042 24.2445 29.9212 24.7101C29.7399 25.1715 28.4724 24.9724 26.9855 24.5433C27.7204 25.8684 28.1903 27.0055 27.8813 27.3206C27.5584 27.6499 26.4366 27.0279 25.165 26.1157C25.8652 27.6434 26.3162 28.9845 25.9457 29.2801C25.504 29.6325 23.984 28.436 22.4822 27.026C22.7067 29.1321 22.7533 31.1824 22.1699 31.3009C21.6943 31.3976 20.8798 30.1914 20.0741 28.6834C19.8796 30.3958 19.5493 31.8461 19.0249 31.8323C18.4865 31.8181 17.8406 30.2618 17.2874 28.4705C16.6823 29.8863 16.0265 30.9969 15.5336 30.8378C15.0062 30.6675 14.7584 29.0744 14.6611 27.2804C13.5432 28.68 12.3644 29.8528 11.8406 29.5128C11.3555 29.1979 11.5186 27.6396 11.8831 25.9427C10.6587 26.8438 9.50714 27.469 9.09799 27.0802C8.62299 26.6287 9.24103 24.8989 10.055 23.1878C8.39668 23.4867 6.85984 23.5804 6.58911 23.0303C6.35423 22.553 7.11301 21.6669 8.15756 20.7534C6.89712 20.7624 5.88255 20.614 5.7093 20.1621C5.52429 19.6796 6.33069 18.9239 7.43141 18.167C6.05826 17.66 4.96602 17.0944 4.94553 16.593C4.92472 16.0838 6.0121 15.7222 7.38417 15.477C6.224 14.737 5.36841 14.0207 5.44114 13.5708C5.50584 13.1705 6.30327 13.0352 7.37316 13.0413C6.3954 12.1065 5.71418 11.266 5.8712 10.8663C6.01617 10.4974 6.85982 10.5542 7.94981 10.8091C7.17418 9.42972 6.66296 8.2273 6.9819 7.90208C7.34894 7.52783 8.74622 8.38 10.2249 9.4946C9.45888 7.86391 8.93795 6.39099 9.3288 6.07917C9.73734 5.75323 11.0694 6.75614 12.4555 8.02397C12.2661 6.05487 12.2611 4.23268 12.8099 4.12115C13.2979 4.02197 14.1429 5.2915 14.9689 6.85459C15.1619 5.10032 15.4938 3.59381 16.0281 3.60787C16.0645 3.60883 16.1014 3.6165 16.1388 3.63114ZM16.8179 14.3323C16.779 14.3254 16.74 14.3195 16.7016 14.3105C16.6005 14.3982 16.4898 14.4752 16.3692 14.5383C16.2587 14.7219 16.1186 14.8874 15.9469 15.0244C15.7556 15.177 15.541 15.2798 15.3165 15.3415C15.315 15.4978 15.2973 15.6531 15.2641 15.8053C15.3373 16.1154 15.3553 16.438 15.3039 16.7558C15.2538 17.066 15.1437 17.3401 14.9885 17.5711C15.0737 17.922 15.0835 18.2697 15.0233 18.5906C15.1263 18.7269 15.2193 18.8748 15.298 19.0346C15.4482 19.3399 15.5333 19.6552 15.5611 19.9639C15.6263 20.0674 15.6831 20.1743 15.7331 20.2837C15.8667 20.3386 15.999 20.4073 16.1281 20.4912C16.1336 20.4948 16.1387 20.4986 16.1441 20.5022C16.4708 20.4272 16.8297 20.4399 17.1951 20.5578C17.5291 20.6657 17.8305 20.8513 18.0872 21.0868C18.1496 21.0932 18.2113 21.1029 18.2727 21.1149C18.4647 20.947 18.6933 20.821 18.953 20.7485C19.0558 20.5944 19.1791 20.4533 19.3276 20.3349C19.533 20.171 19.7645 20.0632 20.0074 20.0039C20.0628 19.7559 20.1619 19.5234 20.3025 19.3158C20.2272 19.0026 20.2077 18.6766 20.2596 18.3555C20.3017 18.095 20.3877 17.8614 20.5054 17.6558C20.481 17.4989 20.4723 17.3439 20.4776 17.1924C20.1583 16.951 19.8818 16.6268 19.6876 16.2322C19.5199 15.8914 19.4335 15.5373 19.4176 15.1949C19.0153 15.3702 18.5405 15.4004 18.0541 15.2434C17.5554 15.0823 17.1284 14.7518 16.8179 14.3323Z" fill="#FAC100"/>
<path d="M16.717 23.5165C19.6663 24.4688 22.4601 22.7489 22.9569 19.675C23.4538 16.6012 21.4657 13.3373 18.5163 12.385C15.567 11.4327 12.7732 13.1526 12.2764 16.2265C11.7795 19.3004 13.7676 22.5643 16.717 23.5165Z" fill="#803300"/>
</svg>
