<svg width="61" height="60" viewBox="0 0 61 60" fill="none" xmlns="http://www.w3.org/2000/svg">
<path d="M32.7335 12.9547C31.9379 18.3781 30.9841 24.6495 29.3458 30.8479C26.8696 29.1701 24.2722 25.9768 23.005 22.8413C24.0093 27.0994 24.5488 29.7614 28.9352 32.3485C27.7243 36.6186 26.1662 40.8183 24.0869 44.6439C20.8877 41.0401 17.8653 36.1343 15.1295 31.5122C16.6416 36.7068 18.5088 42.365 22.9457 46.5076L23.1093 46.3471C21.1905 49.5211 20.729 50.6421 18.9456 54.8269C20.5621 54.1943 21.0395 54.443 22.2899 54.449C24.4076 50.2282 26.5698 45.6617 28.4041 40.9166L28.3753 41.1959C33.601 39.0356 39.2835 33.8513 40.0283 31.6341C37.2777 34.5157 32.8099 36.7323 29.238 38.6755C32.256 30.2707 34.0903 21.3983 32.7335 12.9547Z" fill="#6A8E29"/>
<path d="M30.4946 7.93745C30.5036 7.93524 30.5124 7.93791 30.5213 7.93583C30.7204 7.88952 30.9184 7.87691 31.114 7.8963C31.1406 7.89893 31.167 7.89984 31.1934 7.90379C31.3855 7.93244 31.5724 8.00008 31.7535 8.10335C31.7803 8.1186 31.8071 8.13211 31.8336 8.14911C32.0118 8.26364 32.1809 8.42159 32.3408 8.62065C32.3651 8.65086 32.3892 8.68002 32.413 8.7123C32.5692 8.92444 32.7132 9.18456 32.8438 9.49134C32.8632 9.53668 32.8819 9.58128 32.9006 9.62879C33.0276 9.95176 33.1384 10.3273 33.2321 10.7564C33.2462 10.8209 33.2604 10.8856 33.2737 10.9527C33.3618 11.3983 33.4301 11.9013 33.4775 12.4636C33.481 12.5055 33.4895 12.5336 33.4928 12.5761C33.4909 12.5323 33.5002 12.5062 33.4989 12.4632C33.4806 11.8748 33.5102 11.3625 33.5824 10.9201C33.5924 10.8589 33.6022 10.798 33.6138 10.7394C33.6978 10.313 33.8214 9.95668 33.9785 9.66219C33.998 9.62567 34.0156 9.58766 34.0361 9.55305C34.2032 9.27022 34.4013 9.05089 34.6242 8.88689C34.6485 8.86893 34.6715 8.84898 34.6965 8.83235C34.9266 8.67887 35.1788 8.58288 35.4461 8.53375C35.4742 8.52858 35.5006 8.52019 35.529 8.51608C35.8012 8.47666 36.0863 8.48705 36.3764 8.53639C36.4026 8.54085 36.4275 8.54206 36.4538 8.54717C36.7514 8.60502 37.0516 8.70488 37.3471 8.83772C37.3663 8.84637 37.385 8.85279 37.4042 8.86172C37.7099 9.00395 38.0087 9.18023 38.2894 9.38372C38.2948 9.38767 38.3006 9.3908 38.306 9.39478C38.8436 9.78742 39.3089 10.2762 39.6356 10.7929C39.6479 10.8123 39.6625 10.8307 39.6744 10.8502C39.8152 11.0814 39.9207 11.3169 39.9964 11.5528C40.0053 11.5806 40.0164 11.6075 40.0243 11.6353C40.0893 11.8632 40.1144 12.0884 40.1045 12.3087C40.1029 12.3445 40.1024 12.3796 40.0987 12.415C40.0759 12.6307 40.0091 12.8373 39.8991 13.0336C39.8814 13.0652 39.8626 13.0956 39.8424 13.1266C39.7171 13.3192 39.5452 13.4983 39.3184 13.6596C39.2836 13.6843 39.2444 13.7069 39.207 13.7308C38.9589 13.8893 38.6592 14.0292 38.2912 14.1426C38.2486 14.1557 38.1997 14.166 38.1555 14.1784C37.7607 14.2893 37.3082 14.3766 36.7704 14.4264C36.7319 14.4299 36.6868 14.4306 36.6476 14.4338C36.0752 14.4806 35.434 14.4959 34.6893 14.4619C35.9783 14.6529 36.9017 14.9785 37.5368 15.3858C37.5416 15.3888 37.5481 15.3911 37.5529 15.3942C37.8662 15.5971 38.1064 15.8204 38.285 16.0572C38.287 16.0599 38.2904 16.0621 38.2924 16.0648C38.4689 16.301 38.5816 16.5518 38.642 16.8087C38.6429 16.8125 38.6447 16.8162 38.6456 16.82C38.7042 17.0766 38.7081 17.3399 38.6686 17.6044C38.6678 17.6095 38.6683 17.6144 38.6675 17.6196C38.6262 17.8847 38.54 18.1501 38.4177 18.4102C38.4159 18.4141 38.4148 18.4178 38.4129 18.4217C38.2902 18.6803 38.1309 18.9327 37.9453 19.1737C37.9412 19.1791 37.9384 19.185 37.9343 19.1904C37.8424 19.3086 37.7263 19.4118 37.6224 19.5234C37.5095 19.6449 37.4073 19.7728 37.2826 19.8846C37.168 19.9875 37.0391 20.0699 36.9167 20.163C36.7848 20.2634 36.6592 20.3733 36.5207 20.4606C36.2596 20.6253 35.9899 20.765 35.7185 20.8738C35.716 20.8748 35.7134 20.8764 35.7109 20.8774C35.4385 20.986 35.1659 21.0608 34.9004 21.1004C34.8939 21.1014 34.8874 21.1041 34.8809 21.105C34.6184 21.1425 34.3641 21.1403 34.1255 21.0977C34.1183 21.0964 34.1107 21.0968 34.1035 21.0954C33.8664 21.0503 33.6475 20.9602 33.4513 20.8229C33.445 20.8186 33.438 20.8161 33.4318 20.8116C33.2383 20.6721 33.0715 20.4811 32.9352 20.2383C32.9296 20.2284 32.9222 20.2217 32.9167 20.2117C32.7826 19.9635 32.6837 19.657 32.6241 19.2923C32.6222 19.2811 32.6185 19.2725 32.6167 19.2613C32.5601 18.8955 32.5479 18.4648 32.5814 17.972C32.5825 17.9553 32.5791 17.9451 32.5804 17.9282C32.5795 17.9304 32.5779 17.9315 32.577 17.9337C32.4454 18.2555 32.2935 18.5275 32.1251 18.7523C32.1197 18.7594 32.1134 18.7643 32.108 18.7713C31.94 18.9913 31.7575 19.1684 31.5622 19.3029C31.5603 19.3042 31.5582 19.3049 31.5564 19.3062C31.358 19.4419 31.1482 19.5366 30.9306 19.5943C30.9271 19.5952 30.9236 19.5959 30.92 19.5968C30.7033 19.653 30.4797 19.6734 30.253 19.6623C30.2491 19.6621 30.2454 19.6615 30.2415 19.6613C30.0151 19.6491 29.7861 19.606 29.5587 19.5366C29.4648 19.5079 29.3742 19.4574 29.2813 19.4202C29.1456 19.3659 29.0082 19.3206 28.876 19.2498C28.8716 19.2474 28.8681 19.2438 28.8637 19.2414C28.4205 19.002 28.0019 18.6784 27.6461 18.306C27.6447 18.3045 27.6444 18.3025 27.643 18.3011C27.2877 17.9283 26.9942 17.5097 26.7991 17.0845C26.701 16.8708 26.6275 16.6566 26.5836 16.4448C26.5833 16.4433 26.5829 16.4419 26.5826 16.4404C26.5822 16.4385 26.5826 16.4367 26.5822 16.4348C26.5398 16.226 26.526 16.0193 26.5454 15.8224C26.5457 15.8193 26.5467 15.8166 26.5471 15.8136C26.5677 15.6163 26.6203 15.427 26.7123 15.2518L26.713 15.2507C26.8057 15.0744 26.9369 14.9111 27.111 14.7671L27.1119 14.7669C27.1123 14.7665 27.113 14.766 27.1134 14.7656C27.4638 14.4771 27.9876 14.2641 28.7211 14.1672L28.6912 14.1677C28.4307 14.0411 28.2191 13.8841 28.0475 13.7049C28.042 13.6992 28.035 13.6943 28.0296 13.6885C27.8621 13.5094 27.738 13.3075 27.6487 13.0898C27.6458 13.0825 27.6411 13.0761 27.6382 13.0688C27.5529 12.8539 27.5062 12.6227 27.4876 12.3829C27.4865 12.3687 27.4824 12.3555 27.4816 12.3413C27.4669 12.105 27.4845 11.8595 27.5257 11.6114C27.5288 11.5925 27.5296 11.5742 27.533 11.5553C27.555 11.434 27.6016 11.3129 27.6353 11.1911C27.6769 11.0404 27.7099 10.8904 27.7679 10.741C27.8148 10.6199 27.8803 10.5051 27.937 10.3863C28.0032 10.2475 28.0623 10.1085 28.1404 9.97485C28.4135 9.50695 28.7571 9.0877 29.1347 8.7407C29.1692 8.70899 29.198 8.67192 29.233 8.64162C29.4114 8.48744 29.5959 8.35353 29.7855 8.24149C29.8082 8.2281 29.8298 8.21309 29.8526 8.20038C30.0496 8.09033 30.2498 8.00924 30.451 7.95524C30.4657 7.95132 30.48 7.94105 30.4946 7.93745ZM38.0081 24.7745C38.1217 24.7511 38.2351 24.7364 38.3472 24.732L38.3483 24.7327C38.5689 24.7244 38.786 24.7538 38.9933 24.8279C38.9936 24.828 38.9951 24.8283 38.9953 24.8284C38.9965 24.8288 38.9975 24.83 38.9986 24.8304C39.6231 25.056 40.1651 25.6819 40.4937 26.8668L40.4877 26.8336C40.5869 26.5268 40.7281 26.27 40.8992 26.0536C40.9033 26.0483 40.9058 26.0412 40.91 26.036C41.0802 25.8247 41.2832 25.6574 41.5077 25.5259C41.5159 25.5211 41.5229 25.5148 41.5311 25.5101C41.7527 25.384 41.9971 25.2979 42.2559 25.2408C42.2725 25.2371 42.2875 25.2309 42.3042 25.2275C42.561 25.1753 42.8328 25.1565 43.1111 25.1637C43.1317 25.1642 43.1512 25.1626 43.1719 25.1634C43.448 25.1745 43.7304 25.216 44.0134 25.2778C44.038 25.2832 44.0621 25.2857 44.0868 25.2914C44.2414 25.3275 44.3919 25.3878 44.5452 25.4372C44.7009 25.4874 44.8573 25.5282 45.0093 25.591C45.1506 25.6494 45.2804 25.7255 45.4166 25.7938C45.572 25.8717 45.7299 25.9424 45.8763 26.032C45.9961 26.1053 46.0987 26.1914 46.2109 26.2717C46.3519 26.3726 46.4977 26.4684 46.6241 26.5789C46.8217 26.7518 46.9974 26.9347 47.1502 27.1266C47.1686 27.1497 47.1888 27.1714 47.2065 27.1948C47.3562 27.3925 47.475 27.5984 47.5649 27.8092C47.5766 27.8366 47.5895 27.8633 47.6001 27.8909C47.6805 28.1007 47.7244 28.3151 47.7333 28.5312C47.7345 28.5611 47.7368 28.5904 47.7365 28.6203C47.7348 28.8358 47.6897 29.0513 47.6043 29.2661C47.5919 29.2973 47.5815 29.3281 47.5672 29.3592C47.4687 29.5737 47.3212 29.7853 47.1259 29.9926C47.0983 30.0219 47.0713 30.0508 47.0417 30.0799C46.8326 30.285 46.5684 30.4836 46.2505 30.675C46.2038 30.7032 46.1577 30.7313 46.1084 30.7591C45.7737 30.948 45.3787 31.127 44.9224 31.2955C44.8563 31.32 44.7903 31.3443 44.7215 31.3682C44.247 31.5333 43.7064 31.6851 43.0978 31.8233C43.0508 31.834 43.0202 31.848 42.9723 31.8585C43.0187 31.85 43.0479 31.8565 43.0935 31.8487C43.7392 31.7377 44.3081 31.6913 44.8061 31.7033C44.8708 31.7049 44.9353 31.7063 44.9977 31.7097C45.4803 31.7363 45.892 31.8172 46.2402 31.945C46.2828 31.9607 46.3266 31.9749 46.3673 31.9919C46.7018 32.1314 46.9714 32.3152 47.185 32.5335C47.21 32.559 47.2373 32.582 47.2607 32.6084C47.4634 32.837 47.6074 33.099 47.7021 33.3841C47.7117 33.4132 47.7248 33.4398 47.7334 33.4694C47.8191 33.7629 47.8522 34.0779 47.8427 34.4049C47.8418 34.4339 47.8437 34.4611 47.8422 34.4903C47.8246 34.8268 47.7613 35.173 47.6607 35.5187C47.6548 35.5389 47.651 35.5584 47.6448 35.5786C47.5372 35.9329 47.3903 36.2836 47.2127 36.6202C47.206 36.633 47.2016 36.6464 47.1948 36.6591C46.8467 37.3083 46.3834 37.8941 45.8674 38.3306C45.85 38.3453 45.8339 38.3621 45.8164 38.3764C45.5858 38.5656 45.3448 38.7168 45.0991 38.836C45.0678 38.8512 45.0378 38.8693 45.0063 38.8832C44.7665 38.9892 44.5236 39.0504 44.2807 39.0731C44.2421 39.0767 44.2045 39.0819 44.166 39.0832C43.9272 39.0913 43.6912 39.0499 43.4602 38.9602C43.4209 38.945 43.3824 38.9283 43.3435 38.91C43.1141 38.8021 42.8925 38.6417 42.6818 38.4187C42.6478 38.3827 42.6164 38.3406 42.583 38.3014C42.373 38.0547 42.1744 37.7505 41.9948 37.3674C41.9727 37.3202 41.9534 37.2649 41.9319 37.2155C41.7513 36.8023 41.5871 36.3241 41.4508 35.7475C41.4386 35.696 41.4301 35.6348 41.4183 35.5819C41.2812 34.9664 41.1657 34.2727 41.0893 33.4606C41.0893 33.4628 41.0888 33.4642 41.0888 33.4664C41.083 34.1882 41.027 34.8157 40.9282 35.3574C40.9281 35.358 40.928 35.3597 40.9279 35.3603C40.8293 35.8996 40.6884 36.3529 40.5144 36.731C40.5126 36.7349 40.5108 36.7396 40.509 36.7435C40.3346 37.1194 40.1269 37.4184 39.8945 37.6511C39.8921 37.6534 39.8904 37.6568 39.888 37.6592C39.6567 37.8889 39.4007 38.05 39.1289 38.1558C39.1237 38.1578 39.1192 38.162 39.114 38.164C38.8431 38.267 38.556 38.3114 38.2616 38.3088C38.2544 38.3088 38.2476 38.3102 38.2404 38.3101C37.9472 38.3052 37.6462 38.2508 37.3461 38.1584C37.3375 38.1558 37.329 38.155 37.3204 38.1523C37.0199 38.0576 36.7211 37.9216 36.4302 37.7561C36.4228 37.7519 36.4153 37.7488 36.4078 37.7445C36.1189 37.5783 35.8398 37.3807 35.5765 37.1611C35.5671 37.1532 35.5573 37.1467 35.5479 37.1388C35.2853 36.9173 35.0405 36.6729 34.8201 36.4148C34.8142 36.4078 34.8073 36.4019 34.8014 36.3949C34.5771 36.1298 34.3799 35.8505 34.2171 35.5649C34.2168 35.5643 34.217 35.5637 34.2167 35.5631C34.0564 35.2817 33.9322 34.9948 33.848 34.7104C33.8457 34.7025 33.8419 34.6949 33.8397 34.687C33.7585 34.4053 33.7207 34.1271 33.7306 33.8593C33.7309 33.851 33.729 33.8425 33.7294 33.8343C33.7423 33.5675 33.8081 33.3134 33.9281 33.0772C33.9322 33.0692 33.9339 33.0604 33.9381 33.0524C34.0624 32.817 34.2472 32.6018 34.4953 32.4141C34.5019 32.4092 34.5066 32.4036 34.5132 32.3987C34.7632 32.2137 35.0826 32.0591 35.4708 31.9377C35.4872 31.9325 35.4997 31.9254 35.5163 31.9204C35.9091 31.8024 36.3797 31.7228 36.9258 31.6844C36.9415 31.6833 36.9505 31.6787 36.9663 31.6777C36.9584 31.6757 36.9536 31.6724 36.9458 31.6703C36.5756 31.5747 36.2555 31.4506 35.9851 31.3001C35.9832 31.2991 35.9823 31.2976 35.9805 31.2965C35.7092 31.1449 35.4854 30.9685 35.3056 30.7728C35.3009 30.7677 35.298 30.762 35.2934 30.7569C35.1171 30.5616 34.9815 30.3488 34.886 30.1213C34.885 30.1187 34.8843 30.1161 34.8833 30.1135C34.788 29.8841 34.7309 29.641 34.708 29.3903C34.7076 29.3851 34.7076 29.3798 34.7071 29.3746C34.6859 29.1262 34.6975 28.8704 34.738 28.6122C34.7577 28.4859 34.8038 28.3596 34.8367 28.2329C34.8734 28.0916 34.8978 27.9502 34.9494 27.81C34.9501 27.8082 34.9513 27.8065 34.9519 27.8047C35.1454 27.2819 35.4375 26.7741 35.7903 26.3263C35.7945 26.3209 35.7995 26.3173 35.8037 26.3119C36.1564 25.8675 36.5671 25.4821 37.001 25.2041C37.2198 25.0639 37.4444 24.9509 37.6693 24.8704C37.6699 24.8702 37.6705 24.8702 37.6711 24.8699C37.6752 24.8685 37.6792 24.8676 37.6833 24.8661C37.7916 24.828 37.9001 24.7968 38.0081 24.7745ZM21.5115 17.7189C21.5863 17.6993 21.6586 17.6979 21.7332 17.6825C21.907 17.6466 22.0792 17.6113 22.2482 17.5995C22.2708 17.5979 22.2934 17.594 22.3159 17.5928C22.5446 17.5812 22.7618 17.5977 22.9682 17.6357C22.9968 17.641 23.026 17.6439 23.054 17.6502C23.2511 17.6943 23.4302 17.7676 23.5913 17.8645C23.6172 17.88 23.6432 17.8941 23.6679 17.9111C23.8207 18.0158 23.9486 18.1503 24.0518 18.3124C24.07 18.3409 24.087 18.37 24.1034 18.4004C24.1968 18.5733 24.2616 18.7753 24.2906 19.0112C24.2951 19.0485 24.2955 19.0884 24.2983 19.1274C24.3163 19.3776 24.3006 19.6584 24.2371 19.9794C24.2285 20.023 24.214 20.0707 24.2037 20.1156C24.1265 20.4544 24.0105 20.8251 23.8324 21.2441C23.8152 21.2845 23.7905 21.3295 23.7723 21.3707C23.5752 21.8168 23.3297 22.3013 23.0053 22.8417C23.3424 22.3909 23.6674 22.0233 23.9796 21.7293C23.9804 21.7286 23.9819 21.7275 23.9827 21.7267C24.2899 21.4377 24.5836 21.2219 24.8642 21.0663C24.8693 21.0635 24.8754 21.0587 24.8805 21.0559C25.4427 20.7483 25.9483 20.6921 26.3877 20.81C26.3931 20.8114 26.399 20.8112 26.4043 20.8127C26.6208 20.8731 26.8198 20.9777 27.0026 21.1147C27.0071 21.1181 27.0123 21.1201 27.0168 21.1235C27.1977 21.2615 27.36 21.4339 27.505 21.6295C27.5096 21.6357 27.5148 21.6406 27.5194 21.6468C27.5704 21.7168 27.6057 21.804 27.652 21.8797C27.7405 22.0242 27.8334 22.164 27.9041 22.3252C27.949 22.4277 27.9746 22.5408 28.0121 22.6482C28.0637 22.7963 28.1232 22.9397 28.1602 23.0939C28.2868 23.6202 28.3243 24.1699 28.2678 24.6734C28.2669 24.6821 28.2685 24.6911 28.2675 24.6997C28.2379 24.9486 28.1835 25.1847 28.1051 25.4004C28.1038 25.4039 28.1034 25.4079 28.1021 25.4114C28.0231 25.6258 27.9179 25.8177 27.788 25.9811C27.7839 25.9862 27.7811 25.9927 27.777 25.9977C27.6463 26.1582 27.4886 26.2867 27.3052 26.3788C27.2988 26.382 27.2935 26.3866 27.2871 26.3897C27.1024 26.4789 26.8896 26.527 26.6501 26.5305C26.6413 26.5307 26.6341 26.5326 26.6253 26.5326C26.3829 26.5328 26.1112 26.4831 25.8111 26.379C25.8015 26.3757 25.7934 26.3738 25.7838 26.3704C25.4836 26.2633 25.1526 26.0965 24.7929 25.8687C24.7819 25.8616 24.7734 25.8606 24.7622 25.8534C24.7668 25.859 24.7681 25.8642 24.7726 25.8697C24.9583 26.0981 25.1012 26.3211 25.2007 26.5379C25.2026 26.5419 25.2027 26.5461 25.2046 26.5501C25.3035 26.7686 25.363 26.9808 25.3852 27.1849C25.3857 27.1893 25.385 27.1935 25.3854 27.1979C25.406 27.4016 25.3926 27.5975 25.3477 27.784C25.347 27.7867 25.3456 27.7893 25.3449 27.7921C25.2989 27.979 25.223 28.1565 25.122 28.3234C25.1206 28.3256 25.1181 28.3271 25.1168 28.3293C24.9119 28.6652 24.608 28.9587 24.2476 29.1967C24.2426 29.2 24.2368 29.2018 24.2318 29.2051C23.8714 29.4407 23.4585 29.6232 23.0341 29.7396C23.0336 29.7398 23.0329 29.7399 23.0324 29.74C22.605 29.857 22.1662 29.9077 21.7645 29.8817C21.563 29.8685 21.3706 29.8366 21.1927 29.7832L21.1916 29.7826C21.0136 29.729 20.8501 29.6553 20.7072 29.5586L20.7061 29.5579L20.705 29.5572C20.7041 29.5566 20.7036 29.5556 20.7026 29.555C20.5616 29.4588 20.4405 29.3402 20.3453 29.1989L20.3442 29.1983C20.3435 29.1973 20.3431 29.1959 20.3425 29.1949C20.2477 29.0529 20.1783 28.8872 20.1408 28.6972C20.1407 28.6964 20.1413 28.6952 20.1411 28.6943C20.104 28.5037 20.0977 28.2876 20.1295 28.0459C20.1298 28.0442 20.1307 28.0418 20.1309 28.04C20.1634 27.7982 20.233 27.5306 20.3455 27.2352L20.334 27.2576C20.1308 27.4037 19.924 27.5003 19.7174 27.5567C19.7122 27.5581 19.707 27.5608 19.7018 27.5622C19.497 27.616 19.2923 27.6272 19.0904 27.6052C19.085 27.6047 19.0796 27.605 19.0743 27.6044C18.8766 27.5811 18.6831 27.5227 18.4941 27.4386C18.4825 27.4334 18.4706 27.4306 18.4591 27.4253C18.3741 27.3858 18.2957 27.3225 18.2133 27.2724C18.104 27.206 17.9928 27.148 17.8892 27.065C17.5438 26.7886 17.2391 26.424 16.9861 26.0226C16.9718 25.9998 16.9552 25.9822 16.9412 25.9592C16.6976 25.5583 16.52 25.1241 16.4124 24.6936C16.4039 24.6594 16.3888 24.6272 16.3813 24.5932C16.3564 24.4808 16.3516 24.3735 16.3381 24.2633C16.324 24.1484 16.3034 24.033 16.3026 23.9222C16.3013 23.7371 16.3194 23.5599 16.3584 23.3928C16.3641 23.3686 16.3685 23.3443 16.3751 23.3205C16.4212 23.1531 16.4918 23.0001 16.5851 22.8615C16.5983 22.842 16.6106 22.8224 16.6248 22.8035C16.7258 22.6687 16.8538 22.5536 17.0077 22.4583C17.0277 22.446 17.0465 22.4334 17.0674 22.4218C17.2279 22.3326 17.4177 22.2676 17.6358 22.2277C17.6671 22.222 17.6976 22.2157 17.7301 22.2111C17.9548 22.1793 18.2107 22.1769 18.497 22.2036C18.5398 22.2076 18.5822 22.2116 18.6265 22.217C18.9207 22.2531 19.2484 22.323 19.6084 22.4267C19.6646 22.4429 19.7207 22.4595 19.7786 22.4775C20.1473 22.592 20.5505 22.7435 20.9892 22.9349C21.0266 22.9512 21.0543 22.9575 21.0922 22.9743C21.0602 22.9588 21.0455 22.9418 21.0143 22.9262C20.5584 22.6977 20.1802 22.4638 19.8738 22.2264C19.8345 22.196 19.7949 22.1663 19.7579 22.1357C19.4681 21.8966 19.2481 21.6561 19.0891 21.4156C19.0698 21.3865 19.0486 21.358 19.0312 21.329C18.8855 21.0869 18.8014 20.8472 18.7684 20.6115C18.7646 20.5846 18.7584 20.5579 18.7559 20.5311C18.7344 20.2954 18.7649 20.0663 18.8366 19.845C18.8442 19.8213 18.8488 19.7979 18.8574 19.7745C18.9389 19.552 19.0628 19.3398 19.2189 19.1402C19.2323 19.1231 19.2425 19.1052 19.2563 19.0883C19.4197 18.8888 19.6169 18.7056 19.8351 18.5377C19.8535 18.5236 19.869 18.5083 19.8876 18.4944C20.0698 18.359 20.2721 18.2478 20.4778 18.1388C20.6069 18.0703 20.7348 18.0112 20.8697 17.9545C21.0143 17.8936 21.1558 17.8411 21.3038 17.795C21.3739 17.7731 21.4412 17.7372 21.5115 17.7189ZM11.87 27.0943C11.8822 27.092 11.8948 27.098 11.9069 27.096C12.1101 27.0621 12.3163 27.0715 12.5237 27.1229C12.5566 27.131 12.5889 27.1398 12.6219 27.1503C12.8288 27.2162 13.0348 27.3284 13.2386 27.4948C13.2702 27.5207 13.3011 27.5511 13.3325 27.5795C13.5378 27.765 13.7392 28.0016 13.9336 28.3062C13.9585 28.3451 13.9819 28.3914 14.0065 28.4324C14.2043 28.762 14.3957 29.1481 14.5741 29.6204C14.5889 29.6596 14.6024 29.7068 14.617 29.7471C14.8016 30.2541 14.9751 30.8305 15.1297 31.5121C15.0547 30.898 15.0332 30.3585 15.0574 29.8877C15.0575 29.8863 15.0574 29.8854 15.0575 29.884C15.0816 29.4197 15.1513 29.0232 15.2561 28.6857C15.2575 28.6812 15.2577 28.6754 15.2591 28.6709C15.366 28.3314 15.5098 28.0532 15.6824 27.83C15.6829 27.8295 15.6835 27.8293 15.684 27.8287C15.8567 27.6059 16.0578 27.4379 16.2797 27.3182L16.2806 27.318C16.4983 27.2006 16.7366 27.1316 16.9859 27.101C16.9927 27.1002 16.9988 27.0981 17.0056 27.0973C17.2569 27.0688 17.5199 27.0813 17.7869 27.1276C17.7905 27.1282 17.7939 27.1282 17.7975 27.1288C18.0615 27.1755 18.3289 27.2573 18.5927 27.3647C18.6019 27.3685 18.6111 27.3704 18.6202 27.3742C18.7514 27.4286 18.8747 27.5082 19.0028 27.5753C19.1396 27.6469 19.2802 27.7067 19.4113 27.791C19.5602 27.8867 19.6923 28.0031 19.8307 28.1127C19.9284 28.19 20.0349 28.257 20.1259 28.3401C20.2416 28.4456 20.3329 28.5642 20.4357 28.6773C20.5294 28.7804 20.6351 28.8772 20.7161 28.985C20.8799 29.2028 21.014 29.4288 21.1153 29.6573C21.1182 29.6638 21.1226 29.6699 21.1254 29.6764C21.2257 29.9073 21.2888 30.1403 21.3094 30.3694C21.3099 30.3742 21.3115 30.379 21.3119 30.3838C21.3306 30.612 21.3035 30.8353 21.2273 31.0493C21.225 31.0557 21.2239 31.062 21.2215 31.0684C21.1435 31.2787 21.0126 31.4783 20.8272 31.6627C20.8184 31.6714 20.8124 31.6803 20.8034 31.6889C20.613 31.8713 20.3616 32.0372 20.049 32.1816C20.0357 32.1877 20.0257 32.1945 20.0122 32.2006C19.6951 32.3427 19.3086 32.4608 18.855 32.5531C18.8382 32.5566 18.8291 32.5627 18.8122 32.5661C18.8159 32.5665 18.8183 32.5679 18.8221 32.5684C19.1475 32.6081 19.4324 32.6783 19.6789 32.7757C19.6831 32.7774 19.6863 32.7798 19.6905 32.7814C19.9362 32.8799 20.1453 33.0037 20.3184 33.1495L20.3195 33.1502C20.3206 33.1512 20.3211 33.1524 20.3222 33.1534C20.4949 33.2996 20.6337 33.4666 20.7406 33.6496C20.7438 33.6549 20.7453 33.6611 20.7484 33.6665C20.8524 33.8485 20.9273 34.0449 20.9736 34.2523C20.9918 34.3336 20.987 34.4222 20.997 34.5063C21.013 34.6412 21.0378 34.7735 21.0341 34.9135C21.0307 35.0409 21.0025 35.1714 20.9841 35.301C20.9694 35.4044 20.9673 35.5066 20.9438 35.6103C20.9428 35.6146 20.9402 35.6184 20.9392 35.6227C20.7256 36.5517 20.1719 37.4745 19.4948 38.0441C19.3997 38.1241 19.2975 38.1783 19.1982 38.2434C18.9426 38.4109 18.6794 38.5451 18.4105 38.5912C18.4097 38.5914 18.4087 38.5917 18.4079 38.5918C18.2218 38.6234 18.0341 38.6209 17.8502 38.581L17.8493 38.5812L17.8482 38.5805C17.6644 38.5402 17.4828 38.4614 17.3081 38.3388L17.307 38.3381C17.3059 38.3373 17.3046 38.3359 17.3035 38.3351C17.1296 38.212 16.9612 38.0448 16.8032 37.8292C16.8025 37.8283 16.8021 37.8267 16.8014 37.8259C16.6431 37.609 16.4938 37.3433 16.3583 37.0225L16.3665 37.0496C16.3164 37.3205 16.2256 37.5539 16.1044 37.756C16.1017 37.7606 16.1003 37.7663 16.0976 37.7708C15.9766 37.9687 15.8227 38.1326 15.6468 38.2687C15.6409 38.2732 15.6365 38.2793 15.6307 38.2837C15.4555 38.416 15.2559 38.5172 15.0411 38.5942C15.0305 38.598 15.0211 38.6034 15.0104 38.6071C14.7981 38.6802 14.57 38.7254 14.3327 38.7501C14.3171 38.7517 14.3029 38.7547 14.2873 38.7561C13.8011 38.8004 13.2793 38.7422 12.7712 38.6153C12.7433 38.6083 12.7176 38.6072 12.6898 38.5998C12.1947 38.4678 11.7257 38.2591 11.3148 38.0013C11.2787 37.9786 11.2388 37.9629 11.2038 37.9394C11.1073 37.8748 11.0301 37.7997 10.9427 37.7293C10.8354 37.6429 10.7239 37.5605 10.6325 37.4661C10.4911 37.3201 10.3711 37.1664 10.2755 37.0041C10.2625 36.982 10.2486 36.9607 10.2365 36.9383C10.1455 36.7697 10.0847 36.5936 10.0534 36.4119C10.0491 36.3869 10.0435 36.3625 10.0405 36.3372C10.0183 36.1545 10.033 35.9662 10.0819 35.7747C10.0888 35.7477 10.0938 35.7211 10.1022 35.694C10.1616 35.5025 10.2627 35.3083 10.4041 35.1122C10.4254 35.0826 10.446 35.0534 10.4693 35.0237C10.6228 34.8286 10.823 34.6328 11.0687 34.4373C11.1068 34.4071 11.1446 34.3774 11.185 34.3471C11.4471 34.151 11.7612 33.9565 12.1279 33.7641C12.1795 33.737 12.2309 33.71 12.2847 33.683C12.6683 33.4908 13.1086 33.302 13.609 33.1177C13.6485 33.1032 13.6735 33.0879 13.7137 33.0734C13.6766 33.0853 13.6522 33.0833 13.6157 33.0946C13.0811 33.2601 12.6043 33.3619 12.1812 33.4067C12.1256 33.4126 12.0703 33.4191 12.0165 33.4231C11.6059 33.4536 11.2493 33.4298 10.941 33.3601C10.9034 33.3516 10.8646 33.3449 10.8284 33.3351C10.5301 33.254 10.2817 33.1282 10.0769 32.9671C10.0531 32.9483 10.0276 32.9316 10.0049 32.9119C9.80813 32.7408 9.65767 32.5353 9.54615 32.3044C9.53486 32.281 9.52173 32.2597 9.51125 32.2358C9.40647 31.9969 9.34415 31.734 9.3162 31.4564C9.3137 31.4316 9.30848 31.4087 9.30655 31.3837C9.28451 31.0985 9.29925 30.8004 9.34584 30.4985C9.34892 30.4785 9.35011 30.4595 9.35347 30.4395C9.406 30.1264 9.49184 29.8115 9.60602 29.5058C9.60883 29.4983 9.61098 29.4909 9.61383 29.4834C9.8371 28.8935 10.1653 28.3452 10.5552 27.9179C10.5678 27.9041 10.5793 27.889 10.592 27.8755C10.7661 27.6902 10.9529 27.536 11.1474 27.4081C11.1731 27.3912 11.1973 27.3723 11.2232 27.3565C11.4151 27.2402 11.6142 27.1607 11.8179 27.1151C11.8357 27.1111 11.8522 27.0977 11.87 27.0943Z" fill="#FAC100"/>
</svg>
