<svg width="30" height="43" viewBox="0 0 30 43" fill="none" xmlns="http://www.w3.org/2000/svg">
<path d="M1.2356 16.9877H28.2356V30.642H1.2356V16.9877ZM4.06618 0.755798H25.405C26.0086 0.755798 26.4945 1.26814 26.4945 1.90454V3.6828C26.4945 4.3192 26.0086 4.83154 25.405 4.83154H4.06618C3.46258 4.83154 2.97664 4.3192 2.97664 3.6828V1.90454C2.97664 1.26814 3.46258 0.755798 4.06618 0.755798ZM4.92698 4.87395H24.5442C26.5892 4.87395 28.2356 6.60977 28.2356 8.76592V38.8638C28.2356 41.02 26.5892 42.7558 24.5442 42.7558H4.92698C2.88195 42.7558 1.2356 41.02 1.2356 38.8638V8.76592C1.2356 6.60977 2.88195 4.87395 4.92698 4.87395Z" fill="#FFE488"/>
<path d="M4.0661 0.755798H25.4049C26.0085 0.755798 26.4945 1.26814 26.4945 1.90454V3.6828C26.4945 4.3192 26.0085 4.83154 25.4049 4.83154H4.0661C3.4625 4.83154 2.97656 4.3192 2.97656 3.6828V1.90454C2.97656 1.26814 3.4625 0.755798 4.0661 0.755798Z" fill="#EBB500"/>
<path d="M1.2356 16.9877H28.2356V30.6421H1.2356V16.9877Z" fill="#F9F9F9" stroke="#F9F9F9" stroke-width="1.55818" stroke-linecap="round"/>
<path d="M12.4121 23.5488C14.5154 27.5984 16.1892 29.1865 17.6569 28.8766C19.2755 28.5349 20.0669 25.9705 19.297 25.0324C18.4343 23.9812 16.0215 23.4328 12.4121 23.5488Z" fill="#FAC100"/>
<path d="M16.7499 29.2545C15.6867 29.0549 14.4869 27.777 12.7987 25.0459C12.4564 24.4922 12.1565 24.0153 12.1321 23.9861C12.1078 23.9569 12.0061 24.0574 11.9062 24.2095C11.7096 24.5086 11.008 25.1309 10.3361 25.6022C9.87706 25.9242 9.53187 26.0034 9.30796 25.838C9.13795 25.7125 9.16347 25.4897 9.47926 24.3426C9.75741 23.3322 10.1141 22.5009 10.3977 22.2025C10.5577 22.0341 10.5953 21.949 10.5617 21.8317C10.4685 21.5076 10.2493 21.2275 9.85862 20.9336C9.38813 20.5796 9.30682 20.4137 9.50259 20.2073C9.61592 20.0878 9.66503 20.0767 9.81538 20.1365C9.97028 20.1982 10.0085 20.1868 10.1063 20.0502C10.2639 19.8299 10.4091 19.853 10.7733 20.1565C11.1553 20.4749 11.3133 20.8342 11.3373 21.4396C11.3541 21.8606 11.3614 21.8776 11.5772 21.9943C11.6997 22.0606 11.8576 22.1922 11.9282 22.2868L12.0566 22.4589L12.0916 22.0355C12.1108 21.8026 12.1429 21.3694 12.1629 21.0728C12.289 19.2041 12.7716 18.3423 13.692 18.3423C13.8385 18.3423 14.0669 18.4174 14.2117 18.4817C14.4333 18.58 14.5521 18.807 14.6819 18.9084C14.9182 18.9432 15.4312 19.1726 15.6591 19.5514C16.122 20.3211 15.6992 21.1094 14.0337 22.5813C13.7262 22.8532 13.4878 23.0981 13.5039 23.1256C13.52 23.1532 13.922 23.1963 14.3972 23.2214C16.2563 23.3198 17.7961 23.6173 18.6188 24.0372C19.9048 24.6934 20.2023 25.8272 19.5304 27.5121L20.2673 28.6315L18.9411 28.3335L18.7173 28.5523C18.1201 29.136 17.4302 29.3822 16.7499 29.2545ZM17.7853 28.4867C18.8308 27.9636 19.5927 26.238 19.1668 25.3577C19.0333 25.0818 18.6038 24.6623 18.5145 24.7205C18.4854 24.7395 18.4615 24.8915 18.4615 25.0584C18.4615 25.52 18.3344 26.2885 18.1895 26.7022C18.0384 27.1339 17.6132 27.8535 17.2783 28.2443C17.1459 28.3987 17.0639 28.551 17.0896 28.5948C17.1461 28.6912 17.4803 28.6393 17.7853 28.4867ZM16.4028 24.0996L15.3603 23.9718C15.4064 25.0779 15.0981 25.7089 14.4193 26.4246L15.2087 27.3764C15.9337 26.6389 16.4994 25.2694 16.4028 24.0996ZM13.4533 23.9111L12.8285 23.7734L13.1413 24.4253C13.4199 24.5251 13.4533 23.9111 13.4533 23.9111ZM14.4711 21.2782C15.3121 20.3958 15.4025 20.1335 15.0238 19.6754C14.9069 19.5341 14.8168 19.5792 14.8167 19.779C14.8166 20.127 14.2929 21.0533 13.6512 21.8407C13.5185 22.0035 13.41 22.1649 13.41 22.1993C13.41 22.3165 13.8247 21.9566 14.4711 21.2782ZM13.6423 20.8926C14.2845 20.0126 14.4113 19.4727 14.0548 19.1368C13.7106 18.8126 13.3322 18.921 13.0946 19.412C12.8775 19.8607 12.6207 21.6471 12.7433 21.8562C12.7972 21.9481 13.1404 21.5803 13.6423 20.8926Z" fill="#4C4C4C"/>
</svg>
