<svg width="29" height="43" viewBox="0 0 29 43" fill="none" xmlns="http://www.w3.org/2000/svg">
<path d="M0.83374 16.5682H27.8337V30.2225H0.83374V16.5682ZM3.66433 0.336304H25.0032C25.6068 0.336304 26.0927 0.848644 26.0927 1.48505V3.2633C26.0927 3.89971 25.6068 4.41205 25.0032 4.41205H3.66433C3.06072 4.41205 2.57479 3.89971 2.57479 3.2633V1.48505C2.57479 0.848644 3.06072 0.336304 3.66433 0.336304ZM4.52512 4.45445H24.1424C26.1874 4.45445 27.8337 6.19027 27.8337 8.34643V38.4443C27.8337 40.6005 26.1874 42.3363 24.1424 42.3363H4.52512C2.4801 42.3363 0.83374 40.6005 0.83374 38.4443V8.34643C0.83374 6.19027 2.4801 4.45445 4.52512 4.45445Z" fill="#B77300"/>
<path d="M3.66425 0.336304H25.0031C25.6067 0.336304 26.0926 0.848644 26.0926 1.48505V3.2633C26.0926 3.89971 25.6067 4.41205 25.0031 4.41205H3.66425C3.06064 4.41205 2.57471 3.89971 2.57471 3.2633V1.48505C2.57471 0.848644 3.06064 0.336304 3.66425 0.336304Z" fill="#EBB500"/>
<path d="M0.83374 16.5682H27.8337V30.2226H0.83374V16.5682Z" fill="#F9F9F9" stroke="#F9F9F9" stroke-width="1.55818" stroke-linecap="round"/>
<path d="M12.0103 23.1293C14.1136 27.1789 15.7873 28.767 17.2551 28.4571C18.8737 28.1154 19.665 25.551 18.8951 24.6129C18.0324 23.5617 15.6196 23.0133 12.0103 23.1293Z" fill="#FAC100"/>
<path d="M16.348 28.835C15.2848 28.6354 14.0851 27.3575 12.3968 24.6264C12.0545 24.0727 11.7546 23.5958 11.7303 23.5666C11.706 23.5374 11.6043 23.6379 11.5043 23.79C11.3077 24.0891 10.6061 24.7114 9.93425 25.1827C9.4752 25.5047 9.13001 25.5839 8.9061 25.4185C8.73609 25.293 8.76162 25.0702 9.07741 23.9231C9.35556 22.9127 9.71229 22.0814 9.99581 21.783C10.1558 21.6146 10.1935 21.5295 10.1598 21.4122C10.0667 21.0881 9.84745 20.808 9.45677 20.5141C8.98627 20.1601 8.90496 19.9942 9.10073 19.7878C9.21407 19.6683 9.26318 19.6572 9.41353 19.717C9.56842 19.7787 9.60668 19.7673 9.7044 19.6307C9.86205 19.4104 10.0073 19.4335 10.3714 19.737C10.7535 20.0554 10.9114 20.4147 10.9355 21.0201C10.9522 21.4411 10.9596 21.4581 11.1754 21.5748C11.2978 21.6411 11.4558 21.7727 11.5264 21.8673L11.6547 22.0394L11.6897 21.616C11.7089 21.3832 11.7411 20.9499 11.7611 20.6533C11.8871 18.7846 12.3697 17.9229 13.2902 17.9229C13.4367 17.9229 13.665 17.9979 13.8099 18.0622C14.0314 18.1605 14.1503 18.3876 14.2801 18.4889C14.5163 18.5237 15.0294 18.7531 15.2572 19.1319C15.7202 19.9016 15.2973 20.6899 13.6319 22.1618C13.3243 22.4337 13.0859 22.6786 13.102 22.7061C13.1182 22.7337 13.5202 22.7768 13.9953 22.8019C15.8544 22.9003 17.3942 23.1978 18.217 23.6177C19.503 24.2739 19.8004 25.4077 19.1285 27.0926L19.8654 28.212L18.5392 27.914L18.3154 28.1328C17.7182 28.7165 17.0283 28.9628 16.348 28.835ZM17.3834 28.0672C18.429 27.5441 19.1909 25.8185 18.7649 24.9382C18.6314 24.6623 18.202 24.2428 18.1127 24.301C18.0835 24.32 18.0597 24.472 18.0597 24.6389C18.0597 25.1005 17.9325 25.869 17.7876 26.2827C17.6365 26.7144 17.2113 27.434 16.8764 27.8248C16.7441 27.9792 16.6621 28.1316 16.6877 28.1753C16.7443 28.2717 17.0784 28.2198 17.3834 28.0672ZM16.0009 23.6801L14.9584 23.5523C15.0045 24.6584 14.6962 25.2894 14.0174 26.0051L14.8068 26.9569C15.5318 26.2194 16.0976 24.8499 16.0009 23.6801ZM13.0514 23.4916L12.4267 23.3539L12.7395 24.0058C13.018 24.1056 13.0514 23.4916 13.0514 23.4916ZM14.0693 20.8587C14.9102 19.9763 15.0007 19.714 14.6219 19.256C14.5051 19.1146 14.4149 19.1597 14.4148 19.3595C14.4147 19.7075 13.8911 20.6338 13.2494 21.4212C13.1167 21.584 13.0081 21.7454 13.0081 21.7798C13.0081 21.897 13.4228 21.5371 14.0693 20.8587ZM13.2404 20.4731C13.8826 19.5932 14.0095 19.0532 13.6529 18.7173C13.3088 18.3931 12.9303 18.5015 12.6928 18.9925C12.4757 19.4412 12.2189 21.2276 12.3414 21.4367C12.3954 21.5286 12.7385 21.1608 13.2404 20.4731Z" fill="#4C4C4C"/>
</svg>
