<svg width="29" height="43" viewBox="0 0 29 43" fill="none" xmlns="http://www.w3.org/2000/svg">
<path d="M1 17.0682H28V30.7225H1V17.0682ZM3.83059 0.836304H25.1694C25.773 0.836304 26.259 1.34864 26.259 1.98505V3.7633C26.259 4.39971 25.773 4.91205 25.1694 4.91205H3.83059C3.22698 4.91205 2.74105 4.39971 2.74105 3.7633V1.98505C2.74105 1.34864 3.22698 0.836304 3.83059 0.836304ZM4.69138 4.95445H24.3086C26.3536 4.95445 28 6.69027 28 8.84643V38.9443C28 41.1005 26.3536 42.8363 24.3086 42.8363H4.69138C2.64636 42.8363 1 41.1005 1 38.9443V8.84643C1 6.69027 2.64636 4.95445 4.69138 4.95445Z" fill="#FAC100"/>
<path d="M3.83051 0.836304H25.1693C25.7729 0.836304 26.2589 1.34864 26.2589 1.98505V3.7633C26.2589 4.39971 25.7729 4.91205 25.1693 4.91205H3.83051C3.2269 4.91205 2.74097 4.39971 2.74097 3.7633V1.98505C2.74097 1.34864 3.2269 0.836304 3.83051 0.836304Z" fill="#EBB500"/>
<path d="M1 17.0682H28V30.7226H1V17.0682Z" fill="#F9F9F9" stroke="#F9F9F9" stroke-width="1.55818" stroke-linecap="round"/>
<path d="M12.1765 23.6293C14.2798 27.6789 15.9536 29.267 17.4214 28.9571C19.0399 28.6154 19.8313 26.051 19.0614 25.1129C18.1987 24.0617 15.7859 23.5133 12.1765 23.6293Z" fill="#FAC100"/>
<path d="M16.5143 29.335C15.4511 29.1354 14.2514 27.8575 12.5631 25.1264C12.2208 24.5727 11.9209 24.0958 11.8965 24.0666C11.8722 24.0374 11.7705 24.1379 11.6706 24.29C11.474 24.5891 10.7724 25.2114 10.1005 25.6827C9.64146 26.0047 9.29627 26.0839 9.07236 25.9185C8.90235 25.793 8.92788 25.5702 9.24367 24.4231C9.52182 23.4127 9.87855 22.5814 10.1621 22.283C10.3221 22.1146 10.3597 22.0295 10.3261 21.9122C10.2329 21.5881 10.0137 21.308 9.62302 21.0141C9.15253 20.6601 9.07122 20.4942 9.26699 20.2878C9.38033 20.1683 9.42944 20.1572 9.57979 20.217C9.73468 20.2787 9.77294 20.2673 9.87066 20.1307C10.0283 19.9104 10.1735 19.9335 10.5377 20.237C10.9197 20.5554 11.0777 20.9147 11.1017 21.5201C11.1185 21.9411 11.1258 21.9581 11.3416 22.0748C11.4641 22.1411 11.622 22.2727 11.6926 22.3673L11.821 22.5394L11.856 22.116C11.8752 21.8832 11.9073 21.4499 11.9273 21.1533C12.0534 19.2846 12.536 18.4229 13.4564 18.4229C13.6029 18.4229 13.8313 18.4979 13.9761 18.5622C14.1977 18.6605 14.3165 18.8876 14.4463 18.9889C14.6826 19.0237 15.1956 19.2531 15.4235 19.6319C15.8864 20.4016 15.4636 21.1899 13.7981 22.6618C13.4906 22.9337 13.2522 23.1786 13.2683 23.2061C13.2844 23.2337 13.6864 23.2768 14.1616 23.3019C16.0207 23.4003 17.5605 23.6978 18.3832 24.1177C19.6692 24.7739 19.9667 25.9077 19.2948 27.5926L20.0317 28.712L18.7055 28.414L18.4817 28.6328C17.8845 29.2165 17.1946 29.4628 16.5143 29.335ZM17.5497 28.5672C18.5953 28.0441 19.3571 26.3185 18.9312 25.4382C18.7977 25.1623 18.3682 24.7428 18.2789 24.801C18.2498 24.82 18.2259 24.972 18.2259 25.1389C18.2259 25.6005 18.0988 26.369 17.9539 26.7827C17.8028 27.2144 17.3776 27.934 17.0427 28.3248C16.9103 28.4792 16.8284 28.6316 16.854 28.6753C16.9105 28.7717 17.2447 28.7198 17.5497 28.5672ZM16.1672 24.1801L15.1247 24.0523C15.1708 25.1584 14.8625 25.7894 14.1837 26.5051L14.9731 27.4569C15.6981 26.7194 16.2638 25.3499 16.1672 24.1801ZM13.2177 23.9916L12.5929 23.8539L12.9057 24.5058C13.1843 24.6056 13.2177 23.9916 13.2177 23.9916ZM14.2355 21.3587C15.0765 20.4763 15.1669 20.214 14.7882 19.756C14.6713 19.6146 14.5812 19.6597 14.5811 19.8595C14.581 20.2075 14.0573 21.1338 13.4156 21.9212C13.2829 22.084 13.1744 22.2454 13.1744 22.2798C13.1744 22.397 13.5891 22.0371 14.2355 21.3587ZM13.4067 20.9731C14.0489 20.0932 14.1758 19.5532 13.8192 19.2173C13.475 18.8931 13.0966 19.0015 12.859 19.4925C12.6419 19.9412 12.3852 21.7276 12.5077 21.9367C12.5616 22.0286 12.9048 21.6608 13.4067 20.9731Z" fill="#4C4C4C"/>
</svg>
