<svg width="121" height="201" viewBox="0 0 121 201" fill="none" xmlns="http://www.w3.org/2000/svg">
<mask id="mask0_428_960" style="mask-type:luminance" maskUnits="userSpaceOnUse" x="1" y="8" width="119" height="193">
<path d="M1.07324 8.12524L6.52021 178.019C15.7983 203.9 105.121 212.587 114.886 174.282L115.63 149.102C115.106 145.867 114.07 142.729 115.927 139.043C115.164 136.636 115.15 134.2 116.143 131.725C115.404 128.721 116.144 125.827 117.211 122.957L116.486 120.113L117.946 70.6672L118.702 68.0731C117.98 65.5962 117.625 63.1918 118.244 60.5805C117.216 57.7589 117.789 55.0607 118.487 52.3723C117.592 49.7931 117.731 47.0659 118.728 44.2157L119.76 9.27512C80.7625 12.8574 41.5787 15.1298 1.07324 8.12524Z" fill="white"/>
</mask>
<g mask="url(#mask0_428_960)">
<path d="M119.76 8.12524L114.313 178.019C105.035 203.9 15.7124 212.587 5.94684 174.282L5.20312 149.102C5.72682 145.867 6.76257 142.729 4.90602 139.043C5.66862 136.636 5.68327 134.2 4.6899 131.725C5.42912 128.721 4.68912 125.827 3.62156 122.957L4.34692 120.113L2.8865 70.6672L2.13097 68.0731C2.85265 65.5962 3.20803 63.1918 2.58858 60.5805C3.61649 57.7589 3.04441 55.0607 2.34615 52.3723C3.24085 49.7931 3.10217 47.0659 2.10523 44.2157L1.07324 9.27512C40.0704 12.8574 79.2542 15.1298 119.76 8.12524Z" fill="#004FAC"/>
</g>
<mask id="mask1_428_960" style="mask-type:luminance" maskUnits="userSpaceOnUse" x="2" y="9" width="117" height="190">
<mask id="mask2_428_960" style="mask-type:luminance" maskUnits="userSpaceOnUse" x="2" y="9" width="117" height="190">
<path d="M2.03271 9.62231L7.3913 176.76C16.5189 202.221 104.392 210.766 113.999 173.083L114.73 148.312C114.215 145.129 113.196 142.042 115.023 138.416C114.273 136.048 114.258 133.651 115.235 131.217C114.508 128.262 115.236 125.414 116.286 122.591L115.573 119.793L117.01 71.1495L117.753 68.5975C117.043 66.1608 116.693 63.7954 117.303 61.2264C116.291 58.4506 116.854 55.7962 117.541 53.1514C116.661 50.6141 116.797 47.9311 117.778 45.1271L118.793 10.7535C80.4289 14.2777 41.8809 16.5132 2.03271 9.62231Z" fill="white"/>
</mask>
<g mask="url(#mask2_428_960)">
<path d="M118.793 9.62231L113.435 176.76C104.307 202.221 16.4344 210.766 6.82723 173.083L6.09558 148.312C6.61078 145.129 7.62973 142.042 5.8033 138.416C6.55353 136.048 6.56794 133.651 5.59068 131.217C6.31791 128.262 5.58992 125.414 4.53968 122.591L5.25327 119.793L3.81655 71.1495L3.07328 68.5975C3.78325 66.1608 4.13286 63.7954 3.52346 61.2264C4.5347 58.4506 3.9719 55.7962 3.28496 53.1514C4.16515 50.6141 4.02872 47.9311 3.04796 45.1271L2.03271 10.7535C40.3971 14.2777 78.9451 16.5132 118.793 9.62231Z" fill="white"/>
</g>
</mask>
<g mask="url(#mask1_428_960)">
<path d="M116.188 143.254C115.634 145.669 113.831 147.989 110.918 150.117C108.005 152.245 104.012 154.152 99.2837 155.754C89.8267 158.959 77.4251 160.951 64.6946 161.385C51.9642 161.819 38.8989 160.695 28.1014 157.737C17.304 154.778 8.84244 149.974 5.10768 143.287L3.47038 144.208C7.60215 151.606 16.5549 156.527 27.6064 159.555C38.6579 162.583 51.877 163.706 64.7603 163.266C77.6435 162.827 90.1822 160.825 99.8861 157.536C104.738 155.892 108.883 153.928 112.021 151.636C115.16 149.344 117.324 146.697 118.016 143.675L116.188 143.254ZM116.188 134.255C115.634 136.671 113.831 138.991 110.918 141.119C108.005 143.246 104.012 145.153 99.2837 146.756C89.8267 149.961 77.4251 151.953 64.6946 152.387C51.9642 152.821 38.8989 151.697 28.1014 148.738C17.304 145.78 8.84244 140.975 5.10768 134.288L3.47038 135.209C7.60215 142.607 16.5549 147.529 27.6064 150.557C38.6579 153.585 51.877 154.707 64.7603 154.268C77.6435 153.829 90.1822 151.827 99.8861 148.538C104.738 146.894 108.883 144.93 112.021 142.638C115.16 140.346 117.324 137.699 118.016 134.677L116.188 134.255ZM116.188 127.255C115.634 129.67 113.831 131.99 110.918 134.118C108.005 136.245 104.012 138.155 99.2837 139.758C89.8267 142.963 77.4251 144.955 64.6946 145.389C51.9642 145.823 38.8989 144.699 28.1014 141.741C17.304 138.782 8.84244 133.978 5.10768 127.29L3.47038 128.209C7.60215 135.607 16.5549 140.528 27.6064 143.556C38.6579 146.584 51.877 147.709 64.7603 147.27C77.6435 146.831 90.1822 144.829 99.8861 141.54C104.738 139.896 108.883 137.932 112.021 135.64C115.16 133.348 117.324 130.698 118.016 127.676L116.188 127.255ZM117.81 43.3108C117.153 44.6489 115.256 46.1709 112.296 47.5364C109.335 48.9019 105.362 50.1428 100.688 51.1968C91.3419 53.3048 79.1906 54.679 66.5288 55.0545C53.8669 55.4301 40.6872 54.8101 29.2646 52.9552C17.8419 51.1003 8.17676 47.9724 2.61445 43.556L1.45134 45.0303C7.49526 49.8291 17.3814 52.9315 28.9633 54.8123C40.5453 56.6931 53.8241 57.3141 66.5854 56.9356C79.3467 56.557 91.5846 55.1791 101.1 53.033C105.858 51.9599 109.934 50.698 113.08 49.247C116.226 47.796 118.491 46.1862 119.495 44.1422L117.81 43.3108ZM117.81 50.9097C117.153 52.2478 115.256 53.7698 112.296 55.1353C109.335 56.5008 105.362 57.7417 100.688 58.7957C91.3419 60.9037 79.1906 62.2779 66.5288 62.6534C53.8669 63.029 40.6872 62.409 29.2646 60.5541C17.8419 58.6992 8.17676 55.5713 2.61445 51.1549L1.45134 52.6292C7.49526 57.428 17.3814 60.5304 28.9633 62.4112C40.5453 64.292 53.8241 64.913 66.5854 64.5345C79.3467 64.1559 91.5846 62.778 101.1 60.6318C105.858 59.5588 109.934 58.2968 113.08 56.8459C116.226 55.3949 118.491 53.7851 119.495 51.7411L117.81 50.9097ZM117.81 58.9093C117.153 60.2474 115.256 61.7694 112.296 63.1349C109.335 64.5004 105.362 65.7413 100.688 66.7953C91.3419 68.9033 79.1906 70.2775 66.5288 70.6531C53.8669 71.0286 40.6872 70.4056 29.2646 68.5507C17.8419 66.6958 8.17676 63.5709 2.61445 59.1545L1.45134 60.6289C7.49526 65.4277 17.3814 68.5301 28.9633 70.4108C40.5453 72.2916 53.8241 72.9126 66.5854 72.5341C79.3467 72.1556 91.5846 70.7776 101.1 68.6315C105.858 67.5584 109.934 66.2965 113.08 64.8455C116.226 63.3945 118.491 61.7848 119.495 59.7407L117.81 58.9093ZM5.51029 118.666L3.06777 120.035C7.29692 127.608 16.3703 132.559 27.4841 135.604C38.5979 138.649 51.8544 139.771 64.7752 139.33C77.6959 138.89 90.2677 136.889 100.032 133.579C104.915 131.925 109.099 129.946 112.293 127.613C115.486 125.281 117.74 122.551 118.466 119.381L115.737 118.752C115.218 121.019 113.504 123.259 110.646 125.347C107.789 127.434 103.836 129.329 99.1376 130.921C89.7411 134.105 77.3726 136.095 64.6797 136.528C51.9868 136.961 38.9558 135.839 28.2207 132.898C17.4856 129.956 9.14768 125.179 5.51029 118.666ZM117.398 65.7038C116.826 66.8687 115.017 68.3695 112.102 69.714C109.186 71.0586 105.24 72.2952 100.587 73.3445C91.2819 75.4432 79.1513 76.8155 66.5139 77.1903C53.8764 77.5652 40.7197 76.9425 29.3361 75.094C17.9526 73.2454 8.34493 70.1131 2.90076 65.7905L1.16504 67.9915C7.32709 72.8841 17.2677 75.9761 28.8888 77.8632C40.5098 79.7503 53.8117 80.3747 66.5974 79.9954C79.383 79.6162 91.6445 78.2363 101.201 76.0808C105.98 75.0031 110.079 73.7369 113.271 72.2649C116.462 70.793 118.818 69.1621 119.907 66.9448L117.398 65.7038Z" fill="#01449F"/>
</g>
<path d="M120.23 8.0063C120.23 12.1401 93.3616 15.4912 60.218 15.4912C27.0744 15.4912 1.40284 12.4401 1.40283 8.30627C1.40284 4.17244 27.0744 0.521362 60.218 0.521362C93.3616 0.521362 120.23 3.87248 120.23 8.0063Z" fill="#0056BC"/>
<path d="M60.5015 0.255859C44.2643 0.255859 29.5663 1.07508 18.8711 2.40903C13.5236 3.076 9.18522 3.86446 6.08888 4.77752C4.54071 5.23404 3.30643 5.71016 2.34904 6.29371C1.39165 6.87725 0.5 7.69109 0.5 8.94031C0.5 10.1895 1.39165 11.0004 2.34904 11.5839C3.30643 12.1675 4.54071 12.6436 6.08888 13.1001C9.18522 14.0132 13.5236 14.8046 18.8711 15.4716C29.5663 16.8055 44.2643 17.6248 60.5015 17.6248C76.7387 17.6248 91.4337 16.8055 102.129 15.4716C107.476 14.8046 111.815 14.0132 114.911 13.1001C116.459 12.6436 117.697 12.1675 118.654 11.5839C119.611 11.0004 120.5 10.1895 120.5 8.94031C120.5 7.69109 119.611 6.87725 118.654 6.29371C117.697 5.71016 116.459 5.23404 114.911 4.77752C111.815 3.86446 107.476 3.076 102.129 2.40903C91.4337 1.07508 76.7387 0.255859 60.5015 0.255859ZM60.5015 2.99816C76.6469 2.99816 91.2657 3.81454 101.792 5.12741C107.055 5.78384 111.304 6.57237 114.142 7.40917C115.561 7.82757 116.63 8.26969 117.234 8.63827C117.839 9.00686 117.768 9.17981 117.768 8.94031C117.768 8.70081 117.839 8.87377 117.234 9.24235C116.63 9.61094 115.561 10.0531 114.142 10.4715C111.304 11.3083 107.055 12.0938 101.792 12.7502C91.2657 14.0631 76.6469 14.8825 60.5015 14.8825C44.3561 14.8825 29.7343 14.0631 19.2082 12.7502C13.9451 12.0938 9.69606 11.3083 6.85832 10.4715C5.43945 10.0531 4.37335 9.61094 3.76863 9.24235C3.16391 8.87377 3.23181 8.70081 3.23181 8.94031C3.23181 9.17981 3.16391 9.00686 3.76863 8.63827C4.37335 8.26969 5.43945 7.82757 6.85832 7.40917C9.69606 6.57237 13.9451 5.78384 19.2082 5.12741C29.7343 3.81454 44.3561 2.99816 60.5015 2.99816Z" fill="#8A96A6"/>
</svg>
