<svg width="248" height="201" viewBox="0 0 248 201" fill="none" xmlns="http://www.w3.org/2000/svg">
<path d="M40.1484 69.2697L142.25 32.9966L138.22 101.177L66.6815 125.023L40.1484 69.2697Z" fill="#BB825D"/>
<path d="M141.8 32.9966L138.041 100.169L207.072 61.8808L141.8 32.9966Z" fill="#B57850"/>
<path d="M142.054 33.0295L166.753 0.255859L230.864 24.3696L205.927 61.418L142.054 33.0295ZM39.297 69.6464L11.7563 38.4112L117.478 4.82501L142.332 33.0374L39.297 69.6464Z" fill="#E9BFA4"/>
<path d="M107.735 60.9966H167.984V90.7493H107.735V60.9966ZM114.051 25.6274H161.668C163.015 25.6274 164.099 26.7438 164.099 28.1305V32.0053C164.099 33.392 163.015 34.5084 161.668 34.5084H114.051C112.704 34.5084 111.62 33.392 111.62 32.0053V28.1305C111.62 26.7438 112.704 25.6274 114.051 25.6274ZM115.972 34.6008H159.747C164.31 34.6008 167.984 38.3831 167.984 43.0814V108.665C167.984 113.363 164.31 117.145 159.747 117.145H115.972C111.409 117.145 107.735 113.363 107.735 108.665V43.0814C107.735 38.3831 111.409 34.6008 115.972 34.6008Z" fill="#B77300"/>
<path d="M114.051 25.6274H161.668C163.015 25.6274 164.099 26.7438 164.099 28.1305V32.0053C164.099 33.392 163.015 34.5084 161.668 34.5084H114.051C112.704 34.5084 111.62 33.392 111.62 32.0053V28.1305C111.62 26.7438 112.704 25.6274 114.051 25.6274Z" fill="#EBB500"/>
<path d="M107.735 60.9966H167.984V90.7492H107.735V60.9966Z" fill="#F9F9F9" stroke="#F9F9F9" stroke-width="0.666387" stroke-linecap="round"/>
<path d="M132.675 75.2932C137.368 84.1174 141.103 87.5777 144.378 86.9025C147.99 86.1579 149.756 80.57 148.038 78.5259C146.113 76.2354 140.729 75.0404 132.675 75.2932Z" fill="#FAC100"/>
<path d="M142.354 87.7259C139.982 87.291 137.305 84.5064 133.537 78.5553C132.773 77.3488 132.104 76.3096 132.05 76.2459C131.996 76.1823 131.769 76.4014 131.546 76.7328C131.107 77.3845 129.541 78.7406 128.042 79.7675C127.018 80.4691 126.248 80.6417 125.748 80.2814C125.369 80.0078 125.426 79.5223 126.13 77.0227C126.751 74.8211 127.547 73.0099 128.18 72.3596C128.537 71.9927 128.621 71.8071 128.545 71.5516C128.338 70.8453 127.848 70.235 126.977 69.5945C125.927 68.8232 125.745 68.4618 126.182 68.012C126.435 67.7516 126.545 67.7274 126.88 67.8578C127.226 67.9921 127.311 67.9674 127.529 67.6698C127.881 67.1896 128.205 67.24 129.018 67.9013C129.87 68.5951 130.223 69.378 130.276 70.6973C130.314 71.6146 130.33 71.6516 130.812 71.906C131.085 72.0503 131.437 72.3371 131.595 72.5433L131.881 72.9181L131.959 71.9956C132.002 71.4883 132.074 70.5443 132.119 69.8979C132.4 65.8261 133.477 63.9483 135.531 63.9483C135.858 63.9483 136.367 64.1119 136.69 64.2519C137.185 64.4661 137.45 64.9609 137.74 65.1817C138.267 65.2577 139.412 65.7574 139.92 66.5828C140.953 68.2599 140.01 69.9776 136.293 73.1851C135.607 73.7774 135.075 74.3111 135.111 74.3711C135.147 74.4311 136.044 74.525 137.104 74.5798C141.253 74.7941 144.689 75.4424 146.525 76.3572C149.394 77.7871 150.058 80.2578 148.559 83.9291L150.203 86.3682L147.244 85.7191L146.744 86.1957C145.412 87.4676 143.872 88.0042 142.354 87.7259ZM144.665 86.0528C146.998 84.9129 148.698 81.1528 147.747 79.2347C147.449 78.6336 146.491 77.7194 146.292 77.8463C146.227 77.8877 146.174 78.2189 146.174 78.5825C146.174 79.5884 145.89 81.2628 145.567 82.1644C145.229 83.105 144.281 84.673 143.533 85.5246C143.238 85.8611 143.055 86.193 143.112 86.2883C143.238 86.4984 143.984 86.3853 144.665 86.0528ZM141.58 76.4932L139.253 76.2148C139.356 78.6251 138.668 80 137.154 81.5595L138.915 83.6334C140.533 82.0264 141.795 79.0422 141.58 76.4932ZM134.998 76.0826L133.604 75.7825L134.302 77.2029C134.924 77.4204 134.998 76.0826 134.998 76.0826ZM137.269 70.3456C139.146 68.4228 139.348 67.8512 138.502 66.8531C138.242 66.5452 138.041 66.6434 138.04 67.0787C138.04 67.837 136.872 69.8554 135.44 71.5713C135.144 71.926 134.901 72.2776 134.901 72.3525C134.901 72.608 135.827 71.8236 137.269 70.3456ZM135.42 69.5053C136.853 67.5879 137.136 66.4113 136.34 65.6794C135.572 64.9729 134.728 65.2093 134.198 66.2791C133.713 67.2567 133.14 71.1493 133.414 71.6049C133.534 71.8053 134.3 71.0039 135.42 69.5053Z" fill="#4C4C4C"/>
<path d="M66.6929 76.1172H126.01V105.41H66.6929V76.1172ZM72.9115 41.295H119.791C121.118 41.295 122.185 42.3941 122.185 43.7594V47.5742C122.185 48.9395 121.118 50.0386 119.791 50.0386H72.9115C71.5854 50.0386 70.5178 48.9395 70.5178 47.5742V43.7594C70.5178 42.3941 71.5854 41.295 72.9115 41.295ZM74.8026 50.1296H117.9C122.393 50.1296 126.01 53.8534 126.01 58.479V123.048C126.01 127.673 122.393 131.397 117.9 131.397H74.8026C70.3098 131.397 66.6929 127.673 66.6929 123.048V58.479C66.6929 53.8534 70.3098 50.1296 74.8026 50.1296Z" fill="#FAC100"/>
<path d="M72.9117 41.295H119.792C121.118 41.295 122.185 42.3941 122.185 43.7594V47.5742C122.185 48.9395 121.118 50.0386 119.792 50.0386H72.9117C71.5856 50.0386 70.5181 48.9395 70.5181 47.5742V43.7594C70.5181 42.3941 71.5856 41.295 72.9117 41.295Z" fill="#EBB500"/>
<path d="M66.6929 76.1171H126.01V105.41H66.6929V76.1171Z" fill="#F9F9F9" stroke="#F9F9F9" stroke-width="0.65608" stroke-linecap="round"/>
<path d="M91.2471 90.1926C95.8679 98.8803 99.545 102.287 102.77 101.622C106.326 100.889 108.064 95.3878 106.373 93.3753C104.477 91.1202 99.1767 89.9437 91.2471 90.1926Z" fill="#FAC100"/>
<path d="M100.777 102.433C98.4411 102.005 95.8053 99.2633 92.0963 93.4042C91.3443 92.2164 90.6854 91.1933 90.632 91.1306C90.5785 91.068 90.3551 91.2836 90.1355 91.6099C89.7036 92.2516 88.1623 93.5867 86.6862 94.5977C85.6777 95.2885 84.9193 95.4584 84.4274 95.1036C84.0539 94.8343 84.11 94.3563 84.8038 91.8954C85.4149 89.7279 86.1986 87.9446 86.8214 87.3044C87.173 86.9431 87.2557 86.7604 87.1817 86.5089C86.9771 85.8135 86.4955 85.2127 85.6372 84.5821C84.6036 83.8227 84.4249 83.4669 84.855 83.0241C85.104 82.7677 85.2119 82.7439 85.5422 82.8722C85.8825 83.0045 85.9666 82.9801 86.1812 82.6871C86.5276 82.2144 86.8467 82.264 87.6466 82.915C88.486 83.5981 88.833 84.3689 88.8858 85.6678C88.9226 86.5709 88.9387 86.6073 89.4129 86.8578C89.6819 86.9998 90.0289 87.2822 90.184 87.4852L90.466 87.8543L90.5428 86.9461C90.5851 86.4465 90.6556 85.5172 90.6996 84.8808C90.9765 80.8719 92.0367 79.0232 94.0589 79.0232C94.3808 79.0232 94.8825 79.1842 95.2007 79.3221C95.6875 79.533 95.9485 80.0201 96.2337 80.2375C96.7528 80.3123 97.8798 80.8044 98.3804 81.617C99.3975 83.2681 98.4685 84.9592 94.8097 88.1171C94.134 88.7002 93.6102 89.2257 93.6456 89.2848C93.6811 89.3438 94.5642 89.4363 95.6081 89.4902C99.6924 89.7012 103.075 90.3395 104.883 91.2402C107.708 92.6479 108.361 95.0804 106.885 98.695L108.504 101.096L105.591 100.457L105.099 100.926C103.787 102.179 102.271 102.707 100.777 102.433ZM103.052 100.786C105.349 99.6635 107.022 95.9616 106.087 94.0731C105.793 93.4813 104.85 92.5813 104.654 92.7062C104.59 92.747 104.537 93.0731 104.537 93.431C104.537 94.4214 104.258 96.0699 103.94 96.9575C103.608 97.8836 102.673 99.4273 101.938 100.266C101.647 100.597 101.467 100.924 101.523 101.018C101.647 101.225 102.381 101.113 103.052 100.786ZM100.014 91.3741L97.7239 91.1C97.8252 93.473 97.1479 94.8267 95.6567 96.362L97.3909 98.4039C98.9837 96.8217 100.227 93.8836 100.014 91.3741ZM93.5344 90.9698L92.1619 90.6744L92.8491 92.0728C93.4611 92.287 93.5344 90.9698 93.5344 90.9698ZM95.7706 85.3215C97.6181 83.4285 97.8168 82.8657 96.9847 81.8831C96.728 81.5799 96.5299 81.6766 96.5297 82.1052C96.5295 82.8517 95.3791 84.839 93.9693 86.5283C93.6778 86.8775 93.4393 87.2237 93.4393 87.2974C93.4393 87.5489 94.3504 86.7767 95.7706 85.3215ZM93.9496 84.4943C95.3605 82.6065 95.6392 81.4481 94.8559 80.7275C94.0998 80.032 93.2684 80.2646 92.7465 81.3179C92.2696 82.2804 91.7054 86.1128 91.9746 86.5613C92.0931 86.7586 92.8469 85.9696 93.9496 84.4943Z" fill="#4C4C4C"/>
<path d="M43.507 155.922L101.947 200.256L103.29 110.245L39.8125 69.9415L43.507 155.922Z" fill="#DFAD8C"/>
<path d="M102.619 109.909L101.947 199.584L196.996 143.159L206.736 61.209L102.619 109.909Z" fill="#D6A07D"/>
<path d="M102.868 109.501L63.2075 104.277L0.747559 63.1908L40.4084 69.3655L102.868 109.501ZM206.414 61.2908L247.5 65.3282L142.054 119.238L102.631 109.501L206.414 61.2908Z" fill="#E9BFA4"/>
<path d="M150.366 171.011L153.216 141.088L167.228 133.488L163.666 163.174L150.366 171.011ZM62.7324 146.312L76.0318 156.287V180.748L62.2573 169.824L62.7324 146.312Z" fill="#AD724A"/>
</svg>
