<svg width="211" height="330" viewBox="0 0 211 330" fill="none" xmlns="http://www.w3.org/2000/svg">
<path d="M18.9434 10.4742L19.5937 8.00281L18.7552 5.53755C18.294 4.18166 17.9563 3.0351 18.0046 2.98964C18.5632 2.46444 24.6429 0 25.3799 0C26.1568 0 35.869 3.3059 36.2843 3.71171C36.3412 3.76734 36.1208 4.48022 35.7944 5.29589C35.3479 6.41183 35.0589 6.72265 34.6269 6.55155C34.3111 6.42649 32.1138 5.61816 29.7441 4.75526L25.4354 3.18635L23.8033 3.88593C22.0021 4.65802 21.9989 4.66568 22.5784 6.83207C22.9374 8.17451 22.868 8.76829 21.9907 11.8607C21.0003 15.3516 20.9991 15.3696 21.7049 15.9411C22.0948 16.2569 24.5824 17.2282 27.2329 18.0997L32.052 19.6843L33.3261 23.4083C34.0268 25.4566 35.5303 30.6437 36.6671 34.9352C39.6342 46.1361 44.16 60.9544 50.2076 79.2692C53.1062 88.0473 55.8953 96.8254 56.4055 98.7761C56.9158 100.727 57.9626 104.717 58.7318 107.643C59.5009 110.569 61.1731 115.858 62.4476 119.396C66.2153 129.856 69.3675 140.06 69.8277 143.287C70.2574 146.301 70.2581 146.302 71.3075 146.286C71.8849 146.277 73.109 146.148 74.0277 146L75.698 145.731L76.9092 148.145L78.1204 150.558L77.6395 154.46C77.3749 156.605 76.9345 159.262 76.6607 160.363C76.115 162.557 76.3918 167.416 77.1424 168.818C79.0789 172.437 89.4706 202.071 91.6613 210.222C91.9705 211.373 92.422 211.967 93.6077 212.783C94.4569 213.367 96.8563 215.671 98.9398 217.902C101.023 220.134 104.209 223.178 106.019 224.668C109.533 227.559 109.088 226.924 114.485 236.743C115.45 238.499 117.267 241.984 118.523 244.488C119.778 246.992 122.154 251.412 123.803 254.311C125.451 257.209 126.799 259.731 126.799 259.915C126.799 260.098 126.161 261.204 125.381 262.372C124.091 264.304 123.983 264.641 124.184 266.107C124.375 267.501 124.665 267.943 126.331 269.381C127.391 270.296 129.136 272.212 130.21 273.639L132.163 276.233L134.621 276.672C136.86 277.072 137.332 277.042 139.897 276.339C141.446 275.915 144.87 275.386 147.507 275.165L152.301 274.762L155.776 276.712L159.252 278.663L161.357 278.174C163.377 277.705 163.556 277.723 165.748 278.6C167.004 279.103 168.568 279.924 169.223 280.423C170.611 281.481 173.971 285.889 173.971 286.651C173.971 286.938 173.674 288.036 173.312 289.091C172.906 290.271 172.558 292.644 172.406 295.264C172.162 299.475 172.173 299.565 173.45 303.716C174.16 306.024 174.652 308.002 174.543 308.111C174.433 308.22 171.937 308.03 168.995 307.688C166.053 307.347 163.594 307.125 163.53 307.195C163.466 307.266 162.842 308.466 162.143 309.862C160.748 312.649 160.303 313.043 155.883 315.408C153.738 316.556 152.253 317.095 150.74 317.277C148.81 317.508 148.446 317.695 146.84 319.281C145.065 321.034 139.377 324.525 138.295 324.525C137.783 324.525 136.241 324.168 132.104 323.091C131.14 322.84 130.468 322.244 129.226 320.541C127.851 318.656 127.568 317.978 127.359 316.077L127.113 313.836L129.09 311.389C130.978 309.053 131.086 308.808 131.462 306.005C131.713 304.137 132.49 301.388 133.594 298.456C134.549 295.92 135.822 292.544 136.423 290.954L137.514 288.062L141.227 285.457C144.469 283.18 145.07 282.594 145.977 280.822C146.548 279.706 147.016 278.715 147.016 278.622C147.016 278.261 143.159 278.872 140.277 279.689L137.262 280.543L133.777 279.867C131.86 279.495 130.251 279.136 130.201 279.07C126.656 274.346 125.429 272.89 123.862 271.552L121.961 269.928L112.587 270.136L103.214 270.345L98.4257 268.687C93.2069 266.88 91.7514 266.529 83.5372 265.104C79.7436 264.446 76.7851 263.683 73.9611 262.635C70.3744 261.304 69.2023 261.05 64.3772 260.558C60.2684 260.14 56.4161 259.412 49.1263 257.674C37.0148 254.788 29.7304 253.351 25.3633 252.986C19.4558 251.572 22.0903 249.441 27.1083 249.902C29.6676 250.138 32.9953 250.598 34.5032 250.925C38.3385 251.758 53.3691 255.265 56.5744 256.075C58.0374 256.444 61.7881 256.999 64.9092 257.307C69.9689 257.807 71.0452 258.037 74.84 259.425C77.9858 260.576 80.9856 261.323 86.3395 262.289C91.5971 263.237 95.0003 264.079 98.753 265.36L103.923 267.125L112.347 266.871L120.77 266.617L120.771 264.98C120.772 263.757 121.041 262.941 121.834 261.748C122.417 260.87 122.896 259.988 122.896 259.788C122.897 259.589 121.767 257.434 120.384 255C119.002 252.567 116.832 248.501 115.562 245.965C114.292 243.429 111.801 238.715 110.027 235.49C106.896 229.801 106.712 229.553 103.826 227.155C102.191 225.797 99.085 222.802 96.9245 220.502C94.764 218.201 92.0822 215.677 90.9647 214.893C89.1852 213.645 88.9036 213.284 88.6958 211.985C88.2999 209.508 79.0468 182.236 76.0978 174.853C73.6864 168.816 73.3036 167.552 73.0864 164.905C72.885 162.452 72.9725 161.336 73.5456 159.053C73.9351 157.502 74.3575 155.036 74.4844 153.573C74.8058 149.866 74.5568 149.59 70.8379 149.536C69.2544 149.513 67.8015 149.335 67.6093 149.14C67.417 148.944 67.0773 147.348 66.8543 145.593C66.3308 141.47 63.0609 130.608 58.9 119.17C57.8001 116.146 56.4983 112.076 56.0071 110.126C53.6997 100.963 50.9411 91.7387 47.1502 80.5105C44.8781 73.7806 42.1714 65.4015 41.1354 61.8902C40.0994 58.379 38.4311 52.8727 37.4281 49.6541C36.425 46.4354 34.5901 39.9715 33.3505 35.2899C32.1109 30.6082 30.7244 25.7668 30.2693 24.5313L29.442 22.2849L25.1352 20.8892C21.8689 19.8308 20.3908 19.1451 19.0171 18.0514C18.462 17.1309 18.2063 16.2438 18.1762 15.3816L18.9434 10.4742ZM140.686 319.714C141.924 319.019 143.815 317.589 144.888 316.537C146.726 314.735 146.99 314.6 149.467 314.193C151.374 313.88 152.912 313.317 155.074 312.139L158.052 310.515L159.863 307.057C161.012 304.862 161.879 303.604 162.236 303.612C162.545 303.62 164.435 303.827 166.434 304.074C170.5 304.575 170.413 304.63 169.503 302.136C169.041 300.871 168.975 299.666 169.146 295.601C169.267 292.734 169.592 289.824 169.912 288.746L170.468 286.875L169.04 284.983C167.996 283.601 167.058 282.829 165.56 282.117L163.508 281.142L160.857 281.679L158.205 282.215L156.246 280.89C152.455 278.327 150.128 277.445 150.421 278.683C150.502 279.025 149.884 280.574 149.047 282.126C147.625 284.763 147.288 285.119 143.874 287.578C141.866 289.024 140.081 290.547 139.907 290.963C138.288 294.843 134.995 304.5 134.813 305.904C134.26 310.17 134.186 310.375 132.439 312.474C130.325 315.014 130.178 316.249 131.734 318.396C132.593 319.583 133.115 319.914 134.837 320.365C137.834 321.15 138.201 321.11 140.686 319.714Z" fill="#1A1400"/>
<path d="M42.696 17C42.5787 17 42.4667 16.968 42.36 16.904C42.264 16.8293 42.216 16.7227 42.216 16.584V5.704C42.216 5.56533 42.2693 5.464 42.376 5.4C42.4827 5.336 42.6053 5.304 42.744 5.304C42.872 5.304 42.9893 5.336 43.096 5.4C43.2133 5.464 43.272 5.56533 43.272 5.704V16.024H47.832C47.96 16.024 48.0507 16.0773 48.104 16.184C48.1573 16.28 48.184 16.3867 48.184 16.504C48.184 16.632 48.1573 16.7493 48.104 16.856C48.0507 16.952 47.96 17 47.832 17H42.696ZM52.1578 17.112C51.6138 17.112 51.1124 16.9733 50.6538 16.696C50.1951 16.408 49.8218 16.0347 49.5338 15.576C49.2564 15.1067 49.1178 14.6053 49.1178 14.072V12.344C49.1178 11.8 49.2511 11.304 49.5178 10.856C49.7951 10.3973 50.1631 10.0293 50.6218 9.752C51.0911 9.47467 51.6031 9.336 52.1578 9.336C52.7018 9.336 53.2031 9.47467 53.6618 9.752C54.1311 10.0187 54.5044 10.376 54.7818 10.824C55.0591 11.272 55.1978 11.7787 55.1978 12.344V14.072C55.1978 14.5947 55.0591 15.0907 54.7818 15.56C54.5044 16.0293 54.1311 16.408 53.6618 16.696C53.2031 16.9733 52.7018 17.112 52.1578 17.112ZM52.1578 16.152C52.5311 16.152 52.8671 16.056 53.1658 15.864C53.4644 15.6613 53.7044 15.4 53.8858 15.08C54.0671 14.76 54.1578 14.424 54.1578 14.072V12.344C54.1578 11.992 54.0671 11.6613 53.8858 11.352C53.7151 11.0427 53.4751 10.792 53.1658 10.6C52.8671 10.3973 52.5311 10.296 52.1578 10.296C51.7844 10.296 51.4484 10.3973 51.1498 10.6C50.8511 10.792 50.6111 11.0427 50.4298 11.352C50.2484 11.6613 50.1578 11.992 50.1578 12.344V14.072C50.1578 14.424 50.2484 14.76 50.4298 15.08C50.6111 15.4 50.8511 15.6613 51.1498 15.864C51.4591 16.056 51.7951 16.152 52.1578 16.152ZM60.2178 17.112C59.6524 17.112 59.1351 16.9733 58.6658 16.696C58.2071 16.4187 57.8391 16.0507 57.5618 15.592C57.2951 15.1227 57.1618 14.6267 57.1618 14.104V9.848C57.1618 9.74133 57.2151 9.64533 57.3218 9.56C57.4284 9.47467 57.5511 9.432 57.6898 9.432C57.8284 9.432 57.9458 9.47467 58.0418 9.56C58.1484 9.64533 58.2018 9.74133 58.2018 9.848V14.104C58.2018 14.456 58.2924 14.7867 58.4738 15.096C58.6551 15.4053 58.8951 15.6613 59.1938 15.864C59.4924 16.056 59.8284 16.152 60.2018 16.152C60.5858 16.152 60.9271 16.056 61.2258 15.864C61.5244 15.672 61.7591 15.4213 61.9298 15.112C62.1111 14.792 62.2018 14.456 62.2018 14.104V9.832C62.2018 9.71467 62.2551 9.61867 62.3618 9.544C62.4684 9.46933 62.5911 9.432 62.7298 9.432C62.8898 9.432 63.0124 9.46933 63.0978 9.544C63.1938 9.61867 63.2418 9.71467 63.2418 9.832V14.104C63.2418 14.648 63.1031 15.1493 62.8258 15.608C62.5591 16.056 62.1911 16.4187 61.7218 16.696C61.2631 16.9733 60.7618 17.112 60.2178 17.112ZM68.0272 17.112C67.5366 17.112 67.0726 16.9733 66.6352 16.696C66.1979 16.408 65.8459 16.0293 65.5792 15.56C65.3232 15.0907 65.1952 14.5947 65.1952 14.072V12.344C65.1952 11.7893 65.3232 11.288 65.5792 10.84C65.8459 10.3813 66.1979 10.0187 66.6352 9.752C67.0726 9.47467 67.5526 9.336 68.0752 9.336C68.5979 9.336 69.0352 9.464 69.3872 9.72C69.7499 9.96533 70.0166 10.2427 70.1872 10.552V5.192C70.1872 5.064 70.2406 4.968 70.3472 4.904C70.4539 4.82933 70.5766 4.792 70.7152 4.792C70.8752 4.792 70.9979 4.82933 71.0832 4.904C71.1792 4.968 71.2272 5.064 71.2272 5.192V16.584C71.2272 16.6907 71.1792 16.7867 71.0832 16.872C70.9979 16.9573 70.8752 17 70.7152 17C70.5872 17 70.4699 16.9573 70.3632 16.872C70.2672 16.7867 70.2192 16.6907 70.2192 16.584V15.88C70.0592 16.2107 69.7766 16.4987 69.3712 16.744C68.9766 16.9893 68.5286 17.112 68.0272 17.112ZM68.2192 16.152C68.6032 16.152 68.9392 16.056 69.2272 15.864C69.5259 15.6613 69.7606 15.4373 69.9312 15.192C70.1019 14.936 70.1872 14.728 70.1872 14.568V12.344C70.1872 11.9067 70.0912 11.5387 69.8992 11.24C69.7072 10.9413 69.4619 10.712 69.1632 10.552C68.8646 10.3813 68.5552 10.296 68.2352 10.296C67.8726 10.296 67.5419 10.3973 67.2432 10.6C66.9446 10.792 66.7046 11.0427 66.5232 11.352C66.3419 11.6613 66.2512 11.992 66.2512 12.344V14.072C66.2512 14.424 66.3419 14.76 66.5232 15.08C66.7046 15.4 66.9446 15.6613 67.2432 15.864C67.5419 16.056 67.8672 16.152 68.2192 16.152ZM76.5453 17.112C75.9799 17.112 75.4626 16.9733 74.9933 16.696C74.5346 16.4187 74.1666 16.0507 73.8893 15.592C73.6226 15.1227 73.4893 14.6267 73.4893 14.104V9.848C73.4893 9.74133 73.5426 9.64533 73.6493 9.56C73.7559 9.47467 73.8786 9.432 74.0173 9.432C74.1559 9.432 74.2733 9.47467 74.3693 9.56C74.4759 9.64533 74.5293 9.74133 74.5293 9.848V14.104C74.5293 14.456 74.6199 14.7867 74.8013 15.096C74.9826 15.4053 75.2226 15.6613 75.5213 15.864C75.8199 16.056 76.1559 16.152 76.5293 16.152C76.9133 16.152 77.2546 16.056 77.5533 15.864C77.8519 15.672 78.0866 15.4213 78.2573 15.112C78.4386 14.792 78.5293 14.456 78.5293 14.104V9.832C78.5293 9.71467 78.5826 9.61867 78.6893 9.544C78.7959 9.46933 78.9186 9.432 79.0573 9.432C79.2173 9.432 79.3399 9.46933 79.4253 9.544C79.5213 9.61867 79.5693 9.71467 79.5693 9.832V14.104C79.5693 14.648 79.4306 15.1493 79.1533 15.608C78.8866 16.056 78.5186 16.4187 78.0493 16.696C77.5906 16.9733 77.0893 17.112 76.5453 17.112ZM82.3227 17C82.1841 17 82.0614 16.9573 81.9547 16.872C81.8587 16.7867 81.8107 16.6907 81.8107 16.584V9.832C81.8107 9.704 81.8587 9.608 81.9547 9.544C82.0614 9.46933 82.1841 9.432 82.3227 9.432C82.4614 9.432 82.5787 9.46933 82.6747 9.544C82.7707 9.608 82.8187 9.704 82.8187 9.832V10.552C82.9894 10.2427 83.2561 9.96533 83.6187 9.72C83.9814 9.464 84.4294 9.336 84.9627 9.336C85.4747 9.336 85.9441 9.47467 86.3707 9.752C86.8081 10.0187 87.1547 10.3813 87.4107 10.84C87.6667 11.288 87.7947 11.7893 87.7947 12.344V16.584C87.7947 16.7227 87.7414 16.8293 87.6347 16.904C87.5281 16.968 87.4054 17 87.2667 17C87.1494 17 87.0321 16.968 86.9147 16.904C86.8081 16.8293 86.7547 16.7227 86.7547 16.584V12.344C86.7547 11.992 86.6641 11.6613 86.4827 11.352C86.3014 11.0427 86.0614 10.792 85.7627 10.6C85.4641 10.3973 85.1334 10.296 84.7707 10.296C84.4507 10.296 84.1414 10.3813 83.8427 10.552C83.5547 10.712 83.3147 10.9413 83.1227 11.24C82.9414 11.5387 82.8507 11.9067 82.8507 12.344V16.584C82.8507 16.6907 82.7974 16.7867 82.6907 16.872C82.5947 16.9573 82.4721 17 82.3227 17Z" fill="#1A1400"/>
<path d="M88.744 156C88.6053 156 88.4827 155.968 88.376 155.904C88.2693 155.829 88.216 155.723 88.216 155.584V144.816C88.216 144.624 88.2693 144.491 88.376 144.416C88.4827 144.341 88.6053 144.304 88.744 144.304C88.872 144.304 88.984 144.341 89.08 144.416C89.1867 144.48 89.2827 144.571 89.368 144.688C89.4533 144.795 89.528 144.917 89.592 145.056L92.344 150.352L95.08 145.056C95.1653 144.917 95.2453 144.795 95.32 144.688C95.4053 144.571 95.5013 144.48 95.608 144.416C95.7147 144.341 95.8267 144.304 95.944 144.304C96.0933 144.304 96.216 144.341 96.312 144.416C96.4187 144.491 96.472 144.624 96.472 144.816V155.584C96.472 155.723 96.4187 155.829 96.312 155.904C96.2053 155.968 96.0827 156 95.944 156C95.816 156 95.6933 155.968 95.576 155.904C95.4693 155.829 95.416 155.723 95.416 155.584V146.592L92.76 151.616C92.696 151.744 92.6267 151.835 92.552 151.888C92.4773 151.941 92.4027 151.968 92.328 151.968C92.264 151.968 92.1947 151.941 92.12 151.888C92.0453 151.835 91.9707 151.744 91.896 151.616L89.272 146.56V155.584C89.272 155.723 89.2133 155.829 89.096 155.904C88.9893 155.968 88.872 156 88.744 156ZM99.5275 146.192C99.3355 146.192 99.1648 146.128 99.0155 146C98.8768 145.861 98.8075 145.701 98.8075 145.52C98.8075 145.339 98.8768 145.184 99.0155 145.056C99.1648 144.928 99.3355 144.864 99.5275 144.864C99.7195 144.864 99.8848 144.928 100.023 145.056C100.162 145.184 100.231 145.339 100.231 145.52C100.231 145.701 100.162 145.861 100.023 146C99.8848 146.128 99.7195 146.192 99.5275 146.192ZM99.5115 156C99.3728 156 99.2502 155.957 99.1435 155.872C99.0475 155.787 98.9995 155.691 98.9995 155.584V148.832C98.9995 148.704 99.0475 148.608 99.1435 148.544C99.2502 148.469 99.3728 148.432 99.5115 148.432C99.6608 148.432 99.7835 148.469 99.8795 148.544C99.9862 148.608 100.039 148.704 100.039 148.832V155.584C100.039 155.691 99.9862 155.787 99.8795 155.872C99.7835 155.957 99.6608 156 99.5115 156ZM102.863 156C102.724 156 102.601 155.957 102.495 155.872C102.399 155.787 102.351 155.691 102.351 155.584V148.832C102.351 148.704 102.399 148.608 102.495 148.544C102.601 148.469 102.724 148.432 102.863 148.432C103.001 148.432 103.119 148.469 103.215 148.544C103.311 148.608 103.359 148.704 103.359 148.832V149.616C103.476 149.392 103.636 149.184 103.839 148.992C104.041 148.8 104.281 148.645 104.559 148.528C104.836 148.4 105.151 148.336 105.503 148.336H106.063C106.18 148.336 106.276 148.384 106.351 148.48C106.436 148.576 106.479 148.688 106.479 148.816C106.479 148.955 106.436 149.072 106.351 149.168C106.276 149.253 106.18 149.296 106.063 149.296H105.503C105.151 149.296 104.809 149.392 104.479 149.584C104.159 149.776 103.897 150.043 103.695 150.384C103.492 150.725 103.391 151.141 103.391 151.632V155.584C103.391 155.691 103.337 155.787 103.231 155.872C103.135 155.957 103.012 156 102.863 156ZM110.776 156.112C110.104 156.112 109.507 155.984 108.984 155.728C108.472 155.472 108.067 155.12 107.768 154.672C107.48 154.213 107.336 153.68 107.336 153.072V151.296C107.336 150.763 107.475 150.272 107.752 149.824C108.03 149.365 108.398 149.003 108.856 148.736C109.326 148.469 109.838 148.336 110.392 148.336C110.926 148.336 111.416 148.464 111.864 148.72C112.323 148.965 112.691 149.307 112.968 149.744C113.246 150.181 113.384 150.688 113.384 151.264C113.384 151.669 113.315 151.963 113.176 152.144C113.038 152.325 112.862 152.437 112.648 152.48C112.446 152.512 112.227 152.528 111.992 152.528H108.376V153.12C108.376 153.76 108.606 154.267 109.064 154.64C109.523 155.013 110.104 155.2 110.808 155.2C111.235 155.2 111.566 155.147 111.8 155.04C112.035 154.933 112.216 154.827 112.344 154.72C112.483 154.613 112.611 154.56 112.728 154.56C112.814 154.56 112.888 154.592 112.952 154.656C113.027 154.709 113.08 154.773 113.112 154.848C113.155 154.923 113.176 154.992 113.176 155.056C113.176 155.173 113.08 155.317 112.888 155.488C112.696 155.659 112.419 155.808 112.056 155.936C111.694 156.053 111.267 156.112 110.776 156.112ZM108.376 151.76H111.576C111.896 151.76 112.11 151.728 112.216 151.664C112.323 151.589 112.376 151.44 112.376 151.216C112.376 150.875 112.291 150.555 112.12 150.256C111.95 149.947 111.715 149.696 111.416 149.504C111.118 149.301 110.771 149.2 110.376 149.2C110.014 149.2 109.678 149.291 109.368 149.472C109.07 149.653 108.83 149.888 108.648 150.176C108.467 150.464 108.376 150.789 108.376 151.152V151.76ZM118.472 156.112C117.971 156.112 117.523 155.989 117.128 155.744C116.734 155.499 116.451 155.211 116.28 154.88V155.584C116.28 155.691 116.232 155.787 116.136 155.872C116.04 155.957 115.923 156 115.784 156C115.646 156 115.523 155.957 115.416 155.872C115.32 155.787 115.272 155.691 115.272 155.584V144.192C115.272 144.064 115.32 143.968 115.416 143.904C115.523 143.829 115.646 143.792 115.784 143.792C115.934 143.792 116.056 143.829 116.152 143.904C116.259 143.968 116.312 144.064 116.312 144.192V149.552C116.494 149.243 116.76 148.965 117.112 148.72C117.475 148.464 117.918 148.336 118.44 148.336C118.963 148.336 119.438 148.475 119.864 148.752C120.302 149.019 120.648 149.381 120.904 149.84C121.171 150.288 121.304 150.789 121.304 151.344V153.072C121.304 153.595 121.171 154.091 120.904 154.56C120.648 155.029 120.307 155.408 119.88 155.696C119.454 155.973 118.984 156.112 118.472 156.112ZM118.28 155.152C118.643 155.152 118.974 155.056 119.272 154.864C119.571 154.661 119.811 154.4 119.992 154.08C120.174 153.76 120.264 153.424 120.264 153.072V151.344C120.264 150.992 120.174 150.661 119.992 150.352C119.811 150.043 119.571 149.792 119.272 149.6C118.974 149.397 118.638 149.296 118.264 149.296C117.944 149.296 117.635 149.381 117.336 149.552C117.038 149.712 116.792 149.941 116.6 150.24C116.408 150.539 116.312 150.907 116.312 151.344V153.568C116.312 153.728 116.398 153.936 116.568 154.192C116.75 154.437 116.99 154.661 117.288 154.864C117.587 155.056 117.918 155.152 118.28 155.152ZM126.494 156.112C125.822 156.112 125.225 155.984 124.702 155.728C124.19 155.472 123.785 155.12 123.486 154.672C123.198 154.213 123.054 153.68 123.054 153.072V151.296C123.054 150.763 123.193 150.272 123.47 149.824C123.748 149.365 124.116 149.003 124.574 148.736C125.044 148.469 125.556 148.336 126.11 148.336C126.644 148.336 127.134 148.464 127.582 148.72C128.041 148.965 128.409 149.307 128.686 149.744C128.964 150.181 129.102 150.688 129.102 151.264C129.102 151.669 129.033 151.963 128.894 152.144C128.756 152.325 128.58 152.437 128.366 152.48C128.164 152.512 127.945 152.528 127.71 152.528H124.094V153.12C124.094 153.76 124.324 154.267 124.782 154.64C125.241 155.013 125.822 155.2 126.526 155.2C126.953 155.2 127.284 155.147 127.518 155.04C127.753 154.933 127.934 154.827 128.062 154.72C128.201 154.613 128.329 154.56 128.446 154.56C128.532 154.56 128.606 154.592 128.67 154.656C128.745 154.709 128.798 154.773 128.83 154.848C128.873 154.923 128.894 154.992 128.894 155.056C128.894 155.173 128.798 155.317 128.606 155.488C128.414 155.659 128.137 155.808 127.774 155.936C127.412 156.053 126.985 156.112 126.494 156.112ZM124.094 151.76H127.294C127.614 151.76 127.828 151.728 127.934 151.664C128.041 151.589 128.094 151.44 128.094 151.216C128.094 150.875 128.009 150.555 127.838 150.256C127.668 149.947 127.433 149.696 127.134 149.504C126.836 149.301 126.489 149.2 126.094 149.2C125.732 149.2 125.396 149.291 125.086 149.472C124.788 149.653 124.548 149.888 124.366 150.176C124.185 150.464 124.094 150.789 124.094 151.152V151.76ZM132.654 156.112C132.046 156.112 131.529 155.941 131.102 155.6C130.686 155.248 130.478 154.715 130.478 154C130.478 153.413 130.633 152.965 130.942 152.656C131.262 152.336 131.7 152.117 132.254 152C132.82 151.872 133.47 151.808 134.206 151.808H135.022V151.44C135.022 151.088 134.958 150.747 134.83 150.416C134.713 150.075 134.516 149.797 134.238 149.584C133.972 149.36 133.604 149.248 133.134 149.248C132.782 149.248 132.494 149.285 132.27 149.36C132.046 149.435 131.87 149.515 131.742 149.6C131.614 149.675 131.508 149.712 131.422 149.712C131.294 149.712 131.188 149.648 131.102 149.52C131.028 149.392 130.99 149.275 130.99 149.168C130.99 149.019 131.102 148.885 131.326 148.768C131.55 148.64 131.828 148.539 132.158 148.464C132.5 148.379 132.836 148.336 133.166 148.336C133.881 148.336 134.446 148.485 134.862 148.784C135.289 149.072 135.593 149.451 135.774 149.92C135.966 150.389 136.062 150.891 136.062 151.424V155.584C136.062 155.701 136.014 155.803 135.918 155.888C135.833 155.963 135.71 156 135.55 156C135.422 156 135.305 155.963 135.198 155.888C135.102 155.803 135.054 155.701 135.054 155.584V154.88C134.788 155.2 134.457 155.488 134.062 155.744C133.668 155.989 133.198 156.112 132.654 156.112ZM132.91 155.232C133.262 155.232 133.598 155.141 133.918 154.96C134.238 154.779 134.5 154.56 134.702 154.304C134.916 154.037 135.022 153.787 135.022 153.552V152.528H134.35C133.87 152.528 133.412 152.56 132.974 152.624C132.548 152.677 132.196 152.8 131.918 152.992C131.652 153.184 131.518 153.488 131.518 153.904C131.518 154.363 131.652 154.699 131.918 154.912C132.196 155.125 132.526 155.232 132.91 155.232ZM141.302 156.112C140.737 156.112 140.219 155.973 139.75 155.696C139.291 155.419 138.923 155.051 138.646 154.592C138.379 154.123 138.246 153.627 138.246 153.104V148.848C138.246 148.741 138.299 148.645 138.406 148.56C138.513 148.475 138.635 148.432 138.774 148.432C138.913 148.432 139.03 148.475 139.126 148.56C139.233 148.645 139.286 148.741 139.286 148.848V153.104C139.286 153.456 139.377 153.787 139.558 154.096C139.739 154.405 139.979 154.661 140.278 154.864C140.577 155.056 140.913 155.152 141.286 155.152C141.67 155.152 142.011 155.056 142.31 154.864C142.609 154.672 142.843 154.421 143.014 154.112C143.195 153.792 143.286 153.456 143.286 153.104V148.832C143.286 148.715 143.339 148.619 143.446 148.544C143.553 148.469 143.675 148.432 143.814 148.432C143.974 148.432 144.097 148.469 144.182 148.544C144.278 148.619 144.326 148.715 144.326 148.832V153.104C144.326 153.648 144.187 154.149 143.91 154.608C143.643 155.056 143.275 155.419 142.806 155.696C142.347 155.973 141.846 156.112 141.302 156.112Z" fill="#1A1400"/>
<path d="M164.744 325C164.605 325 164.483 324.968 164.376 324.904C164.269 324.829 164.216 324.723 164.216 324.584V313.704C164.216 313.597 164.253 313.507 164.328 313.432C164.413 313.357 164.525 313.315 164.664 313.304H167.608C168.227 313.304 168.787 313.416 169.288 313.64C169.789 313.864 170.184 314.227 170.472 314.728C170.76 315.219 170.904 315.875 170.904 316.696V316.856C170.904 317.688 170.755 318.355 170.456 318.856C170.168 319.347 169.768 319.709 169.256 319.944C168.755 320.168 168.195 320.28 167.576 320.28H165.272V324.584C165.272 324.723 165.213 324.829 165.096 324.904C164.989 324.968 164.872 325 164.744 325ZM165.272 319.352H167.576C168.291 319.352 168.845 319.155 169.24 318.76C169.645 318.355 169.848 317.736 169.848 316.904V316.728C169.848 315.885 169.645 315.267 169.24 314.872C168.845 314.477 168.291 314.28 167.576 314.28H165.272V319.352ZM175.095 325.112C174.551 325.112 174.05 324.973 173.591 324.696C173.133 324.408 172.759 324.035 172.471 323.576C172.194 323.107 172.055 322.605 172.055 322.072V320.344C172.055 319.8 172.189 319.304 172.455 318.856C172.733 318.397 173.101 318.029 173.559 317.752C174.029 317.475 174.541 317.336 175.095 317.336C175.639 317.336 176.141 317.475 176.599 317.752C177.069 318.019 177.442 318.376 177.719 318.824C177.997 319.272 178.135 319.779 178.135 320.344V322.072C178.135 322.595 177.997 323.091 177.719 323.56C177.442 324.029 177.069 324.408 176.599 324.696C176.141 324.973 175.639 325.112 175.095 325.112ZM175.095 324.152C175.469 324.152 175.805 324.056 176.103 323.864C176.402 323.661 176.642 323.4 176.823 323.08C177.005 322.76 177.095 322.424 177.095 322.072V320.344C177.095 319.992 177.005 319.661 176.823 319.352C176.653 319.043 176.413 318.792 176.103 318.6C175.805 318.397 175.469 318.296 175.095 318.296C174.722 318.296 174.386 318.397 174.087 318.6C173.789 318.792 173.549 319.043 173.367 319.352C173.186 319.661 173.095 319.992 173.095 320.344V322.072C173.095 322.424 173.186 322.76 173.367 323.08C173.549 323.4 173.789 323.661 174.087 323.864C174.397 324.056 174.733 324.152 175.095 324.152ZM180.691 315.192C180.499 315.192 180.329 315.128 180.179 315C180.041 314.861 179.971 314.701 179.971 314.52C179.971 314.339 180.041 314.184 180.179 314.056C180.329 313.928 180.499 313.864 180.691 313.864C180.883 313.864 181.049 313.928 181.187 314.056C181.326 314.184 181.395 314.339 181.395 314.52C181.395 314.701 181.326 314.861 181.187 315C181.049 315.128 180.883 315.192 180.691 315.192ZM180.675 325C180.537 325 180.414 324.957 180.307 324.872C180.211 324.787 180.163 324.691 180.163 324.584V317.832C180.163 317.704 180.211 317.608 180.307 317.544C180.414 317.469 180.537 317.432 180.675 317.432C180.825 317.432 180.947 317.469 181.043 317.544C181.15 317.608 181.203 317.704 181.203 317.832V324.584C181.203 324.691 181.15 324.787 181.043 324.872C180.947 324.957 180.825 325 180.675 325ZM186.026 325C185.205 325 184.576 324.813 184.138 324.44C183.701 324.067 183.482 323.469 183.482 322.648V314.232C183.482 314.104 183.536 314.008 183.642 313.944C183.76 313.869 183.877 313.832 183.994 313.832C184.133 313.832 184.256 313.869 184.362 313.944C184.469 314.008 184.522 314.104 184.522 314.232V317.432H186.602C186.709 317.432 186.794 317.475 186.858 317.56C186.922 317.645 186.954 317.747 186.954 317.864C186.954 317.981 186.922 318.083 186.858 318.168C186.794 318.253 186.709 318.296 186.602 318.296H184.522V322.648C184.522 323.171 184.634 323.539 184.858 323.752C185.082 323.955 185.472 324.056 186.026 324.056H186.474C186.624 324.056 186.736 324.104 186.81 324.2C186.896 324.285 186.938 324.392 186.938 324.52C186.938 324.648 186.896 324.76 186.81 324.856C186.736 324.952 186.624 325 186.474 325H186.026ZM189.081 315.192C188.889 315.192 188.719 315.128 188.569 315C188.431 314.861 188.361 314.701 188.361 314.52C188.361 314.339 188.431 314.184 188.569 314.056C188.719 313.928 188.889 313.864 189.081 313.864C189.273 313.864 189.439 313.928 189.577 314.056C189.716 314.184 189.785 314.339 189.785 314.52C189.785 314.701 189.716 314.861 189.577 315C189.439 315.128 189.273 315.192 189.081 315.192ZM189.065 325C188.927 325 188.804 324.957 188.697 324.872C188.601 324.787 188.553 324.691 188.553 324.584V317.832C188.553 317.704 188.601 317.608 188.697 317.544C188.804 317.469 188.927 317.432 189.065 317.432C189.215 317.432 189.337 317.469 189.433 317.544C189.54 317.608 189.593 317.704 189.593 317.832V324.584C189.593 324.691 189.54 324.787 189.433 324.872C189.337 324.957 189.215 325 189.065 325ZM195.073 325.112C194.401 325.112 193.803 324.984 193.281 324.728C192.769 324.472 192.363 324.12 192.065 323.672C191.777 323.213 191.633 322.68 191.633 322.072V320.296C191.633 319.763 191.771 319.272 192.049 318.824C192.326 318.365 192.694 318.003 193.153 317.736C193.622 317.469 194.134 317.336 194.689 317.336C195.222 317.336 195.713 317.464 196.161 317.72C196.619 317.965 196.987 318.307 197.265 318.744C197.542 319.181 197.681 319.688 197.681 320.264C197.681 320.669 197.611 320.963 197.473 321.144C197.334 321.325 197.158 321.437 196.945 321.48C196.742 321.512 196.523 321.528 196.289 321.528H192.673V322.12C192.673 322.76 192.902 323.267 193.361 323.64C193.819 324.013 194.401 324.2 195.105 324.2C195.531 324.2 195.862 324.147 196.097 324.04C196.331 323.933 196.513 323.827 196.641 323.72C196.779 323.613 196.907 323.56 197.025 323.56C197.11 323.56 197.185 323.592 197.249 323.656C197.323 323.709 197.377 323.773 197.409 323.848C197.451 323.923 197.473 323.992 197.473 324.056C197.473 324.173 197.377 324.317 197.185 324.488C196.993 324.659 196.715 324.808 196.353 324.936C195.99 325.053 195.563 325.112 195.073 325.112ZM192.673 320.76H195.873C196.193 320.76 196.406 320.728 196.513 320.664C196.619 320.589 196.673 320.44 196.673 320.216C196.673 319.875 196.587 319.555 196.417 319.256C196.246 318.947 196.011 318.696 195.713 318.504C195.414 318.301 195.067 318.2 194.673 318.2C194.31 318.2 193.974 318.291 193.665 318.472C193.366 318.653 193.126 318.888 192.945 319.176C192.763 319.464 192.673 319.789 192.673 320.152V320.76ZM200.065 325C199.926 325 199.803 324.957 199.697 324.872C199.601 324.787 199.553 324.691 199.553 324.584V317.832C199.553 317.704 199.601 317.608 199.697 317.544C199.803 317.469 199.926 317.432 200.065 317.432C200.203 317.432 200.321 317.469 200.417 317.544C200.513 317.608 200.561 317.704 200.561 317.832V318.616C200.678 318.392 200.838 318.184 201.041 317.992C201.243 317.8 201.483 317.645 201.761 317.528C202.038 317.4 202.353 317.336 202.705 317.336H203.265C203.382 317.336 203.478 317.384 203.553 317.48C203.638 317.576 203.681 317.688 203.681 317.816C203.681 317.955 203.638 318.072 203.553 318.168C203.478 318.253 203.382 318.296 203.265 318.296H202.705C202.353 318.296 202.011 318.392 201.681 318.584C201.361 318.776 201.099 319.043 200.897 319.384C200.694 319.725 200.593 320.141 200.593 320.632V324.584C200.593 324.691 200.539 324.787 200.433 324.872C200.337 324.957 200.214 325 200.065 325ZM207.155 325.112C206.654 325.112 206.211 325.048 205.827 324.92C205.454 324.792 205.161 324.643 204.947 324.472C204.745 324.291 204.643 324.12 204.643 323.96C204.643 323.885 204.659 323.816 204.691 323.752C204.723 323.677 204.766 323.613 204.819 323.56C204.883 323.507 204.947 323.48 205.011 323.48C205.129 323.48 205.257 323.544 205.395 323.672C205.545 323.789 205.747 323.912 206.003 324.04C206.27 324.168 206.643 324.232 207.123 324.232C207.731 324.232 208.158 324.12 208.403 323.896C208.649 323.661 208.771 323.395 208.771 323.096C208.771 322.744 208.675 322.472 208.483 322.28C208.302 322.077 208.057 321.923 207.747 321.816C207.449 321.709 207.129 321.608 206.787 321.512C206.457 321.416 206.137 321.299 205.827 321.16C205.529 321.021 205.283 320.824 205.091 320.568C204.91 320.301 204.819 319.949 204.819 319.512C204.819 319.171 204.905 318.835 205.075 318.504C205.246 318.173 205.513 317.896 205.875 317.672C206.249 317.448 206.739 317.336 207.347 317.336C207.699 317.336 208.041 317.373 208.371 317.448C208.702 317.523 208.969 317.624 209.171 317.752C209.385 317.869 209.491 317.997 209.491 318.136C209.491 318.179 209.47 318.248 209.427 318.344C209.395 318.429 209.347 318.504 209.283 318.568C209.219 318.632 209.145 318.664 209.059 318.664C208.974 318.664 208.857 318.627 208.707 318.552C208.569 318.477 208.387 318.403 208.163 318.328C207.939 318.253 207.673 318.216 207.363 318.216C206.979 318.216 206.67 318.285 206.435 318.424C206.201 318.563 206.03 318.728 205.923 318.92C205.817 319.112 205.763 319.299 205.763 319.48C205.763 319.779 205.859 320.008 206.051 320.168C206.243 320.328 206.489 320.461 206.787 320.568C207.097 320.664 207.417 320.76 207.747 320.856C208.089 320.941 208.409 321.064 208.707 321.224C209.017 321.384 209.262 321.608 209.443 321.896C209.635 322.184 209.731 322.568 209.731 323.048C209.731 323.677 209.507 324.179 209.059 324.552C208.611 324.925 207.977 325.112 207.155 325.112Z" fill="#1A1400"/>
<path d="M44.304 281.096C44.1653 281.096 44.032 281.064 43.904 281C43.7867 280.936 43.712 280.84 43.68 280.712L40.32 269.864C40.3093 269.832 40.304 269.795 40.304 269.752C40.304 269.667 40.336 269.592 40.4 269.528C40.464 269.453 40.544 269.4 40.64 269.368C40.736 269.325 40.832 269.304 40.928 269.304C41.024 269.304 41.1093 269.325 41.184 269.368C41.2587 269.411 41.312 269.48 41.344 269.576L44.304 279.4L47.248 269.576C47.2693 269.48 47.3173 269.411 47.392 269.368C47.4667 269.325 47.552 269.304 47.648 269.304C47.744 269.304 47.84 269.325 47.936 269.368C48.032 269.411 48.112 269.464 48.176 269.528C48.2507 269.592 48.288 269.672 48.288 269.768C48.288 269.779 48.2827 269.795 48.272 269.816C48.272 269.827 48.2667 269.843 48.256 269.864L44.944 280.712C44.9013 280.84 44.816 280.936 44.688 281C44.5707 281.064 44.4427 281.096 44.304 281.096ZM51.8452 281.112C51.3012 281.112 50.7999 280.973 50.3412 280.696C49.8826 280.408 49.5092 280.035 49.2212 279.576C48.9439 279.107 48.8052 278.605 48.8052 278.072V276.344C48.8052 275.8 48.9386 275.304 49.2052 274.856C49.4826 274.397 49.8506 274.029 50.3092 273.752C50.7786 273.475 51.2906 273.336 51.8452 273.336C52.3893 273.336 52.8906 273.475 53.3492 273.752C53.8186 274.019 54.1919 274.376 54.4693 274.824C54.7466 275.272 54.8853 275.779 54.8853 276.344V278.072C54.8853 278.595 54.7466 279.091 54.4693 279.56C54.1919 280.029 53.8186 280.408 53.3492 280.696C52.8906 280.973 52.3893 281.112 51.8452 281.112ZM51.8452 280.152C52.2186 280.152 52.5546 280.056 52.8533 279.864C53.1519 279.661 53.3919 279.4 53.5732 279.08C53.7546 278.76 53.8453 278.424 53.8453 278.072V276.344C53.8453 275.992 53.7546 275.661 53.5732 275.352C53.4026 275.043 53.1626 274.792 52.8533 274.6C52.5546 274.397 52.2186 274.296 51.8452 274.296C51.4719 274.296 51.1359 274.397 50.8372 274.6C50.5386 274.792 50.2986 275.043 50.1172 275.352C49.9359 275.661 49.8452 275.992 49.8452 276.344V278.072C49.8452 278.424 49.9359 278.76 50.1172 279.08C50.2986 279.4 50.5386 279.661 50.8372 279.864C51.1466 280.056 51.4826 280.152 51.8452 280.152ZM59.9053 281.112C59.3399 281.112 58.8226 280.973 58.3533 280.696C57.8946 280.419 57.5266 280.051 57.2493 279.592C56.9826 279.123 56.8493 278.627 56.8493 278.104V273.848C56.8493 273.741 56.9026 273.645 57.0093 273.56C57.1159 273.475 57.2386 273.432 57.3773 273.432C57.5159 273.432 57.6333 273.475 57.7293 273.56C57.8359 273.645 57.8893 273.741 57.8893 273.848V278.104C57.8893 278.456 57.9799 278.787 58.1613 279.096C58.3426 279.405 58.5826 279.661 58.8813 279.864C59.1799 280.056 59.5159 280.152 59.8893 280.152C60.2733 280.152 60.6146 280.056 60.9133 279.864C61.2119 279.672 61.4466 279.421 61.6173 279.112C61.7986 278.792 61.8893 278.456 61.8893 278.104V273.832C61.8893 273.715 61.9426 273.619 62.0493 273.544C62.1559 273.469 62.2786 273.432 62.4173 273.432C62.5773 273.432 62.6999 273.469 62.7853 273.544C62.8813 273.619 62.9293 273.715 62.9293 273.832V278.104C62.9293 278.648 62.7906 279.149 62.5133 279.608C62.2466 280.056 61.8786 280.419 61.4093 280.696C60.9506 280.973 60.4493 281.112 59.9053 281.112ZM65.6987 271.192C65.5067 271.192 65.3361 271.128 65.1867 271C65.0481 270.861 64.9787 270.701 64.9787 270.52C64.9787 270.339 65.0481 270.184 65.1867 270.056C65.3361 269.928 65.5067 269.864 65.6987 269.864C65.8907 269.864 66.0561 269.928 66.1947 270.056C66.3334 270.184 66.4027 270.339 66.4027 270.52C66.4027 270.701 66.3334 270.861 66.1947 271C66.0561 271.128 65.8907 271.192 65.6987 271.192ZM65.6827 281C65.5441 281 65.4214 280.957 65.3147 280.872C65.2187 280.787 65.1707 280.691 65.1707 280.584V273.832C65.1707 273.704 65.2187 273.608 65.3147 273.544C65.4214 273.469 65.5441 273.432 65.6827 273.432C65.8321 273.432 65.9547 273.469 66.0507 273.544C66.1574 273.608 66.2107 273.704 66.2107 273.832V280.584C66.2107 280.691 66.1574 280.787 66.0507 280.872C65.9547 280.957 65.8321 281 65.6827 281ZM69.178 281C69.0393 281 68.9167 280.957 68.81 280.872C68.714 280.787 68.666 280.691 68.666 280.584V269.192C68.666 269.064 68.714 268.968 68.81 268.904C68.9167 268.829 69.0393 268.792 69.178 268.792C69.3273 268.792 69.45 268.829 69.546 268.904C69.6527 268.968 69.706 269.064 69.706 269.192V280.584C69.706 280.691 69.6527 280.787 69.546 280.872C69.45 280.957 69.3273 281 69.178 281ZM72.8261 281C72.6875 281 72.5648 280.957 72.4581 280.872C72.3621 280.787 72.3141 280.691 72.3141 280.584V269.192C72.3141 269.064 72.3621 268.968 72.4581 268.904C72.5648 268.829 72.6875 268.792 72.8261 268.792C72.9755 268.792 73.0981 268.829 73.1941 268.904C73.3008 268.968 73.3541 269.064 73.3541 269.192V280.584C73.3541 280.691 73.3008 280.787 73.1941 280.872C73.0981 280.957 72.9755 281 72.8261 281ZM78.9862 281.112C78.3142 281.112 77.7169 280.984 77.1942 280.728C76.6822 280.472 76.2769 280.12 75.9782 279.672C75.6902 279.213 75.5462 278.68 75.5462 278.072V276.296C75.5462 275.763 75.6849 275.272 75.9622 274.824C76.2396 274.365 76.6076 274.003 77.0662 273.736C77.5356 273.469 78.0476 273.336 78.6022 273.336C79.1356 273.336 79.6262 273.464 80.0742 273.72C80.5329 273.965 80.9009 274.307 81.1782 274.744C81.4556 275.181 81.5942 275.688 81.5942 276.264C81.5942 276.669 81.5249 276.963 81.3862 277.144C81.2476 277.325 81.0716 277.437 80.8582 277.48C80.6556 277.512 80.4369 277.528 80.2022 277.528H76.5862V278.12C76.5862 278.76 76.8156 279.267 77.2742 279.64C77.7329 280.013 78.3142 280.2 79.0182 280.2C79.4449 280.2 79.7756 280.147 80.0102 280.04C80.2449 279.933 80.4262 279.827 80.5542 279.72C80.6929 279.613 80.8209 279.56 80.9382 279.56C81.0236 279.56 81.0982 279.592 81.1622 279.656C81.2369 279.709 81.2902 279.773 81.3222 279.848C81.3649 279.923 81.3862 279.992 81.3862 280.056C81.3862 280.173 81.2902 280.317 81.0982 280.488C80.9062 280.659 80.6289 280.808 80.2662 280.936C79.9036 281.053 79.4769 281.112 78.9862 281.112ZM76.5862 276.76H79.7862C80.1062 276.76 80.3196 276.728 80.4262 276.664C80.5329 276.589 80.5862 276.44 80.5862 276.216C80.5862 275.875 80.5009 275.555 80.3302 275.256C80.1596 274.947 79.9249 274.696 79.6262 274.504C79.3276 274.301 78.9809 274.2 78.5862 274.2C78.2236 274.2 77.8876 274.291 77.5782 274.472C77.2796 274.653 77.0396 274.888 76.8582 275.176C76.6769 275.464 76.5862 275.789 76.5862 276.152V276.76ZM77.9142 271.56C77.8076 271.56 77.7116 271.512 77.6262 271.416C77.5409 271.32 77.4982 271.219 77.4982 271.112C77.4982 270.963 77.5569 270.861 77.6742 270.808L79.4662 269.832C79.5196 269.8 79.5622 269.784 79.5942 269.784C79.7116 269.784 79.8022 269.832 79.8662 269.928C79.9409 270.024 79.9782 270.131 79.9782 270.248C79.9782 270.408 79.9142 270.525 79.7862 270.6L78.0742 271.496C78.0529 271.507 78.0262 271.523 77.9942 271.544C77.9622 271.555 77.9356 271.56 77.9142 271.56Z" fill="#1A1400"/>
<path d="M112.744 219C112.605 219 112.483 218.968 112.376 218.904C112.269 218.829 112.216 218.723 112.216 218.584V207.704C112.216 207.555 112.269 207.453 112.376 207.4C112.483 207.336 112.605 207.304 112.744 207.304C112.872 207.304 112.984 207.341 113.08 207.416C113.176 207.48 113.267 207.571 113.352 207.688C113.437 207.795 113.512 207.917 113.576 208.056L117.896 216.552V207.704C117.896 207.565 117.949 207.464 118.056 207.4C118.163 207.336 118.285 207.304 118.424 207.304C118.552 207.304 118.669 207.336 118.776 207.4C118.893 207.464 118.952 207.565 118.952 207.704V218.584C118.952 218.723 118.893 218.829 118.776 218.904C118.669 218.968 118.552 219 118.424 219C118.275 219 118.136 218.941 118.008 218.824C117.891 218.696 117.795 218.552 117.72 218.392L113.272 209.736V218.584C113.272 218.723 113.213 218.829 113.096 218.904C112.989 218.968 112.872 219 112.744 219ZM124.589 219.112C123.917 219.112 123.32 218.984 122.797 218.728C122.285 218.472 121.88 218.12 121.581 217.672C121.293 217.213 121.149 216.68 121.149 216.072V214.296C121.149 213.763 121.288 213.272 121.565 212.824C121.843 212.365 122.211 212.003 122.669 211.736C123.139 211.469 123.651 211.336 124.205 211.336C124.739 211.336 125.229 211.464 125.677 211.72C126.136 211.965 126.504 212.307 126.781 212.744C127.059 213.181 127.197 213.688 127.197 214.264C127.197 214.669 127.128 214.963 126.989 215.144C126.851 215.325 126.675 215.437 126.461 215.48C126.259 215.512 126.04 215.528 125.805 215.528H122.189V216.12C122.189 216.76 122.419 217.267 122.877 217.64C123.336 218.013 123.917 218.2 124.621 218.2C125.048 218.2 125.379 218.147 125.613 218.04C125.848 217.933 126.029 217.827 126.157 217.72C126.296 217.613 126.424 217.56 126.541 217.56C126.627 217.56 126.701 217.592 126.765 217.656C126.84 217.709 126.893 217.773 126.925 217.848C126.968 217.923 126.989 217.992 126.989 218.056C126.989 218.173 126.893 218.317 126.701 218.488C126.509 218.659 126.232 218.808 125.869 218.936C125.507 219.053 125.08 219.112 124.589 219.112ZM122.189 214.76H125.389C125.709 214.76 125.923 214.728 126.029 214.664C126.136 214.589 126.189 214.44 126.189 214.216C126.189 213.875 126.104 213.555 125.933 213.256C125.763 212.947 125.528 212.696 125.229 212.504C124.931 212.301 124.584 212.2 124.189 212.2C123.827 212.2 123.491 212.291 123.181 212.472C122.883 212.653 122.643 212.888 122.461 213.176C122.28 213.464 122.189 213.789 122.189 214.152V214.76ZM132.061 219.112C131.496 219.112 130.979 218.973 130.509 218.696C130.051 218.419 129.683 218.051 129.405 217.592C129.139 217.123 129.005 216.627 129.005 216.104V211.848C129.005 211.741 129.059 211.645 129.165 211.56C129.272 211.475 129.395 211.432 129.533 211.432C129.672 211.432 129.789 211.475 129.885 211.56C129.992 211.645 130.045 211.741 130.045 211.848V216.104C130.045 216.456 130.136 216.787 130.317 217.096C130.499 217.405 130.739 217.661 131.037 217.864C131.336 218.056 131.672 218.152 132.045 218.152C132.429 218.152 132.771 218.056 133.069 217.864C133.368 217.672 133.603 217.421 133.773 217.112C133.955 216.792 134.045 216.456 134.045 216.104V211.832C134.045 211.715 134.099 211.619 134.205 211.544C134.312 211.469 134.435 211.432 134.573 211.432C134.733 211.432 134.856 211.469 134.941 211.544C135.037 211.619 135.085 211.715 135.085 211.832V216.104C135.085 216.648 134.947 217.149 134.669 217.608C134.403 218.056 134.035 218.419 133.565 218.696C133.107 218.973 132.605 219.112 132.061 219.112ZM139.695 219.128C139.578 219.128 139.476 219.107 139.391 219.064C139.306 219.021 139.247 218.957 139.215 218.872L136.639 212.12C136.618 212.099 136.596 212.061 136.575 212.008C136.564 211.955 136.559 211.912 136.559 211.88C136.559 211.795 136.591 211.715 136.655 211.64C136.73 211.565 136.815 211.507 136.911 211.464C137.018 211.421 137.114 211.4 137.199 211.4C137.284 211.4 137.359 211.421 137.423 211.464C137.498 211.496 137.551 211.555 137.583 211.64L139.695 217.4L141.807 211.704C141.828 211.619 141.866 211.549 141.919 211.496C141.972 211.432 142.058 211.4 142.175 211.4C142.26 211.4 142.351 211.421 142.447 211.464C142.543 211.507 142.628 211.565 142.703 211.64C142.778 211.704 142.815 211.784 142.815 211.88C142.815 211.923 142.81 211.971 142.799 212.024C142.788 212.067 142.772 212.099 142.751 212.12L140.175 218.872C140.143 218.947 140.079 219.005 139.983 219.048C139.898 219.101 139.802 219.128 139.695 219.128ZM144.894 209.192C144.702 209.192 144.531 209.128 144.382 209C144.243 208.861 144.174 208.701 144.174 208.52C144.174 208.339 144.243 208.184 144.382 208.056C144.531 207.928 144.702 207.864 144.894 207.864C145.086 207.864 145.251 207.928 145.39 208.056C145.528 208.184 145.598 208.339 145.598 208.52C145.598 208.701 145.528 208.861 145.39 209C145.251 209.128 145.086 209.192 144.894 209.192ZM144.878 219C144.739 219 144.616 218.957 144.51 218.872C144.414 218.787 144.366 218.691 144.366 218.584V211.832C144.366 211.704 144.414 211.608 144.51 211.544C144.616 211.469 144.739 211.432 144.878 211.432C145.027 211.432 145.15 211.469 145.246 211.544C145.352 211.608 145.406 211.704 145.406 211.832V218.584C145.406 218.691 145.352 218.787 145.246 218.872C145.15 218.957 145.027 219 144.878 219ZM148.373 219C148.234 219 148.112 218.957 148.005 218.872C147.909 218.787 147.861 218.691 147.861 218.584V207.192C147.861 207.064 147.909 206.968 148.005 206.904C148.112 206.829 148.234 206.792 148.373 206.792C148.522 206.792 148.645 206.829 148.741 206.904C148.848 206.968 148.901 207.064 148.901 207.192V218.584C148.901 218.691 148.848 218.787 148.741 218.872C148.645 218.957 148.522 219 148.373 219ZM152.021 219C151.882 219 151.76 218.957 151.653 218.872C151.557 218.787 151.509 218.691 151.509 218.584V207.192C151.509 207.064 151.557 206.968 151.653 206.904C151.76 206.829 151.882 206.792 152.021 206.792C152.17 206.792 152.293 206.829 152.389 206.904C152.496 206.968 152.549 207.064 152.549 207.192V218.584C152.549 218.691 152.496 218.787 152.389 218.872C152.293 218.957 152.17 219 152.021 219ZM158.181 219.112C157.509 219.112 156.912 218.984 156.389 218.728C155.877 218.472 155.472 218.12 155.173 217.672C154.885 217.213 154.741 216.68 154.741 216.072V214.296C154.741 213.763 154.88 213.272 155.157 212.824C155.435 212.365 155.803 212.003 156.261 211.736C156.731 211.469 157.243 211.336 157.797 211.336C158.331 211.336 158.821 211.464 159.269 211.72C159.728 211.965 160.096 212.307 160.373 212.744C160.651 213.181 160.789 213.688 160.789 214.264C160.789 214.669 160.72 214.963 160.581 215.144C160.443 215.325 160.267 215.437 160.053 215.48C159.851 215.512 159.632 215.528 159.397 215.528H155.781V216.12C155.781 216.76 156.011 217.267 156.469 217.64C156.928 218.013 157.509 218.2 158.213 218.2C158.64 218.2 158.971 218.147 159.205 218.04C159.44 217.933 159.621 217.827 159.749 217.72C159.888 217.613 160.016 217.56 160.133 217.56C160.219 217.56 160.293 217.592 160.357 217.656C160.432 217.709 160.485 217.773 160.517 217.848C160.56 217.923 160.581 217.992 160.581 218.056C160.581 218.173 160.485 218.317 160.293 218.488C160.101 218.659 159.824 218.808 159.461 218.936C159.099 219.053 158.672 219.112 158.181 219.112ZM155.781 214.76H158.981C159.301 214.76 159.515 214.728 159.621 214.664C159.728 214.589 159.781 214.44 159.781 214.216C159.781 213.875 159.696 213.555 159.525 213.256C159.355 212.947 159.12 212.696 158.821 212.504C158.523 212.301 158.176 212.2 157.781 212.2C157.419 212.2 157.083 212.291 156.773 212.472C156.475 212.653 156.235 212.888 156.053 213.176C155.872 213.464 155.781 213.789 155.781 214.152V214.76Z" fill="#1A1400"/>
<path d="M98.8287 81C98.7074 81 98.6 80.972 98.5067 80.916C98.4134 80.8507 98.3667 80.7573 98.3667 80.636V71.214C98.3667 71.046 98.4134 70.9293 98.5067 70.864C98.6 70.7987 98.7074 70.766 98.8287 70.766C98.9407 70.766 99.0387 70.7987 99.1227 70.864C99.216 70.92 99.3 70.9993 99.3747 71.102C99.4494 71.1953 99.5147 71.3027 99.5707 71.424L101.979 76.058L104.373 71.424C104.447 71.3027 104.517 71.1953 104.583 71.102C104.657 70.9993 104.741 70.92 104.835 70.864C104.928 70.7987 105.026 70.766 105.129 70.766C105.259 70.766 105.367 70.7987 105.451 70.864C105.544 70.9293 105.591 71.046 105.591 71.214V80.636C105.591 80.7573 105.544 80.8507 105.451 80.916C105.357 80.972 105.25 81 105.129 81C105.017 81 104.909 80.972 104.807 80.916C104.713 80.8507 104.667 80.7573 104.667 80.636V72.768L102.343 77.164C102.287 77.276 102.226 77.3553 102.161 77.402C102.095 77.4487 102.03 77.472 101.965 77.472C101.909 77.472 101.848 77.4487 101.783 77.402C101.717 77.3553 101.652 77.276 101.587 77.164L99.2907 72.74V80.636C99.2907 80.7573 99.2394 80.8507 99.1367 80.916C99.0434 80.972 98.9407 81 98.8287 81ZM109.946 81C109.227 81 108.676 80.8367 108.294 80.51C107.911 80.1833 107.72 79.6607 107.72 78.942V71.578C107.72 71.466 107.766 71.382 107.86 71.326C107.962 71.2607 108.065 71.228 108.168 71.228C108.289 71.228 108.396 71.2607 108.49 71.326C108.583 71.382 108.63 71.466 108.63 71.578V74.378H110.45C110.543 74.378 110.618 74.4153 110.674 74.49C110.73 74.5647 110.758 74.6533 110.758 74.756C110.758 74.8587 110.73 74.9473 110.674 75.022C110.618 75.0967 110.543 75.134 110.45 75.134H108.63V78.942C108.63 79.3993 108.728 79.7213 108.924 79.908C109.12 80.0853 109.46 80.174 109.946 80.174H110.338C110.468 80.174 110.566 80.216 110.632 80.3C110.706 80.3747 110.744 80.468 110.744 80.58C110.744 80.692 110.706 80.79 110.632 80.874C110.566 80.958 110.468 81 110.338 81H109.946ZM113.962 81.098C113.524 81.098 113.136 81.042 112.8 80.93C112.474 80.818 112.217 80.6873 112.03 80.538C111.853 80.3793 111.764 80.23 111.764 80.09C111.764 80.0247 111.778 79.964 111.806 79.908C111.834 79.8427 111.872 79.7867 111.918 79.74C111.974 79.6933 112.03 79.67 112.086 79.67C112.189 79.67 112.301 79.726 112.422 79.838C112.553 79.9407 112.73 80.048 112.954 80.16C113.188 80.272 113.514 80.328 113.934 80.328C114.466 80.328 114.84 80.23 115.054 80.034C115.269 79.8287 115.376 79.5953 115.376 79.334C115.376 79.026 115.292 78.788 115.124 78.62C114.966 78.4427 114.751 78.3073 114.48 78.214C114.219 78.1207 113.939 78.032 113.64 77.948C113.351 77.864 113.071 77.7613 112.8 77.64C112.539 77.5187 112.324 77.346 112.156 77.122C111.998 76.8887 111.918 76.5807 111.918 76.198C111.918 75.8993 111.993 75.6053 112.142 75.316C112.292 75.0267 112.525 74.784 112.842 74.588C113.169 74.392 113.598 74.294 114.13 74.294C114.438 74.294 114.737 74.3267 115.026 74.392C115.316 74.4573 115.549 74.546 115.726 74.658C115.913 74.7607 116.006 74.8727 116.006 74.994C116.006 75.0313 115.988 75.092 115.95 75.176C115.922 75.2507 115.88 75.316 115.824 75.372C115.768 75.428 115.703 75.456 115.628 75.456C115.554 75.456 115.451 75.4233 115.32 75.358C115.199 75.2927 115.04 75.2273 114.844 75.162C114.648 75.0967 114.415 75.064 114.144 75.064C113.808 75.064 113.538 75.1247 113.332 75.246C113.127 75.3673 112.978 75.512 112.884 75.68C112.791 75.848 112.744 76.0113 112.744 76.17C112.744 76.4313 112.828 76.632 112.996 76.772C113.164 76.912 113.379 77.0287 113.64 77.122C113.911 77.206 114.191 77.29 114.48 77.374C114.779 77.4487 115.059 77.556 115.32 77.696C115.591 77.836 115.806 78.032 115.964 78.284C116.132 78.536 116.216 78.872 116.216 79.292C116.216 79.8427 116.02 80.2813 115.628 80.608C115.236 80.9347 114.681 81.098 113.962 81.098ZM122.739 81.098C122.301 81.098 121.913 81.042 121.577 80.93C121.251 80.818 120.994 80.6873 120.807 80.538C120.63 80.3793 120.541 80.23 120.541 80.09C120.541 80.0247 120.555 79.964 120.583 79.908C120.611 79.8427 120.649 79.7867 120.695 79.74C120.751 79.6933 120.807 79.67 120.863 79.67C120.966 79.67 121.078 79.726 121.199 79.838C121.33 79.9407 121.507 80.048 121.731 80.16C121.965 80.272 122.291 80.328 122.711 80.328C123.243 80.328 123.617 80.23 123.831 80.034C124.046 79.8287 124.153 79.5953 124.153 79.334C124.153 79.026 124.069 78.788 123.901 78.62C123.743 78.4427 123.528 78.3073 123.257 78.214C122.996 78.1207 122.716 78.032 122.417 77.948C122.128 77.864 121.848 77.7613 121.577 77.64C121.316 77.5187 121.101 77.346 120.933 77.122C120.775 76.8887 120.695 76.5807 120.695 76.198C120.695 75.8993 120.77 75.6053 120.919 75.316C121.069 75.0267 121.302 74.784 121.619 74.588C121.946 74.392 122.375 74.294 122.907 74.294C123.215 74.294 123.514 74.3267 123.803 74.392C124.093 74.4573 124.326 74.546 124.503 74.658C124.69 74.7607 124.783 74.8727 124.783 74.994C124.783 75.0313 124.765 75.092 124.727 75.176C124.699 75.2507 124.657 75.316 124.601 75.372C124.545 75.428 124.48 75.456 124.405 75.456C124.331 75.456 124.228 75.4233 124.097 75.358C123.976 75.2927 123.817 75.2273 123.621 75.162C123.425 75.0967 123.192 75.064 122.921 75.064C122.585 75.064 122.315 75.1247 122.109 75.246C121.904 75.3673 121.755 75.512 121.661 75.68C121.568 75.848 121.521 76.0113 121.521 76.17C121.521 76.4313 121.605 76.632 121.773 76.772C121.941 76.912 122.156 77.0287 122.417 77.122C122.688 77.206 122.968 77.29 123.257 77.374C123.556 77.4487 123.836 77.556 124.097 77.696C124.368 77.836 124.583 78.032 124.741 78.284C124.909 78.536 124.993 78.872 124.993 79.292C124.993 79.8427 124.797 80.2813 124.405 80.608C124.013 80.9347 123.458 81.098 122.739 81.098ZM129.245 81.098C128.751 81.098 128.298 80.9767 127.887 80.734C127.486 80.4913 127.164 80.1693 126.921 79.768C126.688 79.3573 126.571 78.9233 126.571 78.466V74.742C126.571 74.6487 126.618 74.5647 126.711 74.49C126.805 74.4153 126.912 74.378 127.033 74.378C127.155 74.378 127.257 74.4153 127.341 74.49C127.435 74.5647 127.481 74.6487 127.481 74.742V78.466C127.481 78.774 127.561 79.0633 127.719 79.334C127.878 79.6047 128.088 79.8287 128.349 80.006C128.611 80.174 128.905 80.258 129.231 80.258C129.567 80.258 129.866 80.174 130.127 80.006C130.389 79.838 130.594 79.6187 130.743 79.348C130.902 79.068 130.981 78.774 130.981 78.466V74.728C130.981 74.6253 131.028 74.5413 131.121 74.476C131.215 74.4107 131.322 74.378 131.443 74.378C131.583 74.378 131.691 74.4107 131.765 74.476C131.849 74.5413 131.891 74.6253 131.891 74.728V78.466C131.891 78.942 131.77 79.3807 131.527 79.782C131.294 80.174 130.972 80.4913 130.561 80.734C130.16 80.9767 129.721 81.098 129.245 81.098ZM134.301 81C134.179 81 134.072 80.9627 133.979 80.888C133.895 80.8133 133.853 80.7293 133.853 80.636V74.728C133.853 74.616 133.895 74.532 133.979 74.476C134.072 74.4107 134.179 74.378 134.301 74.378C134.422 74.378 134.525 74.4107 134.609 74.476C134.693 74.532 134.735 74.616 134.735 74.728V75.414C134.837 75.218 134.977 75.036 135.155 74.868C135.332 74.7 135.542 74.5647 135.785 74.462C136.027 74.35 136.303 74.294 136.611 74.294H137.101C137.203 74.294 137.287 74.336 137.353 74.42C137.427 74.504 137.465 74.602 137.465 74.714C137.465 74.8353 137.427 74.938 137.353 75.022C137.287 75.0967 137.203 75.134 137.101 75.134H136.611C136.303 75.134 136.004 75.218 135.715 75.386C135.435 75.554 135.206 75.7873 135.029 76.086C134.851 76.3847 134.763 76.7487 134.763 77.178V80.636C134.763 80.7293 134.716 80.8133 134.623 80.888C134.539 80.9627 134.431 81 134.301 81ZM144.832 81.084C144.291 81.084 143.801 80.986 143.362 80.79C142.924 80.594 142.574 80.2767 142.312 79.838C142.051 79.3993 141.92 78.816 141.92 78.088V73.762C141.92 73.034 142.051 72.4507 142.312 72.012C142.574 71.5733 142.919 71.256 143.348 71.06C143.787 70.864 144.277 70.766 144.818 70.766C145.416 70.766 145.934 70.8733 146.372 71.088C146.811 71.2933 147.152 71.578 147.394 71.942C147.637 72.306 147.758 72.726 147.758 73.202C147.758 73.37 147.716 73.4913 147.632 73.566C147.548 73.6313 147.436 73.664 147.296 73.664C147.166 73.664 147.054 73.636 146.96 73.58C146.876 73.524 146.83 73.4353 146.82 73.314C146.783 72.9593 146.685 72.656 146.526 72.404C146.368 72.152 146.148 71.9607 145.868 71.83C145.588 71.69 145.243 71.62 144.832 71.62C144.207 71.62 143.722 71.7973 143.376 72.152C143.031 72.4973 142.858 73.034 142.858 73.762V78.088C142.858 78.816 143.031 79.3573 143.376 79.712C143.722 80.0573 144.207 80.23 144.832 80.23C145.458 80.23 145.943 80.0573 146.288 79.712C146.643 79.3573 146.82 78.816 146.82 78.088V76.422H144.958C144.846 76.422 144.758 76.3847 144.692 76.31C144.636 76.226 144.608 76.1327 144.608 76.03C144.608 75.9273 144.636 75.834 144.692 75.75C144.758 75.666 144.846 75.624 144.958 75.624H147.408C147.52 75.624 147.604 75.6613 147.66 75.736C147.726 75.8107 147.758 75.8993 147.758 76.002V78.088C147.758 78.816 147.628 79.3993 147.366 79.838C147.105 80.2767 146.755 80.594 146.316 80.79C145.878 80.986 145.383 81.084 144.832 81.084ZM152.268 81.098C151.773 81.098 151.32 80.9767 150.91 80.734C150.508 80.4913 150.186 80.1693 149.944 79.768C149.71 79.3573 149.594 78.9233 149.594 78.466V74.742C149.594 74.6487 149.64 74.5647 149.734 74.49C149.827 74.4153 149.934 74.378 150.056 74.378C150.177 74.378 150.28 74.4153 150.364 74.49C150.457 74.5647 150.504 74.6487 150.504 74.742V78.466C150.504 78.774 150.583 79.0633 150.742 79.334C150.9 79.6047 151.11 79.8287 151.372 80.006C151.633 80.174 151.927 80.258 152.254 80.258C152.59 80.258 152.888 80.174 153.15 80.006C153.411 79.838 153.616 79.6187 153.766 79.348C153.924 79.068 154.004 78.774 154.004 78.466V74.728C154.004 74.6253 154.05 74.5413 154.144 74.476C154.237 74.4107 154.344 74.378 154.466 74.378C154.606 74.378 154.713 74.4107 154.788 74.476C154.872 74.5413 154.914 74.6253 154.914 74.728V78.466C154.914 78.942 154.792 79.3807 154.55 79.782C154.316 80.174 153.994 80.4913 153.584 80.734C153.182 80.9767 152.744 81.098 152.268 81.098ZM159.647 81.098C159.059 81.098 158.536 80.986 158.079 80.762C157.631 80.538 157.276 80.23 157.015 79.838C156.763 79.4367 156.637 78.97 156.637 78.438V76.884C156.637 76.4173 156.758 75.988 157.001 75.596C157.244 75.1947 157.566 74.8773 157.967 74.644C158.378 74.4107 158.826 74.294 159.311 74.294C159.778 74.294 160.207 74.406 160.599 74.63C161 74.8447 161.322 75.1433 161.565 75.526C161.808 75.9087 161.929 76.352 161.929 76.856C161.929 77.2107 161.868 77.4673 161.747 77.626C161.626 77.7847 161.472 77.8827 161.285 77.92C161.108 77.948 160.916 77.962 160.711 77.962H157.547V78.48C157.547 79.04 157.748 79.4833 158.149 79.81C158.55 80.1367 159.059 80.3 159.675 80.3C160.048 80.3 160.338 80.2533 160.543 80.16C160.748 80.0667 160.907 79.9733 161.019 79.88C161.14 79.7867 161.252 79.74 161.355 79.74C161.43 79.74 161.495 79.768 161.551 79.824C161.616 79.8707 161.663 79.9267 161.691 79.992C161.728 80.0573 161.747 80.118 161.747 80.174C161.747 80.2767 161.663 80.4027 161.495 80.552C161.327 80.7013 161.084 80.832 160.767 80.944C160.45 81.0467 160.076 81.098 159.647 81.098ZM157.547 77.29H160.347C160.627 77.29 160.814 77.262 160.907 77.206C161 77.1407 161.047 77.01 161.047 76.814C161.047 76.5153 160.972 76.2353 160.823 75.974C160.674 75.7033 160.468 75.484 160.207 75.316C159.946 75.1387 159.642 75.05 159.297 75.05C158.98 75.05 158.686 75.1293 158.415 75.288C158.154 75.4467 157.944 75.652 157.785 75.904C157.626 76.156 157.547 76.4407 157.547 76.758V77.29ZM165.373 81.098C164.934 81.098 164.547 81.042 164.211 80.93C163.884 80.818 163.628 80.6873 163.441 80.538C163.264 80.3793 163.175 80.23 163.175 80.09C163.175 80.0247 163.189 79.964 163.217 79.908C163.245 79.8427 163.282 79.7867 163.329 79.74C163.385 79.6933 163.441 79.67 163.497 79.67C163.6 79.67 163.712 79.726 163.833 79.838C163.964 79.9407 164.141 80.048 164.365 80.16C164.598 80.272 164.925 80.328 165.345 80.328C165.877 80.328 166.25 80.23 166.465 80.034C166.68 79.8287 166.787 79.5953 166.787 79.334C166.787 79.026 166.703 78.788 166.535 78.62C166.376 78.4427 166.162 78.3073 165.891 78.214C165.63 78.1207 165.35 78.032 165.051 77.948C164.762 77.864 164.482 77.7613 164.211 77.64C163.95 77.5187 163.735 77.346 163.567 77.122C163.408 76.8887 163.329 76.5807 163.329 76.198C163.329 75.8993 163.404 75.6053 163.553 75.316C163.702 75.0267 163.936 74.784 164.253 74.588C164.58 74.392 165.009 74.294 165.541 74.294C165.849 74.294 166.148 74.3267 166.437 74.392C166.726 74.4573 166.96 74.546 167.137 74.658C167.324 74.7607 167.417 74.8727 167.417 74.994C167.417 75.0313 167.398 75.092 167.361 75.176C167.333 75.2507 167.291 75.316 167.235 75.372C167.179 75.428 167.114 75.456 167.039 75.456C166.964 75.456 166.862 75.4233 166.731 75.358C166.61 75.2927 166.451 75.2273 166.255 75.162C166.059 75.0967 165.826 75.064 165.555 75.064C165.219 75.064 164.948 75.1247 164.743 75.246C164.538 75.3673 164.388 75.512 164.295 75.68C164.202 75.848 164.155 76.0113 164.155 76.17C164.155 76.4313 164.239 76.632 164.407 76.772C164.575 76.912 164.79 77.0287 165.051 77.122C165.322 77.206 165.602 77.29 165.891 77.374C166.19 77.4487 166.47 77.556 166.731 77.696C167.002 77.836 167.216 78.032 167.375 78.284C167.543 78.536 167.627 78.872 167.627 79.292C167.627 79.8427 167.431 80.2813 167.039 80.608C166.647 80.9347 166.092 81.098 165.373 81.098ZM169.709 81C169.588 81 169.48 80.9627 169.387 80.888C169.303 80.8133 169.261 80.7293 169.261 80.636V74.728C169.261 74.616 169.303 74.532 169.387 74.476C169.48 74.4107 169.588 74.378 169.709 74.378C169.83 74.378 169.933 74.4107 170.017 74.476C170.101 74.532 170.143 74.616 170.143 74.728V75.358C170.292 75.0873 170.526 74.8447 170.843 74.63C171.16 74.406 171.552 74.294 172.019 74.294C172.467 74.294 172.878 74.4153 173.251 74.658C173.634 74.8913 173.937 75.2087 174.161 75.61C174.385 76.002 174.497 76.4407 174.497 76.926V80.636C174.497 80.7573 174.45 80.8507 174.357 80.916C174.264 80.972 174.156 81 174.035 81C173.932 81 173.83 80.972 173.727 80.916C173.634 80.8507 173.587 80.7573 173.587 80.636V76.926C173.587 76.618 173.508 76.3287 173.349 76.058C173.19 75.7873 172.98 75.568 172.719 75.4C172.458 75.2227 172.168 75.134 171.851 75.134C171.571 75.134 171.3 75.2087 171.039 75.358C170.787 75.498 170.577 75.6987 170.409 75.96C170.25 76.2213 170.171 76.5433 170.171 76.926V80.636C170.171 80.7293 170.124 80.8133 170.031 80.888C169.947 80.9627 169.84 81 169.709 81ZM179.231 81.098C178.643 81.098 178.12 80.986 177.663 80.762C177.215 80.538 176.86 80.23 176.599 79.838C176.347 79.4367 176.221 78.97 176.221 78.438V76.884C176.221 76.4173 176.342 75.988 176.585 75.596C176.828 75.1947 177.15 74.8773 177.551 74.644C177.962 74.4107 178.41 74.294 178.895 74.294C179.362 74.294 179.791 74.406 180.183 74.63C180.584 74.8447 180.906 75.1433 181.149 75.526C181.392 75.9087 181.513 76.352 181.513 76.856C181.513 77.2107 181.452 77.4673 181.331 77.626C181.21 77.7847 181.056 77.8827 180.869 77.92C180.692 77.948 180.5 77.962 180.295 77.962H177.131V78.48C177.131 79.04 177.332 79.4833 177.733 79.81C178.134 80.1367 178.643 80.3 179.259 80.3C179.632 80.3 179.922 80.2533 180.127 80.16C180.332 80.0667 180.491 79.9733 180.603 79.88C180.724 79.7867 180.836 79.74 180.939 79.74C181.014 79.74 181.079 79.768 181.135 79.824C181.2 79.8707 181.247 79.9267 181.275 79.992C181.312 80.0573 181.331 80.118 181.331 80.174C181.331 80.2767 181.247 80.4027 181.079 80.552C180.911 80.7013 180.668 80.832 180.351 80.944C180.034 81.0467 179.66 81.098 179.231 81.098ZM177.131 77.29H179.931C180.211 77.29 180.398 77.262 180.491 77.206C180.584 77.1407 180.631 77.01 180.631 76.814C180.631 76.5153 180.556 76.2353 180.407 75.974C180.258 75.7033 180.052 75.484 179.791 75.316C179.53 75.1387 179.226 75.05 178.881 75.05C178.564 75.05 178.27 75.1293 177.999 75.288C177.738 75.4467 177.528 75.652 177.369 75.904C177.21 76.156 177.131 76.4407 177.131 76.758V77.29ZM184.957 81.098C184.519 81.098 184.131 81.042 183.795 80.93C183.469 80.818 183.212 80.6873 183.025 80.538C182.848 80.3793 182.759 80.23 182.759 80.09C182.759 80.0247 182.773 79.964 182.801 79.908C182.829 79.8427 182.867 79.7867 182.913 79.74C182.969 79.6933 183.025 79.67 183.081 79.67C183.184 79.67 183.296 79.726 183.417 79.838C183.548 79.9407 183.725 80.048 183.949 80.16C184.183 80.272 184.509 80.328 184.929 80.328C185.461 80.328 185.835 80.23 186.049 80.034C186.264 79.8287 186.371 79.5953 186.371 79.334C186.371 79.026 186.287 78.788 186.119 78.62C185.961 78.4427 185.746 78.3073 185.475 78.214C185.214 78.1207 184.934 78.032 184.635 77.948C184.346 77.864 184.066 77.7613 183.795 77.64C183.534 77.5187 183.319 77.346 183.151 77.122C182.993 76.8887 182.913 76.5807 182.913 76.198C182.913 75.8993 182.988 75.6053 183.137 75.316C183.287 75.0267 183.52 74.784 183.837 74.588C184.164 74.392 184.593 74.294 185.125 74.294C185.433 74.294 185.732 74.3267 186.021 74.392C186.311 74.4573 186.544 74.546 186.721 74.658C186.908 74.7607 187.001 74.8727 187.001 74.994C187.001 75.0313 186.983 75.092 186.945 75.176C186.917 75.2507 186.875 75.316 186.819 75.372C186.763 75.428 186.698 75.456 186.623 75.456C186.549 75.456 186.446 75.4233 186.315 75.358C186.194 75.2927 186.035 75.2273 185.839 75.162C185.643 75.0967 185.41 75.064 185.139 75.064C184.803 75.064 184.533 75.1247 184.327 75.246C184.122 75.3673 183.973 75.512 183.879 75.68C183.786 75.848 183.739 76.0113 183.739 76.17C183.739 76.4313 183.823 76.632 183.991 76.772C184.159 76.912 184.374 77.0287 184.635 77.122C184.906 77.206 185.186 77.29 185.475 77.374C185.774 77.4487 186.054 77.556 186.315 77.696C186.586 77.836 186.801 78.032 186.959 78.284C187.127 78.536 187.211 78.872 187.211 79.292C187.211 79.8427 187.015 80.2813 186.623 80.608C186.231 80.9347 185.676 81.098 184.957 81.098Z" fill="#1A1400"/>
<path d="M20.3456 93C20.2336 93 20.1456 92.972 20.0816 92.916C20.0176 92.86 19.9856 92.788 19.9856 92.7V84.528C19.9856 84.44 20.0176 84.368 20.0816 84.312C20.1456 84.256 20.2336 84.228 20.3456 84.228H22.4696C22.9416 84.228 23.3656 84.312 23.7416 84.48C24.1256 84.648 24.4256 84.92 24.6416 85.296C24.8656 85.672 24.9776 86.172 24.9776 86.796V90.432C24.9776 91.056 24.8656 91.556 24.6416 91.932C24.4256 92.308 24.1256 92.58 23.7416 92.748C23.3656 92.916 22.9416 93 22.4696 93H20.3456ZM20.7776 92.268H22.4696C23.0056 92.268 23.4256 92.12 23.7296 91.824C24.0336 91.528 24.1856 91.064 24.1856 90.432V86.796C24.1856 86.164 24.0336 85.7 23.7296 85.404C23.4256 85.108 23.0056 84.96 22.4696 84.96H20.7776V92.268ZM28.8604 93.072C28.4364 93.072 28.0684 93.012 27.7564 92.892C27.4444 92.764 27.1844 92.604 26.9764 92.412C26.7684 92.22 26.6164 92.008 26.5204 91.776C26.4244 91.544 26.3764 91.316 26.3764 91.092C26.3764 90.924 26.4044 90.812 26.4604 90.756C26.5244 90.7 26.6164 90.672 26.7364 90.672C26.9044 90.672 27.0164 90.704 27.0724 90.768C27.1284 90.824 27.1564 90.904 27.1564 91.008C27.1564 91.136 27.1804 91.28 27.2284 91.44C27.2844 91.592 27.3764 91.736 27.5044 91.872C27.6324 92.008 27.8044 92.12 28.0204 92.208C28.2364 92.296 28.5084 92.34 28.8364 92.34C29.4044 92.34 29.8364 92.196 30.1324 91.908C30.4284 91.612 30.5764 91.156 30.5764 90.54V90.312C30.5764 89.76 30.4204 89.36 30.1084 89.112C29.7964 88.856 29.3804 88.728 28.8604 88.728C28.7564 88.728 28.6804 88.692 28.6324 88.62C28.5844 88.548 28.5604 88.468 28.5604 88.38C28.5604 88.292 28.5844 88.212 28.6324 88.14C28.6804 88.068 28.7564 88.032 28.8604 88.032C29.1724 88.032 29.4404 87.988 29.6644 87.9C29.8964 87.804 30.0684 87.644 30.1804 87.42C30.3004 87.196 30.3604 86.888 30.3604 86.496C30.3604 85.976 30.2444 85.592 30.0124 85.344C29.7804 85.088 29.4124 84.96 28.9084 84.96C28.5964 84.96 28.3364 85 28.1284 85.08C27.9284 85.16 27.7724 85.268 27.6604 85.404C27.5484 85.532 27.4724 85.672 27.4324 85.824C27.3924 85.968 27.3724 86.104 27.3724 86.232C27.3724 86.352 27.3404 86.448 27.2764 86.52C27.2204 86.584 27.1244 86.616 26.9884 86.616C26.8764 86.616 26.7924 86.604 26.7364 86.58C26.6804 86.556 26.6404 86.508 26.6164 86.436C26.5924 86.364 26.5804 86.272 26.5804 86.16C26.5804 85.992 26.6124 85.8 26.6764 85.584C26.7484 85.368 26.8684 85.156 27.0364 84.948C27.2124 84.74 27.4524 84.568 27.7564 84.432C28.0604 84.296 28.4524 84.228 28.9324 84.228C29.3644 84.228 29.7444 84.296 30.0724 84.432C30.4004 84.568 30.6564 84.792 30.8404 85.104C31.0324 85.408 31.1284 85.82 31.1284 86.34C31.1284 86.884 31.0324 87.324 30.8404 87.66C30.6564 87.996 30.4244 88.232 30.1444 88.368C30.4964 88.512 30.7884 88.74 31.0204 89.052C31.2524 89.364 31.3684 89.784 31.3684 90.312V90.54C31.3684 91.156 31.2564 91.648 31.0324 92.016C30.8084 92.384 30.5044 92.652 30.1204 92.82C29.7444 92.988 29.3244 93.072 28.8604 93.072ZM35.9678 93C35.8718 93 35.7798 92.976 35.6918 92.928C35.6118 92.872 35.5718 92.792 35.5718 92.688V90.936H32.5238C32.4278 90.936 32.3518 90.908 32.2958 90.852C32.2398 90.788 32.2118 90.708 32.2118 90.612C32.2118 90.572 32.2158 90.536 32.2238 90.504C32.2318 90.472 32.2438 90.44 32.2598 90.408L35.2718 84.48C35.3118 84.384 35.3638 84.32 35.4278 84.288C35.4998 84.248 35.5718 84.228 35.6438 84.228C35.6998 84.228 35.7558 84.244 35.8118 84.276C35.8758 84.3 35.9278 84.336 35.9678 84.384C36.0078 84.432 36.0278 84.488 36.0278 84.552C36.0278 84.592 36.0158 84.644 35.9918 84.708L33.2318 90.18H35.5718V87.864C35.5718 87.76 35.6118 87.688 35.6918 87.648C35.7798 87.6 35.8718 87.576 35.9678 87.576C36.0718 87.576 36.1638 87.6 36.2438 87.648C36.3238 87.688 36.3638 87.76 36.3638 87.864V90.18H37.0238C37.1278 90.18 37.2038 90.22 37.2518 90.3C37.3078 90.372 37.3358 90.456 37.3358 90.552C37.3358 90.648 37.3038 90.736 37.2398 90.816C37.1838 90.896 37.1118 90.936 37.0238 90.936H36.3638V92.688C36.3638 92.792 36.3238 92.872 36.2438 92.928C36.1638 92.976 36.0718 93 35.9678 93ZM38.7869 93.024C38.7069 93.024 38.6269 93.008 38.5469 92.976C38.4749 92.944 38.4149 92.9 38.3669 92.844C38.3269 92.788 38.3069 92.72 38.3069 92.64C38.3069 92.584 38.3229 92.528 38.3549 92.472L41.9429 85.608V84.96H38.5349V86.34C38.5349 86.42 38.4949 86.492 38.4149 86.556C38.3349 86.62 38.2429 86.652 38.1389 86.652C38.0349 86.652 37.9429 86.62 37.8629 86.556C37.7829 86.492 37.7429 86.42 37.7429 86.34V84.54C37.7429 84.46 37.7789 84.388 37.8509 84.324C37.9309 84.26 38.0149 84.228 38.1029 84.228H42.3629C42.4509 84.228 42.5349 84.26 42.6149 84.324C42.6949 84.388 42.7349 84.46 42.7349 84.54V85.56C42.7349 85.608 42.7229 85.664 42.6989 85.728C42.6829 85.792 42.6549 85.856 42.6149 85.92L39.0509 92.868C39.0029 92.972 38.9149 93.024 38.7869 93.024Z" fill="#1A1400"/>
<path d="M1.52614 255C1.43814 255 1.35414 254.976 1.27414 254.928C1.20214 254.872 1.16614 254.792 1.16614 254.688V246.54C1.16614 246.436 1.20214 246.36 1.27414 246.312C1.35414 246.256 1.43814 246.228 1.52614 246.228H5.79814C5.90214 246.228 5.97814 246.268 6.02614 246.348C6.07414 246.42 6.09814 246.5 6.09814 246.588C6.09814 246.684 6.07014 246.772 6.01414 246.852C5.96614 246.924 5.89414 246.96 5.79814 246.96H1.95814V250.26H3.84214C3.93814 250.26 4.01014 250.296 4.05814 250.368C4.11414 250.44 4.14214 250.524 4.14214 250.62C4.14214 250.7 4.11814 250.776 4.07014 250.848C4.02214 250.92 3.94614 250.956 3.84214 250.956H1.95814V254.268H5.79814C5.89414 254.268 5.96614 254.304 6.01414 254.376C6.07014 254.448 6.09814 254.536 6.09814 254.64C6.09814 254.728 6.07414 254.812 6.02614 254.892C5.97814 254.964 5.90214 255 5.79814 255H1.52614ZM9.79189 255.072C9.32789 255.072 8.90389 254.988 8.51989 254.82C8.14389 254.652 7.84389 254.38 7.61989 254.004C7.39589 253.628 7.28389 253.128 7.28389 252.504V248.796C7.28389 248.172 7.39589 247.672 7.61989 247.296C7.84389 246.92 8.14389 246.648 8.51989 246.48C8.90389 246.312 9.33589 246.228 9.81589 246.228C10.2159 246.228 10.5679 246.284 10.8719 246.396C11.1839 246.508 11.4439 246.664 11.6519 246.864C11.8599 247.064 12.0159 247.284 12.1199 247.524C12.2319 247.764 12.2879 248.016 12.2879 248.28C12.2879 248.408 12.2519 248.504 12.1799 248.568C12.1159 248.624 12.0279 248.652 11.9159 248.652C11.8039 248.652 11.7039 248.628 11.6159 248.58C11.5359 248.524 11.4959 248.436 11.4959 248.316C11.4959 248.036 11.4199 247.796 11.2679 247.596C11.1159 247.396 10.9079 247.24 10.6439 247.128C10.3879 247.016 10.1039 246.96 9.79189 246.96C9.25589 246.96 8.83589 247.108 8.53189 247.404C8.23589 247.7 8.08789 248.164 8.08789 248.796V250.62C8.28789 250.34 8.54389 250.14 8.85589 250.02C9.17589 249.892 9.52389 249.828 9.89989 249.828C10.3399 249.828 10.7399 249.9 11.0999 250.044C11.4599 250.188 11.7479 250.436 11.9639 250.788C12.1799 251.132 12.2879 251.608 12.2879 252.216V252.504C12.2879 253.128 12.1759 253.628 11.9519 254.004C11.7279 254.38 11.4279 254.652 11.0519 254.82C10.6839 254.988 10.2639 255.072 9.79189 255.072ZM9.79189 254.364C10.3279 254.364 10.7439 254.216 11.0399 253.92C11.3359 253.624 11.4839 253.164 11.4839 252.54V252.252C11.4839 251.62 11.3359 251.172 11.0399 250.908C10.7439 250.644 10.3279 250.512 9.79189 250.512C9.27189 250.512 8.85589 250.636 8.54389 250.884C8.23989 251.132 8.08789 251.552 8.08789 252.144V252.54C8.08789 253.164 8.23589 253.624 8.53189 253.92C8.83589 254.216 9.25589 254.364 9.79189 254.364ZM13.8305 255C13.7505 255 13.6665 254.972 13.5785 254.916C13.4985 254.86 13.4585 254.784 13.4585 254.688V253.524C13.4585 253.196 13.5545 252.892 13.7465 252.612C13.9465 252.332 14.1985 252.068 14.5025 251.82C14.8065 251.572 15.1305 251.328 15.4745 251.088C15.8265 250.848 16.1545 250.6 16.4585 250.344C16.7705 250.08 17.0225 249.804 17.2145 249.516C17.4145 249.228 17.5145 248.908 17.5145 248.556C17.5145 248.3 17.4545 248.052 17.3345 247.812C17.2145 247.572 17.0345 247.372 16.7945 247.212C16.5625 247.052 16.2625 246.972 15.8945 246.972C15.4865 246.972 15.1425 247.092 14.8625 247.332C14.5825 247.564 14.4425 247.916 14.4425 248.388C14.4425 248.468 14.4065 248.544 14.3345 248.616C14.2625 248.68 14.1585 248.712 14.0225 248.712C13.9025 248.712 13.8105 248.676 13.7465 248.604C13.6905 248.532 13.6625 248.404 13.6625 248.22C13.6625 247.836 13.7625 247.496 13.9625 247.2C14.1625 246.896 14.4305 246.66 14.7665 246.492C15.1105 246.316 15.4945 246.228 15.9185 246.228C16.3825 246.228 16.7905 246.332 17.1425 246.54C17.5025 246.74 17.7865 247.016 17.9945 247.368C18.2025 247.712 18.3065 248.1 18.3065 248.532C18.3065 248.956 18.2065 249.34 18.0065 249.684C17.8145 250.028 17.5665 250.34 17.2625 250.62C16.9585 250.9 16.6345 251.16 16.2905 251.4C15.9465 251.64 15.6225 251.872 15.3185 252.096C15.0145 252.32 14.7625 252.548 14.5625 252.78C14.3705 253.012 14.2745 253.26 14.2745 253.524V254.268H18.1025C18.1825 254.268 18.2505 254.304 18.3065 254.376C18.3625 254.44 18.3905 254.524 18.3905 254.628C18.3905 254.724 18.3625 254.812 18.3065 254.892C18.2505 254.964 18.1825 255 18.1025 255H13.8305Z" fill="#1A1400"/>
</svg>
