<svg width="228" height="341" viewBox="0 0 228 341" fill="none" xmlns="http://www.w3.org/2000/svg">
<path d="M18.9434 21.4742L19.5937 19.0028L18.7552 16.5375C18.294 15.1817 17.9563 14.0351 18.0046 13.9896C18.5632 13.4644 24.6429 11 25.3799 11C26.1568 11 35.869 14.3059 36.2843 14.7117C36.3412 14.7673 36.1208 15.4802 35.7944 16.2959C35.3479 17.4118 35.0589 17.7227 34.6269 17.5516C34.3111 17.4265 32.1138 16.6182 29.7441 15.7553L25.4354 14.1863L23.8033 14.8859C22.0021 15.658 21.9989 15.6657 22.5784 17.8321C22.9374 19.1745 22.868 19.7683 21.9907 22.8607C21.0003 26.3516 20.9991 26.3696 21.7049 26.9411C22.0948 27.2569 24.5824 28.2282 27.2329 29.0997L32.052 30.6843L33.3261 34.4083C34.0268 36.4566 35.5303 41.6437 36.6671 45.9352C39.6342 57.1361 44.16 71.9544 50.2076 90.2692C53.1062 99.0473 55.8953 107.825 56.4055 109.776C56.9158 111.727 57.9626 115.717 58.7318 118.643C59.5009 121.569 61.1731 126.858 62.4476 130.396C66.2153 140.856 69.3675 151.06 69.8277 154.287C70.2574 157.301 70.2581 157.302 71.3075 157.286C71.8849 157.277 73.109 157.148 74.0277 157L75.698 156.731L76.9092 159.145L78.1204 161.558L77.6395 165.46C77.3749 167.605 76.9345 170.262 76.6607 171.363C76.115 173.557 76.3918 178.416 77.1424 179.818C79.0789 183.437 89.4706 213.071 91.6613 221.222C91.9705 222.373 92.422 222.967 93.6077 223.783C94.4569 224.367 96.8563 226.671 98.9398 228.902C101.023 231.134 104.209 234.178 106.019 235.668C109.533 238.559 109.088 237.924 114.485 247.743C115.45 249.499 117.267 252.984 118.523 255.488C119.778 257.992 122.154 262.412 123.803 265.311C125.451 268.209 126.799 270.731 126.799 270.915C126.799 271.098 126.161 272.204 125.381 273.372C124.091 275.304 123.983 275.641 124.184 277.107C124.375 278.501 124.665 278.943 126.331 280.381C127.391 281.296 129.136 283.212 130.21 284.639L132.163 287.233L134.621 287.672C136.86 288.072 137.332 288.042 139.897 287.339C141.446 286.915 144.87 286.386 147.507 286.165L152.301 285.762L155.776 287.712L159.252 289.663L161.357 289.174C163.377 288.705 163.556 288.723 165.748 289.6C167.004 290.103 168.568 290.924 169.223 291.423C170.611 292.481 173.971 296.889 173.971 297.651C173.971 297.938 173.674 299.036 173.312 300.091C172.906 301.271 172.558 303.644 172.406 306.264C172.162 310.475 172.173 310.565 173.45 314.716C174.16 317.024 174.652 319.002 174.543 319.111C174.433 319.22 171.937 319.03 168.995 318.688C166.053 318.347 163.594 318.125 163.53 318.195C163.466 318.266 162.842 319.466 162.143 320.862C160.748 323.649 160.303 324.043 155.883 326.408C153.738 327.556 152.253 328.095 150.74 328.277C148.81 328.508 148.446 328.695 146.84 330.281C145.065 332.034 139.377 335.525 138.295 335.525C137.783 335.525 136.241 335.168 132.104 334.091C131.14 333.84 130.468 333.244 129.226 331.541C127.851 329.656 127.568 328.978 127.359 327.077L127.113 324.836L129.09 322.389C130.978 320.053 131.086 319.808 131.462 317.005C131.713 315.137 132.49 312.388 133.594 309.456C134.549 306.92 135.822 303.544 136.423 301.954L137.514 299.062L141.227 296.457C144.469 294.18 145.07 293.594 145.977 291.822C146.548 290.706 147.016 289.715 147.016 289.622C147.016 289.261 143.159 289.872 140.277 290.689L137.262 291.543L133.777 290.867C131.86 290.495 130.251 290.136 130.201 290.07C126.656 285.346 125.429 283.89 123.862 282.552L121.961 280.928L112.587 281.136L103.214 281.345L98.4257 279.687C93.2069 277.88 91.7514 277.529 83.5372 276.104C79.7436 275.446 76.7851 274.683 73.9611 273.635C70.3744 272.304 69.2023 272.05 64.3772 271.558C60.2684 271.14 56.4161 270.412 49.1263 268.674C37.0148 265.788 29.7304 264.351 25.3633 263.986C19.4558 262.572 22.0903 260.441 27.1083 260.902C29.6676 261.138 32.9953 261.598 34.5032 261.925C38.3385 262.758 53.3691 266.265 56.5744 267.075C58.0374 267.444 61.7881 267.999 64.9092 268.307C69.9689 268.807 71.0452 269.037 74.84 270.425C77.9858 271.576 80.9856 272.323 86.3395 273.289C91.5971 274.237 95.0003 275.079 98.753 276.36L103.923 278.125L112.347 277.871L120.77 277.617L120.771 275.98C120.772 274.757 121.041 273.941 121.834 272.748C122.417 271.87 122.896 270.988 122.896 270.788C122.897 270.589 121.767 268.434 120.384 266C119.002 263.567 116.832 259.501 115.562 256.965C114.292 254.429 111.801 249.715 110.027 246.49C106.896 240.801 106.712 240.553 103.826 238.155C102.191 236.797 99.085 233.802 96.9245 231.502C94.764 229.201 92.0822 226.677 90.9647 225.893C89.1852 224.645 88.9036 224.284 88.6958 222.985C88.2999 220.508 79.0468 193.236 76.0978 185.853C73.6864 179.816 73.3036 178.552 73.0864 175.905C72.885 173.452 72.9725 172.336 73.5456 170.053C73.9351 168.502 74.3575 166.036 74.4844 164.573C74.8058 160.866 74.5568 160.59 70.8379 160.536C69.2544 160.513 67.8015 160.335 67.6093 160.14C67.417 159.944 67.0773 158.348 66.8543 156.593C66.3308 152.47 63.0609 141.608 58.9 130.17C57.8001 127.146 56.4983 123.076 56.0071 121.126C53.6997 111.963 50.9411 102.739 47.1502 91.5105C44.8781 84.7806 42.1714 76.4015 41.1354 72.8902C40.0994 69.379 38.4311 63.8727 37.4281 60.6541C36.425 57.4354 34.5901 50.9715 33.3505 46.2899C32.1109 41.6082 30.7244 36.7668 30.2693 35.5313L29.442 33.2849L25.1352 31.8892C21.8689 30.8308 20.3908 30.1451 19.0171 29.0514C18.462 28.1309 18.2063 27.2438 18.1762 26.3816L18.9434 21.4742ZM140.686 330.714C141.924 330.019 143.815 328.589 144.888 327.537C146.726 325.735 146.99 325.6 149.467 325.193C151.374 324.88 152.912 324.317 155.074 323.139L158.052 321.515L159.863 318.057C161.012 315.862 161.879 314.604 162.236 314.612C162.545 314.62 164.435 314.827 166.434 315.074C170.5 315.575 170.413 315.63 169.503 313.136C169.041 311.871 168.975 310.666 169.146 306.601C169.267 303.734 169.592 300.824 169.912 299.746L170.468 297.875L169.04 295.983C167.996 294.601 167.058 293.829 165.56 293.117L163.508 292.142L160.857 292.679L158.205 293.215L156.246 291.89C152.455 289.327 150.128 288.445 150.421 289.683C150.502 290.025 149.884 291.574 149.047 293.126C147.625 295.763 147.288 296.119 143.874 298.578C141.866 300.024 140.081 301.547 139.907 301.963C138.288 305.843 134.995 315.5 134.813 316.904C134.26 321.17 134.186 321.375 132.439 323.474C130.325 326.014 130.178 327.249 131.734 329.396C132.593 330.583 133.115 330.914 134.837 331.365C137.834 332.15 138.201 332.11 140.686 330.714Z" fill="#1A1400"/>
<path d="M198.96 65.9581C198.035 65.8589 196.697 65.5202 196.028 65.2162C195.418 64.9388 195.1 64.6199 194.951 64.1342L194.828 63.7314L194.263 63.6199C193.646 63.4982 193.244 63.3122 192.025 62.584C190.937 61.9341 190.939 61.9343 190.442 62.4533C189.983 62.9324 189.741 63.0656 189.065 63.2098C187.173 63.6131 182.359 62.1041 179.765 60.2948C179.439 60.0674 179.107 59.811 179.028 59.7249C178.852 59.5351 178.679 59.137 178.679 58.9215C178.679 58.8344 178.617 58.6851 178.542 58.5896C178.389 58.3939 177.658 57.9465 177.272 57.8123C176.553 57.5621 176.445 56.6845 177.082 56.2811C177.893 55.7683 178.642 54.246 179.23 51.9159C179.369 51.365 179.74 49.4613 179.897 48.4936C179.926 48.3176 180.029 48.1415 180.231 47.925C180.467 47.6721 180.507 47.5971 180.436 47.5378C180.255 47.3874 180.003 46.8215 179.932 46.4059C179.871 46.0525 179.877 45.8903 179.967 45.4823C180.035 45.1671 180.092 44.4721 180.121 43.5687C180.163 42.2938 180.182 42.1221 180.311 41.8751C180.641 41.2394 181.386 41.0451 182.132 41.3998C182.274 41.4676 182.402 41.5231 182.416 41.5231C182.506 41.5231 182.046 40.9908 181.444 40.3995C180.656 39.6241 180.457 39.3091 180.457 38.8368C180.457 38.4497 180.621 38.1593 180.97 37.928L181.225 37.7589L181.198 37.216C181.184 36.9175 181.16 36.6376 181.147 36.5941C181.133 36.5507 180.817 36.3175 180.444 36.0761C180.071 35.8347 179.565 35.4858 179.321 35.3009L178.876 34.9646C177.956 34.1252 178.876 34.9646 177.956 34.1252L177.577 33.7006C176.631 32.6424 176.301 31.6807 176.516 30.6093L176.591 30.2313L176.285 29.6441C176.117 29.3211 175.979 28.9806 175.979 28.8873C175.979 28.794 175.942 28.7076 175.897 28.6952C175.189 28.5021 175.055 28.4389 174.835 28.1943C174.55 27.8781 174.501 27.7046 174.553 27.199C174.593 26.8197 174.589 26.8081 174.402 26.7109C174.296 26.6561 173.993 26.579 173.728 26.5396C173.463 26.5001 173.113 26.4316 172.95 26.3874L172.654 26.307C172.169 25.6619 171.304 25.0596 171.304 25.0596C171.304 25.3486 171.224 25.3551 171.102 25.0761C171.014 24.8768 170.984 24.8612 170.678 24.8557C170.432 24.8513 170.1 24.7455 169.361 24.4354C168.005 23.8664 168.035 23.8727 167.463 24.0336C166.874 24.1993 166.673 24.201 166.326 24.0431C166.023 23.9054 165.85 23.6876 165.682 23.2337C165.611 23.0419 165.48 22.8582 165.336 22.7476C164.639 22.2154 164.697 21.4062 165.461 21.0015C165.632 20.9107 165.772 20.8176 165.772 20.7945C165.773 20.7714 165.564 20.5816 165.309 20.3727C164.107 19.3869 163.773 18.6973 164.143 17.9645C164.569 17.1205 165.718 16.7856 168.209 16.7791C169.024 16.7769 169.822 16.7448 169.983 16.7077C170.143 16.6706 170.588 16.4502 170.97 16.218C171.773 15.731 172.292 15.5567 172.771 15.6135C173.573 15.7087 174.109 16.19 174.821 17.4548L174.997 17.7683L175.429 17.4718C175.87 17.1692 176.375 16.9763 176.726 16.9763C176.834 16.9763 177.212 17.068 177.568 17.1801L178.213 17.3838C179.498 17.7011 179.287 17.7123 179.498 17.7011C179.713 17.7364 179.897 17.7573 179.907 17.7475C179.916 17.7377 179.881 17.5527 179.828 17.3365C179.775 17.1202 179.703 16.3198 179.667 15.5576C179.632 14.7955 179.574 14.0716 179.538 13.9491C179.499 13.8128 179.309 13.5686 179.05 13.3204C178.556 12.8464 178.415 12.4941 178.416 11.7349C178.418 10.832 178.708 9.9907 179.105 9.73435C179.422 9.52973 179.703 9.54747 180.387 9.81547C180.935 10.03 180.986 10.0387 181.16 9.94784C181.262 9.89438 181.472 9.85045 181.628 9.85023C182.394 9.8492 182.784 10.3246 183.129 11.6783L183.25 12.154L183.845 12.1155C184.644 12.064 185.321 12.1996 186.355 12.6181C186.808 12.8013 187.241 12.9512 187.318 12.9512C187.395 12.9512 187.616 12.9011 187.81 12.8398L188.163 12.7285L187.972 12.5264C187.451 11.9755 187.431 11.3128 187.918 10.7334C188.161 10.4448 188.973 10.0565 190.465 9.51547C192.837 8.65546 193.738 8.20659 194.376 7.56616C194.879 7.06077 194.899 6.96136 194.94 4.7689L194.976 2.82232L195.18 2.39028C195.555 1.5973 196.046 1.18737 197.116 0.773385C198.033 0.25829 198.631 0.302732 198.631 0.302732L199.305 0.147328C200.452 -0.116669 200.527 -0.0918768 201.203 0.776751C201.772 1.50779 203.154 2.87471 203.865 3.40937C204.227 3.68152 204.83 4.0361 205.413 4.32042C207.38 5.27932 208.031 5.86946 208.54 7.15237C208.66 7.45564 208.803 7.73161 208.856 7.76562C208.924 7.80826 209.138 7.76177 209.544 7.61596C210.345 7.32894 210.711 7.29093 211.081 7.45624C211.446 7.61907 211.64 7.80466 212.303 8.62909C213.135 9.66311 213.927 10.3802 214.622 10.7289C215.239 11.0383 215.52 11.103 216.817 11.2346C218.129 11.3676 218.928 11.6578 220.353 12.5181C221.232 13.0486 222.13 13.4978 222.599 13.6412C222.823 13.7098 223.479 13.786 224.318 13.841C225.527 13.9203 225.742 13.9525 226.29 14.1366C227.047 14.3907 227.624 14.6929 227.837 14.9468C228.106 15.2665 228.059 15.5366 227.568 16.52C226.564 18.5281 225.839 20.677 225.556 22.4861C225.511 22.7765 225.474 23.5485 225.475 24.2018C225.476 24.855 225.463 25.3301 225.447 25.2576C225.257 26.7208 224.855 27.3169 224.048 27.8081C223.873 27.8982 223.618 27.9657 223.427 27.9722L223.103 27.9832L223.017 28.3179C222.777 29.2579 221.511 31.0851 219.996 32.6765C219.202 33.5103 218.912 33.848 218.912 33.9361C218.912 33.9676 219.186 33.8688 219.521 33.7166C220.075 33.4648 220.178 33.4398 220.662 33.4398C221.138 33.4398 221.227 33.4605 221.512 33.6378C222.258 34.102 222.741 35.3522 222.749 36.8381C222.752 37.4053 222.725 37.6027 222.602 37.9269C222.344 38.6079 222.335 38.5673 222.962 39.5105C223.275 39.9823 223.615 40.5317 223.717 40.7313C224.442 42.1584 224.168 43.3783 222.906 44.3306C222.668 44.5103 222.472 44.6808 222.47 44.7093C222.469 44.7378 222.593 44.8161 222.747 44.8834C223.739 45.3165 224.028 46.0026 223.751 47.2639C223.639 47.7776 223.626 48.647 223.725 49.0125C223.934 49.7771 224.499 50.0583 225.983 50.1364C226.422 50.1595 226.884 50.2088 227.011 50.2459C228.09 50.562 228.307 51.6897 227.534 52.9684C227.122 53.6498 226.438 54.4398 226.038 54.6948C224.936 55.3986 223.77 56.4263 223.213 57.1845C223.051 57.4057 222.758 57.9188 222.564 58.3246C222.16 59.167 221.792 59.5849 221.16 59.9226C220.561 60.2428 220.043 60.3542 219.175 60.35C217.786 60.3434 216.249 59.8901 214.819 59.0651C214.116 58.6598 213.89 58.589 212.524 58.3478C211.757 58.2122 211.109 58.0452 210.318 57.7789C209.248 57.4186 209.169 57.4018 208.508 57.3974C207.558 57.3911 207.273 57.5277 206.338 58.4344C205.676 59.0768 205.615 59.1186 205.042 59.3273C204.665 59.4646 204.352 59.6281 204.202 59.7657C203.564 60.3512 203.45 61.5161 203.837 63.4973C203.979 64.2253 203.981 64.2668 203.872 64.495C203.748 64.7573 203.552 64.8743 202.944 65.0479C202.726 65.11 202.238 65.3086 201.859 65.4893C200.902 65.9454 200.08 66.0783 198.96 65.9581ZM201.103 64.0291C201.427 63.8747 201.798 63.7055 201.928 63.653L202.163 63.5575L202.074 63.0156C202.025 62.7175 201.984 62.0877 201.983 61.6159C201.979 59.5785 202.712 58.405 204.359 57.8157C204.729 57.6832 204.868 57.581 205.383 57.0591C206.089 56.3438 206.755 55.9696 207.608 55.8079C208.616 55.6168 209.253 55.6989 210.845 56.2251C211.505 56.4433 212.22 56.6198 212.999 56.7572C214.32 56.9902 214.795 57.1489 215.685 57.6555C217.408 58.6358 219.323 58.9875 220.331 58.5084C220.655 58.3542 220.921 58.0114 221.177 57.4171C221.296 57.1402 221.537 56.6973 221.712 56.433C222.283 55.5719 223.602 54.344 224.889 53.4748C225.31 53.1903 225.874 52.567 226.14 52.0925L226.288 51.8284L225.777 51.7906C223.97 51.657 222.915 51.1169 222.375 50.0476C222.01 49.327 221.905 48.2004 222.105 47.1542C222.234 46.4775 222.231 46.4233 222.056 46.3694C221.747 46.2745 221.11 45.9287 220.93 45.7584C220.615 45.46 220.473 45.1117 220.506 44.7159C220.544 44.262 220.767 43.9282 221.329 43.4858C221.57 43.2955 221.925 42.9884 222.118 42.8034C222.423 42.5093 222.467 42.4347 222.467 42.2095C222.466 41.8558 222.253 41.4275 221.554 40.3741C220.656 39.0208 220.532 38.4412 220.964 37.6162C221.083 37.3882 221.111 37.2302 221.108 36.8051C221.102 36.0856 220.817 35.0565 220.624 35.0565C220.59 35.0565 220.403 35.1266 220.21 35.2122C219.893 35.3528 219.813 35.4358 219.386 36.0645C218.871 36.8226 218.493 37.1959 218.175 37.2595C217.681 37.3586 217.131 36.9775 217.022 36.4601C216.939 36.0673 216.981 34.7412 217.093 34.2076C217.271 33.3644 217.595 32.8135 218.417 31.9551C219.354 30.9776 219.762 30.5003 220.4 29.6341C221.177 28.5809 221.421 28.092 221.484 27.458C221.543 26.8724 221.687 26.5783 222.048 26.302C222.338 26.0805 222.819 26.0244 223.182 26.1698C223.422 26.2661 223.448 26.2653 223.545 26.1582C223.791 25.8858 223.843 25.5352 223.838 24.1873C223.833 22.7555 223.91 22.1015 224.253 20.6826C224.575 19.3555 225.321 17.3189 225.931 16.1069L226.086 15.7983L225.759 15.6894C225.379 15.5629 224.457 15.463 223.645 15.4604C222.525 15.4569 221.263 14.9961 219.563 13.9695C218.152 13.1181 217.661 12.9518 216.179 12.8236C215.186 12.7377 214.751 12.6263 214.006 12.266C212.97 11.765 212.239 11.1445 211.198 9.88073C210.825 9.42824 210.493 9.05802 210.46 9.05802C210.427 9.05802 210.203 9.12932 209.962 9.21647C209.472 9.39359 208.857 9.49021 208.646 9.4232C208.105 9.30186 208.141 9.46782 207.482 8.70308C207.367 8.56998 207.18 8.21514 207.067 7.91455C206.954 7.61395 206.771 7.24459 206.66 7.09374C206.399 6.73878 205.763 6.31873 204.799 5.86456C203.178 5.1012 201.61 3.84543 200.276 2.24213L199.849 1.72792L199.585 1.77119C199.051 1.85899 197.729 2.27345 197.314 2.48334C196.993 2.64559 196.849 2.7645 196.739 2.95896C196.599 3.20545 196.591 3.29003 196.59 4.67168C196.589 6.93896 196.466 7.56866 195.875 8.35131C195.142 9.32159 193.957 10.0052 191.403 10.9313C189.519 11.6146 189.47 11.6399 189.878 11.7216C190.444 11.8349 190.729 12.1255 190.729 12.5883C190.729 13.2655 189.942 13.8773 188.434 14.3732C187.4 14.7132 187.075 14.6874 185.781 14.163L184.836 13.7798L183.683 13.7779C182.649 13.7763 182.511 13.7628 182.34 13.6466C182.001 13.4166 181.795 13.0481 181.6 12.3203L181.414 11.6251L181.17 11.6663C181.027 11.6906 180.76 11.6647 180.522 11.6035C180.299 11.5463 180.104 11.4995 180.089 11.4995C180.074 11.4995 180.062 11.6092 180.062 11.7432C180.062 11.952 180.112 12.0353 180.417 12.3262C181.064 12.9439 181.228 13.4816 181.284 15.1617C181.329 16.5046 181.45 17.2158 181.713 17.6772C182.027 18.2289 181.946 18.6407 181.455 18.9813C181.054 19.2598 180.632 19.3669 179.93 19.3682C179.197 19.3694 178.626 19.2558 177.507 18.886L176.692 18.6169L176.181 18.9531C175.9 19.138 175.569 19.3182 175.446 19.3536C174.601 19.5966 173.86 19.1548 173.253 18.0446C173.113 17.7876 172.915 17.4979 172.814 17.4008C172.65 17.2433 172.608 17.2319 172.426 17.2956C172.313 17.3348 171.958 17.5305 171.635 17.7304C170.637 18.3493 170.516 18.3746 168.308 18.4297C166.985 18.4627 166.311 18.5052 166.116 18.5682L165.833 18.659L166.499 19.2199C167.213 19.8211 167.55 20.2228 167.681 20.6289C167.832 21.098 167.628 21.6903 167.224 21.9583C167.018 22.0944 166.989 22.1636 167.077 22.3035C167.116 22.3648 167.224 22.3691 167.519 22.3209C168.012 22.2406 168.497 22.3158 169.137 22.5715C171.618 23.5628 171.873 23.6921 172.749 24.4015C173.196 24.7637 173.21 24.7691 173.943 24.8927C175.465 25.1491 176.489 25.9939 176.358 26.8853C176.328 27.0909 176.332 27.0924 177.131 27.172C177.645 27.2232 178.202 27.3821 178.425 27.5412C178.523 27.6108 178.654 27.802 178.716 27.966C178.811 28.215 178.817 28.3068 178.753 28.5212C178.67 28.7982 178.373 29.0927 178.11 29.1589C177.992 29.1885 177.958 29.2302 177.989 29.3074C178.012 29.3664 178.078 29.6016 178.135 29.83C178.225 30.1905 178.227 30.3185 178.152 30.8002C178.047 31.4753 178.117 31.7155 178.61 32.368C179.188 33.1319 179.948 33.763 181.708 34.9392C182.43 35.4217 182.761 35.8616 182.761 36.3373C182.761 36.4824 182.797 36.9186 182.84 37.3067C182.928 38.1034 182.876 38.4067 182.595 38.7418C182.505 38.8485 182.432 38.9616 182.432 38.9933C182.432 39.0249 182.613 39.2285 182.835 39.4456C183.569 40.1646 184.002 40.8152 184.308 41.6551C184.452 42.0499 184.495 42.3035 184.521 42.9089C184.56 43.7991 184.492 44.123 184.207 44.3967C184.04 44.5565 183.948 44.5915 183.691 44.5915C183.424 44.5915 183.3 44.54 182.836 44.2341C182.537 44.0375 182.179 43.748 182.041 43.5907L181.79 43.3047L181.753 44.278C181.731 44.8644 181.675 45.3956 181.612 45.6143C181.486 46.0496 181.512 46.1841 181.807 46.6143C182.04 46.9532 182.168 47.3012 182.168 47.5984C182.169 47.9243 181.972 48.4268 181.735 48.7046C181.506 48.973 181.486 49.0362 181.269 50.2194C180.733 53.1369 180.033 55.2059 179.129 56.5463L178.943 56.8216L179.164 56.9582C179.447 57.1339 179.948 57.6706 180.099 57.9598C180.163 58.0834 180.251 58.3034 180.294 58.4486C180.398 58.8006 180.938 59.1751 182.333 59.8622C184.336 60.8486 186.443 61.5072 187.963 61.6219C188.748 61.6811 188.995 61.6012 189.364 61.1679C189.742 60.7248 190.222 60.4588 190.727 60.4129C191.278 60.3628 191.874 60.5645 192.743 61.095C193.793 61.7357 194.261 61.9536 194.778 62.0415C195.823 62.2191 196.352 62.6354 196.494 63.3917C196.534 63.6056 196.582 63.6618 196.812 63.7638C197.574 64.1016 198.971 64.3587 199.885 64.3296C200.468 64.3111 200.556 64.2894 201.103 64.0291Z" fill="#1A1400"/>
<circle cx="191.5" cy="32.5" r="7.5" fill="#FAC100"/>
<path d="M190.911 33.4961C191.462 33.545 191.947 33.1387 191.996 32.5886C192.045 32.0385 191.639 31.5529 191.089 31.504L190.911 33.4961ZM140.064 42.6489C139.87 43.1661 140.132 43.7425 140.649 43.9364L149.076 47.0965C149.593 47.2904 150.169 47.0284 150.363 46.5113C150.557 45.9942 150.295 45.4178 149.778 45.2238L142.287 42.4149L145.096 34.9242C145.29 34.4071 145.028 33.8307 144.511 33.6368C143.994 33.4428 143.418 33.7049 143.224 34.222L140.064 42.6489ZM191.089 31.504C179.65 30.4873 167.006 33.1543 157.278 36.0414C152.402 37.4884 148.235 38.998 145.286 40.1463C143.811 40.7206 142.639 41.2049 141.835 41.5464C141.433 41.7171 141.122 41.8521 140.912 41.9449C140.806 41.9913 140.726 42.0271 140.671 42.0515C140.644 42.0637 140.623 42.073 140.609 42.0794C140.602 42.0826 140.596 42.0851 140.593 42.0868C140.591 42.0877 140.589 42.0883 140.588 42.0888C140.588 42.0891 140.587 42.0893 140.587 42.0894C140.586 42.0896 140.586 42.0897 141 43.0001C141.414 43.9104 141.414 43.9105 141.414 43.9104C141.414 43.9104 141.414 43.9103 141.414 43.9102C141.415 43.9099 141.416 43.9094 141.418 43.9087C141.42 43.9074 141.425 43.9054 141.431 43.9026C141.444 43.897 141.463 43.8884 141.488 43.877C141.539 43.8543 141.616 43.8201 141.717 43.7754C141.92 43.6861 142.223 43.5545 142.616 43.3873C143.404 43.053 144.557 42.5764 146.011 42.01C148.921 40.8771 153.035 39.3868 157.847 37.9587C167.494 35.0958 179.85 32.5129 190.911 33.4961L191.089 31.504Z" fill="black"/>
<path d="M42.696 28C42.5787 28 42.4667 27.968 42.36 27.904C42.264 27.8293 42.216 27.7227 42.216 27.584V16.704C42.216 16.5653 42.2693 16.464 42.376 16.4C42.4827 16.336 42.6053 16.304 42.744 16.304C42.872 16.304 42.9893 16.336 43.096 16.4C43.2133 16.464 43.272 16.5653 43.272 16.704V27.024H47.832C47.96 27.024 48.0507 27.0773 48.104 27.184C48.1573 27.28 48.184 27.3867 48.184 27.504C48.184 27.632 48.1573 27.7493 48.104 27.856C48.0507 27.952 47.96 28 47.832 28H42.696ZM52.1578 28.112C51.6138 28.112 51.1124 27.9733 50.6538 27.696C50.1951 27.408 49.8218 27.0347 49.5338 26.576C49.2564 26.1067 49.1178 25.6053 49.1178 25.072V23.344C49.1178 22.8 49.2511 22.304 49.5178 21.856C49.7951 21.3973 50.1631 21.0293 50.6218 20.752C51.0911 20.4747 51.6031 20.336 52.1578 20.336C52.7018 20.336 53.2031 20.4747 53.6618 20.752C54.1311 21.0187 54.5044 21.376 54.7818 21.824C55.0591 22.272 55.1978 22.7787 55.1978 23.344V25.072C55.1978 25.5947 55.0591 26.0907 54.7818 26.56C54.5044 27.0293 54.1311 27.408 53.6618 27.696C53.2031 27.9733 52.7018 28.112 52.1578 28.112ZM52.1578 27.152C52.5311 27.152 52.8671 27.056 53.1658 26.864C53.4644 26.6613 53.7044 26.4 53.8858 26.08C54.0671 25.76 54.1578 25.424 54.1578 25.072V23.344C54.1578 22.992 54.0671 22.6613 53.8858 22.352C53.7151 22.0427 53.4751 21.792 53.1658 21.6C52.8671 21.3973 52.5311 21.296 52.1578 21.296C51.7844 21.296 51.4484 21.3973 51.1498 21.6C50.8511 21.792 50.6111 22.0427 50.4298 22.352C50.2484 22.6613 50.1578 22.992 50.1578 23.344V25.072C50.1578 25.424 50.2484 25.76 50.4298 26.08C50.6111 26.4 50.8511 26.6613 51.1498 26.864C51.4591 27.056 51.7951 27.152 52.1578 27.152ZM60.2178 28.112C59.6524 28.112 59.1351 27.9733 58.6658 27.696C58.2071 27.4187 57.8391 27.0507 57.5618 26.592C57.2951 26.1227 57.1618 25.6267 57.1618 25.104V20.848C57.1618 20.7413 57.2151 20.6453 57.3218 20.56C57.4284 20.4747 57.5511 20.432 57.6898 20.432C57.8284 20.432 57.9458 20.4747 58.0418 20.56C58.1484 20.6453 58.2018 20.7413 58.2018 20.848V25.104C58.2018 25.456 58.2924 25.7867 58.4738 26.096C58.6551 26.4053 58.8951 26.6613 59.1938 26.864C59.4924 27.056 59.8284 27.152 60.2018 27.152C60.5858 27.152 60.9271 27.056 61.2258 26.864C61.5244 26.672 61.7591 26.4213 61.9298 26.112C62.1111 25.792 62.2018 25.456 62.2018 25.104V20.832C62.2018 20.7147 62.2551 20.6187 62.3618 20.544C62.4684 20.4693 62.5911 20.432 62.7298 20.432C62.8898 20.432 63.0124 20.4693 63.0978 20.544C63.1938 20.6187 63.2418 20.7147 63.2418 20.832V25.104C63.2418 25.648 63.1031 26.1493 62.8258 26.608C62.5591 27.056 62.1911 27.4187 61.7218 27.696C61.2631 27.9733 60.7618 28.112 60.2178 28.112ZM68.0272 28.112C67.5366 28.112 67.0726 27.9733 66.6352 27.696C66.1979 27.408 65.8459 27.0293 65.5792 26.56C65.3232 26.0907 65.1952 25.5947 65.1952 25.072V23.344C65.1952 22.7893 65.3232 22.288 65.5792 21.84C65.8459 21.3813 66.1979 21.0187 66.6352 20.752C67.0726 20.4747 67.5526 20.336 68.0752 20.336C68.5979 20.336 69.0352 20.464 69.3872 20.72C69.7499 20.9653 70.0166 21.2427 70.1872 21.552V16.192C70.1872 16.064 70.2406 15.968 70.3472 15.904C70.4539 15.8293 70.5766 15.792 70.7152 15.792C70.8752 15.792 70.9979 15.8293 71.0832 15.904C71.1792 15.968 71.2272 16.064 71.2272 16.192V27.584C71.2272 27.6907 71.1792 27.7867 71.0832 27.872C70.9979 27.9573 70.8752 28 70.7152 28C70.5872 28 70.4699 27.9573 70.3632 27.872C70.2672 27.7867 70.2192 27.6907 70.2192 27.584V26.88C70.0592 27.2107 69.7766 27.4987 69.3712 27.744C68.9766 27.9893 68.5286 28.112 68.0272 28.112ZM68.2192 27.152C68.6032 27.152 68.9392 27.056 69.2272 26.864C69.5259 26.6613 69.7606 26.4373 69.9312 26.192C70.1019 25.936 70.1872 25.728 70.1872 25.568V23.344C70.1872 22.9067 70.0912 22.5387 69.8992 22.24C69.7072 21.9413 69.4619 21.712 69.1632 21.552C68.8646 21.3813 68.5552 21.296 68.2352 21.296C67.8726 21.296 67.5419 21.3973 67.2432 21.6C66.9446 21.792 66.7046 22.0427 66.5232 22.352C66.3419 22.6613 66.2512 22.992 66.2512 23.344V25.072C66.2512 25.424 66.3419 25.76 66.5232 26.08C66.7046 26.4 66.9446 26.6613 67.2432 26.864C67.5419 27.056 67.8672 27.152 68.2192 27.152ZM76.5453 28.112C75.9799 28.112 75.4626 27.9733 74.9933 27.696C74.5346 27.4187 74.1666 27.0507 73.8893 26.592C73.6226 26.1227 73.4893 25.6267 73.4893 25.104V20.848C73.4893 20.7413 73.5426 20.6453 73.6493 20.56C73.7559 20.4747 73.8786 20.432 74.0173 20.432C74.1559 20.432 74.2733 20.4747 74.3693 20.56C74.4759 20.6453 74.5293 20.7413 74.5293 20.848V25.104C74.5293 25.456 74.6199 25.7867 74.8013 26.096C74.9826 26.4053 75.2226 26.6613 75.5213 26.864C75.8199 27.056 76.1559 27.152 76.5293 27.152C76.9133 27.152 77.2546 27.056 77.5533 26.864C77.8519 26.672 78.0866 26.4213 78.2573 26.112C78.4386 25.792 78.5293 25.456 78.5293 25.104V20.832C78.5293 20.7147 78.5826 20.6187 78.6893 20.544C78.7959 20.4693 78.9186 20.432 79.0573 20.432C79.2173 20.432 79.3399 20.4693 79.4253 20.544C79.5213 20.6187 79.5693 20.7147 79.5693 20.832V25.104C79.5693 25.648 79.4306 26.1493 79.1533 26.608C78.8866 27.056 78.5186 27.4187 78.0493 27.696C77.5906 27.9733 77.0893 28.112 76.5453 28.112ZM82.3227 28C82.1841 28 82.0614 27.9573 81.9547 27.872C81.8587 27.7867 81.8107 27.6907 81.8107 27.584V20.832C81.8107 20.704 81.8587 20.608 81.9547 20.544C82.0614 20.4693 82.1841 20.432 82.3227 20.432C82.4614 20.432 82.5787 20.4693 82.6747 20.544C82.7707 20.608 82.8187 20.704 82.8187 20.832V21.552C82.9894 21.2427 83.2561 20.9653 83.6187 20.72C83.9814 20.464 84.4294 20.336 84.9627 20.336C85.4747 20.336 85.9441 20.4747 86.3707 20.752C86.8081 21.0187 87.1547 21.3813 87.4107 21.84C87.6667 22.288 87.7947 22.7893 87.7947 23.344V27.584C87.7947 27.7227 87.7414 27.8293 87.6347 27.904C87.5281 27.968 87.4054 28 87.2667 28C87.1494 28 87.0321 27.968 86.9147 27.904C86.8081 27.8293 86.7547 27.7227 86.7547 27.584V23.344C86.7547 22.992 86.6641 22.6613 86.4827 22.352C86.3014 22.0427 86.0614 21.792 85.7627 21.6C85.4641 21.3973 85.1334 21.296 84.7707 21.296C84.4507 21.296 84.1414 21.3813 83.8427 21.552C83.5547 21.712 83.3147 21.9413 83.1227 22.24C82.9414 22.5387 82.8507 22.9067 82.8507 23.344V27.584C82.8507 27.6907 82.7974 27.7867 82.6907 27.872C82.5947 27.9573 82.4721 28 82.3227 28Z" fill="#1A1400"/>
<path d="M88.744 167C88.6053 167 88.4827 166.968 88.376 166.904C88.2693 166.829 88.216 166.723 88.216 166.584V155.816C88.216 155.624 88.2693 155.491 88.376 155.416C88.4827 155.341 88.6053 155.304 88.744 155.304C88.872 155.304 88.984 155.341 89.08 155.416C89.1867 155.48 89.2827 155.571 89.368 155.688C89.4533 155.795 89.528 155.917 89.592 156.056L92.344 161.352L95.08 156.056C95.1653 155.917 95.2453 155.795 95.32 155.688C95.4053 155.571 95.5013 155.48 95.608 155.416C95.7147 155.341 95.8267 155.304 95.944 155.304C96.0933 155.304 96.216 155.341 96.312 155.416C96.4187 155.491 96.472 155.624 96.472 155.816V166.584C96.472 166.723 96.4187 166.829 96.312 166.904C96.2053 166.968 96.0827 167 95.944 167C95.816 167 95.6933 166.968 95.576 166.904C95.4693 166.829 95.416 166.723 95.416 166.584V157.592L92.76 162.616C92.696 162.744 92.6267 162.835 92.552 162.888C92.4773 162.941 92.4027 162.968 92.328 162.968C92.264 162.968 92.1947 162.941 92.12 162.888C92.0453 162.835 91.9707 162.744 91.896 162.616L89.272 157.56V166.584C89.272 166.723 89.2133 166.829 89.096 166.904C88.9893 166.968 88.872 167 88.744 167ZM99.5275 157.192C99.3355 157.192 99.1648 157.128 99.0155 157C98.8768 156.861 98.8075 156.701 98.8075 156.52C98.8075 156.339 98.8768 156.184 99.0155 156.056C99.1648 155.928 99.3355 155.864 99.5275 155.864C99.7195 155.864 99.8848 155.928 100.023 156.056C100.162 156.184 100.231 156.339 100.231 156.52C100.231 156.701 100.162 156.861 100.023 157C99.8848 157.128 99.7195 157.192 99.5275 157.192ZM99.5115 167C99.3728 167 99.2502 166.957 99.1435 166.872C99.0475 166.787 98.9995 166.691 98.9995 166.584V159.832C98.9995 159.704 99.0475 159.608 99.1435 159.544C99.2502 159.469 99.3728 159.432 99.5115 159.432C99.6608 159.432 99.7835 159.469 99.8795 159.544C99.9862 159.608 100.039 159.704 100.039 159.832V166.584C100.039 166.691 99.9862 166.787 99.8795 166.872C99.7835 166.957 99.6608 167 99.5115 167ZM102.863 167C102.724 167 102.601 166.957 102.495 166.872C102.399 166.787 102.351 166.691 102.351 166.584V159.832C102.351 159.704 102.399 159.608 102.495 159.544C102.601 159.469 102.724 159.432 102.863 159.432C103.001 159.432 103.119 159.469 103.215 159.544C103.311 159.608 103.359 159.704 103.359 159.832V160.616C103.476 160.392 103.636 160.184 103.839 159.992C104.041 159.8 104.281 159.645 104.559 159.528C104.836 159.4 105.151 159.336 105.503 159.336H106.063C106.18 159.336 106.276 159.384 106.351 159.48C106.436 159.576 106.479 159.688 106.479 159.816C106.479 159.955 106.436 160.072 106.351 160.168C106.276 160.253 106.18 160.296 106.063 160.296H105.503C105.151 160.296 104.809 160.392 104.479 160.584C104.159 160.776 103.897 161.043 103.695 161.384C103.492 161.725 103.391 162.141 103.391 162.632V166.584C103.391 166.691 103.337 166.787 103.231 166.872C103.135 166.957 103.012 167 102.863 167ZM110.776 167.112C110.104 167.112 109.507 166.984 108.984 166.728C108.472 166.472 108.067 166.12 107.768 165.672C107.48 165.213 107.336 164.68 107.336 164.072V162.296C107.336 161.763 107.475 161.272 107.752 160.824C108.03 160.365 108.398 160.003 108.856 159.736C109.326 159.469 109.838 159.336 110.392 159.336C110.926 159.336 111.416 159.464 111.864 159.72C112.323 159.965 112.691 160.307 112.968 160.744C113.246 161.181 113.384 161.688 113.384 162.264C113.384 162.669 113.315 162.963 113.176 163.144C113.038 163.325 112.862 163.437 112.648 163.48C112.446 163.512 112.227 163.528 111.992 163.528H108.376V164.12C108.376 164.76 108.606 165.267 109.064 165.64C109.523 166.013 110.104 166.2 110.808 166.2C111.235 166.2 111.566 166.147 111.8 166.04C112.035 165.933 112.216 165.827 112.344 165.72C112.483 165.613 112.611 165.56 112.728 165.56C112.814 165.56 112.888 165.592 112.952 165.656C113.027 165.709 113.08 165.773 113.112 165.848C113.155 165.923 113.176 165.992 113.176 166.056C113.176 166.173 113.08 166.317 112.888 166.488C112.696 166.659 112.419 166.808 112.056 166.936C111.694 167.053 111.267 167.112 110.776 167.112ZM108.376 162.76H111.576C111.896 162.76 112.11 162.728 112.216 162.664C112.323 162.589 112.376 162.44 112.376 162.216C112.376 161.875 112.291 161.555 112.12 161.256C111.95 160.947 111.715 160.696 111.416 160.504C111.118 160.301 110.771 160.2 110.376 160.2C110.014 160.2 109.678 160.291 109.368 160.472C109.07 160.653 108.83 160.888 108.648 161.176C108.467 161.464 108.376 161.789 108.376 162.152V162.76ZM118.472 167.112C117.971 167.112 117.523 166.989 117.128 166.744C116.734 166.499 116.451 166.211 116.28 165.88V166.584C116.28 166.691 116.232 166.787 116.136 166.872C116.04 166.957 115.923 167 115.784 167C115.646 167 115.523 166.957 115.416 166.872C115.32 166.787 115.272 166.691 115.272 166.584V155.192C115.272 155.064 115.32 154.968 115.416 154.904C115.523 154.829 115.646 154.792 115.784 154.792C115.934 154.792 116.056 154.829 116.152 154.904C116.259 154.968 116.312 155.064 116.312 155.192V160.552C116.494 160.243 116.76 159.965 117.112 159.72C117.475 159.464 117.918 159.336 118.44 159.336C118.963 159.336 119.438 159.475 119.864 159.752C120.302 160.019 120.648 160.381 120.904 160.84C121.171 161.288 121.304 161.789 121.304 162.344V164.072C121.304 164.595 121.171 165.091 120.904 165.56C120.648 166.029 120.307 166.408 119.88 166.696C119.454 166.973 118.984 167.112 118.472 167.112ZM118.28 166.152C118.643 166.152 118.974 166.056 119.272 165.864C119.571 165.661 119.811 165.4 119.992 165.08C120.174 164.76 120.264 164.424 120.264 164.072V162.344C120.264 161.992 120.174 161.661 119.992 161.352C119.811 161.043 119.571 160.792 119.272 160.6C118.974 160.397 118.638 160.296 118.264 160.296C117.944 160.296 117.635 160.381 117.336 160.552C117.038 160.712 116.792 160.941 116.6 161.24C116.408 161.539 116.312 161.907 116.312 162.344V164.568C116.312 164.728 116.398 164.936 116.568 165.192C116.75 165.437 116.99 165.661 117.288 165.864C117.587 166.056 117.918 166.152 118.28 166.152ZM126.494 167.112C125.822 167.112 125.225 166.984 124.702 166.728C124.19 166.472 123.785 166.12 123.486 165.672C123.198 165.213 123.054 164.68 123.054 164.072V162.296C123.054 161.763 123.193 161.272 123.47 160.824C123.748 160.365 124.116 160.003 124.574 159.736C125.044 159.469 125.556 159.336 126.11 159.336C126.644 159.336 127.134 159.464 127.582 159.72C128.041 159.965 128.409 160.307 128.686 160.744C128.964 161.181 129.102 161.688 129.102 162.264C129.102 162.669 129.033 162.963 128.894 163.144C128.756 163.325 128.58 163.437 128.366 163.48C128.164 163.512 127.945 163.528 127.71 163.528H124.094V164.12C124.094 164.76 124.324 165.267 124.782 165.64C125.241 166.013 125.822 166.2 126.526 166.2C126.953 166.2 127.284 166.147 127.518 166.04C127.753 165.933 127.934 165.827 128.062 165.72C128.201 165.613 128.329 165.56 128.446 165.56C128.532 165.56 128.606 165.592 128.67 165.656C128.745 165.709 128.798 165.773 128.83 165.848C128.873 165.923 128.894 165.992 128.894 166.056C128.894 166.173 128.798 166.317 128.606 166.488C128.414 166.659 128.137 166.808 127.774 166.936C127.412 167.053 126.985 167.112 126.494 167.112ZM124.094 162.76H127.294C127.614 162.76 127.828 162.728 127.934 162.664C128.041 162.589 128.094 162.44 128.094 162.216C128.094 161.875 128.009 161.555 127.838 161.256C127.668 160.947 127.433 160.696 127.134 160.504C126.836 160.301 126.489 160.2 126.094 160.2C125.732 160.2 125.396 160.291 125.086 160.472C124.788 160.653 124.548 160.888 124.366 161.176C124.185 161.464 124.094 161.789 124.094 162.152V162.76ZM132.654 167.112C132.046 167.112 131.529 166.941 131.102 166.6C130.686 166.248 130.478 165.715 130.478 165C130.478 164.413 130.633 163.965 130.942 163.656C131.262 163.336 131.7 163.117 132.254 163C132.82 162.872 133.47 162.808 134.206 162.808H135.022V162.44C135.022 162.088 134.958 161.747 134.83 161.416C134.713 161.075 134.516 160.797 134.238 160.584C133.972 160.36 133.604 160.248 133.134 160.248C132.782 160.248 132.494 160.285 132.27 160.36C132.046 160.435 131.87 160.515 131.742 160.6C131.614 160.675 131.508 160.712 131.422 160.712C131.294 160.712 131.188 160.648 131.102 160.52C131.028 160.392 130.99 160.275 130.99 160.168C130.99 160.019 131.102 159.885 131.326 159.768C131.55 159.64 131.828 159.539 132.158 159.464C132.5 159.379 132.836 159.336 133.166 159.336C133.881 159.336 134.446 159.485 134.862 159.784C135.289 160.072 135.593 160.451 135.774 160.92C135.966 161.389 136.062 161.891 136.062 162.424V166.584C136.062 166.701 136.014 166.803 135.918 166.888C135.833 166.963 135.71 167 135.55 167C135.422 167 135.305 166.963 135.198 166.888C135.102 166.803 135.054 166.701 135.054 166.584V165.88C134.788 166.2 134.457 166.488 134.062 166.744C133.668 166.989 133.198 167.112 132.654 167.112ZM132.91 166.232C133.262 166.232 133.598 166.141 133.918 165.96C134.238 165.779 134.5 165.56 134.702 165.304C134.916 165.037 135.022 164.787 135.022 164.552V163.528H134.35C133.87 163.528 133.412 163.56 132.974 163.624C132.548 163.677 132.196 163.8 131.918 163.992C131.652 164.184 131.518 164.488 131.518 164.904C131.518 165.363 131.652 165.699 131.918 165.912C132.196 166.125 132.526 166.232 132.91 166.232ZM141.302 167.112C140.737 167.112 140.219 166.973 139.75 166.696C139.291 166.419 138.923 166.051 138.646 165.592C138.379 165.123 138.246 164.627 138.246 164.104V159.848C138.246 159.741 138.299 159.645 138.406 159.56C138.513 159.475 138.635 159.432 138.774 159.432C138.913 159.432 139.03 159.475 139.126 159.56C139.233 159.645 139.286 159.741 139.286 159.848V164.104C139.286 164.456 139.377 164.787 139.558 165.096C139.739 165.405 139.979 165.661 140.278 165.864C140.577 166.056 140.913 166.152 141.286 166.152C141.67 166.152 142.011 166.056 142.31 165.864C142.609 165.672 142.843 165.421 143.014 165.112C143.195 164.792 143.286 164.456 143.286 164.104V159.832C143.286 159.715 143.339 159.619 143.446 159.544C143.553 159.469 143.675 159.432 143.814 159.432C143.974 159.432 144.097 159.469 144.182 159.544C144.278 159.619 144.326 159.715 144.326 159.832V164.104C144.326 164.648 144.187 165.149 143.91 165.608C143.643 166.056 143.275 166.419 142.806 166.696C142.347 166.973 141.846 167.112 141.302 167.112Z" fill="#1A1400"/>
<path d="M164.744 336C164.605 336 164.483 335.968 164.376 335.904C164.269 335.829 164.216 335.723 164.216 335.584V324.704C164.216 324.597 164.253 324.507 164.328 324.432C164.413 324.357 164.525 324.315 164.664 324.304H167.608C168.227 324.304 168.787 324.416 169.288 324.64C169.789 324.864 170.184 325.227 170.472 325.728C170.76 326.219 170.904 326.875 170.904 327.696V327.856C170.904 328.688 170.755 329.355 170.456 329.856C170.168 330.347 169.768 330.709 169.256 330.944C168.755 331.168 168.195 331.28 167.576 331.28H165.272V335.584C165.272 335.723 165.213 335.829 165.096 335.904C164.989 335.968 164.872 336 164.744 336ZM165.272 330.352H167.576C168.291 330.352 168.845 330.155 169.24 329.76C169.645 329.355 169.848 328.736 169.848 327.904V327.728C169.848 326.885 169.645 326.267 169.24 325.872C168.845 325.477 168.291 325.28 167.576 325.28H165.272V330.352ZM175.095 336.112C174.551 336.112 174.05 335.973 173.591 335.696C173.133 335.408 172.759 335.035 172.471 334.576C172.194 334.107 172.055 333.605 172.055 333.072V331.344C172.055 330.8 172.189 330.304 172.455 329.856C172.733 329.397 173.101 329.029 173.559 328.752C174.029 328.475 174.541 328.336 175.095 328.336C175.639 328.336 176.141 328.475 176.599 328.752C177.069 329.019 177.442 329.376 177.719 329.824C177.997 330.272 178.135 330.779 178.135 331.344V333.072C178.135 333.595 177.997 334.091 177.719 334.56C177.442 335.029 177.069 335.408 176.599 335.696C176.141 335.973 175.639 336.112 175.095 336.112ZM175.095 335.152C175.469 335.152 175.805 335.056 176.103 334.864C176.402 334.661 176.642 334.4 176.823 334.08C177.005 333.76 177.095 333.424 177.095 333.072V331.344C177.095 330.992 177.005 330.661 176.823 330.352C176.653 330.043 176.413 329.792 176.103 329.6C175.805 329.397 175.469 329.296 175.095 329.296C174.722 329.296 174.386 329.397 174.087 329.6C173.789 329.792 173.549 330.043 173.367 330.352C173.186 330.661 173.095 330.992 173.095 331.344V333.072C173.095 333.424 173.186 333.76 173.367 334.08C173.549 334.4 173.789 334.661 174.087 334.864C174.397 335.056 174.733 335.152 175.095 335.152ZM180.691 326.192C180.499 326.192 180.329 326.128 180.179 326C180.041 325.861 179.971 325.701 179.971 325.52C179.971 325.339 180.041 325.184 180.179 325.056C180.329 324.928 180.499 324.864 180.691 324.864C180.883 324.864 181.049 324.928 181.187 325.056C181.326 325.184 181.395 325.339 181.395 325.52C181.395 325.701 181.326 325.861 181.187 326C181.049 326.128 180.883 326.192 180.691 326.192ZM180.675 336C180.537 336 180.414 335.957 180.307 335.872C180.211 335.787 180.163 335.691 180.163 335.584V328.832C180.163 328.704 180.211 328.608 180.307 328.544C180.414 328.469 180.537 328.432 180.675 328.432C180.825 328.432 180.947 328.469 181.043 328.544C181.15 328.608 181.203 328.704 181.203 328.832V335.584C181.203 335.691 181.15 335.787 181.043 335.872C180.947 335.957 180.825 336 180.675 336ZM186.026 336C185.205 336 184.576 335.813 184.138 335.44C183.701 335.067 183.482 334.469 183.482 333.648V325.232C183.482 325.104 183.536 325.008 183.642 324.944C183.76 324.869 183.877 324.832 183.994 324.832C184.133 324.832 184.256 324.869 184.362 324.944C184.469 325.008 184.522 325.104 184.522 325.232V328.432H186.602C186.709 328.432 186.794 328.475 186.858 328.56C186.922 328.645 186.954 328.747 186.954 328.864C186.954 328.981 186.922 329.083 186.858 329.168C186.794 329.253 186.709 329.296 186.602 329.296H184.522V333.648C184.522 334.171 184.634 334.539 184.858 334.752C185.082 334.955 185.472 335.056 186.026 335.056H186.474C186.624 335.056 186.736 335.104 186.81 335.2C186.896 335.285 186.938 335.392 186.938 335.52C186.938 335.648 186.896 335.76 186.81 335.856C186.736 335.952 186.624 336 186.474 336H186.026ZM189.081 326.192C188.889 326.192 188.719 326.128 188.569 326C188.431 325.861 188.361 325.701 188.361 325.52C188.361 325.339 188.431 325.184 188.569 325.056C188.719 324.928 188.889 324.864 189.081 324.864C189.273 324.864 189.439 324.928 189.577 325.056C189.716 325.184 189.785 325.339 189.785 325.52C189.785 325.701 189.716 325.861 189.577 326C189.439 326.128 189.273 326.192 189.081 326.192ZM189.065 336C188.927 336 188.804 335.957 188.697 335.872C188.601 335.787 188.553 335.691 188.553 335.584V328.832C188.553 328.704 188.601 328.608 188.697 328.544C188.804 328.469 188.927 328.432 189.065 328.432C189.215 328.432 189.337 328.469 189.433 328.544C189.54 328.608 189.593 328.704 189.593 328.832V335.584C189.593 335.691 189.54 335.787 189.433 335.872C189.337 335.957 189.215 336 189.065 336ZM195.073 336.112C194.401 336.112 193.803 335.984 193.281 335.728C192.769 335.472 192.363 335.12 192.065 334.672C191.777 334.213 191.633 333.68 191.633 333.072V331.296C191.633 330.763 191.771 330.272 192.049 329.824C192.326 329.365 192.694 329.003 193.153 328.736C193.622 328.469 194.134 328.336 194.689 328.336C195.222 328.336 195.713 328.464 196.161 328.72C196.619 328.965 196.987 329.307 197.265 329.744C197.542 330.181 197.681 330.688 197.681 331.264C197.681 331.669 197.611 331.963 197.473 332.144C197.334 332.325 197.158 332.437 196.945 332.48C196.742 332.512 196.523 332.528 196.289 332.528H192.673V333.12C192.673 333.76 192.902 334.267 193.361 334.64C193.819 335.013 194.401 335.2 195.105 335.2C195.531 335.2 195.862 335.147 196.097 335.04C196.331 334.933 196.513 334.827 196.641 334.72C196.779 334.613 196.907 334.56 197.025 334.56C197.11 334.56 197.185 334.592 197.249 334.656C197.323 334.709 197.377 334.773 197.409 334.848C197.451 334.923 197.473 334.992 197.473 335.056C197.473 335.173 197.377 335.317 197.185 335.488C196.993 335.659 196.715 335.808 196.353 335.936C195.99 336.053 195.563 336.112 195.073 336.112ZM192.673 331.76H195.873C196.193 331.76 196.406 331.728 196.513 331.664C196.619 331.589 196.673 331.44 196.673 331.216C196.673 330.875 196.587 330.555 196.417 330.256C196.246 329.947 196.011 329.696 195.713 329.504C195.414 329.301 195.067 329.2 194.673 329.2C194.31 329.2 193.974 329.291 193.665 329.472C193.366 329.653 193.126 329.888 192.945 330.176C192.763 330.464 192.673 330.789 192.673 331.152V331.76ZM200.065 336C199.926 336 199.803 335.957 199.697 335.872C199.601 335.787 199.553 335.691 199.553 335.584V328.832C199.553 328.704 199.601 328.608 199.697 328.544C199.803 328.469 199.926 328.432 200.065 328.432C200.203 328.432 200.321 328.469 200.417 328.544C200.513 328.608 200.561 328.704 200.561 328.832V329.616C200.678 329.392 200.838 329.184 201.041 328.992C201.243 328.8 201.483 328.645 201.761 328.528C202.038 328.4 202.353 328.336 202.705 328.336H203.265C203.382 328.336 203.478 328.384 203.553 328.48C203.638 328.576 203.681 328.688 203.681 328.816C203.681 328.955 203.638 329.072 203.553 329.168C203.478 329.253 203.382 329.296 203.265 329.296H202.705C202.353 329.296 202.011 329.392 201.681 329.584C201.361 329.776 201.099 330.043 200.897 330.384C200.694 330.725 200.593 331.141 200.593 331.632V335.584C200.593 335.691 200.539 335.787 200.433 335.872C200.337 335.957 200.214 336 200.065 336ZM207.155 336.112C206.654 336.112 206.211 336.048 205.827 335.92C205.454 335.792 205.161 335.643 204.947 335.472C204.745 335.291 204.643 335.12 204.643 334.96C204.643 334.885 204.659 334.816 204.691 334.752C204.723 334.677 204.766 334.613 204.819 334.56C204.883 334.507 204.947 334.48 205.011 334.48C205.129 334.48 205.257 334.544 205.395 334.672C205.545 334.789 205.747 334.912 206.003 335.04C206.27 335.168 206.643 335.232 207.123 335.232C207.731 335.232 208.158 335.12 208.403 334.896C208.649 334.661 208.771 334.395 208.771 334.096C208.771 333.744 208.675 333.472 208.483 333.28C208.302 333.077 208.057 332.923 207.747 332.816C207.449 332.709 207.129 332.608 206.787 332.512C206.457 332.416 206.137 332.299 205.827 332.16C205.529 332.021 205.283 331.824 205.091 331.568C204.91 331.301 204.819 330.949 204.819 330.512C204.819 330.171 204.905 329.835 205.075 329.504C205.246 329.173 205.513 328.896 205.875 328.672C206.249 328.448 206.739 328.336 207.347 328.336C207.699 328.336 208.041 328.373 208.371 328.448C208.702 328.523 208.969 328.624 209.171 328.752C209.385 328.869 209.491 328.997 209.491 329.136C209.491 329.179 209.47 329.248 209.427 329.344C209.395 329.429 209.347 329.504 209.283 329.568C209.219 329.632 209.145 329.664 209.059 329.664C208.974 329.664 208.857 329.627 208.707 329.552C208.569 329.477 208.387 329.403 208.163 329.328C207.939 329.253 207.673 329.216 207.363 329.216C206.979 329.216 206.67 329.285 206.435 329.424C206.201 329.563 206.03 329.728 205.923 329.92C205.817 330.112 205.763 330.299 205.763 330.48C205.763 330.779 205.859 331.008 206.051 331.168C206.243 331.328 206.489 331.461 206.787 331.568C207.097 331.664 207.417 331.76 207.747 331.856C208.089 331.941 208.409 332.064 208.707 332.224C209.017 332.384 209.262 332.608 209.443 332.896C209.635 333.184 209.731 333.568 209.731 334.048C209.731 334.677 209.507 335.179 209.059 335.552C208.611 335.925 207.977 336.112 207.155 336.112Z" fill="#1A1400"/>
<path d="M44.304 292.096C44.1653 292.096 44.032 292.064 43.904 292C43.7867 291.936 43.712 291.84 43.68 291.712L40.32 280.864C40.3093 280.832 40.304 280.795 40.304 280.752C40.304 280.667 40.336 280.592 40.4 280.528C40.464 280.453 40.544 280.4 40.64 280.368C40.736 280.325 40.832 280.304 40.928 280.304C41.024 280.304 41.1093 280.325 41.184 280.368C41.2587 280.411 41.312 280.48 41.344 280.576L44.304 290.4L47.248 280.576C47.2693 280.48 47.3173 280.411 47.392 280.368C47.4667 280.325 47.552 280.304 47.648 280.304C47.744 280.304 47.84 280.325 47.936 280.368C48.032 280.411 48.112 280.464 48.176 280.528C48.2507 280.592 48.288 280.672 48.288 280.768C48.288 280.779 48.2827 280.795 48.272 280.816C48.272 280.827 48.2667 280.843 48.256 280.864L44.944 291.712C44.9013 291.84 44.816 291.936 44.688 292C44.5707 292.064 44.4427 292.096 44.304 292.096ZM51.8452 292.112C51.3012 292.112 50.7999 291.973 50.3412 291.696C49.8826 291.408 49.5092 291.035 49.2212 290.576C48.9439 290.107 48.8052 289.605 48.8052 289.072V287.344C48.8052 286.8 48.9386 286.304 49.2052 285.856C49.4826 285.397 49.8506 285.029 50.3092 284.752C50.7786 284.475 51.2906 284.336 51.8452 284.336C52.3893 284.336 52.8906 284.475 53.3492 284.752C53.8186 285.019 54.1919 285.376 54.4693 285.824C54.7466 286.272 54.8853 286.779 54.8853 287.344V289.072C54.8853 289.595 54.7466 290.091 54.4693 290.56C54.1919 291.029 53.8186 291.408 53.3492 291.696C52.8906 291.973 52.3893 292.112 51.8452 292.112ZM51.8452 291.152C52.2186 291.152 52.5546 291.056 52.8533 290.864C53.1519 290.661 53.3919 290.4 53.5732 290.08C53.7546 289.76 53.8453 289.424 53.8453 289.072V287.344C53.8453 286.992 53.7546 286.661 53.5732 286.352C53.4026 286.043 53.1626 285.792 52.8533 285.6C52.5546 285.397 52.2186 285.296 51.8452 285.296C51.4719 285.296 51.1359 285.397 50.8372 285.6C50.5386 285.792 50.2986 286.043 50.1172 286.352C49.9359 286.661 49.8452 286.992 49.8452 287.344V289.072C49.8452 289.424 49.9359 289.76 50.1172 290.08C50.2986 290.4 50.5386 290.661 50.8372 290.864C51.1466 291.056 51.4826 291.152 51.8452 291.152ZM59.9053 292.112C59.3399 292.112 58.8226 291.973 58.3533 291.696C57.8946 291.419 57.5266 291.051 57.2493 290.592C56.9826 290.123 56.8493 289.627 56.8493 289.104V284.848C56.8493 284.741 56.9026 284.645 57.0093 284.56C57.1159 284.475 57.2386 284.432 57.3773 284.432C57.5159 284.432 57.6333 284.475 57.7293 284.56C57.8359 284.645 57.8893 284.741 57.8893 284.848V289.104C57.8893 289.456 57.9799 289.787 58.1613 290.096C58.3426 290.405 58.5826 290.661 58.8813 290.864C59.1799 291.056 59.5159 291.152 59.8893 291.152C60.2733 291.152 60.6146 291.056 60.9133 290.864C61.2119 290.672 61.4466 290.421 61.6173 290.112C61.7986 289.792 61.8893 289.456 61.8893 289.104V284.832C61.8893 284.715 61.9426 284.619 62.0493 284.544C62.1559 284.469 62.2786 284.432 62.4173 284.432C62.5773 284.432 62.6999 284.469 62.7853 284.544C62.8813 284.619 62.9293 284.715 62.9293 284.832V289.104C62.9293 289.648 62.7906 290.149 62.5133 290.608C62.2466 291.056 61.8786 291.419 61.4093 291.696C60.9506 291.973 60.4493 292.112 59.9053 292.112ZM65.6987 282.192C65.5067 282.192 65.3361 282.128 65.1867 282C65.0481 281.861 64.9787 281.701 64.9787 281.52C64.9787 281.339 65.0481 281.184 65.1867 281.056C65.3361 280.928 65.5067 280.864 65.6987 280.864C65.8907 280.864 66.0561 280.928 66.1947 281.056C66.3334 281.184 66.4027 281.339 66.4027 281.52C66.4027 281.701 66.3334 281.861 66.1947 282C66.0561 282.128 65.8907 282.192 65.6987 282.192ZM65.6827 292C65.5441 292 65.4214 291.957 65.3147 291.872C65.2187 291.787 65.1707 291.691 65.1707 291.584V284.832C65.1707 284.704 65.2187 284.608 65.3147 284.544C65.4214 284.469 65.5441 284.432 65.6827 284.432C65.8321 284.432 65.9547 284.469 66.0507 284.544C66.1574 284.608 66.2107 284.704 66.2107 284.832V291.584C66.2107 291.691 66.1574 291.787 66.0507 291.872C65.9547 291.957 65.8321 292 65.6827 292ZM69.178 292C69.0393 292 68.9167 291.957 68.81 291.872C68.714 291.787 68.666 291.691 68.666 291.584V280.192C68.666 280.064 68.714 279.968 68.81 279.904C68.9167 279.829 69.0393 279.792 69.178 279.792C69.3273 279.792 69.45 279.829 69.546 279.904C69.6527 279.968 69.706 280.064 69.706 280.192V291.584C69.706 291.691 69.6527 291.787 69.546 291.872C69.45 291.957 69.3273 292 69.178 292ZM72.8261 292C72.6875 292 72.5648 291.957 72.4581 291.872C72.3621 291.787 72.3141 291.691 72.3141 291.584V280.192C72.3141 280.064 72.3621 279.968 72.4581 279.904C72.5648 279.829 72.6875 279.792 72.8261 279.792C72.9755 279.792 73.0981 279.829 73.1941 279.904C73.3008 279.968 73.3541 280.064 73.3541 280.192V291.584C73.3541 291.691 73.3008 291.787 73.1941 291.872C73.0981 291.957 72.9755 292 72.8261 292ZM78.9862 292.112C78.3142 292.112 77.7169 291.984 77.1942 291.728C76.6822 291.472 76.2769 291.12 75.9782 290.672C75.6902 290.213 75.5462 289.68 75.5462 289.072V287.296C75.5462 286.763 75.6849 286.272 75.9622 285.824C76.2396 285.365 76.6076 285.003 77.0662 284.736C77.5356 284.469 78.0476 284.336 78.6022 284.336C79.1356 284.336 79.6262 284.464 80.0742 284.72C80.5329 284.965 80.9009 285.307 81.1782 285.744C81.4556 286.181 81.5942 286.688 81.5942 287.264C81.5942 287.669 81.5249 287.963 81.3862 288.144C81.2476 288.325 81.0716 288.437 80.8582 288.48C80.6556 288.512 80.4369 288.528 80.2022 288.528H76.5862V289.12C76.5862 289.76 76.8156 290.267 77.2742 290.64C77.7329 291.013 78.3142 291.2 79.0182 291.2C79.4449 291.2 79.7756 291.147 80.0102 291.04C80.2449 290.933 80.4262 290.827 80.5542 290.72C80.6929 290.613 80.8209 290.56 80.9382 290.56C81.0236 290.56 81.0982 290.592 81.1622 290.656C81.2369 290.709 81.2902 290.773 81.3222 290.848C81.3649 290.923 81.3862 290.992 81.3862 291.056C81.3862 291.173 81.2902 291.317 81.0982 291.488C80.9062 291.659 80.6289 291.808 80.2662 291.936C79.9036 292.053 79.4769 292.112 78.9862 292.112ZM76.5862 287.76H79.7862C80.1062 287.76 80.3196 287.728 80.4262 287.664C80.5329 287.589 80.5862 287.44 80.5862 287.216C80.5862 286.875 80.5009 286.555 80.3302 286.256C80.1596 285.947 79.9249 285.696 79.6262 285.504C79.3276 285.301 78.9809 285.2 78.5862 285.2C78.2236 285.2 77.8876 285.291 77.5782 285.472C77.2796 285.653 77.0396 285.888 76.8582 286.176C76.6769 286.464 76.5862 286.789 76.5862 287.152V287.76ZM77.9142 282.56C77.8076 282.56 77.7116 282.512 77.6262 282.416C77.5409 282.32 77.4982 282.219 77.4982 282.112C77.4982 281.963 77.5569 281.861 77.6742 281.808L79.4662 280.832C79.5196 280.8 79.5622 280.784 79.5942 280.784C79.7116 280.784 79.8022 280.832 79.8662 280.928C79.9409 281.024 79.9782 281.131 79.9782 281.248C79.9782 281.408 79.9142 281.525 79.7862 281.6L78.0742 282.496C78.0529 282.507 78.0262 282.523 77.9942 282.544C77.9622 282.555 77.9356 282.56 77.9142 282.56Z" fill="#1A1400"/>
<path d="M112.744 230C112.605 230 112.483 229.968 112.376 229.904C112.269 229.829 112.216 229.723 112.216 229.584V218.704C112.216 218.555 112.269 218.453 112.376 218.4C112.483 218.336 112.605 218.304 112.744 218.304C112.872 218.304 112.984 218.341 113.08 218.416C113.176 218.48 113.267 218.571 113.352 218.688C113.437 218.795 113.512 218.917 113.576 219.056L117.896 227.552V218.704C117.896 218.565 117.949 218.464 118.056 218.4C118.163 218.336 118.285 218.304 118.424 218.304C118.552 218.304 118.669 218.336 118.776 218.4C118.893 218.464 118.952 218.565 118.952 218.704V229.584C118.952 229.723 118.893 229.829 118.776 229.904C118.669 229.968 118.552 230 118.424 230C118.275 230 118.136 229.941 118.008 229.824C117.891 229.696 117.795 229.552 117.72 229.392L113.272 220.736V229.584C113.272 229.723 113.213 229.829 113.096 229.904C112.989 229.968 112.872 230 112.744 230ZM124.589 230.112C123.917 230.112 123.32 229.984 122.797 229.728C122.285 229.472 121.88 229.12 121.581 228.672C121.293 228.213 121.149 227.68 121.149 227.072V225.296C121.149 224.763 121.288 224.272 121.565 223.824C121.843 223.365 122.211 223.003 122.669 222.736C123.139 222.469 123.651 222.336 124.205 222.336C124.739 222.336 125.229 222.464 125.677 222.72C126.136 222.965 126.504 223.307 126.781 223.744C127.059 224.181 127.197 224.688 127.197 225.264C127.197 225.669 127.128 225.963 126.989 226.144C126.851 226.325 126.675 226.437 126.461 226.48C126.259 226.512 126.04 226.528 125.805 226.528H122.189V227.12C122.189 227.76 122.419 228.267 122.877 228.64C123.336 229.013 123.917 229.2 124.621 229.2C125.048 229.2 125.379 229.147 125.613 229.04C125.848 228.933 126.029 228.827 126.157 228.72C126.296 228.613 126.424 228.56 126.541 228.56C126.627 228.56 126.701 228.592 126.765 228.656C126.84 228.709 126.893 228.773 126.925 228.848C126.968 228.923 126.989 228.992 126.989 229.056C126.989 229.173 126.893 229.317 126.701 229.488C126.509 229.659 126.232 229.808 125.869 229.936C125.507 230.053 125.08 230.112 124.589 230.112ZM122.189 225.76H125.389C125.709 225.76 125.923 225.728 126.029 225.664C126.136 225.589 126.189 225.44 126.189 225.216C126.189 224.875 126.104 224.555 125.933 224.256C125.763 223.947 125.528 223.696 125.229 223.504C124.931 223.301 124.584 223.2 124.189 223.2C123.827 223.2 123.491 223.291 123.181 223.472C122.883 223.653 122.643 223.888 122.461 224.176C122.28 224.464 122.189 224.789 122.189 225.152V225.76ZM132.061 230.112C131.496 230.112 130.979 229.973 130.509 229.696C130.051 229.419 129.683 229.051 129.405 228.592C129.139 228.123 129.005 227.627 129.005 227.104V222.848C129.005 222.741 129.059 222.645 129.165 222.56C129.272 222.475 129.395 222.432 129.533 222.432C129.672 222.432 129.789 222.475 129.885 222.56C129.992 222.645 130.045 222.741 130.045 222.848V227.104C130.045 227.456 130.136 227.787 130.317 228.096C130.499 228.405 130.739 228.661 131.037 228.864C131.336 229.056 131.672 229.152 132.045 229.152C132.429 229.152 132.771 229.056 133.069 228.864C133.368 228.672 133.603 228.421 133.773 228.112C133.955 227.792 134.045 227.456 134.045 227.104V222.832C134.045 222.715 134.099 222.619 134.205 222.544C134.312 222.469 134.435 222.432 134.573 222.432C134.733 222.432 134.856 222.469 134.941 222.544C135.037 222.619 135.085 222.715 135.085 222.832V227.104C135.085 227.648 134.947 228.149 134.669 228.608C134.403 229.056 134.035 229.419 133.565 229.696C133.107 229.973 132.605 230.112 132.061 230.112ZM139.695 230.128C139.578 230.128 139.476 230.107 139.391 230.064C139.306 230.021 139.247 229.957 139.215 229.872L136.639 223.12C136.618 223.099 136.596 223.061 136.575 223.008C136.564 222.955 136.559 222.912 136.559 222.88C136.559 222.795 136.591 222.715 136.655 222.64C136.73 222.565 136.815 222.507 136.911 222.464C137.018 222.421 137.114 222.4 137.199 222.4C137.284 222.4 137.359 222.421 137.423 222.464C137.498 222.496 137.551 222.555 137.583 222.64L139.695 228.4L141.807 222.704C141.828 222.619 141.866 222.549 141.919 222.496C141.972 222.432 142.058 222.4 142.175 222.4C142.26 222.4 142.351 222.421 142.447 222.464C142.543 222.507 142.628 222.565 142.703 222.64C142.778 222.704 142.815 222.784 142.815 222.88C142.815 222.923 142.81 222.971 142.799 223.024C142.788 223.067 142.772 223.099 142.751 223.12L140.175 229.872C140.143 229.947 140.079 230.005 139.983 230.048C139.898 230.101 139.802 230.128 139.695 230.128ZM144.894 220.192C144.702 220.192 144.531 220.128 144.382 220C144.243 219.861 144.174 219.701 144.174 219.52C144.174 219.339 144.243 219.184 144.382 219.056C144.531 218.928 144.702 218.864 144.894 218.864C145.086 218.864 145.251 218.928 145.39 219.056C145.528 219.184 145.598 219.339 145.598 219.52C145.598 219.701 145.528 219.861 145.39 220C145.251 220.128 145.086 220.192 144.894 220.192ZM144.878 230C144.739 230 144.616 229.957 144.51 229.872C144.414 229.787 144.366 229.691 144.366 229.584V222.832C144.366 222.704 144.414 222.608 144.51 222.544C144.616 222.469 144.739 222.432 144.878 222.432C145.027 222.432 145.15 222.469 145.246 222.544C145.352 222.608 145.406 222.704 145.406 222.832V229.584C145.406 229.691 145.352 229.787 145.246 229.872C145.15 229.957 145.027 230 144.878 230ZM148.373 230C148.234 230 148.112 229.957 148.005 229.872C147.909 229.787 147.861 229.691 147.861 229.584V218.192C147.861 218.064 147.909 217.968 148.005 217.904C148.112 217.829 148.234 217.792 148.373 217.792C148.522 217.792 148.645 217.829 148.741 217.904C148.848 217.968 148.901 218.064 148.901 218.192V229.584C148.901 229.691 148.848 229.787 148.741 229.872C148.645 229.957 148.522 230 148.373 230ZM152.021 230C151.882 230 151.76 229.957 151.653 229.872C151.557 229.787 151.509 229.691 151.509 229.584V218.192C151.509 218.064 151.557 217.968 151.653 217.904C151.76 217.829 151.882 217.792 152.021 217.792C152.17 217.792 152.293 217.829 152.389 217.904C152.496 217.968 152.549 218.064 152.549 218.192V229.584C152.549 229.691 152.496 229.787 152.389 229.872C152.293 229.957 152.17 230 152.021 230ZM158.181 230.112C157.509 230.112 156.912 229.984 156.389 229.728C155.877 229.472 155.472 229.12 155.173 228.672C154.885 228.213 154.741 227.68 154.741 227.072V225.296C154.741 224.763 154.88 224.272 155.157 223.824C155.435 223.365 155.803 223.003 156.261 222.736C156.731 222.469 157.243 222.336 157.797 222.336C158.331 222.336 158.821 222.464 159.269 222.72C159.728 222.965 160.096 223.307 160.373 223.744C160.651 224.181 160.789 224.688 160.789 225.264C160.789 225.669 160.72 225.963 160.581 226.144C160.443 226.325 160.267 226.437 160.053 226.48C159.851 226.512 159.632 226.528 159.397 226.528H155.781V227.12C155.781 227.76 156.011 228.267 156.469 228.64C156.928 229.013 157.509 229.2 158.213 229.2C158.64 229.2 158.971 229.147 159.205 229.04C159.44 228.933 159.621 228.827 159.749 228.72C159.888 228.613 160.016 228.56 160.133 228.56C160.219 228.56 160.293 228.592 160.357 228.656C160.432 228.709 160.485 228.773 160.517 228.848C160.56 228.923 160.581 228.992 160.581 229.056C160.581 229.173 160.485 229.317 160.293 229.488C160.101 229.659 159.824 229.808 159.461 229.936C159.099 230.053 158.672 230.112 158.181 230.112ZM155.781 225.76H158.981C159.301 225.76 159.515 225.728 159.621 225.664C159.728 225.589 159.781 225.44 159.781 225.216C159.781 224.875 159.696 224.555 159.525 224.256C159.355 223.947 159.12 223.696 158.821 223.504C158.523 223.301 158.176 223.2 157.781 223.2C157.419 223.2 157.083 223.291 156.773 223.472C156.475 223.653 156.235 223.888 156.053 224.176C155.872 224.464 155.781 224.789 155.781 225.152V225.76Z" fill="#1A1400"/>
<path d="M98.8287 92C98.7074 92 98.6 91.972 98.5067 91.916C98.4134 91.8507 98.3667 91.7573 98.3667 91.636V82.214C98.3667 82.046 98.4134 81.9293 98.5067 81.864C98.6 81.7987 98.7074 81.766 98.8287 81.766C98.9407 81.766 99.0387 81.7987 99.1227 81.864C99.216 81.92 99.3 81.9993 99.3747 82.102C99.4494 82.1953 99.5147 82.3027 99.5707 82.424L101.979 87.058L104.373 82.424C104.447 82.3027 104.517 82.1953 104.583 82.102C104.657 81.9993 104.741 81.92 104.835 81.864C104.928 81.7987 105.026 81.766 105.129 81.766C105.259 81.766 105.367 81.7987 105.451 81.864C105.544 81.9293 105.591 82.046 105.591 82.214V91.636C105.591 91.7573 105.544 91.8507 105.451 91.916C105.357 91.972 105.25 92 105.129 92C105.017 92 104.909 91.972 104.807 91.916C104.713 91.8507 104.667 91.7573 104.667 91.636V83.768L102.343 88.164C102.287 88.276 102.226 88.3553 102.161 88.402C102.095 88.4487 102.03 88.472 101.965 88.472C101.909 88.472 101.848 88.4487 101.783 88.402C101.717 88.3553 101.652 88.276 101.587 88.164L99.2907 83.74V91.636C99.2907 91.7573 99.2394 91.8507 99.1367 91.916C99.0434 91.972 98.9407 92 98.8287 92ZM109.946 92C109.227 92 108.676 91.8367 108.294 91.51C107.911 91.1833 107.72 90.6607 107.72 89.942V82.578C107.72 82.466 107.766 82.382 107.86 82.326C107.962 82.2607 108.065 82.228 108.168 82.228C108.289 82.228 108.396 82.2607 108.49 82.326C108.583 82.382 108.63 82.466 108.63 82.578V85.378H110.45C110.543 85.378 110.618 85.4153 110.674 85.49C110.73 85.5647 110.758 85.6533 110.758 85.756C110.758 85.8587 110.73 85.9473 110.674 86.022C110.618 86.0967 110.543 86.134 110.45 86.134H108.63V89.942C108.63 90.3993 108.728 90.7213 108.924 90.908C109.12 91.0853 109.46 91.174 109.946 91.174H110.338C110.468 91.174 110.566 91.216 110.632 91.3C110.706 91.3747 110.744 91.468 110.744 91.58C110.744 91.692 110.706 91.79 110.632 91.874C110.566 91.958 110.468 92 110.338 92H109.946ZM113.962 92.098C113.524 92.098 113.136 92.042 112.8 91.93C112.474 91.818 112.217 91.6873 112.03 91.538C111.853 91.3793 111.764 91.23 111.764 91.09C111.764 91.0247 111.778 90.964 111.806 90.908C111.834 90.8427 111.872 90.7867 111.918 90.74C111.974 90.6933 112.03 90.67 112.086 90.67C112.189 90.67 112.301 90.726 112.422 90.838C112.553 90.9407 112.73 91.048 112.954 91.16C113.188 91.272 113.514 91.328 113.934 91.328C114.466 91.328 114.84 91.23 115.054 91.034C115.269 90.8287 115.376 90.5953 115.376 90.334C115.376 90.026 115.292 89.788 115.124 89.62C114.966 89.4427 114.751 89.3073 114.48 89.214C114.219 89.1207 113.939 89.032 113.64 88.948C113.351 88.864 113.071 88.7613 112.8 88.64C112.539 88.5187 112.324 88.346 112.156 88.122C111.998 87.8887 111.918 87.5807 111.918 87.198C111.918 86.8993 111.993 86.6053 112.142 86.316C112.292 86.0267 112.525 85.784 112.842 85.588C113.169 85.392 113.598 85.294 114.13 85.294C114.438 85.294 114.737 85.3267 115.026 85.392C115.316 85.4573 115.549 85.546 115.726 85.658C115.913 85.7607 116.006 85.8727 116.006 85.994C116.006 86.0313 115.988 86.092 115.95 86.176C115.922 86.2507 115.88 86.316 115.824 86.372C115.768 86.428 115.703 86.456 115.628 86.456C115.554 86.456 115.451 86.4233 115.32 86.358C115.199 86.2927 115.04 86.2273 114.844 86.162C114.648 86.0967 114.415 86.064 114.144 86.064C113.808 86.064 113.538 86.1247 113.332 86.246C113.127 86.3673 112.978 86.512 112.884 86.68C112.791 86.848 112.744 87.0113 112.744 87.17C112.744 87.4313 112.828 87.632 112.996 87.772C113.164 87.912 113.379 88.0287 113.64 88.122C113.911 88.206 114.191 88.29 114.48 88.374C114.779 88.4487 115.059 88.556 115.32 88.696C115.591 88.836 115.806 89.032 115.964 89.284C116.132 89.536 116.216 89.872 116.216 90.292C116.216 90.8427 116.02 91.2813 115.628 91.608C115.236 91.9347 114.681 92.098 113.962 92.098ZM122.739 92.098C122.301 92.098 121.913 92.042 121.577 91.93C121.251 91.818 120.994 91.6873 120.807 91.538C120.63 91.3793 120.541 91.23 120.541 91.09C120.541 91.0247 120.555 90.964 120.583 90.908C120.611 90.8427 120.649 90.7867 120.695 90.74C120.751 90.6933 120.807 90.67 120.863 90.67C120.966 90.67 121.078 90.726 121.199 90.838C121.33 90.9407 121.507 91.048 121.731 91.16C121.965 91.272 122.291 91.328 122.711 91.328C123.243 91.328 123.617 91.23 123.831 91.034C124.046 90.8287 124.153 90.5953 124.153 90.334C124.153 90.026 124.069 89.788 123.901 89.62C123.743 89.4427 123.528 89.3073 123.257 89.214C122.996 89.1207 122.716 89.032 122.417 88.948C122.128 88.864 121.848 88.7613 121.577 88.64C121.316 88.5187 121.101 88.346 120.933 88.122C120.775 87.8887 120.695 87.5807 120.695 87.198C120.695 86.8993 120.77 86.6053 120.919 86.316C121.069 86.0267 121.302 85.784 121.619 85.588C121.946 85.392 122.375 85.294 122.907 85.294C123.215 85.294 123.514 85.3267 123.803 85.392C124.093 85.4573 124.326 85.546 124.503 85.658C124.69 85.7607 124.783 85.8727 124.783 85.994C124.783 86.0313 124.765 86.092 124.727 86.176C124.699 86.2507 124.657 86.316 124.601 86.372C124.545 86.428 124.48 86.456 124.405 86.456C124.331 86.456 124.228 86.4233 124.097 86.358C123.976 86.2927 123.817 86.2273 123.621 86.162C123.425 86.0967 123.192 86.064 122.921 86.064C122.585 86.064 122.315 86.1247 122.109 86.246C121.904 86.3673 121.755 86.512 121.661 86.68C121.568 86.848 121.521 87.0113 121.521 87.17C121.521 87.4313 121.605 87.632 121.773 87.772C121.941 87.912 122.156 88.0287 122.417 88.122C122.688 88.206 122.968 88.29 123.257 88.374C123.556 88.4487 123.836 88.556 124.097 88.696C124.368 88.836 124.583 89.032 124.741 89.284C124.909 89.536 124.993 89.872 124.993 90.292C124.993 90.8427 124.797 91.2813 124.405 91.608C124.013 91.9347 123.458 92.098 122.739 92.098ZM129.245 92.098C128.751 92.098 128.298 91.9767 127.887 91.734C127.486 91.4913 127.164 91.1693 126.921 90.768C126.688 90.3573 126.571 89.9233 126.571 89.466V85.742C126.571 85.6487 126.618 85.5647 126.711 85.49C126.805 85.4153 126.912 85.378 127.033 85.378C127.155 85.378 127.257 85.4153 127.341 85.49C127.435 85.5647 127.481 85.6487 127.481 85.742V89.466C127.481 89.774 127.561 90.0633 127.719 90.334C127.878 90.6047 128.088 90.8287 128.349 91.006C128.611 91.174 128.905 91.258 129.231 91.258C129.567 91.258 129.866 91.174 130.127 91.006C130.389 90.838 130.594 90.6187 130.743 90.348C130.902 90.068 130.981 89.774 130.981 89.466V85.728C130.981 85.6253 131.028 85.5413 131.121 85.476C131.215 85.4107 131.322 85.378 131.443 85.378C131.583 85.378 131.691 85.4107 131.765 85.476C131.849 85.5413 131.891 85.6253 131.891 85.728V89.466C131.891 89.942 131.77 90.3807 131.527 90.782C131.294 91.174 130.972 91.4913 130.561 91.734C130.16 91.9767 129.721 92.098 129.245 92.098ZM134.301 92C134.179 92 134.072 91.9627 133.979 91.888C133.895 91.8133 133.853 91.7293 133.853 91.636V85.728C133.853 85.616 133.895 85.532 133.979 85.476C134.072 85.4107 134.179 85.378 134.301 85.378C134.422 85.378 134.525 85.4107 134.609 85.476C134.693 85.532 134.735 85.616 134.735 85.728V86.414C134.837 86.218 134.977 86.036 135.155 85.868C135.332 85.7 135.542 85.5647 135.785 85.462C136.027 85.35 136.303 85.294 136.611 85.294H137.101C137.203 85.294 137.287 85.336 137.353 85.42C137.427 85.504 137.465 85.602 137.465 85.714C137.465 85.8353 137.427 85.938 137.353 86.022C137.287 86.0967 137.203 86.134 137.101 86.134H136.611C136.303 86.134 136.004 86.218 135.715 86.386C135.435 86.554 135.206 86.7873 135.029 87.086C134.851 87.3847 134.763 87.7487 134.763 88.178V91.636C134.763 91.7293 134.716 91.8133 134.623 91.888C134.539 91.9627 134.431 92 134.301 92ZM144.832 92.084C144.291 92.084 143.801 91.986 143.362 91.79C142.924 91.594 142.574 91.2767 142.312 90.838C142.051 90.3993 141.92 89.816 141.92 89.088V84.762C141.92 84.034 142.051 83.4507 142.312 83.012C142.574 82.5733 142.919 82.256 143.348 82.06C143.787 81.864 144.277 81.766 144.818 81.766C145.416 81.766 145.934 81.8733 146.372 82.088C146.811 82.2933 147.152 82.578 147.394 82.942C147.637 83.306 147.758 83.726 147.758 84.202C147.758 84.37 147.716 84.4913 147.632 84.566C147.548 84.6313 147.436 84.664 147.296 84.664C147.166 84.664 147.054 84.636 146.96 84.58C146.876 84.524 146.83 84.4353 146.82 84.314C146.783 83.9593 146.685 83.656 146.526 83.404C146.368 83.152 146.148 82.9607 145.868 82.83C145.588 82.69 145.243 82.62 144.832 82.62C144.207 82.62 143.722 82.7973 143.376 83.152C143.031 83.4973 142.858 84.034 142.858 84.762V89.088C142.858 89.816 143.031 90.3573 143.376 90.712C143.722 91.0573 144.207 91.23 144.832 91.23C145.458 91.23 145.943 91.0573 146.288 90.712C146.643 90.3573 146.82 89.816 146.82 89.088V87.422H144.958C144.846 87.422 144.758 87.3847 144.692 87.31C144.636 87.226 144.608 87.1327 144.608 87.03C144.608 86.9273 144.636 86.834 144.692 86.75C144.758 86.666 144.846 86.624 144.958 86.624H147.408C147.52 86.624 147.604 86.6613 147.66 86.736C147.726 86.8107 147.758 86.8993 147.758 87.002V89.088C147.758 89.816 147.628 90.3993 147.366 90.838C147.105 91.2767 146.755 91.594 146.316 91.79C145.878 91.986 145.383 92.084 144.832 92.084ZM152.268 92.098C151.773 92.098 151.32 91.9767 150.91 91.734C150.508 91.4913 150.186 91.1693 149.944 90.768C149.71 90.3573 149.594 89.9233 149.594 89.466V85.742C149.594 85.6487 149.64 85.5647 149.734 85.49C149.827 85.4153 149.934 85.378 150.056 85.378C150.177 85.378 150.28 85.4153 150.364 85.49C150.457 85.5647 150.504 85.6487 150.504 85.742V89.466C150.504 89.774 150.583 90.0633 150.742 90.334C150.9 90.6047 151.11 90.8287 151.372 91.006C151.633 91.174 151.927 91.258 152.254 91.258C152.59 91.258 152.888 91.174 153.15 91.006C153.411 90.838 153.616 90.6187 153.766 90.348C153.924 90.068 154.004 89.774 154.004 89.466V85.728C154.004 85.6253 154.05 85.5413 154.144 85.476C154.237 85.4107 154.344 85.378 154.466 85.378C154.606 85.378 154.713 85.4107 154.788 85.476C154.872 85.5413 154.914 85.6253 154.914 85.728V89.466C154.914 89.942 154.792 90.3807 154.55 90.782C154.316 91.174 153.994 91.4913 153.584 91.734C153.182 91.9767 152.744 92.098 152.268 92.098ZM159.647 92.098C159.059 92.098 158.536 91.986 158.079 91.762C157.631 91.538 157.276 91.23 157.015 90.838C156.763 90.4367 156.637 89.97 156.637 89.438V87.884C156.637 87.4173 156.758 86.988 157.001 86.596C157.244 86.1947 157.566 85.8773 157.967 85.644C158.378 85.4107 158.826 85.294 159.311 85.294C159.778 85.294 160.207 85.406 160.599 85.63C161 85.8447 161.322 86.1433 161.565 86.526C161.808 86.9087 161.929 87.352 161.929 87.856C161.929 88.2107 161.868 88.4673 161.747 88.626C161.626 88.7847 161.472 88.8827 161.285 88.92C161.108 88.948 160.916 88.962 160.711 88.962H157.547V89.48C157.547 90.04 157.748 90.4833 158.149 90.81C158.55 91.1367 159.059 91.3 159.675 91.3C160.048 91.3 160.338 91.2533 160.543 91.16C160.748 91.0667 160.907 90.9733 161.019 90.88C161.14 90.7867 161.252 90.74 161.355 90.74C161.43 90.74 161.495 90.768 161.551 90.824C161.616 90.8707 161.663 90.9267 161.691 90.992C161.728 91.0573 161.747 91.118 161.747 91.174C161.747 91.2767 161.663 91.4027 161.495 91.552C161.327 91.7013 161.084 91.832 160.767 91.944C160.45 92.0467 160.076 92.098 159.647 92.098ZM157.547 88.29H160.347C160.627 88.29 160.814 88.262 160.907 88.206C161 88.1407 161.047 88.01 161.047 87.814C161.047 87.5153 160.972 87.2353 160.823 86.974C160.674 86.7033 160.468 86.484 160.207 86.316C159.946 86.1387 159.642 86.05 159.297 86.05C158.98 86.05 158.686 86.1293 158.415 86.288C158.154 86.4467 157.944 86.652 157.785 86.904C157.626 87.156 157.547 87.4407 157.547 87.758V88.29ZM165.373 92.098C164.934 92.098 164.547 92.042 164.211 91.93C163.884 91.818 163.628 91.6873 163.441 91.538C163.264 91.3793 163.175 91.23 163.175 91.09C163.175 91.0247 163.189 90.964 163.217 90.908C163.245 90.8427 163.282 90.7867 163.329 90.74C163.385 90.6933 163.441 90.67 163.497 90.67C163.6 90.67 163.712 90.726 163.833 90.838C163.964 90.9407 164.141 91.048 164.365 91.16C164.598 91.272 164.925 91.328 165.345 91.328C165.877 91.328 166.25 91.23 166.465 91.034C166.68 90.8287 166.787 90.5953 166.787 90.334C166.787 90.026 166.703 89.788 166.535 89.62C166.376 89.4427 166.162 89.3073 165.891 89.214C165.63 89.1207 165.35 89.032 165.051 88.948C164.762 88.864 164.482 88.7613 164.211 88.64C163.95 88.5187 163.735 88.346 163.567 88.122C163.408 87.8887 163.329 87.5807 163.329 87.198C163.329 86.8993 163.404 86.6053 163.553 86.316C163.702 86.0267 163.936 85.784 164.253 85.588C164.58 85.392 165.009 85.294 165.541 85.294C165.849 85.294 166.148 85.3267 166.437 85.392C166.726 85.4573 166.96 85.546 167.137 85.658C167.324 85.7607 167.417 85.8727 167.417 85.994C167.417 86.0313 167.398 86.092 167.361 86.176C167.333 86.2507 167.291 86.316 167.235 86.372C167.179 86.428 167.114 86.456 167.039 86.456C166.964 86.456 166.862 86.4233 166.731 86.358C166.61 86.2927 166.451 86.2273 166.255 86.162C166.059 86.0967 165.826 86.064 165.555 86.064C165.219 86.064 164.948 86.1247 164.743 86.246C164.538 86.3673 164.388 86.512 164.295 86.68C164.202 86.848 164.155 87.0113 164.155 87.17C164.155 87.4313 164.239 87.632 164.407 87.772C164.575 87.912 164.79 88.0287 165.051 88.122C165.322 88.206 165.602 88.29 165.891 88.374C166.19 88.4487 166.47 88.556 166.731 88.696C167.002 88.836 167.216 89.032 167.375 89.284C167.543 89.536 167.627 89.872 167.627 90.292C167.627 90.8427 167.431 91.2813 167.039 91.608C166.647 91.9347 166.092 92.098 165.373 92.098ZM169.709 92C169.588 92 169.48 91.9627 169.387 91.888C169.303 91.8133 169.261 91.7293 169.261 91.636V85.728C169.261 85.616 169.303 85.532 169.387 85.476C169.48 85.4107 169.588 85.378 169.709 85.378C169.83 85.378 169.933 85.4107 170.017 85.476C170.101 85.532 170.143 85.616 170.143 85.728V86.358C170.292 86.0873 170.526 85.8447 170.843 85.63C171.16 85.406 171.552 85.294 172.019 85.294C172.467 85.294 172.878 85.4153 173.251 85.658C173.634 85.8913 173.937 86.2087 174.161 86.61C174.385 87.002 174.497 87.4407 174.497 87.926V91.636C174.497 91.7573 174.45 91.8507 174.357 91.916C174.264 91.972 174.156 92 174.035 92C173.932 92 173.83 91.972 173.727 91.916C173.634 91.8507 173.587 91.7573 173.587 91.636V87.926C173.587 87.618 173.508 87.3287 173.349 87.058C173.19 86.7873 172.98 86.568 172.719 86.4C172.458 86.2227 172.168 86.134 171.851 86.134C171.571 86.134 171.3 86.2087 171.039 86.358C170.787 86.498 170.577 86.6987 170.409 86.96C170.25 87.2213 170.171 87.5433 170.171 87.926V91.636C170.171 91.7293 170.124 91.8133 170.031 91.888C169.947 91.9627 169.84 92 169.709 92ZM179.231 92.098C178.643 92.098 178.12 91.986 177.663 91.762C177.215 91.538 176.86 91.23 176.599 90.838C176.347 90.4367 176.221 89.97 176.221 89.438V87.884C176.221 87.4173 176.342 86.988 176.585 86.596C176.828 86.1947 177.15 85.8773 177.551 85.644C177.962 85.4107 178.41 85.294 178.895 85.294C179.362 85.294 179.791 85.406 180.183 85.63C180.584 85.8447 180.906 86.1433 181.149 86.526C181.392 86.9087 181.513 87.352 181.513 87.856C181.513 88.2107 181.452 88.4673 181.331 88.626C181.21 88.7847 181.056 88.8827 180.869 88.92C180.692 88.948 180.5 88.962 180.295 88.962H177.131V89.48C177.131 90.04 177.332 90.4833 177.733 90.81C178.134 91.1367 178.643 91.3 179.259 91.3C179.632 91.3 179.922 91.2533 180.127 91.16C180.332 91.0667 180.491 90.9733 180.603 90.88C180.724 90.7867 180.836 90.74 180.939 90.74C181.014 90.74 181.079 90.768 181.135 90.824C181.2 90.8707 181.247 90.9267 181.275 90.992C181.312 91.0573 181.331 91.118 181.331 91.174C181.331 91.2767 181.247 91.4027 181.079 91.552C180.911 91.7013 180.668 91.832 180.351 91.944C180.034 92.0467 179.66 92.098 179.231 92.098ZM177.131 88.29H179.931C180.211 88.29 180.398 88.262 180.491 88.206C180.584 88.1407 180.631 88.01 180.631 87.814C180.631 87.5153 180.556 87.2353 180.407 86.974C180.258 86.7033 180.052 86.484 179.791 86.316C179.53 86.1387 179.226 86.05 178.881 86.05C178.564 86.05 178.27 86.1293 177.999 86.288C177.738 86.4467 177.528 86.652 177.369 86.904C177.21 87.156 177.131 87.4407 177.131 87.758V88.29ZM184.957 92.098C184.519 92.098 184.131 92.042 183.795 91.93C183.469 91.818 183.212 91.6873 183.025 91.538C182.848 91.3793 182.759 91.23 182.759 91.09C182.759 91.0247 182.773 90.964 182.801 90.908C182.829 90.8427 182.867 90.7867 182.913 90.74C182.969 90.6933 183.025 90.67 183.081 90.67C183.184 90.67 183.296 90.726 183.417 90.838C183.548 90.9407 183.725 91.048 183.949 91.16C184.183 91.272 184.509 91.328 184.929 91.328C185.461 91.328 185.835 91.23 186.049 91.034C186.264 90.8287 186.371 90.5953 186.371 90.334C186.371 90.026 186.287 89.788 186.119 89.62C185.961 89.4427 185.746 89.3073 185.475 89.214C185.214 89.1207 184.934 89.032 184.635 88.948C184.346 88.864 184.066 88.7613 183.795 88.64C183.534 88.5187 183.319 88.346 183.151 88.122C182.993 87.8887 182.913 87.5807 182.913 87.198C182.913 86.8993 182.988 86.6053 183.137 86.316C183.287 86.0267 183.52 85.784 183.837 85.588C184.164 85.392 184.593 85.294 185.125 85.294C185.433 85.294 185.732 85.3267 186.021 85.392C186.311 85.4573 186.544 85.546 186.721 85.658C186.908 85.7607 187.001 85.8727 187.001 85.994C187.001 86.0313 186.983 86.092 186.945 86.176C186.917 86.2507 186.875 86.316 186.819 86.372C186.763 86.428 186.698 86.456 186.623 86.456C186.549 86.456 186.446 86.4233 186.315 86.358C186.194 86.2927 186.035 86.2273 185.839 86.162C185.643 86.0967 185.41 86.064 185.139 86.064C184.803 86.064 184.533 86.1247 184.327 86.246C184.122 86.3673 183.973 86.512 183.879 86.68C183.786 86.848 183.739 87.0113 183.739 87.17C183.739 87.4313 183.823 87.632 183.991 87.772C184.159 87.912 184.374 88.0287 184.635 88.122C184.906 88.206 185.186 88.29 185.475 88.374C185.774 88.4487 186.054 88.556 186.315 88.696C186.586 88.836 186.801 89.032 186.959 89.284C187.127 89.536 187.211 89.872 187.211 90.292C187.211 90.8427 187.015 91.2813 186.623 91.608C186.231 91.9347 185.676 92.098 184.957 92.098Z" fill="#1A1400"/>
<path d="M20.3456 104C20.2336 104 20.1456 103.972 20.0816 103.916C20.0176 103.86 19.9856 103.788 19.9856 103.7V95.528C19.9856 95.44 20.0176 95.368 20.0816 95.312C20.1456 95.256 20.2336 95.228 20.3456 95.228H22.4696C22.9416 95.228 23.3656 95.312 23.7416 95.48C24.1256 95.648 24.4256 95.92 24.6416 96.296C24.8656 96.672 24.9776 97.172 24.9776 97.796V101.432C24.9776 102.056 24.8656 102.556 24.6416 102.932C24.4256 103.308 24.1256 103.58 23.7416 103.748C23.3656 103.916 22.9416 104 22.4696 104H20.3456ZM20.7776 103.268H22.4696C23.0056 103.268 23.4256 103.12 23.7296 102.824C24.0336 102.528 24.1856 102.064 24.1856 101.432V97.796C24.1856 97.164 24.0336 96.7 23.7296 96.404C23.4256 96.108 23.0056 95.96 22.4696 95.96H20.7776V103.268ZM28.8604 104.072C28.4364 104.072 28.0684 104.012 27.7564 103.892C27.4444 103.764 27.1844 103.604 26.9764 103.412C26.7684 103.22 26.6164 103.008 26.5204 102.776C26.4244 102.544 26.3764 102.316 26.3764 102.092C26.3764 101.924 26.4044 101.812 26.4604 101.756C26.5244 101.7 26.6164 101.672 26.7364 101.672C26.9044 101.672 27.0164 101.704 27.0724 101.768C27.1284 101.824 27.1564 101.904 27.1564 102.008C27.1564 102.136 27.1804 102.28 27.2284 102.44C27.2844 102.592 27.3764 102.736 27.5044 102.872C27.6324 103.008 27.8044 103.12 28.0204 103.208C28.2364 103.296 28.5084 103.34 28.8364 103.34C29.4044 103.34 29.8364 103.196 30.1324 102.908C30.4284 102.612 30.5764 102.156 30.5764 101.54V101.312C30.5764 100.76 30.4204 100.36 30.1084 100.112C29.7964 99.856 29.3804 99.728 28.8604 99.728C28.7564 99.728 28.6804 99.692 28.6324 99.62C28.5844 99.548 28.5604 99.468 28.5604 99.38C28.5604 99.292 28.5844 99.212 28.6324 99.14C28.6804 99.068 28.7564 99.032 28.8604 99.032C29.1724 99.032 29.4404 98.988 29.6644 98.9C29.8964 98.804 30.0684 98.644 30.1804 98.42C30.3004 98.196 30.3604 97.888 30.3604 97.496C30.3604 96.976 30.2444 96.592 30.0124 96.344C29.7804 96.088 29.4124 95.96 28.9084 95.96C28.5964 95.96 28.3364 96 28.1284 96.08C27.9284 96.16 27.7724 96.268 27.6604 96.404C27.5484 96.532 27.4724 96.672 27.4324 96.824C27.3924 96.968 27.3724 97.104 27.3724 97.232C27.3724 97.352 27.3404 97.448 27.2764 97.52C27.2204 97.584 27.1244 97.616 26.9884 97.616C26.8764 97.616 26.7924 97.604 26.7364 97.58C26.6804 97.556 26.6404 97.508 26.6164 97.436C26.5924 97.364 26.5804 97.272 26.5804 97.16C26.5804 96.992 26.6124 96.8 26.6764 96.584C26.7484 96.368 26.8684 96.156 27.0364 95.948C27.2124 95.74 27.4524 95.568 27.7564 95.432C28.0604 95.296 28.4524 95.228 28.9324 95.228C29.3644 95.228 29.7444 95.296 30.0724 95.432C30.4004 95.568 30.6564 95.792 30.8404 96.104C31.0324 96.408 31.1284 96.82 31.1284 97.34C31.1284 97.884 31.0324 98.324 30.8404 98.66C30.6564 98.996 30.4244 99.232 30.1444 99.368C30.4964 99.512 30.7884 99.74 31.0204 100.052C31.2524 100.364 31.3684 100.784 31.3684 101.312V101.54C31.3684 102.156 31.2564 102.648 31.0324 103.016C30.8084 103.384 30.5044 103.652 30.1204 103.82C29.7444 103.988 29.3244 104.072 28.8604 104.072ZM35.9678 104C35.8718 104 35.7798 103.976 35.6918 103.928C35.6118 103.872 35.5718 103.792 35.5718 103.688V101.936H32.5238C32.4278 101.936 32.3518 101.908 32.2958 101.852C32.2398 101.788 32.2118 101.708 32.2118 101.612C32.2118 101.572 32.2158 101.536 32.2238 101.504C32.2318 101.472 32.2438 101.44 32.2598 101.408L35.2718 95.48C35.3118 95.384 35.3638 95.32 35.4278 95.288C35.4998 95.248 35.5718 95.228 35.6438 95.228C35.6998 95.228 35.7558 95.244 35.8118 95.276C35.8758 95.3 35.9278 95.336 35.9678 95.384C36.0078 95.432 36.0278 95.488 36.0278 95.552C36.0278 95.592 36.0158 95.644 35.9918 95.708L33.2318 101.18H35.5718V98.864C35.5718 98.76 35.6118 98.688 35.6918 98.648C35.7798 98.6 35.8718 98.576 35.9678 98.576C36.0718 98.576 36.1638 98.6 36.2438 98.648C36.3238 98.688 36.3638 98.76 36.3638 98.864V101.18H37.0238C37.1278 101.18 37.2038 101.22 37.2518 101.3C37.3078 101.372 37.3358 101.456 37.3358 101.552C37.3358 101.648 37.3038 101.736 37.2398 101.816C37.1838 101.896 37.1118 101.936 37.0238 101.936H36.3638V103.688C36.3638 103.792 36.3238 103.872 36.2438 103.928C36.1638 103.976 36.0718 104 35.9678 104ZM38.7869 104.024C38.7069 104.024 38.6269 104.008 38.5469 103.976C38.4749 103.944 38.4149 103.9 38.3669 103.844C38.3269 103.788 38.3069 103.72 38.3069 103.64C38.3069 103.584 38.3229 103.528 38.3549 103.472L41.9429 96.608V95.96H38.5349V97.34C38.5349 97.42 38.4949 97.492 38.4149 97.556C38.3349 97.62 38.2429 97.652 38.1389 97.652C38.0349 97.652 37.9429 97.62 37.8629 97.556C37.7829 97.492 37.7429 97.42 37.7429 97.34V95.54C37.7429 95.46 37.7789 95.388 37.8509 95.324C37.9309 95.26 38.0149 95.228 38.1029 95.228H42.3629C42.4509 95.228 42.5349 95.26 42.6149 95.324C42.6949 95.388 42.7349 95.46 42.7349 95.54V96.56C42.7349 96.608 42.7229 96.664 42.6989 96.728C42.6829 96.792 42.6549 96.856 42.6149 96.92L39.0509 103.868C39.0029 103.972 38.9149 104.024 38.7869 104.024Z" fill="#1A1400"/>
<path d="M1.52614 266C1.43814 266 1.35414 265.976 1.27414 265.928C1.20214 265.872 1.16614 265.792 1.16614 265.688V257.54C1.16614 257.436 1.20214 257.36 1.27414 257.312C1.35414 257.256 1.43814 257.228 1.52614 257.228H5.79814C5.90214 257.228 5.97814 257.268 6.02614 257.348C6.07414 257.42 6.09814 257.5 6.09814 257.588C6.09814 257.684 6.07014 257.772 6.01414 257.852C5.96614 257.924 5.89414 257.96 5.79814 257.96H1.95814V261.26H3.84214C3.93814 261.26 4.01014 261.296 4.05814 261.368C4.11414 261.44 4.14214 261.524 4.14214 261.62C4.14214 261.7 4.11814 261.776 4.07014 261.848C4.02214 261.92 3.94614 261.956 3.84214 261.956H1.95814V265.268H5.79814C5.89414 265.268 5.96614 265.304 6.01414 265.376C6.07014 265.448 6.09814 265.536 6.09814 265.64C6.09814 265.728 6.07414 265.812 6.02614 265.892C5.97814 265.964 5.90214 266 5.79814 266H1.52614ZM9.79189 266.072C9.32789 266.072 8.90389 265.988 8.51989 265.82C8.14389 265.652 7.84389 265.38 7.61989 265.004C7.39589 264.628 7.28389 264.128 7.28389 263.504V259.796C7.28389 259.172 7.39589 258.672 7.61989 258.296C7.84389 257.92 8.14389 257.648 8.51989 257.48C8.90389 257.312 9.33589 257.228 9.81589 257.228C10.2159 257.228 10.5679 257.284 10.8719 257.396C11.1839 257.508 11.4439 257.664 11.6519 257.864C11.8599 258.064 12.0159 258.284 12.1199 258.524C12.2319 258.764 12.2879 259.016 12.2879 259.28C12.2879 259.408 12.2519 259.504 12.1799 259.568C12.1159 259.624 12.0279 259.652 11.9159 259.652C11.8039 259.652 11.7039 259.628 11.6159 259.58C11.5359 259.524 11.4959 259.436 11.4959 259.316C11.4959 259.036 11.4199 258.796 11.2679 258.596C11.1159 258.396 10.9079 258.24 10.6439 258.128C10.3879 258.016 10.1039 257.96 9.79189 257.96C9.25589 257.96 8.83589 258.108 8.53189 258.404C8.23589 258.7 8.08789 259.164 8.08789 259.796V261.62C8.28789 261.34 8.54389 261.14 8.85589 261.02C9.17589 260.892 9.52389 260.828 9.89989 260.828C10.3399 260.828 10.7399 260.9 11.0999 261.044C11.4599 261.188 11.7479 261.436 11.9639 261.788C12.1799 262.132 12.2879 262.608 12.2879 263.216V263.504C12.2879 264.128 12.1759 264.628 11.9519 265.004C11.7279 265.38 11.4279 265.652 11.0519 265.82C10.6839 265.988 10.2639 266.072 9.79189 266.072ZM9.79189 265.364C10.3279 265.364 10.7439 265.216 11.0399 264.92C11.3359 264.624 11.4839 264.164 11.4839 263.54V263.252C11.4839 262.62 11.3359 262.172 11.0399 261.908C10.7439 261.644 10.3279 261.512 9.79189 261.512C9.27189 261.512 8.85589 261.636 8.54389 261.884C8.23989 262.132 8.08789 262.552 8.08789 263.144V263.54C8.08789 264.164 8.23589 264.624 8.53189 264.92C8.83589 265.216 9.25589 265.364 9.79189 265.364ZM13.8305 266C13.7505 266 13.6665 265.972 13.5785 265.916C13.4985 265.86 13.4585 265.784 13.4585 265.688V264.524C13.4585 264.196 13.5545 263.892 13.7465 263.612C13.9465 263.332 14.1985 263.068 14.5025 262.82C14.8065 262.572 15.1305 262.328 15.4745 262.088C15.8265 261.848 16.1545 261.6 16.4585 261.344C16.7705 261.08 17.0225 260.804 17.2145 260.516C17.4145 260.228 17.5145 259.908 17.5145 259.556C17.5145 259.3 17.4545 259.052 17.3345 258.812C17.2145 258.572 17.0345 258.372 16.7945 258.212C16.5625 258.052 16.2625 257.972 15.8945 257.972C15.4865 257.972 15.1425 258.092 14.8625 258.332C14.5825 258.564 14.4425 258.916 14.4425 259.388C14.4425 259.468 14.4065 259.544 14.3345 259.616C14.2625 259.68 14.1585 259.712 14.0225 259.712C13.9025 259.712 13.8105 259.676 13.7465 259.604C13.6905 259.532 13.6625 259.404 13.6625 259.22C13.6625 258.836 13.7625 258.496 13.9625 258.2C14.1625 257.896 14.4305 257.66 14.7665 257.492C15.1105 257.316 15.4945 257.228 15.9185 257.228C16.3825 257.228 16.7905 257.332 17.1425 257.54C17.5025 257.74 17.7865 258.016 17.9945 258.368C18.2025 258.712 18.3065 259.1 18.3065 259.532C18.3065 259.956 18.2065 260.34 18.0065 260.684C17.8145 261.028 17.5665 261.34 17.2625 261.62C16.9585 261.9 16.6345 262.16 16.2905 262.4C15.9465 262.64 15.6225 262.872 15.3185 263.096C15.0145 263.32 14.7625 263.548 14.5625 263.78C14.3705 264.012 14.2745 264.26 14.2745 264.524V265.268H18.1025C18.1825 265.268 18.2505 265.304 18.3065 265.376C18.3625 265.44 18.3905 265.524 18.3905 265.628C18.3905 265.724 18.3625 265.812 18.3065 265.892C18.2505 265.964 18.1825 266 18.1025 266H13.8305Z" fill="#1A1400"/>
</svg>
