<svg width="163" height="193" viewBox="0 0 163 193" fill="none" xmlns="http://www.w3.org/2000/svg">
<path d="M29.3143 191.685C28.8851 161.831 52.9478 122.577 82.8024 122.148C112.657 121.718 136.998 160.276 137.428 190.131M118.365 66.0784C118.632 68.3044 118.787 70.5805 118.82 72.896C119.207 99.8054 103.081 121.856 82.8024 122.148C62.5237 122.439 45.771 100.861 45.3841 73.9517C45.3556 71.9635 45.4171 70.0017 45.5639 68.0733" fill="#E3DBDB"/>
<path d="M118.365 66.0783C118.632 68.3043 118.786 70.5804 118.82 72.8959C119.207 99.8053 103.081 121.856 82.8023 122.148C62.5236 122.439 45.7708 100.861 45.384 73.9516C45.3554 71.9634 45.4169 70.0016 45.5637 68.0732" fill="#FFBB8E"/>
<path d="M0.629408 46.0652L1.71799 121.788C32.7963 149.368 129.989 147.183 160.999 119.498L159.766 42.8768C159.828 56.4246 124.4 68.6475 80.4882 69.2787C36.5768 69.91 0.811182 58.7106 0.603516 44.2642" fill="black" fill-opacity="0.2"/>
<path d="M45.307 37.9228C45.212 31.3102 46.8921 25.0854 49.9063 19.7024C56.0247 8.77563 67.6399 1.31717 81.0625 1.12421C94.5466 0.930368 106.418 8.11796 112.828 18.9467C115.942 24.2079 117.767 30.3285 117.861 36.8798C106.486 42.6066 58.3782 42.8733 45.307 37.9228ZM113.137 18.8918C140.44 22.6497 159.469 31.452 159.621 41.9782L159.766 42.8769C159.828 56.4246 124.4 68.6475 80.4881 69.2788C36.5767 69.9101 0.811086 58.7106 0.60342 44.2642C0.452103 33.738 19.2205 24.3923 46.4045 19.8512" fill="#E3DBDB"/>
<path d="M112.828 18.9469C115.942 24.2081 117.767 30.3287 117.861 36.88C106.486 42.6068 58.3782 42.8735 45.3071 37.923C45.212 31.3104 46.8921 25.0856 49.9063 19.7026" stroke="#C8B7B7" stroke-width="0.521538" stroke-linecap="round"/>
</svg>
