<svg width="31" height="23" viewBox="0 0 31 23" fill="none" xmlns="http://www.w3.org/2000/svg">
<path d="M2.82178 0.160156C1.26904 0.160156 0.00927734 1.43377 0.00927734 3.00356C0.00927734 3.89805 0.425293 4.73923 1.13428 5.27829L13.8843 14.9459C14.5522 15.4494 15.4663 15.4494 16.1343 14.9459L28.8843 5.27829C29.5933 4.73923 30.0093 3.89805 30.0093 3.00356C30.0093 1.43377 28.7495 0.160156 27.1968 0.160156H2.82178ZM0.00927734 6.79477V19.1162C0.00927734 21.2073 1.69092 22.9074 3.75928 22.9074H26.2593C28.3276 22.9074 30.0093 21.2073 30.0093 19.1162V6.79477L17.2593 16.4624C15.9233 17.4753 14.0952 17.4753 12.7593 16.4624L0.00927734 6.79477Z" fill="black"/>
</svg>
