<svg width="29" height="30" viewBox="0 0 29 30" fill="none" xmlns="http://www.w3.org/2000/svg">
<path d="M9.02685 1.55473C8.60577 0.501262 7.49567 -0.0594554 6.43478 0.240727L1.62249 1.60004C0.670967 1.8719 0.00927734 2.76679 0.00927734 3.78627C0.00927734 17.7985 10.9791 29.1602 24.5082 29.1602C25.4925 29.1602 26.3566 28.4748 26.619 27.4893L27.9315 22.5052C28.2213 21.4064 27.6799 20.2566 26.6628 19.8205L21.413 17.555C20.5217 17.1699 19.4881 17.4361 18.8811 18.212L16.6718 21.0043C12.822 19.1182 9.70494 15.8898 7.88393 11.9025L10.5799 9.62C11.3291 8.98565 11.5861 7.92086 11.2143 6.99766L9.02685 1.5604V1.55473Z" fill="black"/>
</svg>
